<svg width="1440" height="1660" viewBox="0 0 1440 1660" fill="none" xmlns="http://www.w3.org/2000/svg">
<path d="M660.765 433.899C656.863 432.808 653.417 430.886 650.567 428.38C640.567 419.588 632.75 405.847 619.918 402.257L578.26 390.602C570.394 388.402 562.256 392.468 555.143 396.455C548.03 400.443 540.317 405.261 538.124 413.101L526.509 454.619C522.931 467.407 530.667 481.193 533.023 494.271C533.695 497.998 533.556 501.929 532.468 505.818C528.606 519.623 514.246 527.673 500.394 523.797C486.542 519.922 478.443 505.589 482.306 491.784C483.394 487.895 485.315 484.463 487.823 481.625C496.624 471.669 510.39 463.899 513.968 451.11L523.231 418.001C526.809 405.212 519.073 391.426 516.717 378.349C516.045 374.621 516.184 370.691 517.272 366.802C521.134 352.996 535.495 344.947 549.346 348.822C553.249 349.914 556.694 351.835 559.545 354.341C569.545 363.134 577.361 376.875 590.194 380.465L623.415 389.759C636.247 393.349 650.059 385.659 663.17 383.332C666.907 382.669 670.85 382.815 674.752 383.907C688.604 387.782 696.702 402.115 692.84 415.92C688.978 429.725 674.617 437.775 660.765 433.899Z" fill="#313131"/>
<path d="M816.59 621.382C820.495 622.475 823.94 624.392 826.791 626.9C836.789 635.694 844.607 649.434 857.439 653.024L899.097 664.679C906.963 666.88 915.101 662.814 922.213 658.824C929.328 654.84 937.04 650.02 939.233 642.18L950.848 600.663C954.426 587.874 946.691 574.087 944.332 561.011C943.664 557.283 943.802 553.352 944.89 549.463C948.752 535.658 963.112 527.608 976.965 531.484C990.817 535.359 998.915 549.692 995.053 563.497C993.965 567.386 992.043 570.818 989.534 573.657C980.736 583.612 966.965 591.382 963.387 604.171L954.124 637.28C950.546 650.069 958.286 663.856 960.64 676.932C961.313 680.66 961.175 684.59 960.086 688.482C956.225 702.283 941.865 710.333 928.012 706.457C924.107 705.365 920.663 703.447 917.812 700.94C907.814 692.146 899.996 678.405 887.164 674.815L853.943 665.521C841.111 661.931 827.298 669.62 814.187 671.949C810.449 672.613 806.51 672.465 802.604 671.372C788.756 667.498 780.654 653.164 784.515 639.362C788.378 625.556 802.742 617.508 816.59 621.382Z" fill="#313131"/>
<path d="M807.649 399.864C806.29 404.723 803.732 408.924 800.38 412.237C790.929 421.582 777.434 429.329 773.856 442.118L760.766 488.906C758.39 497.398 762.825 506.197 767.167 513.887C771.513 521.579 776.765 529.92 785.286 532.304L832.231 545.438C845.063 549.028 858.716 541.557 871.64 538.359C876.224 537.226 881.154 537.225 886.032 538.59C901.037 542.788 909.81 558.315 905.626 573.271C901.442 588.226 885.885 596.947 870.88 592.749C866.002 591.384 861.788 588.826 858.458 585.478C849.069 576.038 841.275 562.567 828.443 558.977L788.822 547.892C775.99 544.302 762.338 551.773 749.413 554.971C744.829 556.104 739.899 556.104 735.022 554.74C720.017 550.542 711.243 535.015 715.427 520.059C716.787 515.2 719.348 511 722.697 507.687C732.147 498.342 745.643 490.595 749.221 477.806L760.268 438.316C763.846 425.527 756.33 411.902 753.101 399.01C751.958 394.439 751.948 389.52 753.308 384.661C757.492 369.706 773.049 360.985 788.054 365.183C803.06 369.382 811.833 384.909 807.649 399.864Z" fill="#313131"/>
<path d="M677.547 655.457C678.906 650.599 681.467 646.399 684.816 643.085C694.266 633.74 707.762 625.993 711.34 613.204L724.43 566.416C726.806 557.923 722.375 549.126 718.029 541.434C713.682 533.743 708.435 525.403 699.909 523.018L652.964 509.884C640.132 506.294 626.48 513.765 613.555 516.963C608.975 518.097 604.041 518.097 599.168 516.733C584.158 512.534 575.385 497.006 579.569 482.051C583.753 467.095 599.31 458.375 614.32 462.574C619.193 463.938 623.411 466.497 626.738 469.844C636.127 479.284 643.92 492.755 656.752 496.345L696.377 507.43C709.209 511.021 722.862 503.55 735.782 500.351C740.366 499.217 745.3 499.218 750.173 500.582C765.179 504.78 773.952 520.307 769.768 535.263C768.409 540.121 765.852 544.323 762.499 547.635C753.049 556.98 739.553 564.727 735.975 577.516L724.927 617.005C721.349 629.794 728.865 643.42 732.094 656.312C733.241 660.884 733.247 665.802 731.888 670.66C727.704 685.616 712.147 694.336 697.141 690.138C682.136 685.94 673.362 670.413 677.547 655.457Z" fill="#313131"/>
<path d="M870.88 592.749C866.002 591.384 861.788 588.826 858.458 585.478C849.069 576.038 841.275 562.567 828.443 558.977L781.498 545.844C772.977 543.46 764.159 547.865 756.453 552.184C748.75 556.505 740.393 561.725 738.017 570.218L724.927 617.005C721.349 629.794 728.865 643.42 732.094 656.312C733.241 660.884 733.247 665.802 731.888 670.66C727.704 685.616 712.147 694.336 697.141 690.138C682.136 685.94 673.362 670.413 677.547 655.457C678.906 650.599 681.467 646.399 684.816 643.085C694.266 633.74 707.762 625.993 711.34 613.204L722.388 573.715C725.966 560.926 718.45 547.3 715.221 534.408C714.078 529.838 714.068 524.917 715.427 520.059C719.612 505.103 735.168 496.384 750.173 500.582C755.051 501.946 759.265 504.505 762.596 507.853C771.985 517.293 779.778 530.763 792.61 534.353L832.231 545.438C845.063 549.028 858.716 541.557 871.64 538.359C876.224 537.226 881.154 537.225 886.032 538.59C901.037 542.788 909.81 558.315 905.626 573.271C901.442 588.226 885.885 596.947 870.88 592.749Z" fill="#313131"/>
<path d="M1023.87 224.005C1022.51 228.864 1019.95 233.064 1016.6 236.378C1007.15 245.722 993.651 253.468 990.073 266.257L976.983 313.046C974.607 321.538 979.042 330.337 983.388 338.028C987.734 345.72 992.982 354.059 1001.5 356.443L1048.45 369.578C1061.28 373.168 1074.94 365.697 1087.86 362.499C1092.44 361.365 1097.38 361.366 1102.25 362.73C1117.25 366.928 1126.03 382.455 1121.84 397.411C1117.66 412.366 1102.1 421.087 1087.1 416.889C1082.22 415.525 1078.01 412.965 1074.67 409.618C1065.29 400.179 1057.5 386.708 1044.66 383.118L1005.04 372.032C992.207 368.442 978.555 375.913 965.63 379.111C961.05 380.245 956.116 380.244 951.243 378.881C936.237 374.683 927.464 359.155 931.648 344.2C933.008 339.341 935.565 335.14 938.918 331.827C948.368 322.482 961.864 314.735 965.441 301.947L976.489 262.457C980.067 249.668 972.551 236.043 969.322 223.151C968.175 218.579 968.169 213.661 969.529 208.802C973.713 193.846 989.27 185.126 1004.28 189.324C1019.28 193.522 1028.05 209.049 1023.87 224.005Z" fill="#313131"/>
<path d="M578.57 587.884C577.211 592.742 574.65 596.942 571.301 600.256C561.851 609.601 548.351 617.347 544.773 630.136L531.683 676.924C529.307 685.417 533.742 694.215 538.089 701.907C542.435 709.598 547.683 717.938 556.204 720.322L603.153 733.457C615.985 737.047 629.637 729.576 642.558 726.377C647.142 725.244 652.076 725.245 656.949 726.608C671.955 730.806 680.728 746.333 676.544 761.289C672.36 776.245 656.803 784.965 641.797 780.767C636.924 779.404 632.706 776.844 629.375 773.496C619.99 764.057 612.197 750.586 599.365 746.996L559.74 735.91C546.908 732.32 533.255 739.791 520.331 742.989C515.751 744.123 510.817 744.123 505.943 742.759C490.938 738.561 482.165 723.034 486.349 708.078C487.708 703.22 490.265 699.019 493.618 695.706C503.068 686.361 516.564 678.614 520.142 665.825L531.19 626.335C534.768 613.547 527.252 599.921 524.023 587.029C522.876 582.457 522.87 577.539 524.229 572.681C528.413 557.725 543.97 549.004 558.976 553.202C573.981 557.401 582.755 572.928 578.57 587.884Z" fill="#313131"/>
<path d="M893.769 479.596C895.129 474.737 897.686 470.536 901.038 467.223C910.489 457.878 923.984 450.131 927.562 437.342L940.652 390.554C943.028 382.061 938.593 373.263 934.247 365.571C929.905 357.881 924.653 349.54 916.132 347.156L869.187 334.022C856.355 330.432 842.702 337.903 829.778 341.101C825.195 342.234 820.262 342.234 815.387 340.87C800.38 336.672 791.607 321.145 795.792 306.189C799.976 291.233 815.532 282.513 830.539 286.711C835.414 288.075 839.631 290.634 842.96 293.982C852.349 303.422 860.143 316.892 872.975 320.482L912.596 331.567C925.428 335.157 939.08 327.686 952.005 324.489C956.585 323.354 961.519 323.355 966.396 324.72C981.402 328.918 990.175 344.445 985.991 359.401C984.632 364.259 982.07 368.459 978.721 371.773C969.271 381.118 955.772 388.864 952.194 401.653L941.146 441.142C937.568 453.931 945.088 467.558 948.317 480.45C949.46 485.021 949.47 489.94 948.111 494.799C943.927 509.754 928.369 518.475 913.364 514.277C898.354 510.077 889.585 494.551 893.769 479.596Z" fill="#313131"/>
<path d="M448.47 843.474C449.829 838.615 452.386 834.414 455.739 831.101C465.189 821.756 478.685 814.009 482.263 801.221L495.353 754.433C497.729 745.94 493.294 737.141 488.948 729.45C484.605 721.76 479.353 713.419 470.832 711.035L423.887 697.901C411.055 694.311 397.403 701.782 384.478 704.979C379.895 706.113 374.962 706.112 370.087 704.749C355.081 700.55 346.308 685.023 350.492 670.067C354.676 655.112 370.233 646.391 385.239 650.59C390.114 651.953 394.331 654.513 397.661 657.86C407.05 667.3 414.843 680.771 427.675 684.361L467.296 695.446C480.128 699.036 493.781 691.565 506.705 688.367C511.285 687.233 516.219 687.234 521.097 688.598C536.102 692.796 544.875 708.323 540.691 723.279C539.332 728.138 536.771 732.338 533.422 735.652C523.972 744.996 510.472 752.742 506.894 765.531L495.846 805.021C492.268 817.81 499.788 831.436 503.017 844.329C504.16 848.899 504.17 853.818 502.811 858.677C498.627 873.632 483.07 882.353 468.064 878.155C453.055 873.956 444.286 858.429 448.47 843.474Z" fill="#313131"/>
<path d="M1087.1 416.889C1082.22 415.525 1078.01 412.965 1074.67 409.618C1065.29 400.179 1057.5 386.708 1044.66 383.118L997.716 369.981C989.195 367.597 980.381 372.003 972.674 376.322C964.968 380.642 956.611 385.861 954.235 394.354L941.146 441.142C937.568 453.931 945.088 467.558 948.317 480.45C949.46 485.021 949.47 489.94 948.111 494.799C943.927 509.754 928.369 518.475 913.364 514.277C898.358 510.079 889.585 494.551 893.769 479.596C895.129 474.737 897.686 470.536 901.038 467.223C910.489 457.878 923.984 450.131 927.562 437.342L938.61 397.852C942.188 385.064 934.672 371.439 931.442 358.546C930.296 353.974 930.289 349.058 931.648 344.2C935.832 329.245 951.39 320.522 966.396 324.72C971.269 326.083 975.487 328.643 978.814 331.989C988.202 341.43 995.996 354.9 1008.83 358.49L1048.45 369.578C1061.28 373.168 1074.94 365.697 1087.86 362.499C1092.44 361.365 1097.38 361.366 1102.25 362.73C1117.25 366.928 1126.03 382.455 1121.84 397.411C1117.66 412.366 1102.1 421.087 1087.1 416.889Z" fill="#313131"/>
<path d="M641.797 780.767C636.924 779.404 632.706 776.844 629.375 773.496C619.99 764.057 612.197 750.586 599.365 746.996L552.416 733.859C543.895 731.475 535.081 735.881 527.375 740.201C519.669 744.52 511.312 749.74 508.936 758.233L495.846 805.021C492.268 817.81 499.788 831.436 503.017 844.329C504.16 848.899 504.17 853.818 502.811 858.677C498.627 873.632 483.07 882.353 468.064 878.155C453.059 873.957 444.285 858.43 448.47 843.474C449.829 838.615 452.386 834.414 455.739 831.101C465.189 821.756 478.685 814.009 482.263 801.221L493.31 761.731C496.888 748.943 489.372 735.317 486.143 722.425C484.996 717.853 484.99 712.937 486.349 708.078C490.533 693.123 506.091 684.4 521.097 688.598C525.97 689.962 530.187 692.521 533.514 695.868C542.903 705.308 550.696 718.779 563.528 722.369L603.153 733.457C615.985 737.047 629.637 729.576 642.558 726.377C647.142 725.244 652.076 725.245 656.949 726.608C671.955 730.806 680.728 746.333 676.544 761.289C672.36 776.245 656.803 784.965 641.797 780.767Z" fill="#313131"/>
<path d="M683.478 335.926C715.76 344.958 749.251 326.109 758.283 293.827C767.314 261.545 748.466 228.054 716.184 219.022C683.902 209.991 650.41 228.839 641.379 261.121C632.347 293.403 651.195 326.894 683.478 335.926Z" fill="#313131"/>
<path d="M779.45 882.749C811.732 891.781 845.223 872.933 854.255 840.651C863.286 808.368 844.438 774.877 812.156 765.846C779.874 756.814 746.383 775.662 737.351 807.944C728.319 840.226 747.168 873.718 779.45 882.749Z" fill="#313131"/>
<path d="M756.738 980.723C752.836 979.631 749.39 977.71 746.54 975.204C736.54 966.411 728.723 952.671 715.891 949.081L674.232 937.426C666.366 935.225 658.229 939.292 651.116 943.279C644.003 947.266 636.29 952.085 634.097 959.924L622.481 1001.44C618.903 1014.23 626.639 1028.02 628.996 1041.09C629.668 1044.82 629.529 1048.75 628.441 1052.64C624.578 1066.45 610.218 1074.5 596.366 1070.62C582.514 1066.75 574.416 1052.41 578.278 1038.61C579.366 1034.72 581.287 1031.29 583.796 1028.45C592.596 1018.49 606.363 1010.72 609.941 997.934L619.204 964.824C622.782 952.036 615.046 938.25 612.689 925.172C612.018 921.445 612.156 917.514 613.244 913.625C617.107 899.82 631.467 891.77 645.319 895.645C649.221 896.737 652.667 898.659 655.517 901.165C665.517 909.958 673.334 923.698 686.166 927.288L719.387 936.582C732.219 940.173 746.032 932.483 759.143 930.156C762.88 929.493 766.822 929.638 770.725 930.73C784.576 934.605 792.675 948.938 788.812 962.744C784.95 976.549 770.59 984.598 756.738 980.723Z" fill="#313131"/>
<path d="M903.622 946.688C902.262 951.547 899.705 955.748 896.352 959.06C886.902 968.405 873.406 976.152 869.828 988.941L856.739 1035.73C854.363 1044.22 858.798 1053.02 863.14 1060.71C867.486 1068.4 872.738 1076.74 881.259 1079.13L928.204 1092.26C941.036 1095.85 954.688 1088.38 967.613 1085.18C972.197 1084.05 977.127 1084.05 982.004 1085.41C997.01 1089.61 1005.78 1105.14 1001.6 1120.09C997.415 1135.05 981.858 1143.77 966.852 1139.57C961.975 1138.21 957.761 1135.65 954.431 1132.3C945.042 1122.86 937.248 1109.39 924.416 1105.8L884.795 1094.72C871.963 1091.13 858.311 1098.6 845.386 1101.79C840.802 1102.93 835.872 1102.93 830.995 1101.56C815.989 1097.37 807.216 1081.84 811.4 1066.88C812.759 1062.02 815.321 1057.82 818.669 1054.51C828.12 1045.17 841.615 1037.42 845.193 1024.63L856.241 985.14C859.819 972.351 852.303 958.725 849.074 945.833C847.931 941.263 847.921 936.343 849.28 931.485C853.464 916.529 869.021 907.809 884.027 912.007C899.032 916.205 907.806 931.732 903.622 946.688Z" fill="#313131"/>
<path d="M773.519 1202.28C774.879 1197.42 777.44 1193.22 780.788 1189.91C790.239 1180.56 803.735 1172.82 807.312 1160.03L820.402 1113.24C822.778 1104.75 818.347 1095.95 814.001 1088.26C809.655 1080.57 804.407 1072.23 795.882 1069.84L748.937 1056.71C736.105 1053.12 722.452 1060.59 709.528 1063.79C704.948 1064.92 700.014 1064.92 695.141 1063.56C680.131 1059.36 671.358 1043.83 675.542 1028.87C679.726 1013.92 695.283 1005.2 710.293 1009.4C715.166 1010.76 719.384 1013.32 722.71 1016.67C732.099 1026.11 739.893 1039.58 752.725 1043.17L792.35 1054.25C805.182 1057.84 818.834 1050.37 831.755 1047.17C836.339 1046.04 841.273 1046.04 846.146 1047.41C861.152 1051.6 869.925 1067.13 865.741 1082.09C864.382 1086.94 861.824 1091.15 858.472 1094.46C849.021 1103.8 835.526 1111.55 831.948 1124.34L820.9 1163.83C817.322 1176.62 824.838 1190.24 828.067 1203.14C829.214 1207.71 829.22 1212.63 827.861 1217.48C823.677 1232.44 808.12 1241.16 793.114 1236.96C778.108 1232.76 769.335 1217.24 773.519 1202.28Z" fill="#313131"/>
<path d="M966.852 1139.57C961.975 1138.21 957.761 1135.65 954.431 1132.3C945.042 1122.86 937.248 1109.39 924.416 1105.8L877.471 1092.67C868.949 1090.28 860.132 1094.69 852.425 1099.01C844.723 1103.33 836.366 1108.55 833.99 1117.04L820.9 1163.83C817.322 1176.62 824.838 1190.24 828.067 1203.14C829.214 1207.71 829.22 1212.63 827.861 1217.48C823.677 1232.44 808.12 1241.16 793.114 1236.96C778.108 1232.76 769.335 1217.24 773.519 1202.28C774.879 1197.42 777.44 1193.22 780.788 1189.91C790.239 1180.56 803.735 1172.82 807.312 1160.03L818.361 1120.54C821.939 1107.75 814.422 1094.12 811.193 1081.23C810.05 1076.66 810.041 1071.74 811.4 1066.88C815.584 1051.93 831.141 1043.21 846.146 1047.41C851.023 1048.77 855.238 1051.33 858.568 1054.68C867.957 1064.12 875.751 1077.59 888.583 1081.18L928.204 1092.26C941.036 1095.85 954.688 1088.38 967.613 1085.18C972.197 1084.05 977.127 1084.05 982.004 1085.41C997.01 1089.61 1005.78 1105.14 1001.6 1120.09C997.415 1135.05 981.858 1143.77 966.852 1139.57Z" fill="#313131"/>
<path d="M1119.84 770.829C1118.48 775.687 1115.92 779.887 1112.57 783.201C1103.12 792.546 1089.62 800.292 1086.05 813.081L1072.96 859.869C1070.58 868.362 1075.01 877.16 1079.36 884.852C1083.71 892.543 1088.95 900.883 1097.48 903.267L1144.43 916.402C1157.26 919.992 1170.91 912.521 1183.83 909.322C1188.41 908.189 1193.35 908.19 1198.22 909.553C1213.23 913.751 1222 929.279 1217.82 944.234C1213.63 959.19 1198.07 967.91 1183.07 963.712C1178.2 962.349 1173.98 959.789 1170.65 956.442C1161.26 947.002 1153.47 933.531 1140.64 929.941L1101.01 918.856C1088.18 915.266 1074.53 922.736 1061.6 925.934C1057.02 927.069 1052.09 927.068 1047.22 925.705C1032.21 921.506 1023.44 905.979 1027.62 891.024C1028.98 886.165 1031.54 881.964 1034.89 878.651C1044.34 869.306 1057.84 861.559 1061.41 848.77L1072.46 809.28C1076.04 796.492 1068.52 782.866 1065.29 769.974C1064.15 765.402 1064.14 760.484 1065.5 755.626C1069.69 740.67 1085.24 731.95 1100.25 736.148C1115.25 740.346 1124.03 755.873 1119.84 770.829Z" fill="#313131"/>
<path d="M674.543 1134.71C673.184 1139.57 670.623 1143.77 667.274 1147.08C657.824 1156.42 644.324 1164.17 640.746 1176.96L627.656 1223.75C625.28 1232.24 629.715 1241.04 634.061 1248.73C638.407 1256.42 643.655 1264.76 652.176 1267.15L699.126 1280.28C711.958 1283.87 725.61 1276.4 738.53 1273.2C743.115 1272.07 748.048 1272.07 752.922 1273.43C767.927 1277.63 776.701 1293.16 772.516 1308.11C768.332 1323.07 752.775 1331.79 737.77 1327.59C732.896 1326.23 728.678 1323.67 725.348 1320.32C715.963 1310.88 708.17 1297.41 695.338 1293.82L655.712 1282.73C642.88 1279.14 629.228 1286.61 616.303 1289.81C611.723 1290.95 606.789 1290.95 601.916 1289.58C586.911 1285.38 578.137 1269.86 582.321 1254.9C583.681 1250.04 586.238 1245.84 589.591 1242.53C599.041 1233.18 612.537 1225.44 616.115 1212.65L627.163 1173.16C630.74 1160.37 623.224 1146.74 619.995 1133.85C618.848 1129.28 618.842 1124.36 620.202 1119.5C624.386 1104.55 639.943 1095.83 654.948 1100.03C669.954 1104.22 678.727 1119.75 674.543 1134.71Z" fill="#313131"/>
<path d="M989.742 1026.42C991.101 1021.56 993.658 1017.36 997.011 1014.05C1006.46 1004.7 1019.96 996.954 1023.53 984.166L1036.62 937.378C1039 928.885 1034.57 920.086 1030.22 912.395C1025.88 904.705 1020.63 896.364 1012.1 893.98L965.159 880.846C952.327 877.256 938.675 884.727 925.75 887.924C921.168 889.058 916.234 889.057 911.359 887.694C896.353 883.495 887.58 867.968 891.764 853.012C895.949 838.057 911.505 829.336 926.511 833.535C931.386 834.899 935.604 837.458 938.933 840.805C948.322 850.245 956.115 863.716 968.947 867.306L1008.57 878.391C1021.4 881.981 1035.05 874.51 1047.98 871.313C1052.56 870.178 1057.49 870.179 1062.37 871.543C1077.37 875.741 1086.15 891.269 1081.96 906.224C1080.6 911.083 1078.04 915.283 1074.69 918.597C1065.24 927.942 1051.74 935.688 1048.17 948.476L1037.12 987.966C1033.54 1000.75 1041.06 1014.38 1044.29 1027.27C1045.43 1031.84 1045.44 1036.76 1044.08 1041.62C1039.9 1056.58 1024.34 1065.3 1009.34 1061.1C994.327 1056.9 985.558 1041.37 989.742 1026.42Z" fill="#313131"/>
<path d="M544.442 1390.3C545.802 1385.44 548.359 1381.24 551.712 1377.93C561.162 1368.58 574.658 1360.83 578.235 1348.04L591.325 1301.26C593.701 1292.76 589.266 1283.96 584.92 1276.27C580.578 1268.58 575.326 1260.24 566.805 1257.86L519.86 1244.72C507.028 1241.13 493.375 1248.61 480.451 1251.8C475.868 1252.94 470.935 1252.94 466.06 1251.57C451.054 1247.37 442.28 1231.85 446.465 1216.89C450.649 1201.94 466.206 1193.21 481.212 1197.41C486.087 1198.78 490.304 1201.34 493.633 1204.68C503.022 1214.12 510.816 1227.59 523.648 1231.18L563.269 1242.27C576.101 1245.86 589.753 1238.39 602.678 1235.19C607.258 1234.06 612.192 1234.06 617.069 1235.42C632.075 1239.62 640.848 1255.15 636.664 1270.1C635.305 1274.96 632.743 1279.16 629.395 1282.48C619.944 1291.82 606.445 1299.57 602.867 1312.35L591.819 1351.84C588.241 1364.63 595.761 1378.26 598.99 1391.15C600.133 1395.72 600.143 1400.64 598.784 1405.5C594.6 1420.46 579.043 1429.18 564.037 1424.98C549.027 1420.78 540.258 1405.25 544.442 1390.3Z" fill="#313131"/>
<path d="M1183.07 963.712C1178.2 962.349 1173.98 959.789 1170.65 956.442C1161.26 947.002 1153.47 933.531 1140.64 929.941L1093.69 916.805C1085.17 914.421 1076.35 918.826 1068.65 923.146C1060.94 927.465 1052.58 932.685 1050.21 941.178L1037.12 987.966C1033.54 1000.75 1041.06 1014.38 1044.29 1027.27C1045.43 1031.84 1045.44 1036.76 1044.08 1041.62C1039.9 1056.58 1024.34 1065.3 1009.34 1061.1C994.331 1056.9 985.558 1041.37 989.742 1026.42C991.101 1021.56 993.658 1017.36 997.011 1014.05C1006.46 1004.7 1019.96 996.954 1023.53 984.166L1034.58 944.676C1038.16 931.888 1030.64 918.262 1027.42 905.37C1026.27 900.798 1026.26 895.882 1027.62 891.024C1031.81 876.068 1047.36 867.345 1062.37 871.543C1067.24 872.907 1071.46 875.467 1074.79 878.813C1084.18 888.253 1091.97 901.724 1104.8 905.314L1144.43 916.402C1157.26 919.992 1170.91 912.521 1183.83 909.322C1188.41 908.189 1193.35 908.19 1198.22 909.553C1213.23 913.751 1222 929.279 1217.82 944.234C1213.63 959.19 1198.07 967.91 1183.07 963.712Z" fill="#313131"/>
<path d="M737.77 1327.59C732.896 1326.23 728.678 1323.67 725.348 1320.32C715.963 1310.88 708.17 1297.41 695.338 1293.82L648.389 1280.68C639.868 1278.3 631.054 1282.7 623.348 1287.02C615.641 1291.34 607.284 1296.56 604.908 1305.06L591.819 1351.84C588.241 1364.63 595.761 1378.26 598.99 1391.15C600.133 1395.72 600.143 1400.64 598.784 1405.5C594.6 1420.46 579.043 1429.18 564.037 1424.98C549.031 1420.78 540.258 1405.25 544.442 1390.3C545.802 1385.44 548.359 1381.24 551.712 1377.93C561.162 1368.58 574.658 1360.83 578.235 1348.04L589.283 1308.55C592.861 1295.77 585.345 1282.14 582.116 1269.25C580.969 1264.68 580.962 1259.76 582.321 1254.9C586.506 1239.95 602.064 1231.22 617.069 1235.42C621.942 1236.79 626.16 1239.35 629.487 1242.69C638.875 1252.13 646.669 1265.6 659.501 1269.19L699.126 1280.28C711.958 1283.87 725.61 1276.4 738.53 1273.2C743.115 1272.07 748.048 1272.07 752.922 1273.43C767.927 1277.63 776.701 1293.16 772.516 1308.11C768.332 1323.07 752.775 1331.79 737.77 1327.59Z" fill="#313131"/>
<path d="M779.45 882.75C811.732 891.781 845.224 872.933 854.255 840.651C863.287 808.369 844.438 774.877 812.156 765.846C779.874 756.814 746.383 775.662 737.351 807.945C728.32 840.227 747.168 873.718 779.45 882.75Z" fill="#313131"/>
<path d="M912.563 1168.21C916.468 1169.3 919.912 1171.22 922.763 1173.72C932.762 1182.52 940.579 1196.26 953.412 1199.85L995.07 1211.5C1002.94 1213.7 1011.07 1209.64 1018.19 1205.65C1025.3 1201.66 1033.01 1196.84 1035.21 1189L1046.82 1147.49C1050.4 1134.7 1042.66 1120.91 1040.3 1107.83C1039.64 1104.11 1039.77 1100.18 1040.86 1096.29C1044.72 1082.48 1059.08 1074.43 1072.94 1078.31C1086.79 1082.18 1094.89 1096.52 1091.03 1110.32C1089.94 1114.21 1088.02 1117.64 1085.51 1120.48C1076.71 1130.44 1062.94 1138.21 1059.36 1150.99L1050.1 1184.1C1046.52 1196.89 1054.26 1210.68 1056.61 1223.76C1059.19 1233.56 1029.14 1243.85 1013.78 1247.76C1003.79 1238.97 995.969 1225.23 983.137 1221.64L949.915 1212.34C937.083 1208.75 923.27 1216.44 910.16 1218.77C906.422 1219.44 902.482 1219.29 898.577 1218.2C884.729 1214.32 876.626 1199.99 880.488 1186.19C884.35 1172.38 898.714 1164.33 912.563 1168.21Z" fill="#313131"/>
<path d="M1317.87 564.348C1318.97 560.424 1321.04 557.031 1323.74 554.355C1331.37 546.806 1342.28 540.549 1345.17 530.219L1355.74 492.425C1357.66 485.566 1354.08 478.459 1350.57 472.247C1347.06 466.034 1342.82 459.298 1335.93 457.371L1298.01 446.762C1287.65 443.862 1276.62 449.897 1266.18 452.48C1262.48 453.396 1258.5 453.396 1254.56 452.295C1242.44 448.903 1235.35 436.36 1238.73 424.28C1242.11 412.2 1254.67 405.156 1266.8 408.548C1270.73 409.649 1274.14 411.717 1276.83 414.42C1284.41 422.045 1290.71 432.926 1301.07 435.826L1333.08 444.78C1343.44 447.68 1354.47 441.646 1364.91 439.062C1368.61 438.146 1372.6 438.147 1376.53 439.248C1388.65 442.639 1395.74 455.181 1392.36 467.262C1391.26 471.186 1389.2 474.58 1386.49 477.255C1378.86 484.804 1367.95 491.061 1365.06 501.392L1356.14 533.289C1353.25 543.619 1359.32 554.625 1361.93 565.039C1362.86 568.731 1362.86 572.704 1361.76 576.629C1358.38 588.709 1345.82 595.753 1333.7 592.362C1321.58 588.971 1314.49 576.429 1317.87 564.348Z" fill="#313131"/>
<path d="M1237.92 509.766C1236.82 513.69 1234.76 517.083 1232.05 519.76C1224.42 527.308 1213.51 533.565 1210.62 543.895L1200.05 581.688C1198.13 588.548 1201.71 595.655 1205.22 601.868C1208.73 608.08 1212.97 614.817 1219.86 616.742L1257.78 627.352C1268.14 630.252 1279.17 624.217 1289.61 621.634C1293.31 620.718 1297.3 620.719 1301.23 621.82C1313.35 625.211 1320.44 637.753 1317.06 649.834C1313.68 661.914 1301.11 668.958 1288.99 665.567C1285.06 664.466 1281.65 662.398 1278.96 659.694C1271.38 652.069 1265.08 641.188 1254.72 638.289L1222.71 629.334C1212.35 626.434 1201.32 632.469 1190.88 635.052C1187.18 635.968 1183.19 635.968 1179.26 634.866C1167.14 631.475 1160.05 618.933 1163.43 606.853C1164.53 602.928 1166.59 599.535 1169.3 596.859C1176.94 589.311 1187.84 583.053 1190.73 572.723L1199.65 540.825C1202.54 530.495 1196.47 519.489 1193.86 509.076C1192.93 505.383 1192.93 501.41 1194.03 497.486C1197.41 485.405 1209.97 478.361 1222.09 481.752C1234.21 485.143 1241.3 497.686 1237.92 509.766Z" fill="#313131"/>
<path d="M1132.83 716.218C1133.93 712.293 1136 708.9 1138.71 706.224C1146.34 698.676 1157.24 692.418 1160.13 682.088L1170.7 644.295C1172.62 637.435 1169.04 630.328 1165.53 624.115C1162.02 617.904 1157.78 611.166 1150.9 609.241L1112.98 598.632C1102.61 595.732 1091.58 601.767 1081.14 604.35C1077.44 605.265 1073.46 605.265 1069.52 604.163C1057.4 600.772 1050.31 588.23 1053.69 576.15C1057.07 564.069 1069.64 557.025 1081.76 560.416C1085.7 561.518 1089.1 563.585 1091.79 566.289C1099.38 573.914 1105.67 584.795 1116.04 587.695L1148.04 596.649C1158.41 599.549 1169.43 593.514 1179.87 590.931C1183.57 590.015 1187.56 590.016 1191.5 591.118C1203.62 594.509 1210.7 607.051 1207.33 619.131C1206.23 623.056 1204.16 626.448 1201.45 629.125C1193.82 636.673 1182.92 642.93 1180.03 653.26L1171.1 685.158C1168.21 695.488 1174.29 706.495 1176.89 716.908C1177.82 720.6 1177.83 724.574 1176.73 728.498C1173.35 740.578 1160.78 747.623 1148.66 744.232C1136.54 740.84 1129.45 728.298 1132.83 716.218Z" fill="#313131"/>
<path d="M1288.99 665.567C1285.06 664.466 1281.65 662.398 1278.96 659.694C1271.38 652.069 1265.08 641.188 1254.72 638.289L1216.8 627.677C1209.91 625.752 1202.79 629.311 1196.57 632.8C1190.34 636.288 1183.59 640.505 1181.67 647.365L1171.1 685.158C1168.21 695.488 1174.29 706.495 1176.89 716.908C1177.82 720.6 1177.83 724.574 1176.73 728.498C1173.35 740.578 1160.78 747.623 1148.66 744.232C1136.54 740.841 1129.45 728.299 1132.83 716.218C1133.93 712.293 1136 708.9 1138.71 706.224C1146.34 698.676 1157.24 692.418 1160.13 682.088L1169.05 650.19C1171.94 639.861 1165.87 628.855 1163.26 618.441C1162.34 614.748 1162.33 610.777 1163.43 606.853C1166.81 594.773 1179.38 587.727 1191.5 591.118C1195.43 592.219 1198.84 594.287 1201.53 596.99C1209.11 604.615 1215.41 615.496 1225.77 618.396L1257.78 627.352C1268.14 630.252 1279.17 624.217 1289.61 621.634C1293.31 620.718 1297.3 620.719 1301.23 621.82C1313.35 625.211 1320.44 637.753 1317.06 649.834C1313.68 661.914 1301.11 668.958 1288.99 665.567Z" fill="#313131"/>
<path d="M1400.18 747.943C1426.26 755.238 1453.31 740.013 1460.6 713.937C1467.9 687.862 1452.68 660.809 1426.6 653.514C1400.52 646.219 1373.47 661.443 1366.18 687.519C1358.88 713.595 1374.11 740.647 1400.18 747.943Z" fill="#313131"/>
<path d="M1190.38 386.929C1216.45 394.224 1243.51 378.999 1250.8 352.923C1258.1 326.848 1242.87 299.795 1216.8 292.5C1190.72 285.205 1163.67 300.429 1156.37 326.505C1149.08 352.581 1164.3 379.633 1190.38 386.929Z" fill="#313131"/>
<path d="M1381.84 827.08C1378.68 826.198 1375.9 824.646 1373.6 822.622C1365.52 815.52 1359.21 804.421 1348.84 801.521L1315.19 792.107C1308.84 790.33 1302.27 793.614 1296.52 796.835C1290.77 800.056 1284.54 803.948 1282.77 810.28L1273.39 843.816C1270.5 854.146 1276.75 865.281 1278.65 875.845C1279.2 878.856 1279.08 882.031 1278.2 885.172C1275.08 896.323 1263.49 902.825 1252.3 899.695C1241.11 896.565 1234.57 884.987 1237.69 873.836C1238.56 870.695 1240.12 867.923 1242.14 865.631C1249.25 857.588 1260.37 851.312 1263.26 840.982L1270.74 814.238C1273.63 803.908 1267.38 792.773 1265.48 782.209C1264.94 779.199 1265.05 776.024 1265.93 772.882C1269.05 761.731 1280.65 755.229 1291.84 758.359C1294.99 759.241 1297.77 760.793 1300.08 762.817C1308.15 769.92 1314.47 781.019 1324.83 783.919L1351.67 791.426C1362.03 794.326 1373.19 788.115 1383.78 786.235C1386.8 785.7 1389.98 785.817 1393.13 786.699C1404.32 789.829 1410.86 801.406 1407.74 812.558C1404.62 823.709 1393.02 830.211 1381.84 827.08Z" fill="#313131"/>
<path d="M1507.7 978.519C1510.86 979.401 1513.64 980.95 1515.94 982.976C1524.02 990.079 1530.33 1001.18 1540.7 1004.08L1574.35 1013.49C1580.7 1015.27 1587.27 1011.99 1593.02 1008.76C1598.77 1005.54 1605 1001.65 1606.77 995.318L1616.15 961.783C1619.04 951.453 1612.79 940.317 1610.89 929.754C1610.35 926.743 1610.46 923.568 1611.34 920.426C1614.46 909.275 1626.06 902.773 1637.24 905.904C1648.43 909.034 1654.98 920.611 1651.86 931.762C1650.98 934.904 1649.42 937.676 1647.4 939.969C1640.29 948.01 1629.17 954.286 1626.28 964.616L1618.8 991.36C1615.91 1001.69 1622.16 1012.83 1624.06 1023.39C1624.6 1026.4 1624.49 1029.57 1623.61 1032.72C1620.49 1043.87 1608.89 1050.37 1597.7 1047.24C1594.55 1046.36 1591.77 1044.81 1589.46 1042.78C1581.39 1035.68 1575.07 1024.58 1564.71 1021.68L1537.87 1014.17C1527.51 1011.27 1516.35 1017.48 1505.76 1019.36C1502.74 1019.9 1499.56 1019.78 1496.41 1018.9C1485.22 1015.77 1478.68 1004.19 1481.79 993.042C1484.91 981.89 1496.52 975.389 1507.7 978.519Z" fill="#313131"/>
<path d="M1500.48 799.589C1499.38 803.513 1497.32 806.907 1494.61 809.582C1486.98 817.131 1476.07 823.388 1473.18 833.719L1462.61 871.511C1460.69 878.371 1464.27 885.479 1467.78 891.69C1471.29 897.903 1475.53 904.64 1482.42 906.566L1520.34 917.175C1530.7 920.075 1541.73 914.04 1552.17 911.457C1555.87 910.542 1559.85 910.541 1563.79 911.643C1575.91 915.034 1583 927.577 1579.62 939.657C1576.24 951.737 1563.68 958.781 1551.55 955.39C1547.62 954.288 1544.21 952.221 1541.52 949.517C1533.94 941.892 1527.64 931.011 1517.28 928.111L1485.27 919.158C1474.91 916.258 1463.88 922.292 1453.44 924.875C1449.74 925.791 1445.76 925.791 1441.82 924.689C1429.7 921.298 1422.61 908.756 1425.99 896.675C1427.09 892.751 1429.16 889.358 1431.86 886.682C1439.49 879.133 1450.4 872.876 1453.29 862.546L1462.21 830.648C1465.1 820.318 1459.03 809.312 1456.42 798.898C1455.5 795.207 1455.49 791.233 1456.59 787.309C1459.97 775.228 1472.53 768.184 1484.65 771.575C1496.77 774.966 1503.86 787.508 1500.48 799.589Z" fill="#313131"/>
<path d="M1395.39 1006.04C1396.49 1002.12 1398.56 998.726 1401.26 996.049C1408.9 988.501 1419.8 982.243 1422.69 971.913L1433.26 934.12C1435.18 927.26 1431.6 920.154 1428.09 913.941C1424.58 907.729 1420.34 900.992 1413.45 899.065L1375.53 888.457C1365.17 885.557 1354.14 891.591 1343.7 894.175C1340 895.091 1336.02 895.09 1332.08 893.989C1319.96 890.597 1312.87 878.055 1316.25 865.975C1319.63 853.894 1332.2 846.85 1344.32 850.242C1348.26 851.344 1351.66 853.411 1354.35 856.114C1361.93 863.739 1368.23 874.62 1378.59 877.52L1410.6 886.475C1420.97 889.375 1431.99 883.34 1442.43 880.756C1446.13 879.841 1450.12 879.842 1454.05 880.943C1466.18 884.334 1473.26 896.876 1469.88 908.956C1468.78 912.881 1466.72 916.274 1464.01 918.95C1456.38 926.498 1445.48 932.756 1442.59 943.086L1433.66 974.984C1430.77 985.314 1436.84 996.32 1439.45 1006.73C1440.38 1010.43 1440.38 1014.4 1439.28 1018.32C1435.91 1030.4 1423.34 1037.45 1411.22 1034.06C1399.1 1030.67 1392.01 1018.12 1395.39 1006.04Z" fill="#313131"/>
<path d="M1551.55 955.39C1547.62 954.288 1544.21 952.221 1541.52 949.517C1533.94 941.892 1527.64 931.011 1517.28 928.111L1479.36 917.503C1472.47 915.578 1465.35 919.136 1459.13 922.624C1452.91 926.115 1446.16 930.331 1444.24 937.191L1433.66 974.984C1430.77 985.314 1436.84 996.32 1439.45 1006.73C1440.38 1010.43 1440.38 1014.4 1439.28 1018.32C1435.91 1030.4 1423.34 1037.45 1411.22 1034.06C1399.1 1030.67 1392.01 1018.12 1395.39 1006.04C1396.49 1002.12 1398.56 998.726 1401.26 996.049C1408.9 988.501 1419.8 982.243 1422.69 971.913L1431.61 940.016C1434.5 929.686 1428.43 918.68 1425.82 908.266C1424.9 904.574 1424.89 900.6 1425.99 896.675C1429.37 884.595 1441.93 877.552 1454.05 880.943C1457.99 882.045 1461.4 884.112 1464.09 886.816C1471.67 894.441 1477.97 905.322 1488.33 908.222L1520.34 917.175C1530.7 920.075 1541.73 914.04 1552.17 911.457C1555.87 910.542 1559.85 910.541 1563.79 911.643C1575.91 915.034 1583 927.577 1579.62 939.657C1576.24 951.737 1563.68 958.781 1551.55 955.39Z" fill="#313131"/>
<path d="M1675.13 657.539C1674.03 661.464 1671.97 664.856 1669.26 667.533C1661.63 675.081 1650.72 681.338 1647.83 691.668L1637.26 729.461C1635.34 736.321 1638.92 743.428 1642.43 749.641C1645.94 755.853 1650.18 762.59 1657.07 764.516L1694.99 775.125C1705.35 778.025 1716.38 771.99 1726.82 769.407C1730.52 768.491 1734.51 768.492 1738.44 769.593C1750.56 772.984 1757.65 785.526 1754.27 797.607C1750.89 809.687 1738.32 816.731 1726.2 813.34C1722.27 812.239 1718.86 810.171 1716.17 807.467C1708.59 799.843 1702.29 788.962 1691.93 786.062L1659.92 777.107C1649.56 774.207 1638.53 780.242 1628.09 782.825C1624.39 783.741 1620.4 783.741 1616.47 782.639C1604.35 779.248 1597.26 766.706 1600.64 754.626C1601.74 750.702 1603.8 747.308 1606.51 744.632C1614.15 737.084 1625.05 730.826 1627.94 720.496L1636.86 688.598C1639.75 678.268 1633.68 667.262 1631.07 656.849C1630.14 653.156 1630.14 649.183 1631.24 645.259C1634.62 633.179 1647.18 626.135 1659.3 629.526C1671.43 632.917 1678.51 645.459 1675.13 657.539Z" fill="#313131"/>
<path d="M1315.44 951.46C1314.35 955.385 1312.28 958.777 1309.57 961.454C1301.94 969.002 1291.03 975.259 1288.14 985.589L1277.57 1023.38C1275.65 1030.24 1279.23 1037.35 1282.74 1043.56C1286.25 1049.77 1290.49 1056.51 1297.38 1058.44L1335.3 1069.05C1345.66 1071.95 1356.69 1065.91 1367.13 1063.33C1370.83 1062.41 1374.82 1062.41 1378.75 1063.51C1390.87 1066.91 1397.96 1079.45 1394.58 1091.53C1391.2 1103.61 1378.63 1110.65 1366.51 1107.26C1362.58 1106.16 1359.17 1104.09 1356.48 1101.39C1348.9 1093.76 1342.6 1082.88 1332.24 1079.98L1300.23 1071.03C1289.87 1068.13 1278.84 1074.16 1268.4 1076.75C1264.7 1077.66 1260.72 1077.66 1256.78 1076.56C1244.66 1073.17 1237.57 1060.63 1240.95 1048.55C1242.05 1044.62 1244.12 1041.23 1246.82 1038.55C1254.46 1031 1265.36 1024.75 1268.25 1014.42L1277.17 982.52C1280.06 972.19 1273.99 961.184 1271.38 950.77C1270.46 947.077 1270.45 943.105 1271.55 939.18C1274.93 927.1 1287.5 920.056 1299.62 923.447C1311.74 926.838 1318.82 939.38 1315.44 951.46Z" fill="#313131"/>
<path d="M1570.04 863.991C1571.14 860.067 1573.21 856.673 1575.92 853.997C1583.55 846.449 1594.45 840.191 1597.34 829.861L1607.91 792.068C1609.83 785.208 1606.25 778.101 1602.74 771.888C1599.23 765.677 1594.99 758.94 1588.11 757.014L1550.19 746.405C1539.82 743.505 1528.79 749.54 1518.35 752.123C1514.65 753.038 1510.67 753.038 1506.73 751.936C1494.61 748.545 1487.52 736.003 1490.9 723.923C1494.28 711.842 1506.85 704.798 1518.97 708.19C1522.91 709.291 1526.31 711.358 1529 714.062C1536.59 721.687 1542.88 732.568 1553.25 735.468L1585.25 744.422C1595.62 747.322 1606.64 741.287 1617.08 738.705C1620.78 737.788 1624.77 737.789 1628.71 738.891C1640.83 742.282 1647.92 754.824 1644.54 766.904C1643.44 770.829 1641.37 774.221 1638.66 776.898C1631.03 784.446 1620.13 790.703 1617.24 801.033L1608.31 832.931C1605.42 843.261 1611.5 854.268 1614.1 864.681C1615.03 868.373 1615.04 872.347 1613.94 876.271C1610.56 888.352 1597.99 895.396 1585.87 892.005C1573.75 888.613 1566.66 876.071 1570.04 863.991Z" fill="#313131"/>
<path d="M1210.35 1157.91C1211.45 1153.99 1213.52 1150.59 1216.23 1147.92C1223.86 1140.37 1234.76 1134.11 1237.65 1123.78L1248.22 1085.99C1250.14 1079.13 1246.56 1072.02 1243.05 1065.81C1239.54 1059.6 1235.3 1052.86 1228.42 1050.94L1190.5 1040.33C1180.13 1037.43 1169.11 1043.46 1158.67 1046.04C1154.96 1046.96 1150.98 1046.96 1147.04 1045.86C1134.92 1042.47 1127.83 1029.92 1131.21 1017.84C1134.59 1005.76 1147.16 998.72 1159.28 1002.11C1163.22 1003.21 1166.63 1005.28 1169.31 1007.98C1176.9 1015.61 1183.19 1026.49 1193.56 1029.39L1225.56 1038.34C1235.93 1041.24 1246.95 1035.21 1257.39 1032.63C1261.09 1031.71 1265.08 1031.71 1269.02 1032.81C1281.14 1036.2 1288.23 1048.75 1284.85 1060.83C1283.75 1064.75 1281.68 1068.14 1278.97 1070.82C1271.34 1078.37 1260.44 1084.62 1257.55 1094.95L1248.62 1126.85C1245.73 1137.18 1251.81 1148.19 1254.42 1158.6C1255.34 1162.29 1255.35 1166.27 1254.25 1170.19C1250.87 1182.27 1238.3 1189.32 1226.18 1185.93C1214.06 1182.53 1206.98 1169.99 1210.35 1157.91Z" fill="#313131"/>
<path d="M1726.2 813.34C1722.27 812.239 1718.86 810.171 1716.17 807.467C1708.59 799.843 1702.29 788.962 1691.93 786.062L1654.01 775.451C1647.12 773.525 1640 777.084 1633.78 780.573C1627.55 784.062 1620.8 788.278 1618.88 795.138L1608.31 832.931C1605.42 843.261 1611.5 854.268 1614.1 864.681C1615.03 868.373 1615.04 872.347 1613.94 876.271C1610.56 888.352 1597.99 895.396 1585.87 892.005C1573.75 888.614 1566.66 876.072 1570.04 863.991C1571.14 860.067 1573.21 856.673 1575.92 853.997C1583.55 846.449 1594.45 840.191 1597.34 829.861L1606.26 797.964C1609.15 787.634 1603.08 776.628 1600.47 766.214C1599.55 762.521 1599.54 758.55 1600.64 754.626C1604.02 742.546 1616.59 735.5 1628.71 738.891C1632.64 739.992 1636.05 742.06 1638.74 744.763C1646.32 752.388 1652.62 763.269 1662.98 766.169L1694.99 775.125C1705.35 778.025 1716.38 771.99 1726.82 769.407C1730.52 768.491 1734.51 768.492 1738.44 769.593C1750.56 772.984 1757.65 785.526 1754.27 797.607C1750.89 809.687 1738.32 816.731 1726.2 813.34Z" fill="#313131"/>
<path d="M1366.51 1107.26C1362.58 1106.16 1359.17 1104.09 1356.48 1101.39C1348.9 1093.76 1342.6 1082.88 1332.24 1079.98L1294.32 1069.37C1287.43 1067.45 1280.32 1071 1274.09 1074.49C1267.87 1077.98 1261.12 1082.2 1259.2 1089.06L1248.62 1126.85C1245.73 1137.18 1251.81 1148.19 1254.42 1158.6C1255.34 1162.29 1255.35 1166.27 1254.25 1170.19C1250.87 1182.27 1238.3 1189.32 1226.18 1185.93C1214.06 1182.53 1206.98 1169.99 1210.35 1157.91C1211.45 1153.99 1213.52 1150.59 1216.23 1147.92C1223.86 1140.37 1234.76 1134.11 1237.65 1123.78L1246.57 1091.88C1249.46 1081.56 1243.39 1070.55 1240.79 1060.14C1239.86 1056.44 1239.85 1052.47 1240.95 1048.55C1244.33 1036.47 1256.9 1029.42 1269.02 1032.81C1272.96 1033.91 1276.36 1035.98 1279.05 1038.68C1286.63 1046.31 1292.93 1057.19 1303.29 1060.09L1335.3 1069.05C1345.66 1071.95 1356.69 1065.91 1367.13 1063.33C1370.83 1062.41 1374.82 1062.41 1378.75 1063.51C1390.87 1066.91 1397.96 1079.45 1394.58 1091.53C1391.2 1103.61 1378.63 1110.65 1366.51 1107.26Z" fill="#313131"/>
<path d="M1400.18 747.943C1426.26 755.238 1453.31 740.013 1460.6 713.938C1467.9 687.862 1452.68 660.809 1426.6 653.514C1400.52 646.219 1373.47 661.444 1366.18 687.519C1358.88 713.595 1374.11 740.648 1400.18 747.943Z" fill="#313131"/>
<path d="M1477.7 1189.64C1503.78 1196.93 1530.83 1181.71 1538.13 1155.63C1545.42 1129.56 1530.2 1102.5 1504.12 1095.21C1478.05 1087.91 1450.99 1103.14 1443.7 1129.21C1436.4 1155.29 1451.63 1182.34 1477.7 1189.64Z" fill="#313131"/>
<path d="M49.7696 645.221C46.253 644.237 43.1479 642.505 40.5793 640.247C31.5674 632.324 24.5233 619.941 12.9595 616.706L-24.5816 606.203C-31.6701 604.22 -39.0032 607.885 -45.4133 611.478C-51.8235 615.071 -58.7739 619.413 -60.7504 626.478L-71.2178 663.892C-74.4421 675.417 -67.4705 687.84 -65.3472 699.625C-64.7418 702.984 -64.867 706.527 -65.8474 710.031C-69.328 722.472 -82.2687 729.726 -94.7517 726.234C-107.234 722.741 -114.532 709.825 -111.052 697.384C-110.071 693.88 -108.34 690.787 -106.08 688.23C-98.149 679.257 -85.743 672.255 -82.5187 660.731L-74.1712 630.894C-70.947 619.369 -77.9185 606.946 -80.0418 595.161C-80.6472 591.802 -80.5221 588.26 -79.5416 584.755C-76.061 572.314 -63.1199 565.06 -50.6373 568.552C-47.1207 569.536 -44.0156 571.268 -41.447 573.526C-32.4352 581.45 -25.391 593.832 -13.8272 597.067L16.1105 605.443C27.6743 608.678 40.1213 601.749 51.9367 599.652C55.3042 599.054 58.8571 599.185 62.3737 600.169C74.8564 603.661 82.1544 616.578 78.6739 629.019C75.1933 641.459 62.2523 648.713 49.7696 645.221Z" fill="#313131"/>
<path d="M190.193 814.174C193.712 815.158 196.816 816.886 199.385 819.146C208.396 827.071 215.441 839.453 227.005 842.688L264.545 853.191C271.634 855.174 278.968 851.511 285.377 847.915C291.788 844.324 298.738 839.981 300.714 832.916L311.182 795.502C314.406 783.977 307.435 771.553 305.31 759.769C304.707 756.41 304.832 752.867 305.812 749.363C309.293 736.922 322.234 729.668 334.717 733.16C347.2 736.653 354.498 749.569 351.018 762.01C350.037 765.515 348.305 768.607 346.044 771.165C338.115 780.137 325.706 787.139 322.481 798.663L314.134 828.5C310.91 840.025 317.884 852.45 320.006 864.233C320.612 867.593 320.488 871.134 319.507 874.641C316.027 887.079 303.086 894.333 290.603 890.84C287.084 889.856 283.98 888.128 281.411 885.868C272.4 877.943 265.355 865.561 253.792 862.325L223.854 853.95C212.29 850.715 199.842 857.644 188.028 859.742C184.659 860.341 181.109 860.207 177.59 859.223C165.11 855.731 157.809 842.814 161.288 830.376C164.769 817.935 177.713 810.682 190.193 814.174Z" fill="#313131"/>
<path d="M182.136 614.55C180.911 618.928 178.606 622.714 175.585 625.699C167.069 634.121 154.907 641.102 151.683 652.627L139.886 694.791C137.745 702.444 141.742 710.373 145.655 717.303C149.572 724.234 154.304 731.751 161.983 733.899L204.288 745.735C215.852 748.97 228.155 742.238 239.802 739.356C243.933 738.335 248.376 738.334 252.771 739.564C266.294 743.347 274.2 757.34 270.429 770.817C266.659 784.295 252.639 792.153 239.117 788.37C234.722 787.14 230.924 784.835 227.923 781.818C219.462 773.311 212.439 761.172 200.875 757.936L165.17 747.947C153.606 744.712 141.303 751.445 129.656 754.326C125.525 755.347 121.082 755.348 116.687 754.118C103.165 750.335 95.2584 736.342 99.029 722.865C100.254 718.486 102.562 714.701 105.58 711.715C114.096 703.294 126.258 696.313 129.482 684.788L139.438 649.201C142.662 637.676 135.889 625.398 132.979 613.779C131.949 609.661 131.94 605.228 133.165 600.849C136.936 587.372 150.955 579.513 164.478 583.297C178 587.08 185.906 601.072 182.136 614.55Z" fill="#313131"/>
<path d="M64.8922 844.881C66.1171 840.503 68.4253 836.718 71.443 833.731C79.9593 825.31 92.1211 818.329 95.3454 806.804L107.142 764.64C109.283 756.987 105.29 749.059 101.373 742.128C97.4564 735.197 92.7273 727.681 85.0446 725.531L42.7394 713.696C31.1756 710.46 18.8726 717.193 7.22542 720.075C3.09807 721.097 -1.34824 721.096 -5.73988 719.868C-19.266 716.084 -27.1721 702.091 -23.4016 688.613C-19.6309 675.136 -5.6115 667.277 7.91458 671.062C12.3062 672.29 16.1074 674.597 19.105 677.613C27.566 686.12 34.5892 698.259 46.153 701.494L81.8617 711.485C93.4255 714.72 105.728 707.987 117.372 705.105C121.503 704.083 125.949 704.084 130.341 705.313C143.863 709.096 151.77 723.088 147.999 736.566C146.774 740.944 144.469 744.73 141.448 747.715C132.932 756.137 120.77 763.118 117.546 774.643L107.59 810.23C104.365 821.754 111.139 834.033 114.049 845.651C115.082 849.771 115.088 854.203 113.863 858.581C110.092 872.059 96.0727 879.917 82.5503 876.134C69.0278 872.351 61.1216 858.358 64.8922 844.881Z" fill="#313131"/>
<path d="M239.117 788.37C234.722 787.14 230.924 784.835 227.923 781.818C219.462 773.311 212.439 761.172 200.875 757.936L158.569 746.102C150.89 743.953 142.944 747.923 136 751.815C129.058 755.709 121.527 760.412 119.386 768.066L107.59 810.23C104.365 821.754 111.139 834.033 114.049 845.651C115.082 849.771 115.088 854.203 113.863 858.581C110.092 872.059 96.0727 879.917 82.5503 876.134C69.0278 872.351 61.1216 858.358 64.8922 844.881C66.1171 840.503 68.4253 836.718 71.443 833.731C79.9593 825.31 92.1211 818.329 95.3454 806.804L105.302 771.217C108.526 759.693 101.753 747.414 98.8427 735.796C97.8128 731.677 97.8041 727.243 99.029 722.865C102.8 709.387 116.818 701.53 130.341 705.313C134.736 706.542 138.534 708.848 141.535 711.865C149.996 720.372 157.019 732.511 168.583 735.747L204.288 745.735C215.852 748.97 228.155 742.238 239.802 739.356C243.933 738.335 248.376 738.334 252.771 739.564C266.294 743.347 274.2 757.34 270.429 770.817C266.659 784.295 252.639 792.153 239.117 788.37Z" fill="#313131"/>
<path d="M376.986 456.072C375.761 460.45 373.453 464.235 370.435 467.222C361.919 475.643 349.754 482.623 346.529 494.148L334.733 536.312C332.592 543.965 336.589 551.894 340.505 558.825C344.422 565.757 349.151 573.272 356.83 575.42L399.139 587.257C410.703 590.492 423.006 583.76 434.649 580.877C438.78 579.856 443.227 579.857 447.618 581.085C461.141 584.869 469.047 598.861 465.276 612.339C461.506 625.816 447.486 633.675 433.964 629.892C429.572 628.663 425.771 626.356 422.77 623.339C414.312 614.833 407.289 602.694 395.726 599.458L360.017 589.468C348.453 586.233 336.15 592.966 324.503 595.847C320.375 596.869 315.929 596.869 311.537 595.64C298.015 591.857 290.109 577.864 293.879 564.387C295.104 560.009 297.409 556.223 300.43 553.237C308.947 544.816 321.108 537.835 324.333 526.31L334.289 490.723C337.513 479.198 330.74 466.92 327.83 455.302C326.796 451.182 326.791 446.75 328.016 442.371C331.786 428.894 345.806 421.035 359.328 424.819C372.851 428.602 380.757 442.594 376.986 456.072Z" fill="#313131"/>
<path d="M-24.3016 783.986C-25.5265 788.364 -27.8346 792.149 -30.8524 795.136C-39.3686 803.557 -51.534 810.537 -54.7583 822.062L-66.5545 864.226C-68.6957 871.879 -64.699 879.808 -60.7823 886.739C-56.8657 893.671 -52.1366 901.186 -44.4576 903.334L-2.1487 915.171C9.41509 918.406 21.718 911.674 33.3615 908.791C37.4926 907.77 41.9388 907.771 46.3305 908.999C59.853 912.783 67.7591 926.775 63.9885 940.253C60.218 953.73 46.1985 961.589 32.676 957.806C28.2844 956.577 24.4833 954.27 21.4819 951.253C13.0247 942.747 6.00152 930.608 -5.56226 927.372L-41.271 917.382C-52.8348 914.147 -65.1377 920.88 -76.785 923.761C-80.9123 924.783 -85.3587 924.783 -89.7503 923.554C-103.273 919.771 -111.179 905.778 -107.408 892.301C-106.183 887.923 -103.879 884.137 -100.858 881.151C-92.3412 872.73 -80.1795 865.749 -76.9553 854.224L-66.9991 818.637C-63.7748 807.112 -70.5482 794.834 -73.4581 783.216C-74.4917 779.096 -74.497 774.664 -73.2721 770.285C-69.5015 756.808 -55.482 748.949 -41.9596 752.733C-28.4371 756.516 -20.531 770.508 -24.3016 783.986Z" fill="#313131"/>
<path d="M259.744 686.401C260.969 682.022 263.274 678.236 266.295 675.251C274.811 666.83 286.973 659.848 290.197 648.323L301.993 606.16C304.135 598.506 300.138 590.577 296.221 583.646C292.308 576.716 287.576 569.2 279.896 567.051L237.591 555.215C226.027 551.98 213.725 558.713 202.077 561.594C197.947 562.616 193.502 562.615 189.109 561.386C175.586 557.603 167.679 543.61 171.45 530.133C175.221 516.655 189.24 508.797 202.763 512.58C207.156 513.809 210.957 516.116 213.957 519.132C222.418 527.639 229.441 539.779 241.005 543.014L276.71 553.003C288.274 556.238 300.577 549.506 312.224 546.624C316.351 545.602 320.798 545.603 325.193 546.832C338.715 550.615 346.621 564.608 342.851 578.086C341.626 582.464 339.318 586.249 336.3 589.235C327.784 597.656 315.618 604.637 312.394 616.161L302.438 651.748C299.214 663.273 305.991 675.553 308.901 687.171C309.931 691.29 309.94 695.722 308.715 700.101C304.944 713.578 290.925 721.437 277.402 717.654C263.876 713.87 255.974 699.878 259.744 686.401Z" fill="#313131"/>
<path d="M-141.544 1014.31C-140.319 1009.94 -138.014 1006.15 -134.993 1003.17C-126.477 994.744 -114.315 987.762 -111.09 976.237L-99.2944 934.074C-97.1532 926.42 -101.15 918.491 -105.066 911.56C-108.98 904.63 -113.712 897.114 -121.391 894.965L-163.697 883.129C-175.26 879.894 -187.563 886.627 -199.21 889.508C-203.34 890.53 -207.786 890.529 -212.179 889.3C-225.702 885.517 -233.608 871.524 -229.837 858.047C-226.067 844.569 -212.048 836.711 -198.525 840.494C-194.131 841.723 -190.331 844.03 -187.331 847.046C-178.87 855.553 -171.847 867.693 -160.283 870.928L-124.578 880.917C-113.014 884.152 -100.711 877.42 -89.0639 874.538C-84.9365 873.516 -80.4902 873.517 -76.0949 874.746C-62.5725 878.529 -54.6663 892.522 -58.4369 906C-59.6618 910.378 -61.9699 914.163 -64.9877 917.149C-73.504 925.57 -85.6694 932.551 -88.8936 944.076L-98.8497 979.662C-102.074 991.187 -95.297 1003.47 -92.3871 1015.08C-91.3572 1019.2 -91.3481 1023.64 -92.5731 1028.02C-96.3437 1041.49 -110.363 1049.35 -123.886 1045.57C-137.412 1041.78 -145.314 1027.79 -141.544 1014.31Z" fill="#313131"/>
<path d="M433.964 629.892C429.572 628.663 425.771 626.356 422.77 623.339C414.312 614.833 407.289 602.694 395.726 599.458L353.417 587.62C345.738 585.472 337.796 589.442 330.851 593.335C323.906 597.227 316.375 601.931 314.234 609.584L302.438 651.748C299.214 663.273 305.991 675.553 308.901 687.171C309.931 691.29 309.94 695.722 308.715 700.101C304.944 713.578 290.925 721.437 277.402 717.654C263.88 713.871 255.973 699.878 259.744 686.401C260.969 682.022 263.274 678.236 266.295 675.251C274.811 666.83 286.973 659.848 290.197 648.323L300.153 612.737C303.377 601.212 296.604 588.934 293.694 577.315C292.66 573.195 292.655 568.765 293.879 564.387C297.65 550.91 311.67 543.049 325.193 546.832C329.584 548.061 333.385 550.368 336.383 553.383C344.844 561.891 351.867 574.03 363.431 577.265L399.139 587.257C410.703 590.492 423.006 583.76 434.649 580.877C438.78 579.856 443.227 579.857 447.618 581.085C461.141 584.869 469.047 598.861 465.276 612.339C461.506 625.816 447.486 633.675 433.964 629.892Z" fill="#313131"/>
<path d="M32.676 957.806C28.2844 956.577 24.4833 954.27 21.4819 951.253C13.0247 942.747 6.00152 930.608 -5.56226 927.372L-47.8707 915.534C-55.5497 913.386 -63.4922 917.356 -70.437 921.249C-77.3818 925.141 -84.9127 929.845 -87.0539 937.498L-98.8497 979.662C-102.074 991.187 -95.297 1003.47 -92.3871 1015.08C-91.3572 1019.2 -91.3481 1023.64 -92.5731 1028.02C-96.3437 1041.49 -110.363 1049.35 -123.886 1045.57C-137.408 1041.78 -145.314 1027.79 -141.544 1014.31C-140.319 1009.94 -138.014 1006.15 -134.993 1003.17C-126.477 994.744 -114.315 987.762 -111.09 976.237L-101.135 940.651C-97.9106 929.126 -104.684 916.848 -107.594 905.229C-108.627 901.11 -108.633 896.679 -107.408 892.301C-103.638 878.824 -89.6174 870.963 -76.0949 874.746C-71.7033 875.975 -67.9025 878.282 -64.9048 881.297C-56.4439 889.805 -49.4208 901.944 -37.857 905.179L-2.1487 915.171C9.41509 918.406 21.718 911.674 33.3615 908.791C37.4926 907.77 41.9388 907.771 46.3305 908.999C59.853 912.783 67.7591 926.775 63.9885 940.253C60.218 953.73 46.1985 961.589 32.676 957.806Z" fill="#313131"/>
<path d="M70.2369 556.931C99.3284 565.07 129.51 548.084 137.648 518.993C145.787 489.901 128.802 459.72 99.7105 451.581C70.619 443.442 40.4378 460.428 32.2989 489.519C24.16 518.611 41.1454 548.792 70.2369 556.931Z" fill="#313131"/>
<path d="M156.724 1049.71C185.815 1057.85 215.996 1040.86 224.135 1011.77C232.274 982.679 215.289 952.498 186.197 944.359C157.106 936.22 126.925 953.205 118.786 982.297C110.647 1011.39 127.632 1041.57 156.724 1049.71Z" fill="#313131"/>
<path d="M136.256 1138C132.74 1137.01 129.635 1135.28 127.066 1133.02C118.054 1125.1 111.01 1112.72 99.4463 1109.48L61.9052 1098.98C54.8167 1097 47.4836 1100.66 41.0735 1104.26C34.6634 1107.85 27.7129 1112.19 25.7365 1119.26L15.269 1156.67C12.0448 1168.19 19.0163 1180.62 21.1396 1192.4C21.745 1195.76 21.6198 1199.3 20.6394 1202.81C17.1588 1215.25 4.2181 1222.5 -8.26493 1219.01C-20.7476 1215.52 -28.0457 1202.6 -24.5651 1190.16C-23.5847 1186.66 -21.8534 1183.56 -19.5929 1181.01C-11.6622 1172.03 0.743794 1165.03 3.96808 1153.51L12.3156 1123.67C15.5398 1112.15 8.56835 1099.72 6.44501 1087.94C5.83959 1084.58 5.96468 1081.04 6.9452 1077.53C10.4258 1065.09 23.3669 1057.84 35.8496 1061.33C39.3661 1062.31 42.4713 1064.05 45.0399 1066.3C54.0517 1074.23 61.0958 1086.61 72.6596 1089.85L102.597 1098.22C114.161 1101.46 126.608 1094.53 138.423 1092.43C141.791 1091.83 145.344 1091.96 148.861 1092.95C161.343 1096.44 168.641 1109.36 165.161 1121.8C161.68 1134.24 148.739 1141.49 136.256 1138Z" fill="#313131"/>
<path d="M276.68 1306.95C280.199 1307.94 283.303 1309.66 285.872 1311.92C294.883 1319.85 301.928 1332.23 313.491 1335.47L351.032 1345.97C358.121 1347.95 365.455 1344.29 371.863 1340.69C378.275 1337.1 385.225 1332.76 387.201 1325.69L397.669 1288.28C400.893 1276.75 393.922 1264.33 391.796 1252.55C391.194 1249.19 391.319 1245.65 392.299 1242.14C395.78 1229.7 408.72 1222.45 421.204 1225.94C433.687 1229.43 440.985 1242.35 437.504 1254.79C436.524 1258.29 434.792 1261.39 432.53 1263.94C424.602 1272.91 412.192 1279.92 408.968 1291.44L400.621 1321.28C397.396 1332.8 404.371 1345.23 406.493 1357.01C407.099 1360.37 406.975 1363.91 405.994 1367.42C402.514 1379.86 389.573 1387.11 377.09 1383.62C373.571 1382.63 370.467 1380.91 367.898 1378.65C358.887 1370.72 351.842 1358.34 340.278 1355.1L310.341 1346.73C298.777 1343.49 286.329 1350.42 274.515 1352.52C271.146 1353.12 267.596 1352.98 264.077 1352C251.597 1348.51 244.296 1335.59 247.775 1323.15C251.256 1310.71 264.2 1303.46 276.68 1306.95Z" fill="#313131"/>
<path d="M268.622 1107.33C267.398 1111.71 265.093 1115.49 262.072 1118.48C253.555 1126.9 241.394 1133.88 238.169 1145.4L226.373 1187.57C224.232 1195.22 228.229 1203.15 232.142 1210.08C236.058 1217.01 240.791 1224.53 248.47 1226.68L290.775 1238.51C302.339 1241.75 314.642 1235.02 326.289 1232.13C330.42 1231.11 334.863 1231.11 339.258 1232.34C352.781 1236.12 360.687 1250.12 356.916 1263.59C353.146 1277.07 339.126 1284.93 325.604 1281.15C321.208 1279.92 317.411 1277.61 314.41 1274.6C305.949 1266.09 298.926 1253.95 287.362 1250.71L251.657 1240.72C240.093 1237.49 227.79 1244.22 216.143 1247.1C212.012 1248.13 207.569 1248.13 203.174 1246.9C189.651 1243.11 181.745 1229.12 185.516 1215.64C186.741 1211.26 189.049 1207.48 192.067 1204.49C200.583 1196.07 212.745 1189.09 215.969 1177.57L225.925 1141.98C229.149 1130.45 222.376 1118.18 219.466 1106.56C218.436 1102.44 218.427 1098.01 219.652 1093.63C223.423 1080.15 237.442 1072.29 250.964 1076.07C264.487 1079.86 272.393 1093.85 268.622 1107.33Z" fill="#313131"/>
<path d="M151.379 1337.66C152.604 1333.28 154.912 1329.5 157.93 1326.51C166.446 1318.09 178.608 1311.11 181.832 1299.58L193.628 1257.42C195.77 1249.76 191.777 1241.84 187.86 1234.91C183.943 1227.97 179.214 1220.46 171.531 1218.31L129.226 1206.47C117.662 1203.24 105.359 1209.97 93.7122 1212.85C89.5849 1213.87 85.1386 1213.87 80.7469 1212.65C67.2209 1208.86 59.3147 1194.87 63.0853 1181.39C66.8559 1167.91 80.8753 1160.05 94.4014 1163.84C98.793 1165.07 102.594 1167.37 105.592 1170.39C114.053 1178.9 121.076 1191.04 132.64 1194.27L168.349 1204.26C179.912 1207.5 192.215 1200.76 203.859 1197.88C207.99 1196.86 212.436 1196.86 216.828 1198.09C230.35 1201.87 238.256 1215.87 234.486 1229.34C233.261 1233.72 230.956 1237.51 227.935 1240.49C219.419 1248.91 207.257 1255.9 204.033 1267.42L194.077 1303.01C190.852 1314.53 197.626 1326.81 200.536 1338.43C201.569 1342.55 201.575 1346.98 200.35 1351.36C196.579 1364.84 182.56 1372.69 169.037 1368.91C155.515 1365.13 147.608 1351.14 151.379 1337.66Z" fill="#313131"/>
<path d="M325.604 1281.15C321.208 1279.92 317.411 1277.61 314.41 1274.6C305.949 1266.09 298.926 1253.95 287.362 1250.71L245.056 1238.88C237.377 1236.73 229.431 1240.7 222.486 1244.59C215.545 1248.49 208.014 1253.19 205.873 1260.84L194.077 1303.01C190.852 1314.53 197.626 1326.81 200.536 1338.43C201.569 1342.55 201.575 1346.98 200.35 1351.36C196.579 1364.84 182.56 1372.69 169.037 1368.91C155.515 1365.13 147.608 1351.14 151.379 1337.66C152.604 1333.28 154.912 1329.5 157.93 1326.51C166.446 1318.09 178.608 1311.11 181.832 1299.58L191.789 1264C195.013 1252.47 188.24 1240.19 185.33 1228.57C184.3 1224.45 184.291 1220.02 185.516 1215.64C189.286 1202.16 203.305 1194.31 216.828 1198.09C221.223 1199.32 225.021 1201.63 228.022 1204.64C236.483 1213.15 243.506 1225.29 255.07 1228.52L290.775 1238.51C302.339 1241.75 314.642 1235.02 326.289 1232.13C330.42 1231.11 334.863 1231.11 339.258 1232.34C352.781 1236.12 360.687 1250.12 356.916 1263.59C353.146 1277.07 339.126 1284.93 325.604 1281.15Z" fill="#313131"/>
<path d="M463.473 948.849C462.248 953.228 459.94 957.013 456.922 959.999C448.406 968.42 436.241 975.401 433.016 986.925L421.22 1029.09C419.079 1036.74 423.076 1044.67 426.992 1051.6C430.909 1058.53 435.638 1066.05 443.317 1068.2L485.626 1080.03C497.19 1083.27 509.493 1076.54 521.136 1073.65C525.267 1072.63 529.713 1072.63 534.105 1073.86C547.628 1077.65 555.534 1091.64 551.763 1105.12C547.993 1118.59 533.973 1126.45 520.451 1122.67C516.059 1121.44 512.258 1119.13 509.257 1116.12C500.799 1107.61 493.776 1095.47 482.212 1092.24L446.504 1082.25C434.94 1079.01 422.637 1085.74 410.99 1088.62C406.862 1089.65 402.416 1089.65 398.024 1088.42C384.502 1084.63 376.596 1070.64 380.366 1057.16C381.591 1052.79 383.896 1049 386.917 1046.01C395.433 1037.59 407.595 1030.61 410.819 1019.09L420.775 983.501C424 971.976 417.226 959.697 414.316 948.079C413.283 943.959 413.278 939.527 414.503 935.149C418.273 921.671 432.293 913.813 445.815 917.596C459.338 921.379 467.244 935.372 463.473 948.849Z" fill="#313131"/>
<path d="M62.1853 1276.76C60.9603 1281.14 58.6522 1284.93 55.6344 1287.91C47.1182 1296.33 34.9528 1303.31 31.7285 1314.84L19.9323 1357C17.7911 1364.66 21.7878 1372.59 25.7045 1379.52C29.6211 1386.45 34.3502 1393.96 42.0292 1396.11L84.3381 1407.95C95.9019 1411.18 108.205 1404.45 119.848 1401.57C123.979 1400.55 128.426 1400.55 132.817 1401.78C146.34 1405.56 154.246 1419.55 150.475 1433.03C146.705 1446.51 132.685 1454.37 119.163 1450.58C114.771 1449.35 110.97 1447.05 107.969 1444.03C99.5115 1435.52 92.4883 1423.39 80.9246 1420.15L45.2158 1410.16C33.652 1406.92 21.3491 1413.66 9.70184 1416.54C5.57449 1417.56 1.12814 1417.56 -3.2635 1416.33C-16.786 1412.55 -24.6921 1398.56 -20.9215 1385.08C-19.6966 1380.7 -17.3921 1376.91 -14.3707 1373.93C-5.85439 1365.51 6.30737 1358.53 9.53154 1347L19.4877 1311.41C22.712 1299.89 15.9386 1287.61 13.0287 1275.99C11.9951 1271.87 11.9898 1267.44 13.2147 1263.06C16.9853 1249.59 31.0048 1241.73 44.5272 1245.51C58.0497 1249.29 65.9559 1263.29 62.1853 1276.76Z" fill="#313131"/>
<path d="M346.231 1179.18C347.456 1174.8 349.76 1171.01 352.782 1168.03C361.298 1159.61 373.46 1152.63 376.684 1141.1L388.48 1098.94C390.621 1091.28 386.625 1083.36 382.708 1076.42C378.795 1069.49 374.062 1061.98 366.383 1059.83L324.078 1047.99C312.514 1044.76 300.211 1051.49 288.564 1054.37C284.434 1055.39 279.989 1055.39 275.596 1054.16C262.072 1050.38 254.166 1036.39 257.937 1022.91C261.708 1009.43 275.727 1001.57 289.25 1005.36C293.643 1006.59 297.444 1008.89 300.444 1011.91C308.905 1020.42 315.928 1032.56 327.492 1035.79L363.197 1045.78C374.761 1049.02 387.064 1042.28 398.711 1039.4C402.838 1038.38 407.284 1038.38 411.68 1039.61C425.202 1043.39 433.108 1057.39 429.338 1070.86C428.113 1075.24 425.805 1079.03 422.787 1082.01C414.271 1090.43 402.105 1097.41 398.881 1108.94L388.925 1144.53C385.701 1156.05 392.478 1168.33 395.387 1179.95C396.417 1184.07 396.426 1188.5 395.201 1192.88C391.431 1206.36 377.411 1214.21 363.889 1210.43C350.363 1206.65 342.46 1192.66 346.231 1179.18Z" fill="#313131"/>
<path d="M-55.0569 1507.09C-53.8319 1502.71 -51.5275 1498.93 -48.5061 1495.94C-39.9897 1487.52 -27.828 1480.54 -24.6037 1469.01L-12.8076 1426.85C-10.6664 1419.2 -14.663 1411.27 -18.5796 1404.34C-22.4927 1397.41 -27.2255 1389.89 -34.9045 1387.74L-77.2098 1375.91C-88.7736 1372.67 -101.076 1379.4 -112.724 1382.29C-116.853 1383.31 -121.299 1383.31 -125.692 1382.08C-139.215 1378.29 -147.122 1364.3 -143.351 1350.82C-139.58 1337.35 -125.561 1329.49 -112.038 1333.27C-107.645 1334.5 -103.844 1336.81 -100.844 1339.82C-92.383 1348.33 -85.3599 1360.47 -73.7961 1363.71L-38.091 1373.69C-26.5272 1376.93 -14.2242 1370.2 -2.57708 1367.32C1.55036 1366.29 5.99663 1366.29 10.3919 1367.52C23.9144 1371.31 31.8205 1385.3 28.0499 1398.78C26.825 1403.16 24.5169 1406.94 21.4991 1409.93C12.9828 1418.35 0.817461 1425.33 -2.40683 1436.85L-12.3628 1472.44C-15.5871 1483.96 -8.81016 1496.24 -5.90029 1507.86C-4.87037 1511.98 -4.86132 1516.41 -6.08632 1520.79C-9.85684 1534.27 -23.8764 1542.13 -37.3988 1538.35C-50.9249 1534.56 -58.8274 1520.57 -55.0569 1507.09Z" fill="#313131"/>
<path d="M520.451 1122.67C516.059 1121.44 512.258 1119.13 509.257 1116.12C500.799 1107.61 493.776 1095.47 482.212 1092.24L439.904 1080.4C432.225 1078.25 424.282 1082.22 417.338 1086.11C410.393 1090 402.862 1094.71 400.721 1102.36L388.925 1144.53C385.701 1156.05 392.478 1168.33 395.387 1179.95C396.417 1184.07 396.426 1188.5 395.201 1192.88C391.431 1206.36 377.411 1214.21 363.889 1210.43C350.366 1206.65 342.46 1192.66 346.231 1179.18C347.456 1174.8 349.76 1171.01 352.782 1168.03C361.298 1159.61 373.46 1152.63 376.684 1141.1L386.64 1105.51C389.864 1093.99 383.091 1081.71 380.181 1070.09C379.147 1065.97 379.141 1061.54 380.366 1057.16C384.137 1043.69 398.157 1035.83 411.68 1039.61C416.071 1040.84 419.872 1043.15 422.87 1046.16C431.331 1054.67 438.354 1066.81 449.918 1070.04L485.626 1080.03C497.19 1083.27 509.493 1076.54 521.136 1073.65C525.267 1072.63 529.713 1072.63 534.105 1073.86C547.628 1077.65 555.534 1091.64 551.763 1105.12C547.993 1118.59 533.973 1126.45 520.451 1122.67Z" fill="#313131"/>
<path d="M119.163 1450.58C114.771 1449.35 110.97 1447.05 107.969 1444.03C99.5115 1435.52 92.4883 1423.39 80.9246 1420.15L38.6161 1408.31C30.9371 1406.16 22.9946 1410.13 16.0498 1414.03C9.10505 1417.92 1.57415 1422.62 -0.567065 1430.28L-12.3628 1472.44C-15.5871 1483.96 -8.81016 1496.24 -5.90029 1507.86C-4.87037 1511.98 -4.86132 1516.41 -6.08632 1520.79C-9.85684 1534.27 -23.8764 1542.13 -37.3988 1538.35C-50.9213 1534.56 -58.8275 1520.57 -55.0569 1507.09C-53.8319 1502.71 -51.5275 1498.93 -48.5061 1495.94C-39.9897 1487.52 -27.828 1480.54 -24.6037 1469.01L-14.648 1433.43C-11.4238 1421.9 -18.1972 1409.63 -21.107 1398.01C-22.1406 1393.89 -22.1464 1389.46 -20.9215 1385.08C-17.151 1371.6 -3.13059 1363.74 10.3919 1367.52C14.7835 1368.75 18.5843 1371.06 21.582 1374.07C30.0429 1382.58 37.066 1394.72 48.6298 1397.96L84.3381 1407.95C95.9019 1411.18 108.205 1404.45 119.848 1401.57C123.979 1400.55 128.426 1400.55 132.817 1401.78C146.34 1405.56 154.246 1419.55 150.475 1433.03C146.705 1446.51 132.685 1454.37 119.163 1450.58Z" fill="#313131"/>
<path d="M156.724 1049.71C185.815 1057.85 215.996 1040.86 224.135 1011.77C232.274 982.679 215.289 952.498 186.197 944.359C157.106 936.22 126.925 953.205 118.786 982.297C110.647 1011.39 127.632 1041.57 156.724 1049.71Z" fill="#313131"/>
<path d="M243.211 1542.49C272.302 1550.62 302.483 1533.64 310.622 1504.55C318.761 1475.46 301.776 1445.28 272.684 1437.14C243.593 1429 213.411 1445.98 205.273 1475.07C197.134 1504.17 214.119 1534.35 243.211 1542.49Z" fill="#313131"/>
<path d="M-69.5747 1422.55C-365.485 1199.34 -477.919 600.198 -192.088 381.693C-82.3726 297.98 30.6623 308.521 145.359 319.022C269.203 330.306 394.922 341.67 520.37 233.231C832.156 -35.7644 1104.94 91.2643 1319.49 359.727C1480.47 561.172 1568.58 693.217 1655.95 854.28C1792.05 1105.1 1689.75 1161.16 1571.48 1190.2C1453.21 1219.25 1224.53 1096.02 761.562 1379.17C298.594 1662.31 91.287 1543.88 -69.5747 1422.55Z" fill="url(#paint0_linear)" fill-opacity="0.2"/>
<defs>
<linearGradient id="paint0_linear" x1="-4.74048" y1="331.753" x2="1311.74" y2="1422.11" gradientUnits="userSpaceOnUse">
<stop stop-color="#0FBDE9"/>
<stop offset="0.0001" stop-color="#0FBDE9"/>
<stop offset="0.864583" stop-color="#5C34FA"/>
</linearGradient>
</defs>
</svg>
