<svg width="1440" height="1593" viewBox="0 0 1440 1593" fill="none" xmlns="http://www.w3.org/2000/svg">
<path d="M862.297 1209.92C866.172 1211.11 869.57 1213.11 872.36 1215.69C882.147 1224.72 889.632 1238.64 902.374 1242.54L943.741 1255.19C951.552 1257.57 959.785 1253.7 966.991 1249.89C974.198 1246.07 982.024 1241.44 984.404 1233.66L997.012 1192.43C1000.89 1179.73 993.491 1165.76 991.449 1152.63C990.867 1148.89 991.1 1144.96 992.281 1141.1C996.473 1127.39 1011.02 1119.69 1024.78 1123.9C1038.53 1128.1 1046.28 1142.62 1042.09 1156.33C1040.91 1160.19 1038.91 1163.58 1036.33 1166.36C1027.3 1176.1 1013.35 1183.54 1009.46 1196.24L999.41 1229.11C995.527 1241.81 1002.93 1255.78 1004.97 1268.91C1005.55 1272.65 1005.32 1276.58 1004.14 1280.44C999.949 1294.15 985.4 1301.85 971.645 1297.65C967.77 1296.46 964.371 1294.46 961.582 1291.89C951.795 1282.86 944.31 1268.93 931.568 1265.03L898.579 1254.95C885.837 1251.05 871.844 1258.41 858.681 1260.42C854.929 1260.99 850.991 1260.75 847.116 1259.57C833.361 1255.36 825.609 1240.84 829.801 1227.13C833.993 1213.42 848.542 1205.72 862.297 1209.92Z" fill="#313131"/>
<path d="M711.01 1018.76C707.132 1017.57 703.735 1015.57 700.945 1013C691.16 1003.97 683.674 990.045 670.931 986.148L629.565 973.499C621.753 971.11 613.52 974.979 606.315 978.798C599.107 982.611 591.282 987.244 588.901 995.029L576.294 1036.26C572.41 1048.96 579.813 1062.92 581.858 1076.05C582.437 1079.8 582.204 1083.72 581.023 1087.58C576.831 1101.29 562.283 1109 548.527 1104.79C534.771 1100.58 527.019 1086.06 531.211 1072.35C532.392 1068.49 534.396 1065.1 536.972 1062.33C546.007 1052.59 559.959 1045.15 563.843 1032.45L573.897 999.571C577.78 986.872 570.373 972.902 568.333 959.774C567.75 956.031 567.981 952.106 569.163 948.241C573.354 934.536 587.903 926.833 601.659 931.039C605.536 932.225 608.934 934.225 611.724 936.8C621.509 945.831 628.995 959.755 641.737 963.651L674.726 973.739C687.468 977.636 701.462 970.28 714.624 968.266C718.377 967.692 722.312 967.934 726.19 969.12C739.941 973.325 747.698 987.849 743.507 1001.55C739.315 1015.26 724.762 1022.97 711.01 1018.76Z" fill="#313131"/>
<path d="M714.64 1240.43C716.115 1235.6 718.772 1231.47 722.203 1228.23C731.875 1219.12 745.552 1211.7 749.436 1199L763.643 1152.54C766.222 1144.1 761.999 1135.2 757.843 1127.41C753.682 1119.62 748.632 1111.15 740.17 1108.56L693.553 1094.31C680.811 1090.41 666.983 1097.55 653.986 1100.44C649.376 1101.46 644.448 1101.35 639.604 1099.86C624.704 1095.31 616.305 1079.57 620.846 1064.72C625.388 1049.87 641.149 1041.53 656.05 1046.08C660.893 1047.57 665.045 1050.22 668.294 1053.65C677.454 1063.31 684.922 1076.97 697.665 1080.86L737.009 1092.89C749.751 1096.79 763.578 1089.65 776.576 1086.76C781.186 1085.74 786.114 1085.86 790.957 1087.34C805.858 1091.89 814.257 1107.63 809.715 1122.48C808.24 1127.3 805.579 1131.44 802.152 1134.67C792.48 1143.79 778.803 1151.21 774.919 1163.91L762.928 1203.12C759.045 1215.82 766.232 1229.62 769.151 1242.59C770.184 1247.19 770.076 1252.11 768.601 1256.93C764.06 1271.78 748.298 1280.13 733.398 1275.57C718.497 1271.01 710.098 1255.28 714.64 1240.43Z" fill="#313131"/>
<path d="M850.83 988.027C849.355 992.852 846.694 996.989 843.267 1000.22C833.595 1009.34 819.918 1016.76 816.034 1029.46L801.827 1075.92C799.248 1084.35 803.467 1093.25 807.627 1101.05C811.788 1108.84 816.834 1117.3 825.3 1119.89L871.917 1134.15C884.659 1138.04 898.487 1130.9 911.484 1128.02C916.09 1126.99 921.023 1127.11 925.862 1128.59C940.766 1133.15 949.165 1148.88 944.624 1163.73C940.082 1178.58 924.321 1186.93 909.416 1182.37C904.577 1180.89 900.421 1178.23 897.176 1174.81C888.016 1165.14 880.548 1151.49 867.805 1147.59L828.457 1135.56C815.715 1131.66 801.888 1138.81 788.894 1141.69C784.284 1142.72 779.352 1142.6 774.513 1141.12C759.612 1136.56 751.213 1120.83 755.755 1105.98C757.23 1101.15 759.887 1097.01 763.318 1093.78C772.99 1084.67 786.667 1077.25 790.551 1064.55L802.542 1025.33C806.425 1012.63 799.238 998.831 796.319 985.865C795.282 981.268 795.394 976.351 796.869 971.526C801.41 956.675 817.172 948.33 832.072 952.887C846.973 957.443 855.372 973.176 850.83 988.027Z" fill="#313131"/>
<path d="M656.05 1046.08C660.893 1047.57 665.045 1050.22 668.294 1053.65C677.454 1063.31 684.922 1076.97 697.665 1080.86L744.282 1095.12C752.743 1097.71 761.664 1093.51 769.472 1089.38C777.276 1085.24 785.755 1080.23 788.334 1071.79L802.542 1025.33C806.425 1012.63 799.238 998.831 796.319 985.865C795.282 981.268 795.394 976.351 796.869 971.526C801.41 956.675 817.172 948.33 832.072 952.887C846.973 957.443 855.372 973.176 850.83 988.027C849.355 992.852 846.694 996.989 843.267 1000.22C833.595 1009.34 819.918 1016.76 816.034 1029.46L804.043 1068.67C800.159 1081.37 807.347 1095.17 810.266 1108.14C811.299 1112.74 811.191 1117.65 809.715 1122.48C805.174 1137.33 789.413 1145.67 774.513 1141.12C769.669 1139.64 765.517 1136.98 762.268 1133.55C753.108 1123.89 745.64 1110.24 732.897 1106.34L693.553 1094.31C680.811 1090.41 666.983 1097.55 653.986 1100.44C649.376 1101.46 644.448 1101.35 639.604 1099.86C624.704 1095.31 616.305 1079.57 620.846 1064.72C625.388 1049.87 641.149 1041.53 656.05 1046.08Z" fill="#313131"/>
<path d="M494.266 1411.06C495.741 1406.23 498.403 1402.09 501.83 1398.86C511.501 1389.75 525.183 1382.33 529.066 1369.63L543.274 1323.16C545.853 1314.73 541.63 1305.83 537.469 1298.04C533.309 1290.24 528.262 1281.78 519.8 1279.19L473.18 1264.94C460.437 1261.04 446.61 1268.18 433.616 1271.07C429.006 1272.09 424.074 1271.97 419.235 1270.49C404.334 1265.94 395.935 1250.2 400.477 1235.35C405.018 1220.5 420.78 1212.16 435.68 1216.71C440.52 1218.19 444.675 1220.85 447.924 1224.28C457.08 1233.94 464.549 1247.59 477.291 1251.49L516.639 1263.52C529.381 1267.42 543.209 1260.28 556.206 1257.39C560.812 1256.37 565.745 1256.48 570.584 1257.96C585.485 1262.52 593.883 1278.25 589.342 1293.11C587.867 1297.93 585.209 1302.07 581.778 1305.3C572.107 1314.42 558.429 1321.84 554.546 1334.54L542.555 1373.75C538.671 1386.45 545.859 1400.25 548.778 1413.22C549.815 1417.82 549.703 1422.73 548.228 1427.56C543.686 1442.41 527.925 1450.75 513.024 1446.2C498.123 1441.64 489.725 1425.91 494.266 1411.06Z" fill="#313131"/>
<path d="M948.159 1057.95C949.634 1053.13 952.295 1048.99 955.722 1045.76C965.394 1036.64 979.075 1029.22 982.959 1016.52L997.166 970.063C999.745 961.629 995.522 952.727 991.362 944.934C987.201 937.14 982.155 928.677 973.693 926.09L927.072 911.833C914.33 907.937 900.502 915.078 887.509 917.966C882.899 918.99 877.966 918.87 873.127 917.391C858.226 912.834 849.828 897.101 854.369 882.25C858.91 867.399 874.672 859.054 889.573 863.61C894.412 865.09 898.567 867.75 901.817 871.177C910.973 880.838 918.441 894.492 931.183 898.388L970.531 910.421C983.274 914.317 997.101 907.176 1010.1 904.289C1014.7 903.264 1019.64 903.383 1024.48 904.863C1039.38 909.42 1047.78 925.153 1043.23 940.004C1041.76 944.828 1039.1 948.967 1035.67 952.199C1026 961.314 1012.32 968.736 1008.44 981.435L996.447 1020.65C992.564 1033.35 999.751 1047.15 1002.67 1060.12C1003.71 1064.71 1003.6 1069.63 1002.12 1074.45C997.579 1089.31 981.817 1097.65 966.916 1093.09C952.016 1088.54 943.617 1072.8 948.159 1057.95Z" fill="#313131"/>
<path d="M630.455 1158.66C628.98 1163.48 626.323 1167.62 622.891 1170.85C613.22 1179.97 599.542 1187.39 595.659 1200.09L581.452 1246.55C578.873 1254.98 583.096 1263.88 587.256 1271.68C591.413 1279.47 596.463 1287.93 604.925 1290.52L651.542 1304.78C664.284 1308.67 678.112 1301.53 691.109 1298.65C695.718 1297.62 700.649 1297.74 705.49 1299.22C720.392 1303.78 728.79 1319.51 724.249 1334.36C719.707 1349.21 703.946 1357.56 689.045 1353C684.204 1351.52 680.049 1348.86 676.801 1345.43C667.641 1335.77 660.173 1322.12 647.43 1318.22L608.086 1306.19C595.344 1302.29 581.516 1309.44 568.519 1312.32C563.913 1313.35 558.98 1313.23 554.137 1311.75C539.237 1307.19 530.838 1291.46 535.379 1276.61C536.855 1271.78 539.516 1267.64 542.943 1264.41C552.615 1255.3 566.296 1247.88 570.179 1235.18L582.171 1195.96C586.054 1183.26 578.862 1169.46 575.943 1156.49C574.91 1151.9 575.018 1146.98 576.494 1142.16C581.035 1127.3 596.797 1118.96 611.697 1123.52C626.602 1128.07 634.996 1143.81 630.455 1158.66Z" fill="#313131"/>
<path d="M1084.35 805.555C1082.87 810.38 1080.22 814.518 1076.78 817.75C1067.11 826.865 1053.43 834.287 1049.55 846.986L1035.34 893.447C1032.77 901.881 1036.99 910.783 1041.15 918.576C1045.31 926.368 1050.36 934.833 1058.82 937.42L1105.43 951.675C1118.18 955.572 1132 948.43 1145 945.543C1149.61 944.52 1154.54 944.639 1159.38 946.119C1174.28 950.676 1182.68 966.409 1178.14 981.26C1173.6 996.111 1157.84 1004.46 1142.94 999.899C1138.1 998.419 1133.94 995.759 1130.69 992.333C1121.53 982.671 1114.07 969.017 1101.32 965.121L1061.98 953.089C1049.24 949.193 1035.41 956.334 1022.41 959.221C1017.81 960.246 1012.87 960.127 1008.03 958.645C993.129 954.089 984.73 938.356 989.272 923.505C990.747 918.68 993.408 914.543 996.836 911.31C1006.51 902.195 1020.19 894.774 1024.07 882.075L1036.06 842.862C1039.95 830.162 1032.75 816.359 1029.84 803.393C1028.8 798.796 1028.91 793.879 1030.39 789.054C1034.93 774.203 1050.69 765.858 1065.59 770.414C1080.49 774.972 1088.89 790.704 1084.35 805.555Z" fill="#313131"/>
<path d="M435.68 1216.71C440.52 1218.19 444.675 1220.85 447.924 1224.28C457.08 1233.94 464.549 1247.59 477.291 1251.49L523.911 1265.75C532.373 1268.34 541.29 1264.14 549.097 1260.01C556.905 1255.88 565.385 1250.86 567.964 1242.42L582.171 1195.96C586.054 1183.26 578.862 1169.46 575.943 1156.49C574.91 1151.9 575.018 1146.98 576.494 1142.16C581.035 1127.3 596.797 1118.96 611.697 1123.52C626.598 1128.07 634.997 1143.81 630.455 1158.66C628.98 1163.48 626.323 1167.62 622.891 1170.85C613.22 1179.97 599.542 1187.39 595.659 1200.09L583.668 1239.3C579.785 1252 586.972 1265.8 589.892 1278.77C590.928 1283.37 590.817 1288.28 589.342 1293.11C584.801 1307.96 569.038 1316.3 554.137 1311.75C549.298 1310.27 545.143 1307.61 541.898 1304.18C532.738 1294.52 525.269 1280.87 512.527 1276.97L473.18 1264.94C460.437 1261.04 446.61 1268.18 433.616 1271.07C429.006 1272.09 424.074 1271.97 419.235 1270.49C404.334 1265.94 395.935 1250.2 400.477 1235.35C405.018 1220.5 420.78 1212.16 435.68 1216.71Z" fill="#313131"/>
<path d="M889.573 863.61C894.412 865.09 898.567 867.75 901.817 871.177C910.973 880.838 918.441 894.492 931.183 898.388L977.804 912.647C986.265 915.234 995.182 911.041 1002.99 906.907C1010.8 902.774 1019.28 897.756 1021.86 889.323L1036.06 842.862C1039.95 830.162 1032.75 816.359 1029.84 803.393C1028.8 798.796 1028.91 793.879 1030.39 789.054C1034.93 774.203 1050.69 765.858 1065.59 770.414C1080.49 774.971 1088.89 790.704 1084.35 805.555C1082.87 810.38 1080.22 814.518 1076.78 817.75C1067.11 826.865 1053.43 834.287 1049.55 846.986L1037.56 886.2C1033.68 898.899 1040.86 912.7 1043.78 925.666C1044.82 930.264 1044.71 935.179 1043.23 940.004C1038.69 954.855 1022.93 963.202 1008.03 958.645C1003.19 957.166 999.035 954.506 995.79 951.081C986.63 941.418 979.162 927.764 966.42 923.868L927.072 911.833C914.33 907.937 900.502 915.078 887.509 917.966C882.899 918.99 877.966 918.87 873.127 917.391C858.226 912.834 849.828 897.101 854.369 882.25C858.91 867.399 874.672 859.054 889.573 863.61Z" fill="#313131"/>
<path d="M837.243 1307.32C805.187 1297.52 771.253 1315.56 761.451 1347.62C751.648 1379.68 769.688 1413.61 801.745 1423.41C833.801 1433.21 867.735 1415.17 877.537 1383.12C887.34 1351.06 869.3 1317.13 837.243 1307.32Z" fill="#313131"/>
<path d="M754.404 758.358C722.347 748.556 688.414 766.596 678.611 798.652C668.809 830.709 686.849 864.642 718.905 874.445C750.962 884.247 784.895 866.207 794.698 834.151C804.5 802.094 786.46 768.161 754.404 758.358Z" fill="#313131"/>
<path d="M779.457 660.957C783.332 662.142 786.731 664.146 789.52 666.719C799.307 675.749 806.792 689.673 819.534 693.569L860.902 706.219C868.713 708.608 876.945 704.737 884.152 700.922C891.358 697.106 899.184 692.474 901.565 684.689L914.172 643.461C918.055 630.762 910.652 616.795 908.61 603.665C908.027 599.922 908.261 595.996 909.441 592.134C913.633 578.425 928.182 570.722 941.938 574.928C955.692 579.135 963.445 593.657 959.253 607.366C958.072 611.228 956.069 614.613 953.494 617.39C944.457 627.132 930.508 634.57 926.625 647.269L916.571 680.147C912.688 692.846 920.091 706.814 922.133 719.944C922.715 723.687 922.482 727.613 921.301 731.475C917.109 745.183 902.56 752.887 888.805 748.68C884.93 747.495 881.532 745.492 878.742 742.918C868.956 733.888 861.471 719.964 848.728 716.068L815.739 705.98C802.997 702.083 789.004 709.44 775.841 711.452C772.09 712.025 768.152 711.785 764.277 710.6C750.522 706.394 742.769 691.871 746.961 678.162C751.153 664.454 765.702 656.751 779.457 660.957Z" fill="#313131"/>
<path d="M631.8 691.462C633.275 686.637 635.933 682.499 639.364 679.268C649.035 670.152 662.713 662.73 666.596 650.031L680.804 603.57C683.383 595.137 679.16 586.234 675.003 578.442C670.842 570.649 665.792 562.184 657.331 559.597L610.714 545.341C597.971 541.445 584.144 548.587 571.146 551.474C566.536 552.497 561.608 552.379 556.765 550.898C541.864 546.342 533.466 530.608 538.007 515.757C542.548 500.906 558.31 492.561 573.21 497.118C578.054 498.599 582.205 501.257 585.454 504.684C594.614 514.346 602.083 528 614.825 531.897L654.169 543.928C666.911 547.824 680.739 540.683 693.736 537.796C698.346 536.773 703.275 536.891 708.118 538.372C723.019 542.928 731.417 558.661 726.876 573.512C725.4 578.337 722.739 582.474 719.312 585.707C709.641 594.823 695.963 602.244 692.08 614.943L680.089 654.157C676.205 666.856 683.393 680.658 686.312 693.624C687.345 698.22 687.237 703.139 685.762 707.963C681.22 722.814 665.459 731.159 650.558 726.603C635.657 722.046 627.259 706.313 631.8 691.462Z" fill="#313131"/>
<path d="M767.991 439.061C766.515 443.885 763.854 448.023 760.427 451.255C750.755 460.371 737.078 467.792 733.195 480.492L718.987 526.953C716.408 535.386 720.627 544.287 724.788 552.081C728.948 559.874 733.995 568.337 742.46 570.926L789.077 585.181C801.82 589.078 815.647 581.936 828.645 579.049C833.25 578.025 838.183 578.144 843.022 579.623C857.927 584.181 866.325 599.914 861.784 614.765C857.243 629.616 841.481 637.961 826.577 633.404C821.737 631.924 817.582 629.264 814.337 625.839C805.177 616.176 797.708 602.522 784.966 598.626L745.618 586.594C732.875 582.697 719.048 589.839 706.055 592.727C701.445 593.75 696.512 593.631 691.673 592.151C676.772 587.594 668.374 571.861 672.915 557.01C674.39 552.186 677.048 548.047 680.479 544.816C690.15 535.7 703.828 528.279 707.711 515.579L719.702 476.366C723.586 463.666 716.398 449.865 713.479 436.899C712.442 432.301 712.554 427.384 714.029 422.56C718.571 407.708 734.332 399.363 749.233 403.92C764.133 408.476 772.532 424.209 767.991 439.061Z" fill="#313131"/>
<path d="M573.21 497.118C578.054 498.599 582.205 501.257 585.454 504.684C594.614 514.346 602.083 528 614.825 531.897L661.442 546.151C669.904 548.738 678.824 544.546 686.632 540.413C694.436 536.278 702.916 531.26 705.494 522.827L719.702 476.366C723.586 463.666 716.398 449.865 713.479 436.899C712.442 432.301 712.554 427.384 714.029 422.56C718.571 407.708 734.332 399.363 749.233 403.92C764.133 408.476 772.532 424.209 767.991 439.061C766.515 443.885 763.854 448.023 760.427 451.255C750.755 460.371 737.078 467.792 733.195 480.492L721.203 519.705C717.32 532.404 724.507 546.206 727.426 559.172C728.459 563.768 728.351 568.688 726.876 573.512C722.334 588.363 706.574 596.708 691.673 592.151C686.83 590.67 682.678 588.011 679.429 584.585C670.269 574.922 662.8 561.269 650.058 557.372L610.714 545.341C597.971 541.445 584.144 548.587 571.146 551.474C566.536 552.497 561.608 552.379 556.765 550.898C541.864 546.342 533.466 530.608 538.007 515.757C542.548 500.906 558.31 492.561 573.21 497.118Z" fill="#313131"/>
<path d="M411.427 862.089C412.902 857.264 415.563 853.127 418.99 849.894C428.662 840.778 442.343 833.358 446.227 820.659L460.434 774.198C463.013 765.764 458.79 756.862 454.63 749.069C450.469 741.275 445.423 732.812 436.961 730.225L390.34 715.968C377.598 712.072 363.77 719.213 350.777 722.101C346.167 723.125 341.234 723.005 336.395 721.526C321.494 716.969 313.096 701.236 317.637 686.385C322.178 671.534 337.94 663.189 352.841 667.745C357.68 669.225 361.835 671.885 365.085 675.312C374.241 684.973 381.709 698.627 394.451 702.523L433.799 714.556C446.542 718.452 460.369 711.311 473.367 708.424C477.973 707.399 482.905 707.518 487.744 708.998C502.645 713.555 511.044 729.288 506.502 744.139C505.027 748.963 502.37 753.102 498.939 756.334C489.267 765.449 475.59 772.871 471.706 785.57L459.715 824.784C455.832 837.483 463.019 851.285 465.938 864.25C466.975 868.848 466.863 873.765 465.388 878.59C460.847 893.441 445.085 901.786 430.184 897.23C415.284 892.673 406.885 876.94 411.427 862.089Z" fill="#313131"/>
<path d="M865.319 508.987C866.794 504.162 869.455 500.025 872.883 496.792C882.554 487.677 896.236 480.256 900.119 467.557L914.327 421.096C916.905 412.662 912.683 403.76 908.522 395.967C904.361 388.173 899.315 379.71 890.853 377.123L844.232 362.866C831.49 358.97 817.663 366.112 804.669 369C800.059 370.023 795.127 369.904 790.287 368.424C775.387 363.867 766.988 348.134 771.53 333.283C776.071 318.432 791.833 310.087 806.733 314.644C811.572 316.123 815.728 318.784 818.977 322.21C828.133 331.871 835.601 345.525 848.344 349.422L887.692 361.454C900.434 365.351 914.262 358.209 927.259 355.322C931.865 354.298 936.798 354.416 941.637 355.896C956.538 360.453 964.936 376.186 960.395 391.037C958.919 395.861 956.262 400 952.831 403.232C943.159 412.348 929.482 419.769 925.599 432.468L913.607 471.682C909.724 484.381 916.912 498.183 919.831 511.149C920.868 515.747 920.756 520.664 919.28 525.488C914.739 540.339 898.978 548.684 884.077 544.128C869.176 539.571 860.778 523.838 865.319 508.987Z" fill="#313131"/>
<path d="M547.616 609.69C546.14 614.515 543.483 618.653 540.052 621.885C530.38 631 516.703 638.422 512.819 651.121L498.612 697.582C496.033 706.016 500.256 714.918 504.416 722.711C508.573 730.503 513.624 738.968 522.085 741.555L568.702 755.81C581.444 759.707 595.272 752.565 608.269 749.678C612.878 748.655 617.81 748.774 622.651 750.254C637.552 754.811 645.951 770.544 641.409 785.395C636.868 800.246 621.106 808.591 606.205 804.034C601.364 802.554 597.209 799.894 593.961 796.468C584.801 786.806 577.333 773.152 564.591 769.256L525.247 757.224C512.504 753.328 498.677 760.469 485.679 763.356C481.073 764.381 476.141 764.262 471.298 762.78C456.397 758.224 447.998 742.491 452.54 727.64C454.015 722.815 456.676 718.678 460.104 715.445C469.775 706.33 483.456 698.909 487.34 686.21L499.331 646.997C503.214 634.297 496.023 620.494 493.104 607.528C492.071 602.931 492.179 598.014 493.654 593.189C498.195 578.338 513.957 569.993 528.858 574.549C543.762 579.107 552.157 594.839 547.616 609.69Z" fill="#313131"/>
<path d="M1001.51 256.588C1000.03 261.413 997.375 265.551 993.944 268.783C984.273 277.899 970.595 285.32 966.712 298.019L952.504 344.48C949.925 352.914 954.148 361.816 958.309 369.61C962.466 377.401 967.516 385.866 975.978 388.453L1022.59 402.709C1035.34 406.605 1049.16 399.463 1062.16 396.577C1066.77 395.553 1071.7 395.672 1076.54 397.152C1091.44 401.709 1099.84 417.442 1095.3 432.293C1090.76 447.144 1075 455.489 1060.1 450.932C1055.26 449.452 1051.1 446.793 1047.85 443.366C1038.69 433.704 1031.23 420.05 1018.48 416.154L979.139 404.123C966.397 400.226 952.569 407.368 939.572 410.254C934.966 411.279 930.033 411.16 925.19 409.679C910.289 405.122 901.891 389.389 906.432 374.538C907.908 369.714 910.569 365.576 913.996 362.343C923.667 353.228 937.349 345.808 941.232 333.108L953.223 293.895C957.107 281.195 949.915 267.392 946.996 254.426C945.963 249.83 946.071 244.912 947.546 240.087C952.088 225.236 967.849 216.891 982.75 221.447C997.655 226.005 1006.05 241.737 1001.51 256.588Z" fill="#313131"/>
<path d="M352.841 667.745C357.68 669.225 361.835 671.885 365.085 675.312C374.241 684.973 381.709 698.627 394.451 702.523L441.072 716.782C449.533 719.369 458.45 715.176 466.258 711.042C474.066 706.909 482.545 701.891 485.124 693.458L499.331 646.997C503.214 634.297 496.023 620.494 493.104 607.528C492.071 602.931 492.179 598.014 493.654 593.189C498.195 578.338 513.957 569.993 528.858 574.549C543.758 579.106 552.157 594.839 547.616 609.69C546.14 614.515 543.483 618.653 540.052 621.885C530.38 631 516.703 638.422 512.819 651.121L500.829 690.335C496.945 703.034 504.133 716.835 507.052 729.802C508.089 734.399 507.978 739.314 506.502 744.139C501.961 758.989 486.198 767.337 471.298 762.78C466.458 761.301 462.303 758.641 459.058 755.216C449.898 745.553 442.43 731.899 429.687 728.003L390.34 715.968C377.598 712.072 363.77 719.213 350.777 722.101C346.167 723.125 341.234 723.005 336.395 721.526C321.494 716.969 313.096 701.236 317.637 686.385C322.178 671.534 337.94 663.189 352.841 667.745Z" fill="#313131"/>
<path d="M806.733 314.644C811.572 316.123 815.728 318.784 818.977 322.21C828.133 331.871 835.601 345.525 848.344 349.422L894.964 363.68C903.426 366.267 912.342 362.074 920.15 357.94C927.958 353.807 936.437 348.789 939.016 340.356L953.223 293.895C957.107 281.195 949.915 267.392 946.996 254.426C945.963 249.83 946.071 244.912 947.546 240.087C952.088 225.236 967.849 216.891 982.75 221.447C997.651 226.004 1006.05 241.737 1001.51 256.588C1000.03 261.413 997.375 265.551 993.944 268.783C984.273 277.899 970.595 285.32 966.712 298.019L954.721 337.233C950.838 349.932 958.025 363.734 960.944 376.7C961.981 381.298 961.87 386.212 960.395 391.037C955.853 405.888 940.091 414.235 925.19 409.679C920.351 408.199 916.196 405.539 912.95 402.114C903.791 392.451 896.322 378.797 883.58 374.901L844.232 362.866C831.49 358.97 817.663 366.112 804.669 369C800.059 370.023 795.127 369.904 790.287 368.424C775.387 363.867 766.988 348.134 771.53 333.283C776.071 318.432 791.833 310.087 806.733 314.644Z" fill="#313131"/>
<path d="M754.404 758.358C722.347 748.555 688.414 766.596 678.611 798.652C668.808 830.708 686.849 864.642 718.905 874.444C750.961 884.247 784.895 866.207 794.698 834.15C804.5 802.094 786.46 768.161 754.404 758.358Z" fill="#313131"/>
<path d="M628.17 469.794C624.293 468.608 620.895 466.608 618.105 464.033C608.32 455.002 600.834 441.078 588.092 437.181L546.725 424.532C538.914 422.143 530.681 426.012 523.475 429.831C516.267 433.644 508.442 438.277 506.061 446.062L493.454 487.289C489.571 499.989 496.974 513.957 499.018 527.086C499.597 530.828 499.365 534.755 498.184 538.617C493.992 552.326 479.443 560.029 465.687 555.823C451.932 551.616 444.179 537.094 448.371 523.385C449.552 519.523 451.556 516.138 454.133 513.361C463.167 503.619 477.12 496.181 481.003 483.482L491.057 450.604C494.94 437.905 487.534 423.936 485.493 410.807C483.148 400.946 513.443 391.382 528.884 387.833C538.669 396.864 546.155 410.788 558.898 414.685L591.886 424.772C604.629 428.669 618.622 421.313 631.785 419.299C635.537 418.725 639.472 418.967 643.35 420.153C657.102 424.358 664.858 438.882 660.667 452.588C656.475 466.297 641.922 473.999 628.17 469.794Z" fill="#313131"/>
<path d="M208.509 1063.76C207.317 1067.66 205.167 1071 202.399 1073.61C194.587 1080.98 183.539 1086.97 180.402 1097.23L168.926 1134.76C166.843 1141.57 170.251 1148.76 173.612 1155.06C176.972 1161.35 181.049 1168.19 187.887 1170.28L225.541 1181.79C235.834 1184.94 247.003 1179.17 257.502 1176.84C261.222 1176.01 265.206 1176.11 269.115 1177.3C281.154 1180.98 287.938 1193.69 284.27 1205.69C280.602 1217.68 267.87 1224.43 255.831 1220.74C251.922 1219.55 248.566 1217.4 245.944 1214.63C238.545 1206.83 232.513 1195.8 222.22 1192.65L190.437 1182.93C180.144 1179.79 168.975 1185.55 158.48 1187.89C154.756 1188.71 150.772 1188.62 146.863 1187.42C134.827 1183.74 128.043 1171.03 131.712 1159.04C132.903 1155.14 135.05 1151.8 137.821 1149.19C145.633 1141.82 156.681 1135.83 159.818 1125.57L169.504 1093.9C172.641 1083.64 166.835 1072.49 164.477 1062.02C163.639 1058.3 163.73 1054.33 164.921 1050.44C168.59 1038.44 181.321 1031.7 193.357 1035.38C205.393 1039.06 212.177 1051.77 208.509 1063.76Z" fill="#313131"/>
<path d="M287.125 1120.25C288.317 1116.35 290.466 1113.01 293.235 1110.4C301.047 1103.03 312.098 1097.04 315.235 1086.78L326.711 1049.25C328.794 1042.44 325.383 1035.25 322.022 1028.96C318.661 1022.66 314.585 1015.82 307.75 1013.73L270.093 1002.22C259.8 999.071 248.631 1004.84 238.136 1007.17C234.412 1008 230.428 1007.9 226.519 1006.71C214.483 1003.03 207.699 990.319 211.367 978.323C215.035 966.327 227.767 959.586 239.803 963.267C243.712 964.462 247.068 966.611 249.693 969.378C257.088 977.182 263.121 988.211 273.413 991.359L305.197 1001.08C315.489 1004.23 326.658 998.456 337.157 996.124C340.877 995.297 344.862 995.393 348.771 996.588C360.807 1000.27 367.59 1012.98 363.922 1024.97C362.731 1028.87 360.584 1032.21 357.813 1034.82C350 1042.19 338.953 1048.18 335.816 1058.44L326.13 1090.11C322.993 1100.37 328.799 1111.52 331.157 1121.99C331.994 1125.71 331.904 1129.68 330.712 1133.58C327.044 1145.57 314.313 1152.31 302.277 1148.63C290.241 1144.95 283.457 1132.24 287.125 1120.25Z" fill="#313131"/>
<path d="M397.131 916.373C395.939 920.27 393.793 923.613 391.022 926.223C383.209 933.586 372.162 939.581 369.025 949.839L357.549 987.367C355.466 994.179 358.877 1001.37 362.237 1007.67C365.595 1013.96 369.674 1020.8 376.509 1022.89L414.164 1034.4C424.456 1037.55 435.625 1031.78 446.124 1029.45C449.847 1028.62 453.83 1028.72 457.741 1029.91C469.777 1033.59 476.561 1046.3 472.892 1058.3C469.224 1070.29 456.493 1077.03 444.457 1073.35C440.547 1072.16 437.191 1070.01 434.567 1067.24C427.168 1059.44 421.135 1048.41 410.843 1045.26L379.063 1035.54C368.77 1032.4 357.601 1038.16 347.103 1040.5C343.382 1041.32 339.398 1041.23 335.486 1040.03C323.45 1036.35 316.666 1023.64 320.334 1011.65C321.526 1007.75 323.675 1004.41 326.444 1001.8C334.256 994.433 345.307 988.439 348.444 978.181L358.13 946.507C361.266 936.249 355.458 925.1 353.1 914.627C352.265 910.914 352.352 906.941 353.544 903.044C357.212 891.048 369.944 884.307 381.98 887.988C394.019 891.669 400.799 904.377 397.131 916.373Z" fill="#313131"/>
<path d="M239.803 963.267C243.712 964.462 247.068 966.611 249.693 969.378C257.088 977.182 263.121 988.211 273.413 991.359L311.071 1002.88C317.906 1004.97 325.108 1001.58 331.415 998.24C337.721 994.901 344.571 990.848 346.654 984.036L358.13 946.507C361.266 936.249 355.458 925.1 353.1 914.627C352.265 910.914 352.352 906.941 353.544 903.044C357.212 891.048 369.944 884.307 381.98 887.988C394.016 891.668 400.8 904.377 397.131 916.373C395.939 920.27 393.793 923.613 391.022 926.223C383.209 933.586 372.162 939.581 369.025 949.839L359.339 981.513C356.203 991.771 362.008 1002.92 364.366 1013.39C365.204 1017.11 365.114 1021.08 363.922 1024.97C360.254 1036.97 347.522 1043.71 335.486 1040.03C331.577 1038.84 328.221 1036.69 325.599 1033.92C318.2 1026.12 312.168 1015.09 301.875 1011.94L270.093 1002.22C259.8 999.071 248.631 1004.84 238.136 1007.17C234.412 1008 230.428 1007.9 226.519 1006.71C214.483 1003.03 207.699 990.319 211.367 978.323C215.035 966.327 227.767 959.586 239.803 963.267Z" fill="#313131"/>
<path d="M130.62 878.25C104.727 870.332 77.3174 884.904 69.3993 910.797C61.4813 936.691 76.0532 964.1 101.947 972.018C127.84 979.936 155.25 965.364 163.168 939.471C171.086 913.577 156.514 886.168 130.62 878.25Z" fill="#313131"/>
<path d="M331.712 1244.19C305.818 1236.27 278.409 1250.84 270.491 1276.74C262.573 1302.63 277.144 1330.04 303.038 1337.96C328.931 1345.87 356.341 1331.3 364.259 1305.41C372.177 1279.52 357.605 1252.11 331.712 1244.19Z" fill="#313131"/>
<path d="M150.857 799.574C153.987 800.531 156.732 802.15 158.986 804.229C166.891 811.522 172.937 822.769 183.229 825.917L216.644 836.135C222.953 838.064 229.603 834.938 235.424 831.856C241.245 828.774 247.566 825.032 249.489 818.744L259.673 785.442C262.809 775.184 256.829 763.903 255.18 753.297C254.709 750.274 254.898 747.102 255.851 743.983C259.237 732.91 270.989 726.687 282.1 730.085C293.21 733.483 299.473 745.213 296.086 756.287C295.133 759.406 293.515 762.14 291.434 764.383C284.135 772.253 272.868 778.26 269.731 788.518L261.61 815.075C258.473 825.333 264.454 836.615 266.103 847.221C266.573 850.244 266.385 853.415 265.431 856.535C262.045 867.608 250.293 873.83 239.183 870.433C236.053 869.475 233.307 867.857 231.054 865.778C223.149 858.484 217.103 847.237 206.811 844.09L180.164 835.941C169.871 832.794 158.569 838.736 147.936 840.361C144.906 840.824 141.725 840.631 138.595 839.674C127.485 836.276 121.222 824.545 124.609 813.472C127.995 802.399 139.747 796.177 150.857 799.574Z" fill="#313131"/>
<path d="M28.6559 645.163C25.5237 644.205 22.7793 642.59 20.5257 640.51C12.622 633.215 6.57518 621.968 -3.71738 618.821L-37.1312 608.603C-43.4408 606.673 -50.091 609.799 -55.9111 612.883C-61.7334 615.963 -68.0543 619.706 -69.9772 625.994L-80.1605 659.295C-83.2973 669.553 -77.3177 680.835 -75.6662 691.441C-75.1987 694.464 -75.3863 697.635 -76.3402 700.755C-79.7263 711.828 -91.4781 718.05 -102.589 714.653C-113.7 711.255 -119.962 699.524 -116.576 688.451C-115.622 685.332 -114.004 682.597 -111.922 680.354C-104.625 672.485 -93.3546 666.477 -90.2178 656.22L-82.0969 629.663C-78.9601 619.405 -84.9429 608.121 -86.5912 597.517C-87.062 594.493 -86.8748 591.323 -85.9202 588.201C-82.535 577.131 -70.7833 570.909 -59.6722 574.306C-56.5399 575.264 -53.7955 576.88 -51.542 578.959C-43.6383 586.254 -37.5915 597.501 -27.2989 600.649L-0.652287 608.797C9.64027 611.945 20.9433 606.003 31.5752 604.376C34.6065 603.912 37.785 604.108 40.9173 605.066C52.0252 608.463 58.2903 620.194 54.905 631.265C51.5188 642.338 39.7638 648.56 28.6559 645.163Z" fill="#313131"/>
<path d="M31.5879 824.215C32.7795 820.318 34.9259 816.975 37.6973 814.365C45.5095 807.001 56.5574 801.007 59.6942 790.749L71.1702 753.22C73.2533 746.408 69.8423 739.217 66.4848 732.923C63.124 726.628 59.0447 719.791 52.2098 717.701L14.5553 706.186C4.26272 703.039 -6.90633 708.808 -17.4051 711.14C-21.1287 711.966 -25.1096 711.871 -29.0217 710.675C-41.0577 706.994 -47.8415 694.286 -44.1733 682.29C-40.5051 670.294 -27.7737 663.553 -15.7378 667.234C-11.8257 668.43 -8.47244 670.578 -5.84786 673.345C1.55111 681.15 7.58364 692.179 17.8762 695.326L49.6562 705.044C59.9488 708.192 71.1178 702.423 81.6164 700.091C85.3401 699.265 89.3211 699.36 93.2332 700.556C105.269 704.237 112.053 716.945 108.385 728.941C107.193 732.838 105.044 736.18 102.275 738.791C94.4631 746.155 83.4152 752.149 80.2784 762.407L70.5926 794.081C67.4558 804.339 73.2615 815.488 75.6193 825.961C76.4538 829.674 76.3666 833.646 75.175 837.543C71.5067 849.539 58.7754 856.28 46.7394 852.599C34.7035 848.919 27.9196 836.211 31.5879 824.215Z" fill="#313131"/>
<path d="M141.595 620.338C140.403 624.235 138.254 627.577 135.486 630.188C127.673 637.552 116.626 643.546 113.489 653.804L102.013 691.333C99.9297 698.145 103.337 705.335 106.698 711.63C110.059 717.925 114.135 724.761 120.973 726.852L158.628 738.367C168.92 741.514 180.089 735.745 190.588 733.413C194.308 732.586 198.293 732.682 202.202 733.877C214.241 737.559 221.025 750.267 217.356 762.263C213.688 774.259 200.957 781 188.918 777.318C185.009 776.123 181.652 773.974 179.031 771.208C171.632 763.403 165.599 752.374 155.307 749.227L123.524 739.508C113.231 736.36 102.062 742.129 91.5666 744.462C87.8428 745.288 83.8587 745.192 79.9498 743.997C67.9139 740.316 61.1299 727.608 64.7982 715.612C65.9898 711.715 68.1362 708.372 70.9077 705.762C78.7199 698.398 89.7678 692.404 92.9045 682.146L102.59 650.472C105.727 640.214 99.9215 629.065 97.5636 618.592C96.7259 614.878 96.8163 610.907 98.008 607.01C101.676 595.014 114.408 588.273 126.444 591.954C138.479 595.634 145.263 608.342 141.595 620.338Z" fill="#313131"/>
<path d="M-15.7378 667.234C-11.8257 668.43 -8.47244 670.578 -5.84786 673.345C1.55111 681.15 7.58364 692.179 17.8762 695.326L55.531 706.84C62.3659 708.93 69.5715 705.544 75.8781 702.205C82.1816 698.865 89.031 694.812 91.1141 688L102.59 650.472C105.727 640.214 99.9215 629.065 97.5636 618.592C96.7259 614.878 96.8163 610.907 98.008 607.01C101.676 595.014 114.408 588.273 126.444 591.954C138.479 595.634 145.263 608.342 141.595 620.338C140.403 624.235 138.254 627.577 135.486 630.188C127.673 637.552 116.626 643.546 113.489 653.804L103.803 685.479C100.666 695.736 106.472 706.885 108.83 717.358C109.664 721.071 109.576 725.044 108.385 728.941C104.716 740.937 91.9857 747.677 79.9498 743.997C76.0377 742.8 72.684 740.653 70.0595 737.885C62.6605 730.08 56.628 719.051 46.3354 715.904L14.5553 706.186C4.26272 703.039 -6.90633 708.808 -17.4051 711.14C-21.1287 711.966 -25.1096 711.871 -29.0217 710.675C-41.0577 706.994 -47.8415 694.286 -44.1733 682.29C-40.5051 670.294 -27.7737 663.553 -15.7378 667.234Z" fill="#313131"/>
<path d="M-146.418 962.038C-145.226 958.141 -143.077 954.799 -140.308 952.187C-132.496 944.824 -121.445 938.831 -118.308 928.573L-106.832 891.044C-104.749 884.232 -108.16 877.041 -111.521 870.746C-114.882 864.451 -118.958 857.615 -125.793 855.525L-163.451 844.009C-173.743 840.862 -184.912 846.631 -195.408 848.963C-199.131 849.79 -203.116 849.694 -207.024 848.498C-219.06 844.818 -225.844 832.11 -222.176 820.114C-218.508 808.118 -205.776 801.377 -193.741 805.058C-189.832 806.253 -186.475 808.402 -183.85 811.169C-176.455 818.973 -170.422 830.002 -160.13 833.149L-128.346 842.869C-118.054 846.016 -106.885 840.247 -96.3861 837.915C-92.6658 837.088 -88.6815 837.184 -84.7726 838.379C-72.7367 842.06 -65.9528 854.768 -69.621 866.764C-70.8127 870.661 -72.959 874.004 -75.7306 876.614C-83.5428 883.978 -94.5906 889.972 -97.7273 900.23L-107.413 931.905C-110.55 942.162 -104.744 953.311 -102.386 963.784C-101.549 967.498 -101.639 971.469 -102.831 975.366C-106.499 987.362 -119.231 994.103 -131.266 990.422C-143.302 986.742 -150.086 974.034 -146.418 962.038Z" fill="#313131"/>
<path d="M220.212 676.821C221.403 672.924 223.553 669.582 226.321 666.971C234.133 659.608 245.184 653.614 248.321 643.356L259.797 605.828C261.88 599.015 258.469 591.825 255.109 585.53C251.748 579.235 247.672 572.399 240.837 570.308L203.179 558.793C192.887 555.646 181.717 561.414 171.222 563.747C167.498 564.573 163.514 564.477 159.605 563.282C147.569 559.601 140.785 546.893 144.454 534.897C148.122 522.901 160.853 516.161 172.889 519.841C176.798 521.036 180.155 523.185 182.779 525.953C190.175 533.757 196.207 544.785 206.5 547.933L238.283 557.652C248.576 560.799 259.745 555.031 270.244 552.699C273.964 551.871 277.948 551.967 281.857 553.163C293.893 556.843 300.677 569.552 297.009 581.547C295.817 585.444 293.671 588.787 290.899 591.398C283.087 598.761 272.039 604.756 268.902 615.013L259.216 646.688C256.08 656.946 261.885 668.094 264.243 678.567C265.081 682.281 264.991 686.253 263.799 690.15C260.131 702.146 247.399 708.886 235.363 705.206C223.327 701.525 216.543 688.817 220.212 676.821Z" fill="#313131"/>
<path d="M-36.412 758.163C-37.6037 762.061 -39.75 765.403 -42.5215 768.014C-50.3337 775.377 -61.3816 781.372 -64.5184 791.63L-75.9944 829.158C-78.0775 835.97 -74.6665 843.161 -71.3058 849.456C-67.9483 855.75 -63.8688 862.587 -57.034 864.677L-19.3793 876.192C-9.08674 879.339 2.08227 873.57 12.5809 871.239C16.3036 870.412 20.2872 870.508 24.1974 871.704C36.2339 875.384 43.0179 888.093 39.3493 900.088C35.681 912.084 22.95 918.825 10.9134 915.144C7.00328 913.949 3.64731 911.8 1.02369 909.033C-6.37527 901.228 -12.4078 890.199 -22.7004 887.052L-54.4804 877.334C-64.773 874.186 -75.942 879.955 -86.4407 882.287C-90.1612 883.114 -94.1453 883.018 -98.0574 881.822C-110.093 878.141 -116.877 865.433 -113.209 853.437C-112.017 849.54 -109.868 846.198 -107.099 843.587C-99.2873 836.224 -88.2362 830.23 -85.0994 819.972L-75.4136 788.298C-72.2768 778.04 -78.0857 766.891 -80.4436 756.417C-81.278 752.704 -81.1909 748.732 -79.9991 744.835C-76.3309 732.839 -63.5995 726.098 -51.5636 729.779C-39.5244 733.46 -32.7438 746.168 -36.412 758.163Z" fill="#313131"/>
<path d="M330.218 472.947C329.026 476.844 326.88 480.187 324.108 482.797C316.296 490.161 305.248 496.155 302.111 506.413L290.635 543.942C288.552 550.754 291.963 557.944 295.324 564.24C298.681 570.534 302.761 577.371 309.596 579.461L347.25 590.975C357.543 594.123 368.712 588.354 379.211 586.022C382.933 585.196 386.917 585.291 390.827 586.487C402.864 590.168 409.648 602.876 405.979 614.872C402.311 626.868 389.58 633.609 377.543 629.928C373.633 628.732 370.277 626.584 367.653 623.816C360.254 616.012 354.222 604.983 343.929 601.836L312.149 592.117C301.857 588.97 290.688 594.739 280.189 597.07C276.469 597.898 272.484 597.802 268.572 596.605C256.536 592.925 249.752 580.217 253.421 568.221C254.612 564.324 256.762 560.982 259.53 558.37C267.342 551.007 278.394 545.014 281.53 534.756L291.216 503.081C294.353 492.823 288.544 481.674 286.186 471.201C285.352 467.488 285.439 463.516 286.631 459.618C290.299 447.623 303.03 440.882 315.066 444.562C327.105 448.244 333.886 460.951 330.218 472.947Z" fill="#313131"/>
<path d="M-193.741 805.058C-189.832 806.253 -186.475 808.402 -183.85 811.169C-176.455 818.973 -170.422 830.002 -160.13 833.149L-122.472 844.666C-115.637 846.757 -108.435 843.369 -102.128 840.03C-95.8217 836.692 -88.9724 832.639 -86.8893 825.826L-75.4136 788.298C-72.2768 778.04 -78.0857 766.891 -80.4436 756.417C-81.278 752.704 -81.1909 748.732 -79.9991 744.835C-76.3309 732.839 -63.5995 726.098 -51.5636 729.779C-39.5276 733.459 -32.7437 746.167 -36.412 758.163C-37.6037 762.061 -39.75 765.403 -42.5215 768.014C-50.3337 775.377 -61.3816 781.372 -64.5184 791.63L-74.2039 823.304C-77.3406 833.562 -71.535 844.71 -69.1771 855.183C-68.3395 858.897 -68.4293 862.867 -69.621 866.764C-73.2892 878.76 -86.0214 885.502 -98.0574 881.822C-101.966 880.627 -105.322 878.478 -107.944 875.711C-115.343 867.906 -121.375 856.877 -131.668 853.73L-163.451 844.009C-173.743 840.862 -184.912 846.631 -195.408 848.963C-199.131 849.79 -203.116 849.694 -207.024 848.498C-219.06 844.818 -225.844 832.11 -222.176 820.114C-218.508 808.118 -205.776 801.377 -193.741 805.058Z" fill="#313131"/>
<path d="M172.889 519.841C176.798 521.036 180.155 523.185 182.779 525.953C190.175 533.757 196.207 544.785 206.5 547.933L244.157 559.45C250.992 561.54 258.195 558.153 264.501 554.814C270.808 551.475 277.657 547.422 279.74 540.61L291.216 503.081C294.353 492.823 288.544 481.674 286.186 471.201C285.352 467.488 285.439 463.516 286.631 459.618C290.299 447.623 303.03 440.882 315.066 444.562C327.102 448.243 333.886 460.951 330.218 472.947C329.026 476.844 326.88 480.187 324.108 482.797C316.296 490.161 305.248 496.155 302.111 506.413L292.426 538.088C289.289 548.345 295.095 559.493 297.453 569.967C298.29 573.681 298.2 577.651 297.009 581.547C293.341 593.543 280.608 600.286 268.572 596.605C264.663 595.41 261.307 593.261 258.686 590.495C251.287 582.69 245.254 571.661 234.962 568.514L203.179 558.793C192.887 555.646 181.717 561.414 171.222 563.747C167.498 564.573 163.514 564.477 159.605 563.282C147.569 559.601 140.785 546.893 144.454 534.897C148.122 522.901 160.853 516.161 172.889 519.841Z" fill="#313131"/>
<path d="M130.62 878.249C104.727 870.331 77.3172 884.903 69.3991 910.797C61.4811 936.69 76.053 964.1 101.946 972.018C127.84 979.936 155.249 965.364 163.168 939.471C171.086 913.577 156.514 886.168 130.62 878.249Z" fill="#313131"/>
<path d="M63.7069 434.824C37.8135 426.906 10.4039 441.478 2.48588 467.371C-5.43217 493.265 9.13969 520.675 35.0332 528.593C60.9266 536.511 88.3362 521.939 96.2543 496.045C104.172 470.152 89.6004 442.742 63.7069 434.824Z" fill="#313131"/>
<path d="M1482.98 1024.31C1486.47 1025.38 1489.53 1027.18 1492.05 1029.5C1500.87 1037.64 1507.61 1050.19 1519.09 1053.7L1556.37 1065.1C1563.41 1067.25 1570.83 1063.76 1577.33 1060.32C1583.82 1056.88 1590.87 1052.71 1593.02 1045.69L1604.38 1008.54C1607.88 997.097 1601.21 984.511 1599.37 972.678C1598.84 969.305 1599.05 965.767 1600.12 962.287C1603.89 949.933 1617 942.991 1629.4 946.782C1641.8 950.572 1648.78 963.66 1645 976.014C1643.94 979.494 1642.14 982.544 1639.81 985.047C1631.67 993.826 1619.1 1000.53 1615.6 1011.97L1606.54 1041.6C1603.04 1053.05 1609.71 1065.63 1611.55 1077.46C1612.08 1080.84 1611.87 1084.38 1610.8 1087.86C1607.03 1100.21 1593.91 1107.15 1581.52 1103.36C1578.03 1102.29 1574.96 1100.49 1572.45 1098.17C1563.63 1090.03 1556.89 1077.48 1545.4 1073.97L1515.67 1064.88C1504.19 1061.37 1491.58 1068 1479.72 1069.81C1476.34 1070.33 1472.79 1070.11 1469.3 1069.04C1456.9 1065.25 1449.92 1052.17 1453.69 1039.81C1457.47 1027.46 1470.58 1020.52 1482.98 1024.31Z" fill="#313131"/>
<path d="M1346.64 852.038C1343.15 850.97 1340.09 849.168 1337.57 846.847C1328.76 838.709 1322.01 826.161 1310.53 822.649L1273.25 811.25C1266.21 809.097 1258.79 812.584 1252.3 816.025C1245.8 819.462 1238.75 823.637 1236.6 830.652L1225.24 867.805C1221.74 879.249 1228.41 891.837 1230.26 903.668C1230.78 907.041 1230.57 910.579 1229.51 914.06C1225.73 926.413 1212.62 933.355 1200.22 929.565C1187.82 925.774 1180.84 912.687 1184.62 900.333C1185.68 896.853 1187.49 893.802 1189.81 891.299C1197.95 882.52 1210.52 875.818 1214.02 864.374L1223.08 834.746C1226.58 823.301 1219.91 810.713 1218.07 798.882C1217.54 795.509 1217.75 791.972 1218.82 788.489C1222.59 776.138 1235.7 769.196 1248.1 772.987C1251.6 774.056 1254.66 775.858 1257.17 778.178C1265.99 786.317 1272.74 798.865 1284.22 802.376L1313.95 811.467C1325.43 814.978 1338.04 808.35 1349.9 806.534C1353.28 806.017 1356.83 806.236 1360.32 807.304C1372.72 811.094 1379.71 824.182 1375.93 836.533C1372.15 848.887 1359.04 855.828 1346.64 852.038Z" fill="#313131"/>
<path d="M1349.92 1051.8C1351.24 1047.45 1353.64 1043.72 1356.73 1040.81C1365.45 1032.59 1377.77 1025.91 1381.27 1014.46L1394.08 972.593C1396.4 964.993 1392.59 956.97 1388.85 949.948C1385.1 942.925 1380.55 935.297 1372.92 932.965L1330.91 920.119C1319.43 916.608 1306.97 923.044 1295.26 925.645C1291.1 926.567 1286.66 926.461 1282.3 925.127C1268.87 921.021 1261.3 906.842 1265.39 893.459C1269.48 880.076 1283.69 872.556 1297.12 876.662C1301.48 877.996 1305.22 880.392 1308.15 883.48C1316.4 892.188 1323.14 904.492 1334.62 908.003L1370.07 918.845C1381.56 922.357 1394.02 915.921 1405.73 913.32C1409.88 912.397 1414.33 912.504 1418.69 913.838C1432.12 917.944 1439.69 932.122 1435.59 945.506C1434.26 949.853 1431.87 953.582 1428.78 956.495C1420.06 964.71 1407.74 971.398 1404.24 982.842L1393.43 1018.18C1389.93 1029.62 1396.41 1042.06 1399.04 1053.75C1399.97 1057.89 1399.87 1062.32 1398.54 1066.67C1394.45 1080.05 1380.25 1087.57 1366.82 1083.47C1353.39 1079.36 1345.82 1065.18 1349.92 1051.8Z" fill="#313131"/>
<path d="M1472.65 824.343C1471.32 828.691 1468.92 832.419 1465.83 835.332C1457.11 843.547 1444.79 850.235 1441.29 861.679L1428.49 903.548C1426.16 911.148 1429.96 919.169 1433.71 926.192C1437.46 933.215 1442.01 940.842 1449.64 943.175L1491.65 956.021C1503.13 959.533 1515.59 953.097 1527.3 950.495C1531.46 949.572 1535.9 949.679 1540.26 951.013C1553.69 955.12 1561.26 969.299 1557.17 982.681C1553.08 996.065 1538.87 1003.59 1525.44 999.478C1521.08 998.144 1517.34 995.747 1514.41 992.66C1506.16 983.953 1499.43 971.649 1487.94 968.137L1452.48 957.294C1441 953.783 1428.54 960.219 1416.83 962.821C1412.68 963.743 1408.23 963.636 1403.87 962.302C1390.44 958.196 1382.87 944.018 1386.97 930.635C1388.3 926.287 1390.69 922.557 1393.78 919.646C1402.5 911.431 1414.82 904.743 1418.32 893.299L1429.13 857.961C1432.63 846.517 1426.15 834.079 1423.52 822.395C1422.59 818.251 1422.69 813.82 1424.02 809.473C1428.11 796.089 1442.31 788.569 1455.74 792.675C1469.17 796.782 1476.74 810.96 1472.65 824.343Z" fill="#313131"/>
<path d="M1297.12 876.662C1301.48 877.996 1305.22 880.392 1308.15 883.48C1316.4 892.188 1323.14 904.492 1334.62 908.003L1376.63 920.849C1384.25 923.18 1392.29 919.403 1399.33 915.678C1406.36 911.952 1414 907.43 1416.33 899.83L1429.13 857.961C1432.63 846.517 1426.15 834.079 1423.52 822.395C1422.59 818.251 1422.69 813.82 1424.02 809.473C1428.11 796.089 1442.31 788.569 1455.74 792.675C1469.17 796.782 1476.74 810.96 1472.65 824.343C1471.32 828.691 1468.92 832.419 1465.83 835.332C1457.11 843.547 1444.79 850.235 1441.29 861.679L1430.48 897.017C1426.98 908.461 1433.46 920.898 1436.09 932.583C1437.02 936.725 1436.92 941.158 1435.59 945.506C1431.5 958.889 1417.3 966.409 1403.87 962.302C1399.51 960.968 1395.76 958.572 1392.84 955.484C1384.58 946.776 1377.85 934.472 1366.37 930.961L1330.91 920.119C1319.43 916.608 1306.97 923.044 1295.26 925.645C1291.1 926.567 1286.66 926.461 1282.3 925.127C1268.87 921.021 1261.3 906.842 1265.39 893.459C1269.48 880.076 1283.69 872.556 1297.12 876.662Z" fill="#313131"/>
<path d="M1151.32 1205.56C1152.65 1201.21 1155.05 1197.48 1158.14 1194.57C1166.85 1186.36 1179.18 1179.67 1182.68 1168.23L1195.49 1126.36C1197.81 1118.76 1194.01 1110.73 1190.26 1103.71C1186.51 1096.69 1181.96 1089.06 1174.33 1086.73L1132.32 1073.88C1120.84 1070.37 1108.38 1076.81 1096.67 1079.41C1092.51 1080.33 1088.07 1080.22 1083.71 1078.89C1070.28 1074.78 1062.71 1060.61 1066.8 1047.22C1070.9 1033.84 1085.1 1026.32 1098.53 1030.43C1102.89 1031.76 1106.63 1034.16 1109.56 1037.24C1117.81 1045.95 1124.54 1058.25 1136.03 1061.77L1171.48 1072.61C1182.97 1076.12 1195.43 1069.68 1207.14 1067.08C1211.29 1066.16 1215.74 1066.27 1220.1 1067.6C1233.53 1071.71 1241.09 1085.89 1237 1099.27C1235.67 1103.62 1233.28 1107.35 1230.19 1110.26C1221.47 1118.47 1209.14 1125.16 1205.64 1136.6L1194.84 1171.94C1191.34 1183.39 1197.82 1195.82 1200.45 1207.51C1201.38 1211.65 1201.28 1216.08 1199.95 1220.43C1195.86 1233.81 1181.65 1241.33 1168.23 1237.23C1154.8 1233.12 1147.23 1218.94 1151.32 1205.56Z" fill="#313131"/>
<path d="M1560.35 887.358C1561.68 883.01 1564.08 879.282 1567.17 876.369C1575.89 868.154 1588.22 861.467 1591.71 850.023L1604.52 808.154C1606.84 800.554 1603.04 792.531 1599.29 785.508C1595.54 778.485 1590.99 770.859 1583.36 768.527L1541.35 755.68C1529.87 752.168 1517.41 758.604 1505.7 761.206C1501.54 762.129 1497.1 762.021 1492.74 760.688C1479.31 756.581 1471.74 742.403 1475.83 729.02C1479.93 715.637 1494.13 708.117 1507.56 712.223C1511.92 713.556 1515.66 715.954 1518.59 719.041C1526.84 727.748 1533.57 740.052 1545.06 743.563L1580.52 754.407C1592 757.918 1604.46 751.482 1616.17 748.88C1620.32 747.958 1624.77 748.065 1629.13 749.398C1642.56 753.504 1650.13 767.683 1646.03 781.066C1644.7 785.413 1642.31 789.143 1639.22 792.055C1630.5 800.27 1618.18 806.958 1614.68 818.402L1603.87 853.74C1600.37 865.184 1606.85 877.622 1609.48 889.306C1610.41 893.449 1610.31 897.88 1608.98 902.228C1604.89 915.611 1590.69 923.132 1577.26 919.026C1563.83 914.919 1556.26 900.741 1560.35 887.358Z" fill="#313131"/>
<path d="M1274.05 978.108C1272.72 982.456 1270.33 986.185 1267.24 989.097C1258.52 997.312 1246.19 1004 1242.69 1015.44L1229.89 1057.31C1227.57 1064.91 1231.37 1072.94 1235.12 1079.96C1238.87 1086.98 1243.42 1094.61 1251.04 1096.94L1293.05 1109.79C1304.54 1113.3 1317 1106.86 1328.71 1104.26C1332.86 1103.34 1337.31 1103.45 1341.67 1104.78C1355.1 1108.89 1362.67 1123.06 1358.57 1136.45C1354.48 1149.83 1340.28 1157.35 1326.85 1153.24C1322.49 1151.91 1318.74 1149.51 1315.82 1146.43C1307.56 1137.72 1300.83 1125.41 1289.35 1121.9L1253.89 1111.06C1242.41 1107.55 1229.95 1113.98 1218.24 1116.59C1214.09 1117.51 1209.64 1117.4 1205.28 1116.07C1191.85 1111.96 1184.28 1097.78 1188.37 1084.4C1189.7 1080.05 1192.1 1076.32 1195.19 1073.41C1203.9 1065.2 1216.23 1058.51 1219.73 1047.06L1230.54 1011.73C1234.04 1000.28 1227.56 987.844 1224.93 976.16C1224 972.017 1224.09 967.586 1225.42 963.238C1229.52 949.855 1243.72 942.334 1257.15 946.44C1270.58 950.547 1278.14 964.725 1274.05 978.108Z" fill="#313131"/>
<path d="M1683.08 659.905C1681.75 664.253 1679.36 667.982 1676.27 670.895C1667.55 679.11 1655.23 685.797 1651.73 697.242L1638.92 739.111C1636.6 746.711 1640.4 754.733 1644.15 761.756C1647.9 768.778 1652.45 776.406 1660.08 778.737L1702.09 791.584C1713.57 795.095 1726.03 788.659 1737.74 786.058C1741.89 785.136 1746.34 785.243 1750.7 786.577C1764.13 790.683 1771.7 804.861 1767.61 818.244C1763.51 831.628 1749.31 839.148 1735.88 835.041C1731.52 833.707 1727.77 831.311 1724.85 828.223C1716.59 819.516 1709.86 807.211 1698.38 803.7L1662.92 792.858C1651.44 789.347 1638.98 795.782 1627.27 798.384C1623.12 799.307 1618.67 799.2 1614.31 797.865C1600.88 793.759 1593.31 779.581 1597.4 766.197C1598.73 761.85 1601.13 758.121 1604.22 755.208C1612.94 746.993 1625.26 740.307 1628.76 728.862L1639.57 693.525C1643.07 682.08 1636.59 669.642 1633.96 657.957C1633.03 653.815 1633.12 649.383 1634.45 645.035C1638.55 631.652 1652.75 624.131 1666.18 628.238C1679.61 632.345 1687.18 646.522 1683.08 659.905Z" fill="#313131"/>
<path d="M1098.53 1030.43C1102.89 1031.76 1106.63 1034.16 1109.56 1037.24C1117.81 1045.95 1124.54 1058.25 1136.03 1061.77L1178.04 1074.61C1185.66 1076.95 1193.7 1073.17 1200.73 1069.44C1207.77 1065.72 1215.41 1061.2 1217.74 1053.6L1230.54 1011.73C1234.04 1000.28 1227.56 987.844 1224.93 976.16C1224 972.017 1224.09 967.586 1225.42 963.238C1229.52 949.855 1243.72 942.334 1257.15 946.44C1270.58 950.546 1278.14 964.724 1274.05 978.108C1272.72 982.456 1270.33 986.185 1267.24 989.097C1258.52 997.312 1246.19 1004 1242.69 1015.44L1231.89 1050.78C1228.39 1062.23 1234.87 1074.66 1237.5 1086.35C1238.43 1090.49 1238.33 1094.92 1237 1099.27C1232.91 1112.65 1218.7 1120.17 1205.28 1116.07C1200.92 1114.73 1197.17 1112.34 1194.25 1109.25C1185.99 1100.54 1179.26 1088.24 1167.78 1084.73L1132.32 1073.88C1120.84 1070.37 1108.38 1076.81 1096.67 1079.41C1092.51 1080.33 1088.07 1080.22 1083.71 1078.89C1070.28 1074.78 1062.71 1060.61 1066.8 1047.22C1070.9 1033.84 1085.1 1026.32 1098.53 1030.43Z" fill="#313131"/>
<path d="M1507.56 712.223C1511.92 713.556 1515.66 715.954 1518.59 719.041C1526.84 727.748 1533.57 740.052 1545.06 743.563L1587.07 756.412C1594.69 758.744 1602.73 754.965 1609.77 751.24C1616.8 747.516 1624.44 742.994 1626.77 735.394L1639.57 693.525C1643.07 682.08 1636.59 669.642 1633.96 657.957C1633.03 653.815 1633.12 649.383 1634.45 645.035C1638.55 631.652 1652.75 624.131 1666.18 628.238C1679.61 632.344 1687.18 646.522 1683.08 659.905C1681.75 664.253 1679.36 667.982 1676.27 670.895C1667.55 679.11 1655.23 685.797 1651.73 697.242L1640.92 732.579C1637.42 744.023 1643.9 756.461 1646.53 768.145C1647.46 772.289 1647.36 776.718 1646.03 781.066C1641.94 794.449 1627.74 801.971 1614.31 797.865C1609.95 796.531 1606.2 794.134 1603.28 791.048C1595.02 782.34 1588.29 770.036 1576.81 766.524L1541.35 755.68C1529.87 752.168 1517.41 758.604 1505.7 761.206C1501.54 762.129 1497.1 762.021 1492.74 760.688C1479.31 756.581 1471.74 742.403 1475.83 729.02C1479.93 715.637 1494.13 708.117 1507.56 712.223Z" fill="#313131"/>
<path d="M1460.4 1112.08C1431.51 1103.25 1400.93 1119.51 1392.1 1148.39C1383.27 1177.28 1399.52 1207.86 1428.41 1216.69C1457.3 1225.53 1487.88 1209.27 1496.71 1180.38C1505.55 1151.5 1489.29 1120.92 1460.4 1112.08Z" fill="#313131"/>
<path d="M1385.75 617.373C1356.86 608.54 1326.28 624.797 1317.45 653.685C1308.61 682.573 1324.87 713.153 1353.76 721.986C1382.65 730.82 1413.23 714.563 1422.06 685.675C1430.89 656.787 1414.64 626.207 1385.75 617.373Z" fill="#313131"/>
<path d="M1412.43 527.853C1415.93 528.921 1418.99 530.727 1421.5 533.046C1430.32 541.183 1437.07 553.731 1448.55 557.242L1485.83 568.642C1492.87 570.794 1500.29 567.307 1506.78 563.868C1513.28 560.43 1520.33 556.255 1522.47 549.24L1533.83 512.087C1537.33 500.643 1530.66 488.056 1528.82 476.223C1528.3 472.851 1528.51 469.313 1529.57 465.833C1533.35 453.479 1546.46 446.537 1558.86 450.327C1571.25 454.118 1578.24 467.205 1574.46 479.559C1573.4 483.039 1571.59 486.09 1569.27 488.592C1561.13 497.372 1548.56 504.074 1545.06 515.519L1536 545.147C1532.5 556.591 1539.17 569.178 1541.01 581.01C1541.53 584.383 1541.32 587.921 1540.26 591.401C1536.48 603.755 1523.37 610.697 1510.98 606.906C1507.48 605.839 1504.42 604.033 1501.91 601.714C1493.09 593.576 1486.34 581.029 1474.86 577.517L1445.13 568.426C1433.65 564.915 1421.04 571.544 1409.18 573.358C1405.8 573.874 1402.25 573.658 1398.75 572.59C1386.36 568.8 1379.37 555.712 1383.15 543.358C1386.93 531.005 1400.04 524.063 1412.43 527.853Z" fill="#313131"/>
<path d="M1276.1 355.584C1272.61 354.515 1269.54 352.713 1267.03 350.393C1258.21 342.254 1251.47 329.706 1239.98 326.195L1202.7 314.795C1195.67 312.643 1188.25 316.13 1181.75 319.571C1175.26 323.007 1168.21 327.182 1166.06 334.198L1154.7 371.35C1151.2 382.795 1157.87 395.382 1159.71 407.214C1160.23 410.586 1160.03 414.125 1158.96 417.605C1155.18 429.959 1142.07 436.901 1129.68 433.11C1117.28 429.32 1110.29 416.232 1114.07 403.878C1115.14 400.398 1116.94 397.347 1119.26 394.845C1127.41 386.066 1139.98 379.363 1143.48 367.919L1152.54 338.291C1156.04 326.847 1149.36 314.258 1147.52 302.428C1147 299.054 1147.21 295.517 1148.27 292.035C1152.05 279.684 1165.16 272.742 1177.56 276.532C1181.05 277.601 1184.11 279.403 1186.63 281.724C1195.45 289.862 1202.19 302.41 1213.67 305.922L1243.4 315.012C1254.89 318.524 1267.5 311.895 1279.36 310.08C1282.74 309.563 1286.29 309.781 1289.78 310.85C1302.17 314.639 1309.16 327.728 1305.39 340.078C1301.61 352.433 1288.49 359.373 1276.1 355.584Z" fill="#313131"/>
<path d="M1279.37 555.343C1280.7 550.996 1283.1 547.266 1286.19 544.354C1294.9 536.139 1307.23 529.451 1310.73 518.007L1323.53 476.138C1325.86 468.538 1322.05 460.516 1318.3 453.494C1314.55 446.471 1310 438.843 1302.38 436.511L1260.37 423.665C1248.89 420.153 1236.43 426.589 1224.71 429.191C1220.56 430.113 1216.12 430.007 1211.75 428.672C1198.32 424.566 1190.76 410.388 1194.85 397.005C1198.94 383.621 1213.14 376.101 1226.57 380.207C1230.94 381.542 1234.68 383.938 1237.61 387.026C1245.86 395.733 1252.59 408.037 1264.07 411.549L1299.53 422.391C1311.01 425.902 1323.47 419.466 1335.19 416.865C1339.34 415.943 1343.78 416.049 1348.15 417.384C1361.57 421.49 1369.14 435.668 1365.05 449.051C1363.72 453.399 1361.32 457.128 1358.23 460.04C1349.52 468.255 1337.19 474.943 1333.69 486.387L1322.89 521.725C1319.39 533.169 1325.86 545.607 1328.5 557.292C1329.43 561.434 1329.33 565.866 1328 570.213C1323.91 583.597 1309.7 591.117 1296.28 587.011C1282.85 582.905 1275.28 568.727 1279.37 555.343Z" fill="#313131"/>
<path d="M1402.1 327.888C1400.77 332.236 1398.37 335.964 1395.29 338.877C1386.57 347.092 1374.24 353.78 1370.74 365.225L1357.94 407.094C1355.62 414.693 1359.42 422.715 1363.17 429.738C1366.92 436.761 1371.47 444.388 1379.09 446.721L1421.1 459.567C1432.59 463.078 1445.05 456.643 1456.76 454.041C1460.91 453.118 1465.36 453.225 1469.72 454.558C1483.15 458.666 1490.72 472.844 1486.62 486.227C1482.53 499.61 1468.33 507.131 1454.9 503.023C1450.54 501.69 1446.79 499.293 1443.87 496.206C1435.61 487.499 1428.88 475.194 1417.4 471.683L1381.94 460.84C1370.46 457.328 1358 463.764 1346.29 466.367C1342.13 467.289 1337.69 467.181 1333.33 465.848C1319.9 461.742 1312.33 447.564 1316.42 434.18C1317.75 429.833 1320.15 426.103 1323.24 423.191C1331.95 414.976 1344.28 408.288 1347.78 396.844L1358.59 361.506C1362.09 350.062 1355.61 337.624 1352.98 325.94C1352.04 321.797 1352.14 317.366 1353.47 313.018C1357.57 299.635 1371.77 292.115 1385.2 296.221C1398.63 300.327 1406.19 314.505 1402.1 327.888Z" fill="#313131"/>
<path d="M1226.57 380.207C1230.94 381.542 1234.68 383.938 1237.61 387.026C1245.86 395.733 1252.59 408.037 1264.07 411.549L1306.08 424.394C1313.71 426.726 1321.75 422.948 1328.78 419.223C1335.82 415.497 1343.46 410.975 1345.78 403.375L1358.59 361.506C1362.09 350.062 1355.61 337.624 1352.98 325.94C1352.04 321.797 1352.14 317.366 1353.47 313.018C1357.57 299.635 1371.77 292.115 1385.2 296.221C1398.63 300.327 1406.19 314.505 1402.1 327.888C1400.77 332.236 1398.37 335.964 1395.29 338.877C1386.57 347.092 1374.24 353.78 1370.74 365.225L1359.94 400.562C1356.44 412.006 1362.92 424.444 1365.55 436.128C1366.48 440.271 1366.38 444.704 1365.05 449.051C1360.96 462.435 1346.75 469.954 1333.33 465.848C1328.96 464.513 1325.22 462.117 1322.29 459.029C1314.04 450.322 1307.31 438.018 1295.82 434.506L1260.37 423.665C1248.89 420.153 1236.43 426.589 1224.71 429.191C1220.56 430.113 1216.12 430.007 1211.75 428.672C1198.32 424.566 1190.76 410.388 1194.85 397.005C1198.94 383.621 1213.14 376.101 1226.57 380.207Z" fill="#313131"/>
<path d="M1080.78 709.106C1082.11 704.758 1084.51 701.03 1087.59 698.116C1096.31 689.902 1108.64 683.215 1112.14 671.771L1124.94 629.902C1127.27 622.302 1123.46 614.279 1119.71 607.256C1115.96 600.233 1111.41 592.606 1103.79 590.275L1061.78 577.427C1050.29 573.916 1037.83 580.352 1026.12 582.954C1021.97 583.876 1017.52 583.769 1013.16 582.435C999.735 578.329 992.167 564.151 996.259 550.768C1000.35 537.385 1014.56 529.864 1027.98 533.971C1032.34 535.304 1036.09 537.701 1039.02 540.789C1047.27 549.496 1054 561.8 1065.48 565.311L1100.94 576.155C1112.42 579.666 1124.88 573.23 1136.6 570.628C1140.75 569.705 1145.19 569.813 1149.55 571.146C1162.98 575.252 1170.55 589.431 1166.46 602.814C1165.13 607.161 1162.73 610.891 1159.64 613.803C1150.93 622.018 1138.6 628.706 1135.1 640.15L1124.29 675.488C1120.79 686.932 1127.27 699.37 1129.9 711.054C1130.84 715.197 1130.74 719.628 1129.41 723.976C1125.31 737.359 1111.11 744.88 1097.68 740.773C1084.25 736.667 1076.69 722.489 1080.78 709.106Z" fill="#313131"/>
<path d="M1489.81 390.903C1491.14 386.556 1493.54 382.827 1496.63 379.914C1505.34 371.699 1517.67 365.012 1521.17 353.568L1533.97 311.699C1536.3 304.099 1532.49 296.077 1528.74 289.054C1524.99 282.031 1520.45 274.404 1512.82 272.072L1470.81 259.225C1459.32 255.713 1446.86 262.149 1435.15 264.752C1431 265.674 1426.56 265.567 1422.19 264.233C1408.77 260.127 1401.2 245.949 1405.29 232.565C1409.38 219.182 1423.59 211.662 1437.01 215.768C1441.38 217.102 1445.12 219.499 1448.05 222.587C1456.3 231.293 1463.03 243.597 1474.51 247.109L1509.97 257.952C1521.45 261.463 1533.92 255.028 1545.63 252.426C1549.78 251.503 1554.22 251.61 1558.59 252.944C1572.01 257.05 1579.58 271.228 1575.49 284.611C1574.16 288.959 1571.76 292.688 1568.67 295.601C1559.96 303.816 1547.63 310.503 1544.13 321.947L1533.33 357.285C1529.83 368.729 1536.3 381.167 1538.93 392.851C1539.87 396.995 1539.77 401.426 1538.44 405.774C1534.35 419.157 1520.14 426.677 1506.71 422.571C1493.29 418.465 1485.72 404.287 1489.81 390.903Z" fill="#313131"/>
<path d="M1203.51 481.653C1202.18 486.001 1199.78 489.73 1196.69 492.643C1187.98 500.858 1175.65 507.545 1172.15 518.99L1159.35 560.858C1157.02 568.458 1160.83 576.481 1164.58 583.504C1168.32 590.526 1172.88 598.154 1180.5 600.485L1222.51 613.332C1233.99 616.843 1246.45 610.407 1258.17 607.806C1262.32 606.884 1266.76 606.99 1271.13 608.324C1284.55 612.431 1292.12 626.609 1288.03 639.992C1283.94 653.375 1269.73 660.896 1256.31 656.789C1251.94 655.455 1248.2 653.059 1245.27 649.971C1237.02 641.264 1230.29 628.959 1218.8 625.448L1183.35 614.606C1171.87 611.094 1159.41 617.53 1147.69 620.132C1143.54 621.055 1139.1 620.948 1134.73 619.613C1121.3 615.507 1113.74 601.329 1117.83 587.945C1119.16 583.598 1121.56 579.869 1124.64 576.956C1133.36 568.741 1145.69 562.055 1149.19 550.61L1160 515.273C1163.49 503.828 1157.01 491.39 1154.38 479.705C1153.45 475.563 1153.55 471.131 1154.88 466.783C1158.97 453.4 1173.18 445.879 1186.6 449.986C1200.03 454.093 1207.6 468.27 1203.51 481.653Z" fill="#313131"/>
<path d="M1612.54 163.451C1611.21 167.799 1608.81 171.528 1605.72 174.44C1597.01 182.655 1584.68 189.343 1581.18 200.787L1568.38 242.656C1566.05 250.256 1569.86 258.278 1573.61 265.301C1577.36 272.323 1581.91 279.951 1589.53 282.283L1631.54 295.129C1643.02 298.64 1655.48 292.205 1667.2 289.603C1671.35 288.681 1675.8 288.788 1680.16 290.122C1693.59 294.228 1701.15 308.406 1697.06 321.79C1692.97 335.173 1678.77 342.693 1665.34 338.587C1660.98 337.253 1657.23 334.856 1654.3 331.768C1646.05 323.061 1639.32 310.757 1627.84 307.245L1592.38 296.403C1580.9 292.892 1568.44 299.328 1556.72 301.929C1552.57 302.852 1548.13 302.745 1543.76 301.41C1530.34 297.304 1522.77 283.126 1526.86 269.743C1528.19 265.395 1530.59 261.667 1533.68 258.753C1542.39 250.539 1554.72 243.852 1558.22 232.408L1569.03 197.07C1572.53 185.626 1566.05 173.187 1563.41 161.503C1562.48 157.36 1562.58 152.928 1563.91 148.58C1568 135.197 1582.21 127.677 1595.63 131.783C1609.07 135.89 1616.63 150.068 1612.54 163.451Z" fill="#313131"/>
<path d="M1027.98 533.971C1032.34 535.304 1036.09 537.701 1039.02 540.789C1047.27 549.496 1054 561.8 1065.48 565.311L1107.49 578.16C1115.12 580.492 1123.15 576.713 1130.19 572.988C1137.23 569.263 1144.87 564.742 1147.19 557.142L1160 515.273C1163.49 503.828 1157.01 491.39 1154.38 479.705C1153.45 475.563 1153.55 471.131 1154.88 466.783C1158.97 453.4 1173.18 445.879 1186.6 449.986C1200.03 454.092 1207.6 468.27 1203.51 481.653C1202.18 486.001 1199.78 489.73 1196.69 492.643C1187.98 500.858 1175.65 507.545 1172.15 518.99L1161.34 554.327C1157.85 565.771 1164.32 578.209 1166.95 589.893C1167.89 594.037 1167.79 598.466 1166.46 602.814C1162.37 616.197 1148.16 623.719 1134.73 619.613C1130.37 618.279 1126.63 615.882 1123.7 612.796C1115.45 604.088 1108.72 591.784 1097.23 588.272L1061.78 577.427C1050.29 573.916 1037.83 580.352 1026.12 582.954C1021.97 583.876 1017.52 583.769 1013.16 582.435C999.735 578.329 992.167 564.151 996.259 550.768C1000.35 537.385 1014.56 529.864 1027.98 533.971Z" fill="#313131"/>
<path d="M1437.01 215.768C1441.38 217.102 1445.12 219.499 1448.05 222.587C1456.3 231.293 1463.03 243.597 1474.51 247.109L1516.53 259.958C1524.15 262.29 1532.19 258.511 1539.22 254.786C1546.26 251.061 1553.9 246.539 1556.22 238.939L1569.03 197.07C1572.53 185.626 1566.05 173.187 1563.41 161.503C1562.48 157.36 1562.58 152.928 1563.91 148.58C1568 135.197 1582.21 127.677 1595.63 131.783C1609.06 135.889 1616.63 150.067 1612.54 163.451C1611.21 167.799 1608.81 171.528 1605.72 174.44C1597.01 182.655 1584.68 189.343 1581.18 200.787L1570.38 236.125C1566.88 247.569 1573.35 260.006 1575.98 271.691C1576.92 275.834 1576.82 280.263 1575.49 284.611C1571.4 297.994 1557.19 305.517 1543.76 301.41C1539.4 300.077 1535.66 297.68 1532.73 294.593C1524.48 285.885 1517.75 273.581 1506.27 270.07L1470.81 259.225C1459.32 255.713 1446.86 262.149 1435.15 264.752C1431 265.674 1426.56 265.567 1422.19 264.233C1408.77 260.127 1401.2 245.949 1405.29 232.565C1409.38 219.182 1423.59 211.662 1437.01 215.768Z" fill="#313131"/>
<path d="M1256.31 139.275C1227.42 130.441 1196.84 146.698 1188 175.586C1179.17 204.474 1195.43 235.054 1224.32 243.888C1253.2 252.722 1283.78 236.464 1292.62 207.576C1301.45 178.688 1285.19 148.109 1256.31 139.275Z" fill="#313131"/>
<path d="M1583.77 263.764C1863.71 506.7 1934.86 1112.14 1634.74 1310.56C1519.56 1386.57 1407.51 1368.31 1293.8 1349.99C1171.02 1330.25 1046.37 1310.31 913.795 1409.9C584.326 1656.93 320.873 1511.52 125.213 1229C-21.6022 1017.01 -100.463 879.242 -176.604 712.576C-295.219 453.032 -189.322 404.101 -69.3414 383.222C50.6388 362.343 270.349 500.938 751.615 250.147C1232.88 -0.64334 1431.59 131.7 1583.77 263.764Z" fill="url(#paint0_linear)" fill-opacity="0.2"/>
<defs>
<linearGradient id="paint0_linear" x1="1444.42" y1="1347.56" x2="205.669" y2="169.642" gradientUnits="userSpaceOnUse">
<stop stop-color="#0FBDE9"/>
<stop offset="0.0001" stop-color="#0FBDE9"/>
<stop offset="0.864583" stop-color="#5C34FA"/>
</linearGradient>
</defs>
</svg>
