<svg width="1440" height="1673" viewBox="0 0 1440 1673" fill="none" xmlns="http://www.w3.org/2000/svg">
<path d="M955.046 418.567C950.917 417.128 947.334 414.825 944.433 411.934C934.254 401.789 926.76 386.461 913.179 381.729L869.091 366.367C860.767 363.466 851.727 367.298 843.796 371.114C835.865 374.929 827.233 379.6 824.342 387.897L809.031 431.836C804.315 445.371 811.72 460.742 813.376 474.987C813.849 479.048 813.434 483.273 812 487.388C806.909 501.999 790.898 509.702 776.238 504.594C761.579 499.486 753.821 483.501 758.912 468.89C760.346 464.775 762.647 461.207 765.54 458.32C775.691 448.188 791.044 440.746 795.76 427.212L807.969 392.171C812.685 378.637 805.281 363.266 803.625 349.02C803.152 344.959 803.567 340.735 805.001 336.619C810.092 322.008 826.103 314.305 840.762 319.413C844.892 320.852 848.474 323.155 851.376 326.046C861.555 336.191 869.049 351.519 882.629 356.251L917.788 368.502C931.369 373.234 946.765 365.882 961.045 364.259C965.115 363.797 969.352 364.219 973.482 365.658C988.141 370.766 995.899 386.751 990.808 401.361C985.717 415.972 969.706 423.675 955.046 418.567Z" fill="#313131"/>
<path d="M1110.26 631.021C1114.39 632.461 1117.98 634.759 1120.88 637.652C1131.05 647.799 1138.55 663.127 1152.13 667.859L1196.22 683.221C1204.54 686.122 1213.58 682.291 1221.51 678.472C1229.44 674.659 1238.08 669.988 1240.97 661.691L1256.28 617.752C1260.99 604.217 1253.59 588.845 1251.93 574.6C1251.46 570.54 1251.88 566.315 1253.31 562.199C1258.4 547.589 1274.41 539.885 1289.07 544.994C1303.73 550.102 1311.49 566.087 1306.4 580.697C1304.96 584.813 1302.66 588.381 1299.77 591.269C1289.62 601.4 1274.26 608.841 1269.55 622.376L1257.34 657.416C1252.62 670.95 1260.03 686.324 1261.68 700.567C1262.16 704.629 1261.74 708.852 1260.31 712.971C1255.22 727.578 1239.21 735.281 1224.55 730.172C1220.42 728.732 1216.83 726.434 1213.93 723.541C1203.76 713.395 1196.26 698.067 1182.68 693.335L1147.52 681.084C1133.94 676.352 1118.54 683.704 1104.26 685.329C1100.19 685.792 1095.96 685.367 1091.83 683.927C1077.17 678.82 1069.41 662.834 1074.5 648.227C1079.59 633.616 1095.6 625.915 1110.26 631.021Z" fill="#313131"/>
<path d="M1115.56 391.805C1113.77 396.947 1110.73 401.3 1106.9 404.642C1096.09 414.071 1081.03 421.507 1076.31 435.041L1059.06 484.558C1055.93 493.546 1060.11 503.323 1064.27 511.899C1068.43 520.477 1073.53 529.816 1082.55 532.958L1132.23 550.27C1145.81 555.002 1161.02 547.874 1175.16 545.301C1180.17 544.389 1185.48 544.721 1190.64 546.519C1206.52 552.053 1214.93 569.37 1209.41 585.198C1203.9 601.026 1186.55 609.371 1170.67 603.837C1165.51 602.039 1161.14 598.999 1157.78 595.168C1148.3 584.367 1140.82 569.331 1127.24 564.599L1085.3 549.988C1071.72 545.256 1056.51 552.384 1042.38 554.957C1037.36 555.869 1032.05 555.537 1026.89 553.738C1011.01 548.205 1002.6 530.888 1008.12 515.06C1009.91 509.918 1012.95 505.566 1016.78 502.223C1027.59 492.793 1042.65 485.358 1047.37 471.823L1061.93 430.031C1066.65 416.496 1059.47 401.312 1056.86 387.207C1055.94 382.207 1056.26 376.908 1058.05 371.766C1063.56 355.938 1080.91 347.593 1096.79 353.126C1112.67 358.66 1121.08 375.977 1115.56 391.805Z" fill="#313131"/>
<path d="M958.19 658.355C959.982 653.213 963.024 648.861 966.854 645.518C977.664 636.088 992.723 628.653 997.439 615.118L1014.69 565.601C1017.82 556.613 1013.64 546.838 1009.48 538.26C1005.32 529.683 1000.23 520.345 991.205 517.201L941.522 499.89C927.941 495.158 912.732 502.285 898.594 504.859C893.584 505.772 888.269 505.439 883.112 503.642C867.227 498.107 858.823 480.789 864.338 464.962C869.853 449.134 887.199 440.789 903.084 446.324C908.241 448.121 912.612 451.162 915.97 454.992C925.447 465.793 932.934 480.829 946.515 485.561L988.451 500.173C1002.03 504.905 1017.24 497.777 1031.37 495.203C1036.39 494.291 1041.7 494.624 1046.86 496.421C1062.74 501.955 1071.15 519.272 1065.63 535.1C1063.84 540.242 1060.8 544.595 1056.97 547.937C1046.16 557.366 1031.1 564.802 1026.38 578.336L1011.82 620.129C1007.1 633.664 1014.28 648.847 1016.89 662.952C1017.82 667.954 1017.49 673.252 1015.7 678.394C1010.19 694.222 992.84 702.567 976.959 697.033C961.079 691.5 952.675 674.183 958.19 658.355Z" fill="#313131"/>
<path d="M1170.67 603.837C1165.51 602.039 1161.14 598.999 1157.78 595.168C1148.3 584.367 1140.82 569.331 1127.24 564.599L1077.55 547.289C1068.53 544.146 1058.74 548.297 1050.15 552.43C1041.56 556.565 1032.2 561.624 1029.07 570.612L1011.82 620.129C1007.1 633.664 1014.28 648.847 1016.89 662.952C1017.82 667.954 1017.49 673.252 1015.7 678.394C1010.19 694.222 992.84 702.567 976.959 697.033C961.079 691.5 952.675 674.183 958.19 658.355C959.982 653.213 963.024 648.861 966.854 645.518C977.664 636.088 992.723 628.653 997.439 615.118L1012 573.326C1016.72 559.791 1009.54 544.608 1006.93 530.503C1006.01 525.503 1006.33 520.202 1008.12 515.06C1013.64 499.232 1030.98 490.888 1046.86 496.421C1052.02 498.22 1056.39 501.26 1059.75 505.091C1069.23 515.892 1076.72 530.928 1090.3 535.66L1132.23 550.27C1145.81 555.002 1161.02 547.874 1175.16 545.301C1180.17 544.389 1185.48 544.721 1190.64 546.519C1206.52 552.053 1214.93 569.37 1209.41 585.198C1203.9 601.026 1186.55 609.371 1170.67 603.837Z" fill="#313131"/>
<path d="M1360.32 216.946C1358.53 222.088 1355.49 226.44 1351.66 229.784C1340.85 239.213 1325.78 246.647 1321.07 260.181L1303.81 309.698C1300.68 318.687 1304.87 328.463 1309.03 337.041C1313.19 345.619 1318.28 354.956 1327.3 358.098L1376.99 375.411C1390.57 380.143 1405.78 373.016 1419.91 370.441C1424.93 369.529 1430.24 369.863 1435.4 371.66C1451.28 377.193 1459.68 394.51 1454.17 410.338C1448.65 426.166 1431.31 434.511 1415.43 428.978C1410.27 427.18 1405.9 424.139 1402.54 420.308C1393.06 409.508 1385.58 394.472 1372 389.74L1330.06 375.128C1316.48 370.396 1301.27 377.524 1287.13 380.097C1282.12 381.01 1276.81 380.677 1271.65 378.88C1255.77 373.347 1247.37 356.029 1252.88 340.202C1254.67 335.06 1257.71 330.707 1261.55 327.364C1272.35 317.935 1287.41 310.499 1292.13 296.965L1306.69 255.172C1311.41 241.638 1304.23 226.454 1301.62 212.349C1300.69 207.347 1301.02 202.049 1302.81 196.907C1308.33 181.079 1325.67 172.734 1341.55 178.268C1357.43 183.801 1365.84 201.118 1360.32 216.946Z" fill="#313131"/>
<path d="M856.129 578.895C854.338 584.037 851.296 588.388 847.465 591.733C836.656 601.161 821.592 608.595 816.876 622.13L799.622 671.647C796.49 680.635 800.675 690.412 804.838 698.99C809.001 707.568 814.092 716.905 823.11 720.047L872.797 737.36C886.378 742.092 901.587 734.965 915.721 732.39C920.735 731.478 926.05 731.812 931.207 733.609C947.088 739.142 955.492 756.459 949.977 772.287C944.462 788.115 927.116 796.46 911.235 790.926C906.078 789.129 901.707 786.087 898.345 782.257C888.872 771.457 881.385 756.421 867.805 751.689L825.868 737.077C812.288 732.345 797.079 739.472 782.941 742.046C777.931 742.959 772.616 742.626 767.459 740.829C751.578 735.295 743.174 717.978 748.689 702.151C750.481 697.009 753.519 692.656 757.353 689.313C768.163 679.884 783.222 672.448 787.938 658.914L802.5 617.121C807.217 603.586 800.039 588.403 797.429 574.298C796.502 569.296 796.827 563.998 798.619 558.856C804.134 543.028 821.479 534.683 837.36 540.217C853.241 545.75 861.644 563.067 856.129 578.895Z" fill="#313131"/>
<path d="M1202.95 483.494C1204.74 478.352 1207.78 473.999 1211.62 470.656C1222.43 461.227 1237.49 453.792 1242.2 440.257L1259.46 390.74C1262.59 381.752 1258.4 371.976 1254.24 363.397C1250.08 354.821 1244.99 345.483 1235.97 342.34L1186.28 325.029C1172.7 320.297 1157.49 327.424 1143.36 329.997C1138.34 330.909 1133.03 330.577 1127.87 328.779C1111.99 323.245 1103.59 305.928 1109.1 290.1C1114.62 274.272 1131.96 265.927 1147.84 271.461C1153 273.259 1157.37 276.3 1160.73 280.13C1170.21 290.932 1177.7 305.967 1191.28 310.699L1233.21 325.31C1246.79 330.042 1262 322.915 1276.14 320.341C1281.15 319.428 1286.46 319.762 1291.62 321.56C1307.5 327.094 1315.91 344.41 1310.39 360.238C1308.6 365.38 1305.56 369.732 1301.73 373.076C1290.92 382.505 1275.86 389.939 1271.14 403.473L1256.58 445.266C1251.86 458.801 1259.04 473.986 1261.65 488.091C1262.58 493.091 1262.26 498.391 1260.46 503.533C1254.95 519.36 1237.6 527.706 1221.72 522.172C1205.84 516.637 1197.44 499.321 1202.95 483.494Z" fill="#313131"/>
<path d="M698.761 845.443C700.553 840.3 703.59 835.948 707.425 832.605C718.235 823.176 733.294 815.74 738.01 802.206L755.264 752.689C758.396 743.701 754.211 733.924 750.048 725.346C745.889 716.77 740.794 707.431 731.776 704.289L682.093 686.978C668.512 682.246 653.303 689.373 639.165 691.946C634.152 692.858 628.838 692.525 623.679 690.728C607.798 685.194 599.394 667.877 604.909 652.049C610.424 636.221 627.769 627.876 643.651 633.41C648.81 635.208 653.18 638.249 656.541 642.079C666.018 652.88 673.505 667.916 687.086 672.648L729.018 687.259C742.598 691.991 757.808 684.863 771.945 682.29C776.955 681.377 782.27 681.71 787.432 683.509C803.312 689.042 811.716 706.359 806.201 722.187C804.41 727.329 801.367 731.681 797.537 735.025C786.727 744.454 771.664 751.888 766.948 765.422L752.386 807.215C747.67 820.749 754.852 835.935 757.461 850.04C758.384 855.04 758.063 860.339 756.272 865.482C750.757 881.309 733.411 889.654 717.53 884.121C701.646 878.586 693.246 861.27 698.761 845.443Z" fill="#313131"/>
<path d="M1415.43 428.978C1410.27 427.18 1405.9 424.139 1402.54 420.308C1393.06 409.508 1385.58 394.472 1372 389.74L1322.31 372.425C1313.29 369.283 1303.5 373.435 1294.91 377.568C1286.32 381.702 1276.96 386.761 1273.83 395.749L1256.58 445.266C1251.86 458.801 1259.04 473.986 1261.65 488.091C1262.58 493.091 1262.26 498.391 1260.46 503.533C1254.95 519.36 1237.6 527.706 1221.72 522.172C1205.84 516.639 1197.44 499.322 1202.95 483.494C1204.74 478.352 1207.78 473.999 1211.62 470.656C1222.43 461.227 1237.49 453.792 1242.2 440.257L1256.76 398.464C1261.48 384.93 1254.3 369.746 1251.69 355.641C1250.77 350.639 1251.09 345.344 1252.88 340.202C1258.4 324.374 1275.74 316.027 1291.62 321.56C1296.78 323.357 1301.15 326.399 1304.51 330.227C1313.99 341.029 1321.47 356.065 1335.05 360.797L1376.99 375.411C1390.57 380.143 1405.78 373.016 1419.91 370.441C1424.93 369.529 1430.24 369.863 1435.4 371.66C1451.28 377.193 1459.68 394.51 1454.17 410.338C1448.65 426.166 1431.31 434.511 1415.43 428.978Z" fill="#313131"/>
<path d="M911.235 790.926C906.078 789.129 901.707 786.087 898.345 782.257C888.872 771.457 881.385 756.421 867.805 751.689L818.118 734.374C809.1 731.232 799.309 735.384 790.717 739.517C782.124 743.651 772.771 748.71 769.639 757.698L752.386 807.215C747.67 820.749 754.852 835.935 757.461 850.04C758.384 855.04 758.063 860.339 756.272 865.482C750.757 881.309 733.411 889.654 717.53 884.121C701.65 878.587 693.246 861.271 698.761 845.443C700.553 840.3 703.59 835.948 707.425 832.605C718.235 823.176 733.294 815.74 738.01 802.206L752.572 760.413C757.288 746.879 750.11 731.695 747.501 717.59C746.573 712.588 746.898 707.292 748.689 702.151C754.204 686.323 771.551 677.975 787.432 683.509C792.589 685.306 796.96 688.348 800.317 692.176C809.795 702.978 817.282 718.014 830.862 722.746L872.797 737.36C886.378 742.092 901.587 734.965 915.721 732.39C920.735 731.478 926.05 731.812 931.207 733.609C947.088 739.142 955.492 756.459 949.977 772.287C944.462 788.115 927.116 796.46 911.235 790.926Z" fill="#313131"/>
<path d="M986.115 314.563C1020.28 326.467 1057.63 308.421 1069.53 274.257C1081.43 240.092 1063.39 202.745 1029.22 190.841C995.059 178.936 957.713 196.982 945.809 231.147C933.904 265.312 951.95 302.658 986.115 314.563Z" fill="#313131"/>
<path d="M1052.64 910.057C1086.8 921.962 1124.15 903.916 1136.05 869.751C1147.96 835.586 1129.91 798.24 1095.75 786.335C1061.58 774.431 1024.24 792.476 1012.33 826.641C1000.43 860.806 1018.47 898.153 1052.64 910.057Z" fill="#313131"/>
<path d="M1021.57 1014.06C1017.44 1012.62 1013.86 1010.32 1010.96 1007.43C1000.78 997.284 993.284 981.956 979.704 977.224L935.616 961.862C927.291 958.961 918.251 962.793 910.321 966.608C902.39 970.424 893.757 975.095 890.866 983.391L875.556 1027.33C870.84 1040.87 878.244 1056.24 879.901 1070.48C880.373 1074.54 879.958 1078.77 878.524 1082.88C873.434 1097.49 857.423 1105.2 842.763 1100.09C828.103 1094.98 820.346 1079 825.437 1064.38C826.871 1060.27 829.171 1056.7 832.065 1053.81C842.215 1043.68 857.568 1036.24 862.284 1022.71L874.494 987.666C879.209 974.131 871.806 958.76 870.149 944.514C869.676 940.454 870.091 936.229 871.525 932.114C876.616 917.503 892.627 909.8 907.287 914.908C911.417 916.347 914.999 918.649 917.9 921.54C928.08 931.686 935.573 947.014 949.154 951.746L984.312 963.997C997.893 968.729 1013.29 961.376 1027.57 959.754C1031.64 959.291 1035.88 959.714 1040.01 961.153C1054.67 966.261 1062.42 982.246 1057.33 996.856C1052.24 1011.47 1036.23 1019.17 1021.57 1014.06Z" fill="#313131"/>
<path d="M1182.08 987.299C1180.29 992.441 1177.25 996.794 1173.42 1000.14C1162.61 1009.57 1147.55 1017 1142.84 1030.54L1125.58 1080.05C1122.45 1089.04 1126.63 1098.82 1130.79 1107.39C1134.96 1115.97 1140.05 1125.31 1149.07 1128.45L1198.75 1145.76C1212.33 1150.5 1227.54 1143.37 1241.68 1140.8C1246.69 1139.88 1252 1140.22 1257.17 1142.01C1273.05 1147.55 1281.45 1164.86 1275.94 1180.69C1270.42 1196.52 1253.08 1204.87 1237.19 1199.33C1232.03 1197.53 1227.67 1194.49 1224.3 1190.66C1214.83 1179.86 1207.34 1164.83 1193.76 1160.09L1151.83 1145.48C1138.25 1140.75 1123.04 1147.88 1108.9 1150.45C1103.89 1151.36 1098.58 1151.03 1093.41 1149.23C1077.53 1143.7 1069.13 1126.38 1074.64 1110.55C1076.44 1105.41 1079.48 1101.06 1083.31 1097.72C1094.12 1088.29 1109.18 1080.85 1113.89 1067.32L1128.46 1025.53C1133.17 1011.99 1125.99 996.807 1123.38 982.702C1122.46 977.702 1122.78 972.402 1124.57 967.26C1130.09 951.432 1147.43 943.088 1163.31 948.621C1179.2 954.155 1187.6 971.471 1182.08 987.299Z" fill="#313131"/>
<path d="M1024.71 1253.85C1026.51 1248.71 1029.55 1244.36 1033.38 1241.01C1044.19 1231.58 1059.25 1224.15 1063.96 1210.61L1081.22 1161.1C1084.35 1152.11 1080.17 1142.33 1076.01 1133.76C1071.84 1125.18 1066.75 1115.84 1057.73 1112.7L1008.05 1095.38C994.466 1090.65 979.256 1097.78 965.119 1100.35C960.109 1101.27 954.794 1100.93 949.636 1099.14C933.751 1093.6 925.348 1076.28 930.863 1060.46C936.378 1044.63 953.723 1036.28 969.608 1041.82C974.766 1043.62 979.137 1046.66 982.494 1050.49C991.972 1061.29 999.459 1076.32 1013.04 1081.06L1054.98 1095.67C1068.56 1100.4 1083.77 1093.27 1097.9 1090.7C1102.91 1089.79 1108.23 1090.12 1113.38 1091.92C1129.27 1097.45 1137.67 1114.77 1132.15 1130.59C1130.36 1135.74 1127.32 1140.09 1123.49 1143.43C1112.68 1152.86 1097.62 1160.3 1092.91 1173.83L1078.34 1215.62C1073.63 1229.16 1080.81 1244.34 1083.41 1258.45C1084.34 1263.45 1084.02 1268.75 1082.23 1273.89C1076.71 1289.72 1059.36 1298.06 1043.48 1292.53C1027.6 1286.99 1019.2 1269.68 1024.71 1253.85Z" fill="#313131"/>
<path d="M1237.19 1199.33C1232.03 1197.53 1227.67 1194.49 1224.3 1190.66C1214.83 1179.86 1207.34 1164.83 1193.76 1160.09L1144.08 1142.78C1135.06 1139.64 1125.26 1143.79 1116.67 1147.92C1108.08 1152.06 1098.73 1157.12 1095.6 1166.11L1078.34 1215.62C1073.63 1229.16 1080.81 1244.34 1083.41 1258.45C1084.34 1263.45 1084.02 1268.75 1082.23 1273.89C1076.71 1289.72 1059.36 1298.06 1043.48 1292.53C1027.6 1286.99 1019.2 1269.68 1024.71 1253.85C1026.51 1248.71 1029.55 1244.36 1033.38 1241.01C1044.19 1231.58 1059.25 1224.15 1063.96 1210.61L1078.53 1168.82C1083.24 1155.29 1076.06 1140.1 1073.45 1126C1072.53 1121 1072.85 1115.7 1074.64 1110.55C1080.16 1094.73 1097.5 1086.38 1113.38 1091.92C1118.55 1093.71 1122.91 1096.75 1126.28 1100.59C1135.75 1111.39 1143.24 1126.42 1156.82 1131.15L1198.75 1145.76C1212.33 1150.5 1227.54 1143.37 1241.68 1140.8C1246.69 1139.88 1252 1140.22 1257.17 1142.01C1273.05 1147.55 1281.45 1164.86 1275.94 1180.69C1270.42 1196.52 1253.08 1204.87 1237.19 1199.33Z" fill="#313131"/>
<path d="M1426.85 812.441C1425.05 817.583 1422.01 821.934 1418.18 825.278C1407.37 834.707 1392.31 842.141 1387.59 855.676L1370.34 905.193C1367.21 914.181 1371.39 923.958 1375.55 932.535C1379.72 941.113 1384.81 950.451 1393.83 953.593L1443.51 970.906C1457.09 975.638 1472.3 968.51 1486.44 965.936C1491.45 965.024 1496.77 965.357 1501.92 967.155C1517.8 972.688 1526.21 990.005 1520.69 1005.83C1515.18 1021.66 1497.83 1030.01 1481.95 1024.47C1476.79 1022.68 1472.42 1019.63 1469.06 1015.8C1459.59 1005 1452.1 989.967 1438.52 985.235L1396.58 970.623C1383 965.891 1367.79 973.018 1353.66 975.592C1348.65 976.505 1343.33 976.172 1338.18 974.375C1322.29 968.841 1313.89 951.524 1319.41 935.696C1321.2 930.554 1324.23 926.201 1328.07 922.859C1338.88 913.429 1353.94 905.994 1358.65 892.46L1373.22 850.667C1377.93 837.132 1370.75 821.948 1368.15 807.844C1367.22 802.842 1367.54 797.544 1369.34 792.402C1374.85 776.574 1392.2 768.229 1408.08 773.762C1423.96 779.296 1432.36 796.613 1426.85 812.441Z" fill="#313131"/>
<path d="M922.654 1174.39C920.862 1179.53 917.82 1183.88 913.989 1187.23C903.18 1196.66 888.116 1204.09 883.4 1217.62L866.147 1267.14C863.015 1276.13 867.199 1285.91 871.362 1294.48C875.526 1303.06 880.616 1312.4 889.635 1315.54L939.322 1332.85C952.902 1337.59 968.112 1330.46 982.245 1327.88C987.259 1326.97 992.574 1327.31 997.732 1329.1C1013.61 1334.64 1022.02 1351.95 1016.5 1367.78C1010.99 1383.61 993.641 1391.95 977.76 1386.42C972.602 1384.62 968.231 1381.58 964.869 1377.75C955.396 1366.95 947.91 1351.92 934.329 1347.18L892.393 1332.57C878.812 1327.84 863.603 1334.97 849.465 1337.54C844.455 1338.45 839.141 1338.12 833.983 1336.32C818.102 1330.79 809.699 1313.47 815.214 1297.65C817.005 1292.5 820.043 1288.15 823.878 1284.81C834.687 1275.38 849.747 1267.94 854.463 1254.41L869.025 1212.62C873.741 1199.08 866.563 1183.9 863.954 1169.79C863.026 1164.79 863.351 1159.49 865.143 1154.35C870.658 1138.52 888.004 1130.18 903.884 1135.71C919.765 1141.24 928.169 1158.56 922.654 1174.39Z" fill="#313131"/>
<path d="M1269.48 1078.99C1271.27 1073.85 1274.31 1069.49 1278.14 1066.15C1288.95 1056.72 1304.01 1049.29 1308.73 1035.75L1325.98 986.235C1329.11 977.247 1324.93 967.47 1320.76 958.892C1316.61 950.316 1311.51 940.977 1302.49 937.835L1252.81 920.523C1239.23 915.791 1224.02 922.919 1209.88 925.492C1204.87 926.404 1199.55 926.071 1194.4 924.273C1178.51 918.74 1170.11 901.423 1175.63 885.595C1181.14 869.767 1198.49 861.422 1214.37 866.956C1219.53 868.754 1223.9 871.795 1227.26 875.625C1236.73 886.426 1244.22 901.462 1257.8 906.194L1299.73 920.805C1313.31 925.537 1328.52 918.409 1342.66 915.836C1347.67 914.923 1352.99 915.256 1358.15 917.055C1374.03 922.588 1382.43 939.905 1376.92 955.733C1375.13 960.875 1372.08 965.226 1368.25 968.571C1357.44 977.999 1342.38 985.433 1337.66 998.968L1323.1 1040.76C1318.39 1054.3 1325.57 1069.48 1328.18 1083.59C1329.1 1088.59 1328.78 1093.89 1326.99 1099.03C1321.47 1114.86 1304.13 1123.2 1288.25 1117.67C1272.36 1112.13 1263.96 1094.82 1269.48 1078.99Z" fill="#313131"/>
<path d="M765.285 1440.94C767.077 1435.8 770.115 1431.44 773.95 1428.1C784.759 1418.67 799.818 1411.24 804.534 1397.7L821.788 1348.18C824.92 1339.2 820.736 1329.42 816.572 1320.84C812.413 1312.26 807.318 1302.93 798.3 1299.78L748.617 1282.47C735.037 1277.74 719.827 1284.87 705.69 1287.44C700.677 1288.35 695.363 1288.02 690.204 1286.22C674.322 1280.69 665.918 1263.37 671.434 1247.54C676.949 1231.72 694.294 1223.37 710.175 1228.9C715.335 1230.7 719.705 1233.74 723.065 1237.57C732.543 1248.37 740.03 1263.41 753.61 1268.14L795.542 1282.75C809.123 1287.49 824.332 1280.36 838.47 1277.78C843.48 1276.87 848.794 1277.2 853.956 1279C869.837 1284.54 878.241 1301.85 872.726 1317.68C870.934 1322.82 867.892 1327.18 864.061 1330.52C853.252 1339.95 838.188 1347.38 833.472 1360.92L818.91 1402.71C814.194 1416.24 821.376 1431.43 823.986 1445.53C824.909 1450.53 824.588 1455.83 822.796 1460.98C817.281 1476.8 799.936 1485.15 784.055 1479.62C768.17 1474.08 759.77 1456.76 765.285 1440.94Z" fill="#313131"/>
<path d="M1481.95 1024.47C1476.79 1022.68 1472.42 1019.63 1469.06 1015.8C1459.59 1005 1452.1 989.967 1438.52 985.235L1388.83 967.92C1379.82 964.778 1370.03 968.929 1361.43 973.063C1352.84 977.196 1343.49 982.255 1340.36 991.244L1323.1 1040.76C1318.39 1054.3 1325.57 1069.48 1328.18 1083.59C1329.1 1088.59 1328.78 1093.89 1326.99 1099.03C1321.47 1114.86 1304.13 1123.2 1288.25 1117.67C1272.37 1112.13 1263.96 1094.82 1269.48 1078.99C1271.27 1073.85 1274.31 1069.49 1278.14 1066.15C1288.95 1056.72 1304.01 1049.29 1308.73 1035.75L1323.29 993.959C1328 980.425 1320.83 965.241 1318.22 951.136C1317.29 946.134 1317.61 940.838 1319.41 935.696C1324.92 919.869 1342.27 911.521 1358.15 917.055C1363.31 918.852 1367.68 921.893 1371.03 925.722C1380.51 936.524 1388 951.56 1401.58 956.292L1443.51 970.906C1457.09 975.638 1472.3 968.51 1486.44 965.936C1491.45 965.024 1496.77 965.357 1501.92 967.155C1517.8 972.688 1526.21 990.005 1520.69 1005.83C1515.18 1021.66 1497.83 1030.01 1481.95 1024.47Z" fill="#313131"/>
<path d="M977.76 1386.42C972.602 1384.62 968.231 1381.58 964.869 1377.75C955.396 1366.95 947.91 1351.92 934.329 1347.18L884.642 1329.87C875.624 1326.73 865.833 1330.88 857.241 1335.01C848.649 1339.15 839.295 1344.2 836.163 1353.19L818.91 1402.71C814.194 1416.24 821.376 1431.43 823.986 1445.53C824.909 1450.53 824.588 1455.83 822.796 1460.98C817.281 1476.8 799.936 1485.15 784.055 1479.62C768.174 1474.08 759.77 1456.77 765.285 1440.94C767.077 1435.8 770.115 1431.44 773.95 1428.1C784.759 1418.67 799.818 1411.24 804.534 1397.7L819.096 1355.91C823.812 1342.37 816.634 1327.19 814.025 1313.08C813.098 1308.08 813.422 1302.79 815.214 1297.65C820.729 1281.82 838.075 1273.47 853.956 1279C859.114 1280.8 863.484 1283.84 866.842 1287.67C876.319 1298.47 883.806 1313.51 897.386 1318.24L939.322 1332.85C952.902 1337.59 968.112 1330.46 982.245 1327.88C987.259 1326.97 992.574 1327.31 997.732 1329.1C1013.61 1334.64 1022.02 1351.95 1016.5 1367.78C1010.99 1383.61 993.641 1391.95 977.76 1386.42Z" fill="#313131"/>
<path d="M1052.64 910.057C1086.8 921.962 1124.15 903.916 1136.05 869.751C1147.96 835.586 1129.91 798.24 1095.75 786.335C1061.58 774.431 1024.24 792.477 1012.33 826.642C1000.43 860.806 1018.47 898.153 1052.64 910.057Z" fill="#313131"/>
<path d="M1654.07 603.371C1655.52 599.218 1657.98 595.703 1661.07 593.002C1669.8 585.385 1681.97 579.379 1685.78 568.447L1699.71 528.45C1702.24 521.19 1698.87 513.294 1695.5 506.365C1692.14 499.437 1688.03 491.894 1680.74 489.355L1640.61 475.372C1629.64 471.549 1617.35 477.306 1605.93 479.385C1601.89 480.123 1597.59 479.854 1593.43 478.402C1580.6 473.931 1573.81 459.943 1578.26 447.159C1582.72 434.374 1596.73 427.633 1609.56 432.104C1613.73 433.556 1617.26 436.012 1619.97 439.105C1627.62 447.83 1633.67 459.975 1644.64 463.797L1678.52 475.6C1689.49 479.422 1701.77 473.665 1713.19 471.586C1717.24 470.849 1721.53 471.118 1725.7 472.57C1738.52 477.04 1745.31 491.027 1740.86 503.812C1739.41 507.966 1736.96 511.482 1733.86 514.181C1725.13 521.798 1712.96 527.804 1709.15 538.736L1697.39 572.494C1693.58 583.427 1699.38 595.691 1701.49 607.085C1702.24 611.124 1701.97 615.404 1700.53 619.557C1696.07 632.342 1682.06 639.083 1669.23 634.613C1656.41 630.144 1649.62 616.156 1654.07 603.371Z" fill="#313131"/>
<path d="M1571.63 539.188C1570.19 543.341 1567.73 546.856 1564.63 549.557C1555.9 557.173 1543.74 563.178 1539.93 574.111L1525.99 614.108C1523.46 621.368 1526.84 629.265 1530.2 636.194C1533.57 643.123 1537.68 650.665 1544.96 653.203L1585.1 667.187C1596.07 671.009 1608.35 665.252 1619.77 663.173C1623.82 662.436 1628.11 662.706 1632.28 664.157C1645.1 668.627 1651.89 682.614 1647.44 695.399C1642.98 708.184 1628.97 714.925 1616.15 710.455C1611.98 709.004 1608.45 706.547 1605.73 703.453C1598.08 694.729 1592.03 682.584 1581.06 678.762L1547.19 666.959C1536.22 663.136 1523.94 668.894 1512.52 670.972C1508.47 671.71 1504.18 671.441 1500.01 669.989C1487.18 665.519 1480.39 651.532 1484.85 638.747C1486.3 634.594 1488.75 631.077 1491.85 628.377C1500.58 620.761 1512.74 614.755 1516.55 603.823L1528.31 570.065C1532.12 559.132 1526.33 546.867 1524.22 535.474C1523.47 531.434 1523.73 527.155 1525.18 523.001C1529.63 510.216 1543.64 503.476 1556.47 507.945C1569.3 512.415 1576.09 526.403 1571.63 539.188Z" fill="#313131"/>
<path d="M1444.52 754.49C1445.97 750.337 1448.42 746.821 1451.52 744.121C1460.25 736.504 1472.41 730.499 1476.22 719.566L1490.16 679.569C1492.69 672.309 1489.31 664.412 1485.95 657.483C1482.59 650.556 1478.47 643.013 1471.19 640.474L1431.06 626.491C1420.09 622.669 1407.8 628.426 1396.38 630.504C1392.33 631.241 1388.04 630.972 1383.87 629.52C1371.04 625.05 1364.26 611.063 1368.71 598.278C1373.17 585.493 1387.18 578.752 1400 583.222C1404.17 584.674 1407.7 587.13 1410.42 590.224C1418.07 598.949 1424.12 611.094 1435.09 614.916L1468.96 626.718C1479.93 630.54 1492.21 624.783 1503.63 622.705C1507.68 621.967 1511.97 622.236 1516.14 623.689C1528.97 628.159 1535.76 642.146 1531.3 654.931C1529.86 659.085 1527.4 662.6 1524.31 665.301C1515.57 672.917 1503.41 678.922 1499.6 689.854L1487.83 723.612C1484.03 734.545 1489.83 746.81 1491.93 758.204C1492.68 762.243 1492.42 766.523 1490.97 770.677C1486.52 783.462 1472.51 790.202 1459.68 785.733C1446.85 781.262 1440.07 767.275 1444.52 754.49Z" fill="#313131"/>
<path d="M1616.15 710.455C1611.98 709.004 1608.45 706.547 1605.73 703.453C1598.08 694.729 1592.03 682.584 1581.06 678.762L1540.93 664.775C1533.65 662.237 1525.74 665.591 1518.8 668.93C1511.86 672.268 1504.3 676.355 1501.77 683.615L1487.83 723.612C1484.03 734.545 1489.83 746.81 1491.93 758.204C1492.68 762.243 1492.42 766.523 1490.97 770.677C1486.52 783.462 1472.51 790.202 1459.68 785.733C1446.85 781.263 1440.06 767.275 1444.52 754.49C1445.97 750.337 1448.42 746.821 1451.52 744.121C1460.25 736.504 1472.41 730.499 1476.22 719.566L1487.99 685.808C1491.79 674.876 1486 662.611 1483.89 651.218C1483.14 647.178 1483.4 642.9 1484.85 638.747C1489.3 625.962 1503.32 619.22 1516.14 623.689C1520.31 625.141 1523.84 627.598 1526.55 630.69C1534.21 639.415 1540.25 651.56 1551.22 655.383L1585.1 667.187C1596.07 671.009 1608.35 665.252 1619.77 663.173C1623.82 662.436 1628.11 662.706 1632.28 664.157C1645.1 668.627 1651.89 682.614 1647.44 695.399C1642.98 708.184 1628.97 714.925 1616.15 710.455Z" fill="#313131"/>
<path d="M1730.36 806.683C1757.96 816.298 1788.13 801.722 1797.74 774.125C1807.36 746.529 1792.78 716.362 1765.18 706.747C1737.59 697.131 1707.42 711.707 1697.81 739.304C1688.19 766.9 1702.77 797.067 1730.36 806.683Z" fill="#313131"/>
<path d="M1528.7 403.666C1556.3 413.281 1586.46 398.705 1596.08 371.108C1605.69 343.512 1591.12 313.345 1563.52 303.73C1535.92 294.114 1505.76 308.69 1496.14 336.287C1486.53 363.883 1501.1 394.05 1528.7 403.666Z" fill="#313131"/>
<path d="M1705.27 890.691C1701.93 889.529 1699.04 887.669 1696.69 885.334C1688.47 877.139 1682.42 864.758 1671.45 860.936L1635.84 848.527C1629.11 846.184 1621.81 849.279 1615.41 852.361C1609 855.443 1602.03 859.216 1599.69 865.918L1587.32 901.409C1583.52 912.342 1589.5 924.758 1590.83 936.265C1591.22 939.545 1590.88 942.957 1589.72 946.282C1585.61 958.083 1572.68 964.305 1560.84 960.179C1549 956.053 1542.73 943.142 1546.84 931.34C1548 928.016 1549.86 925.134 1552.19 922.801C1560.39 914.618 1572.8 908.607 1576.6 897.674L1586.47 869.37C1590.28 858.438 1584.3 846.022 1582.96 834.515C1582.58 831.235 1582.91 827.823 1584.07 824.498C1588.18 812.697 1601.11 806.475 1612.96 810.601C1616.29 811.763 1619.18 813.622 1621.53 815.958C1629.75 824.153 1635.8 836.534 1646.77 840.356L1675.17 850.252C1686.14 854.074 1698.58 848.135 1710.11 846.824C1713.4 846.451 1716.82 846.792 1720.16 847.955C1732 852.08 1738.27 864.992 1734.15 876.794C1730.04 888.595 1717.11 894.817 1705.27 890.691Z" fill="#313131"/>
<path d="M1830.64 1062.3C1833.98 1063.46 1836.87 1065.32 1839.22 1067.66C1847.44 1075.85 1853.49 1088.23 1864.46 1092.06L1900.07 1104.46C1906.8 1106.81 1914.1 1103.71 1920.5 1100.63C1926.91 1097.55 1933.88 1093.78 1936.22 1087.07L1948.59 1051.58C1952.4 1040.65 1946.42 1028.23 1945.08 1016.73C1944.7 1013.45 1945.03 1010.03 1946.19 1006.71C1950.3 994.908 1963.23 988.686 1975.08 992.812C1986.92 996.938 1993.18 1009.85 1989.07 1021.65C1987.91 1024.98 1986.05 1027.86 1983.72 1030.19C1975.52 1038.37 1963.11 1044.38 1959.3 1055.32L1949.44 1083.62C1945.63 1094.55 1951.62 1106.97 1952.95 1118.48C1953.34 1121.76 1953 1125.17 1951.84 1128.49C1947.73 1140.29 1934.8 1146.52 1922.96 1142.39C1919.62 1141.23 1916.73 1139.37 1914.38 1137.03C1906.16 1128.84 1900.11 1116.46 1889.14 1112.63L1860.74 1102.74C1849.77 1098.92 1837.33 1104.85 1825.8 1106.17C1822.51 1106.54 1819.09 1106.2 1815.75 1105.03C1803.91 1100.91 1797.64 1088 1801.75 1076.2C1805.87 1064.4 1818.8 1058.18 1830.64 1062.3Z" fill="#313131"/>
<path d="M1834.92 869.074C1833.47 873.228 1831.02 876.744 1827.92 879.444C1819.19 887.06 1807.03 893.066 1803.22 903.999L1789.28 943.995C1786.75 951.256 1790.13 959.153 1793.49 966.08C1796.85 973.009 1800.97 980.552 1808.25 983.091L1848.39 997.074C1859.36 1000.9 1871.64 995.139 1883.06 993.06C1887.11 992.324 1891.4 992.592 1895.57 994.045C1908.4 998.514 1915.18 1012.5 1910.73 1025.29C1906.28 1038.07 1892.26 1044.81 1879.44 1040.34C1875.27 1038.89 1871.74 1036.43 1869.02 1033.34C1861.37 1024.62 1855.32 1012.47 1844.35 1008.65L1810.48 996.846C1799.51 993.024 1787.23 998.781 1775.81 1000.86C1771.76 1001.6 1767.47 1001.33 1763.3 999.875C1750.47 995.406 1743.68 981.418 1748.14 968.633C1749.58 964.48 1752.04 960.965 1755.14 958.264C1763.87 950.648 1776.03 944.642 1779.84 933.709L1791.6 899.951C1795.41 889.019 1789.61 876.754 1787.51 865.361C1786.76 861.322 1787.02 857.041 1788.47 852.888C1792.92 840.103 1806.93 833.363 1819.76 837.832C1832.59 842.302 1839.38 856.289 1834.92 869.074Z" fill="#313131"/>
<path d="M1707.81 1084.38C1709.25 1080.23 1711.71 1076.71 1714.81 1074.01C1723.54 1066.39 1735.7 1060.39 1739.51 1049.46L1753.45 1009.46C1755.98 1002.2 1752.6 994.302 1749.24 987.373C1745.87 980.445 1741.76 972.902 1734.47 970.363L1694.34 956.38C1683.37 952.557 1671.09 958.315 1659.67 960.393C1655.62 961.131 1651.33 960.862 1647.16 959.41C1634.33 954.939 1627.54 940.951 1632 928.167C1636.45 915.382 1650.46 908.641 1663.3 913.112C1667.46 914.564 1670.99 917.02 1673.7 920.113C1681.36 928.838 1687.41 940.983 1698.38 944.805L1732.25 956.608C1743.22 960.431 1755.5 954.673 1766.92 952.594C1770.97 951.857 1775.26 952.127 1779.43 953.578C1792.26 958.048 1799.05 972.035 1794.59 984.82C1793.14 988.974 1790.69 992.49 1787.59 995.19C1778.86 1002.81 1766.7 1008.81 1762.89 1019.74L1751.13 1053.5C1747.32 1064.43 1753.11 1076.7 1755.22 1088.09C1755.97 1092.13 1755.71 1096.41 1754.26 1100.57C1749.81 1113.35 1735.8 1120.09 1722.97 1115.62C1710.14 1111.15 1703.35 1097.16 1707.81 1084.38Z" fill="#313131"/>
<path d="M1879.44 1040.34C1875.27 1038.89 1871.74 1036.43 1869.02 1033.34C1861.37 1024.62 1855.32 1012.47 1844.35 1008.65L1804.22 994.666C1796.94 992.128 1789.02 995.48 1782.08 998.819C1775.15 1002.16 1767.59 1006.25 1765.06 1013.51L1751.13 1053.5C1747.32 1064.43 1753.11 1076.7 1755.22 1088.09C1755.97 1092.13 1755.71 1096.41 1754.26 1100.57C1749.81 1113.35 1735.8 1120.09 1722.97 1115.62C1710.14 1111.15 1703.35 1097.16 1707.81 1084.38C1709.25 1080.23 1711.71 1076.71 1714.81 1074.01C1723.54 1066.39 1735.7 1060.39 1739.51 1049.46L1751.27 1015.7C1755.08 1004.76 1749.28 992.5 1747.18 981.107C1746.43 977.068 1746.69 972.786 1748.14 968.633C1752.59 955.848 1766.6 949.108 1779.43 953.578C1783.6 955.031 1787.13 957.486 1789.84 960.581C1797.5 969.305 1803.55 981.45 1814.52 985.273L1848.39 997.074C1859.36 1000.9 1871.64 995.139 1883.06 993.06C1887.11 992.324 1891.4 992.592 1895.57 994.045C1908.4 998.514 1915.18 1012.5 1910.73 1025.29C1906.28 1038.07 1892.26 1044.81 1879.44 1040.34Z" fill="#313131"/>
<path d="M2032.63 727.833C2031.18 731.986 2028.72 735.501 2025.63 738.203C2016.9 745.819 2004.73 751.823 2000.92 762.756L1986.98 802.753C1984.45 810.014 1987.83 817.91 1991.2 824.839C1994.56 831.768 1998.67 839.31 2005.96 841.848L2046.09 855.833C2057.06 859.655 2069.35 853.898 2080.76 851.818C2084.81 851.081 2089.1 851.351 2093.27 852.802C2106.1 857.272 2112.89 871.26 2108.43 884.045C2103.98 896.829 2089.97 903.57 2077.14 899.101C2072.97 897.649 2069.44 895.192 2066.73 892.098C2059.07 883.374 2053.03 871.229 2042.06 867.407L2008.18 855.604C1997.21 851.782 1984.93 857.539 1973.51 859.618C1969.46 860.355 1965.17 860.086 1961 858.634C1948.18 854.165 1941.39 840.177 1945.84 827.392C1947.29 823.239 1949.74 819.723 1952.84 817.023C1961.57 809.406 1973.74 803.4 1977.55 792.468L1989.31 758.71C1993.12 747.777 1987.32 735.513 1985.21 724.12C1984.46 720.08 1984.73 715.8 1986.17 711.647C1990.63 698.862 2004.64 692.121 2017.47 696.591C2030.29 701.06 2037.08 715.048 2032.63 727.833Z" fill="#313131"/>
<path d="M1625.37 1020.2C1623.92 1024.35 1621.46 1027.86 1618.37 1030.57C1609.64 1038.18 1597.47 1044.19 1593.66 1055.12L1579.72 1095.12C1577.19 1102.38 1580.57 1110.27 1583.94 1117.2C1587.3 1124.13 1591.41 1131.67 1598.7 1134.21L1638.83 1148.2C1649.8 1152.02 1662.09 1146.26 1673.5 1144.18C1677.55 1143.44 1681.85 1143.71 1686.01 1145.17C1698.84 1149.63 1705.63 1163.62 1701.17 1176.41C1696.72 1189.19 1682.71 1195.93 1669.88 1191.46C1665.71 1190.01 1662.18 1187.55 1659.47 1184.46C1651.82 1175.74 1645.77 1163.59 1634.8 1159.77L1600.92 1147.97C1589.96 1144.14 1577.67 1149.9 1566.25 1151.98C1562.2 1152.72 1557.91 1152.45 1553.74 1151C1540.92 1146.53 1534.13 1132.54 1538.58 1119.75C1540.03 1115.6 1542.48 1112.09 1545.58 1109.39C1554.31 1101.77 1566.48 1095.76 1570.29 1084.83L1582.05 1051.07C1585.86 1040.14 1580.06 1027.88 1577.95 1016.48C1577.2 1012.44 1577.47 1008.16 1578.91 1004.01C1583.37 991.224 1597.38 984.484 1610.21 988.954C1623.03 993.423 1629.82 1007.41 1625.37 1020.2Z" fill="#313131"/>
<path d="M1905.51 943.136C1906.96 938.982 1909.41 935.466 1912.51 932.766C1921.24 925.15 1933.41 919.144 1937.22 908.211L1951.15 868.214C1953.68 860.954 1950.3 853.057 1946.94 846.129C1943.58 839.201 1939.47 831.658 1932.18 829.12L1892.05 815.136C1881.08 811.314 1868.79 817.071 1857.38 819.15C1853.33 819.886 1849.03 819.618 1844.87 818.165C1832.04 813.696 1825.25 799.708 1829.7 786.923C1834.16 774.138 1848.17 767.398 1861 771.867C1865.17 773.319 1868.7 775.776 1871.41 778.87C1879.07 787.594 1885.11 799.739 1896.08 803.562L1929.95 815.363C1940.92 819.186 1953.21 813.429 1964.63 811.35C1968.67 810.612 1972.97 810.882 1977.14 812.335C1989.96 816.804 1996.75 830.792 1992.3 843.577C1990.85 847.73 1988.39 851.245 1985.3 853.946C1976.57 861.562 1964.4 867.567 1960.59 878.5L1948.83 912.257C1945.02 923.19 1950.82 935.456 1952.93 946.849C1953.67 950.888 1953.41 955.169 1951.97 959.322C1947.51 972.107 1933.5 978.848 1920.67 974.378C1907.84 969.907 1901.06 955.92 1905.51 943.136Z" fill="#313131"/>
<path d="M1498.25 1235.5C1499.7 1231.34 1502.16 1227.83 1505.25 1225.13C1513.98 1217.51 1526.15 1211.51 1529.96 1200.57L1543.89 1160.58C1546.42 1153.32 1543.04 1145.42 1539.68 1138.49C1536.32 1131.56 1532.21 1124.02 1524.92 1121.48L1484.79 1107.5C1473.82 1103.68 1461.54 1109.43 1450.12 1111.51C1446.07 1112.25 1441.77 1111.98 1437.61 1110.53C1424.78 1106.06 1417.99 1092.07 1422.45 1079.29C1426.9 1066.5 1440.91 1059.76 1453.74 1064.23C1457.91 1065.68 1461.44 1068.14 1464.15 1071.23C1471.81 1079.96 1477.85 1092.1 1488.82 1095.92L1522.69 1107.73C1533.66 1111.55 1545.95 1105.79 1557.37 1103.71C1561.42 1102.98 1565.71 1103.24 1569.88 1104.7C1582.71 1109.17 1589.49 1123.15 1585.04 1135.94C1583.59 1140.09 1581.13 1143.61 1578.04 1146.31C1569.31 1153.93 1557.14 1159.93 1553.33 1170.86L1541.57 1204.62C1537.76 1215.55 1543.56 1227.82 1545.67 1239.21C1546.41 1243.25 1546.16 1247.53 1544.71 1251.68C1540.25 1264.47 1526.24 1271.21 1513.42 1266.74C1500.58 1262.27 1493.8 1248.28 1498.25 1235.5Z" fill="#313131"/>
<path d="M2077.14 899.101C2072.97 897.649 2069.44 895.192 2066.73 892.098C2059.07 883.374 2053.03 871.229 2042.06 867.407L2001.92 853.421C1994.64 850.883 1986.73 854.236 1979.79 857.575C1972.85 860.914 1965.29 865 1962.76 872.26L1948.83 912.257C1945.02 923.19 1950.82 935.456 1952.93 946.849C1953.67 950.888 1953.41 955.169 1951.97 959.322C1947.51 972.107 1933.5 978.848 1920.67 974.378C1907.85 969.908 1901.06 955.921 1905.51 943.136C1906.96 938.982 1909.41 935.466 1912.51 932.766C1921.24 925.15 1933.41 919.144 1937.22 908.211L1948.98 874.454C1952.79 863.521 1946.99 851.257 1944.88 839.863C1944.13 835.823 1944.4 831.546 1945.84 827.392C1950.3 814.608 1964.31 807.865 1977.14 812.335C1981.3 813.786 1984.83 816.243 1987.55 819.336C1995.2 828.061 2001.25 840.206 2012.22 844.028L2046.09 855.833C2057.06 859.655 2069.35 853.898 2080.76 851.818C2084.81 851.081 2089.1 851.351 2093.27 852.802C2106.1 857.272 2112.89 871.26 2108.43 884.045C2103.98 896.829 2089.97 903.57 2077.14 899.101Z" fill="#313131"/>
<path d="M1669.88 1191.46C1665.71 1190.01 1662.18 1187.55 1659.47 1184.46C1651.82 1175.74 1645.77 1163.59 1634.8 1159.77L1594.66 1145.78C1587.38 1143.25 1579.47 1146.6 1572.53 1149.94C1565.59 1153.28 1558.04 1157.36 1555.51 1164.62L1541.57 1204.62C1537.76 1215.55 1543.56 1227.82 1545.67 1239.21C1546.41 1243.25 1546.16 1247.53 1544.71 1251.68C1540.25 1264.47 1526.24 1271.21 1513.42 1266.74C1500.59 1262.27 1493.8 1248.28 1498.25 1235.5C1499.7 1231.34 1502.16 1227.83 1505.25 1225.13C1513.98 1217.51 1526.15 1211.51 1529.96 1200.57L1541.72 1166.82C1545.53 1155.88 1539.73 1143.62 1537.62 1132.23C1536.87 1128.19 1537.14 1123.91 1538.58 1119.75C1543.04 1106.97 1557.05 1100.23 1569.88 1104.7C1574.04 1106.15 1577.57 1108.61 1580.29 1111.7C1587.94 1120.42 1593.99 1132.57 1604.96 1136.39L1638.83 1148.2C1649.8 1152.02 1662.09 1146.26 1673.5 1144.18C1677.55 1143.44 1681.85 1143.71 1686.01 1145.17C1698.84 1149.63 1705.63 1163.62 1701.17 1176.41C1696.72 1189.19 1682.71 1195.93 1669.88 1191.46Z" fill="#313131"/>
<path d="M1730.36 806.682C1757.96 816.298 1788.13 801.722 1797.74 774.125C1807.36 746.529 1792.78 716.362 1765.18 706.747C1737.59 697.131 1707.42 711.707 1697.81 739.304C1688.19 766.9 1702.77 797.067 1730.36 806.682Z" fill="#313131"/>
<path d="M1784.1 1287.69C1811.69 1297.31 1841.86 1282.73 1851.48 1255.13C1861.09 1227.54 1846.52 1197.37 1818.92 1187.75C1791.32 1178.14 1761.16 1192.72 1751.54 1220.31C1741.92 1247.91 1756.5 1278.07 1784.1 1287.69Z" fill="#313131"/>
<path d="M214.524 571.588C210.803 570.291 207.575 568.217 204.96 565.611C195.787 556.469 189.033 542.656 176.795 538.391L137.065 524.548C129.563 521.934 121.417 525.387 114.27 528.825C107.123 532.264 99.3431 536.473 96.738 543.949L82.941 583.546C78.6911 595.743 85.3633 609.595 86.8562 622.432C87.282 626.091 86.9084 629.899 85.6161 633.608C81.0284 646.774 66.6 653.716 53.3889 649.113C40.1782 644.509 33.1875 630.104 37.7752 616.938C39.0675 613.229 41.1408 610.014 43.7481 607.412C52.8957 598.282 66.731 591.576 70.9809 579.379L81.9837 547.801C86.2334 535.605 79.5613 521.753 78.0684 508.915C77.6427 505.256 78.0161 501.449 79.3085 497.74C83.8963 484.573 98.325 477.632 111.536 482.235C115.257 483.532 118.485 485.606 121.1 488.212C130.273 497.354 137.027 511.168 149.265 515.432L180.948 526.472C193.187 530.736 207.061 524.11 219.93 522.648C223.598 522.231 227.416 522.612 231.138 523.909C244.348 528.512 251.339 542.917 246.751 556.083C242.164 569.25 227.735 576.191 214.524 571.588Z" fill="#313131"/>
<path d="M354.398 763.045C358.122 764.342 361.35 766.413 363.965 769.02C373.136 778.164 379.89 791.977 392.129 796.241L431.859 810.085C439.361 812.699 447.508 809.247 454.653 805.805C461.802 802.369 469.581 798.16 472.186 790.683L485.983 751.087C490.233 738.89 483.561 725.037 482.066 712.2C481.643 708.541 482.016 704.734 483.309 701.024C487.896 687.858 502.325 680.916 515.536 685.52C528.748 690.123 535.738 704.528 531.15 717.694C529.858 721.403 527.784 724.618 525.175 727.221C516.03 736.35 502.191 743.056 497.941 755.253L486.939 786.83C482.689 799.027 489.364 812.881 490.856 825.717C491.282 829.377 490.91 833.183 489.616 836.894C485.03 850.058 470.601 856.999 457.39 852.396C453.666 851.098 450.438 849.027 447.823 846.42C438.652 837.276 431.898 823.463 419.66 819.199L387.976 808.159C375.738 803.895 361.862 810.52 348.994 811.984C345.325 812.402 341.51 812.019 337.786 810.721C324.578 806.119 317.584 791.713 322.17 778.55C326.758 765.383 341.191 758.442 354.398 763.045Z" fill="#313131"/>
<path d="M359.173 547.471C357.559 552.105 354.821 556.028 351.366 559.04C341.624 567.537 328.053 574.237 323.804 586.434L308.255 631.057C305.433 639.157 309.204 647.967 312.952 655.696C316.703 663.426 321.295 671.842 329.421 674.674L374.194 690.274C386.432 694.538 400.138 688.116 412.879 685.796C417.397 684.975 422.183 685.274 426.835 686.894C441.146 691.881 448.719 707.487 443.749 721.75C438.779 736.014 423.148 743.534 408.837 738.547C404.185 736.926 400.25 734.187 397.22 730.735C388.68 721.001 381.933 707.451 369.695 703.187L331.907 690.02C319.669 685.756 305.963 692.179 293.223 694.498C288.704 695.32 283.918 695.021 279.267 693.4C264.956 688.413 257.382 672.808 262.352 658.544C263.967 653.911 266.708 649.989 270.16 646.976C279.901 638.479 293.472 631.778 297.722 619.581L310.845 581.919C315.095 569.722 308.626 556.039 306.275 543.328C305.443 538.822 305.732 534.046 307.347 529.413C312.317 515.149 327.948 507.629 342.259 512.616C356.57 517.602 364.143 533.208 359.173 547.471Z" fill="#313131"/>
<path d="M217.357 787.677C218.972 783.043 221.713 779.121 225.165 776.108C234.906 767.611 248.477 760.91 252.727 748.713L268.275 704.09C271.098 695.991 267.331 687.182 263.579 679.452C259.827 671.722 255.24 663.307 247.109 660.474L202.336 644.874C190.098 640.609 176.392 647.032 163.652 649.351C159.137 650.174 154.347 649.874 149.7 648.255C135.385 643.267 127.811 627.661 132.781 613.398C137.751 599.134 153.382 591.614 167.697 596.602C172.345 598.221 176.284 600.962 179.31 604.413C187.851 614.147 194.598 627.696 206.836 631.961L244.627 645.129C256.865 649.393 270.571 642.97 283.308 640.65C287.827 639.828 292.616 640.129 297.264 641.748C311.575 646.735 319.148 662.34 314.178 676.604C312.564 681.237 309.826 685.16 306.37 688.172C296.629 696.669 283.058 703.37 278.808 715.567L265.685 753.229C261.436 765.426 267.904 779.109 270.255 791.819C271.091 796.327 270.798 801.101 269.184 805.735C264.214 819.999 248.583 827.519 234.271 822.532C219.96 817.545 212.387 801.94 217.357 787.677Z" fill="#313131"/>
<path d="M408.837 738.547C404.185 736.926 400.25 734.187 397.22 730.735C388.68 721.001 381.933 707.451 369.695 703.187L324.922 687.588C316.795 684.756 307.968 688.496 300.225 692.221C292.486 695.947 284.056 700.506 281.234 708.606L265.685 753.229C261.436 765.426 267.904 779.109 270.255 791.819C271.091 796.327 270.798 801.101 269.184 805.735C264.214 819.999 248.583 827.519 234.271 822.532C219.96 817.545 212.387 801.94 217.357 787.677C218.972 783.043 221.713 779.121 225.165 776.108C234.906 767.611 248.477 760.91 252.727 748.713L265.85 711.052C270.1 698.855 263.632 685.172 261.28 672.461C260.448 667.955 260.738 663.178 262.352 658.544C267.322 644.281 282.953 636.761 297.264 641.748C301.915 643.369 305.851 646.108 308.881 649.56C317.421 659.294 324.168 672.844 336.406 677.108L374.194 690.274C386.432 694.538 400.138 688.116 412.879 685.796C417.397 684.975 422.183 685.274 426.835 686.894C441.146 691.881 448.719 707.487 443.749 721.75C438.779 736.014 423.148 743.534 408.837 738.547Z" fill="#313131"/>
<path d="M579.743 389.895C578.129 394.529 575.387 398.45 571.935 401.464C562.194 409.961 548.62 416.66 544.37 428.857L528.821 473.48C525.999 481.58 529.77 490.39 533.522 498.12C537.273 505.85 541.861 514.264 549.988 517.096L594.764 532.698C607.002 536.962 620.709 530.539 633.445 528.219C637.964 527.397 642.753 527.698 647.401 529.317C661.712 534.304 669.285 549.909 664.315 564.173C659.345 578.436 643.714 585.957 629.403 580.97C624.755 579.351 620.816 576.609 617.787 573.158C609.25 563.425 602.503 549.875 590.265 545.611L552.473 532.443C540.235 528.179 526.529 534.602 513.789 536.921C509.274 537.744 504.484 537.443 499.837 535.824C485.525 530.837 477.952 515.232 482.922 500.968C484.537 496.335 487.274 492.412 490.73 489.4C500.471 480.902 514.042 474.202 518.292 462.005L531.415 424.343C535.665 412.146 529.196 398.463 526.845 385.752C526.009 381.245 526.302 376.47 527.917 371.837C532.887 357.573 548.518 350.053 562.829 355.039C577.14 360.026 584.713 375.631 579.743 389.895Z" fill="#313131"/>
<path d="M125.384 716.07C123.769 720.704 121.028 724.625 117.576 727.639C107.835 736.136 94.2601 742.835 90.0102 755.032L74.4617 799.655C71.6394 807.755 75.4102 816.565 79.162 824.295C82.9137 832.025 87.5013 840.44 95.6282 843.271L140.405 858.873C152.643 863.137 166.349 856.714 179.085 854.394C183.604 853.573 188.393 853.873 193.041 855.493C207.352 860.479 214.926 876.084 209.956 890.348C204.986 904.611 189.355 912.132 175.043 907.145C170.396 905.526 166.457 902.785 163.427 899.333C154.89 889.6 148.143 876.05 135.905 871.786L98.1138 858.618C85.8756 854.354 72.1694 860.777 59.4291 863.096C54.9143 863.919 50.1248 863.619 45.477 861.999C31.1659 857.013 23.5928 841.407 28.5627 827.144C30.1772 822.51 32.9147 818.587 36.3705 815.575C46.1117 807.078 59.6826 800.377 63.9324 788.18L77.0555 750.518C81.3053 738.321 74.8369 724.638 72.4853 711.928C71.6497 707.42 71.9427 702.645 73.5572 698.012C78.5272 683.748 94.1583 676.228 108.469 681.215C122.781 686.201 130.354 701.807 125.384 716.07Z" fill="#313131"/>
<path d="M437.929 630.098C439.543 625.464 442.281 621.542 445.737 618.529C455.478 610.032 469.049 603.331 473.299 591.135L488.847 546.512C491.669 538.412 487.898 529.602 484.147 521.872C480.399 514.143 475.807 505.727 467.68 502.896L422.908 487.295C410.67 483.031 396.963 489.454 384.223 491.773C379.706 492.594 374.917 492.295 370.268 490.675C355.956 485.688 348.383 470.082 353.353 455.819C358.323 441.555 373.954 434.035 388.266 439.022C392.915 440.642 396.853 443.382 399.882 446.834C408.422 456.568 415.169 470.118 427.407 474.382L465.195 487.548C477.433 491.813 491.139 485.39 503.88 483.071C508.395 482.248 513.184 482.548 517.835 484.169C532.147 489.156 539.72 504.761 534.75 519.025C533.135 523.658 530.394 527.58 526.942 530.593C517.201 539.09 503.626 545.79 499.376 557.987L486.253 595.648C482.003 607.845 488.476 621.53 490.827 634.241C491.659 638.747 491.37 643.522 489.755 648.156C484.785 662.42 469.154 669.94 454.843 664.954C440.528 659.966 432.959 644.361 437.929 630.098Z" fill="#313131"/>
<path d="M-16.4308 956.273C-14.8162 951.639 -12.0788 947.717 -8.62297 944.705C1.11823 936.207 14.6891 929.507 18.939 917.31L34.4874 872.687C37.3097 864.587 33.5389 855.777 29.7872 848.047C26.0392 840.318 21.4478 831.903 13.321 829.071L-31.4516 813.47C-43.6898 809.206 -57.396 815.629 -70.1362 817.948C-74.6537 818.77 -79.4425 818.47 -84.0918 816.85C-98.4036 811.863 -105.977 796.258 -101.007 781.994C-96.0365 767.73 -80.4059 760.21 -66.094 765.197C-61.4447 766.817 -57.5063 769.558 -54.4779 773.009C-45.9373 782.743 -39.1903 796.293 -26.9521 800.557L10.8354 813.724C23.0736 817.988 36.7799 811.565 49.5201 809.246C54.035 808.423 58.8243 808.724 63.4759 810.344C77.7871 815.331 85.3603 830.936 80.3903 845.2C78.7758 849.834 76.0344 853.755 72.5824 856.769C62.8413 865.266 49.2666 871.965 45.0167 884.162L31.8938 921.824C27.6439 934.021 34.1162 947.705 36.4676 960.416C37.2994 964.922 37.0104 969.698 35.3957 974.332C30.4259 988.595 14.7947 996.115 0.483556 991.129C-13.8314 986.141 -21.4007 970.536 -16.4308 956.273Z" fill="#313131"/>
<path d="M629.403 580.97C624.755 579.351 620.816 576.609 617.787 573.158C609.25 563.425 602.503 549.875 590.265 545.611L545.489 530.007C537.362 527.176 528.539 530.917 520.796 534.642C513.053 538.367 504.624 542.926 501.801 551.026L486.253 595.648C482.003 607.845 488.476 621.53 490.827 634.241C491.659 638.747 491.37 643.522 489.755 648.156C484.785 662.42 469.154 669.94 454.843 664.954C440.532 659.967 432.959 644.362 437.929 630.098C439.543 625.464 442.281 621.542 445.737 618.529C455.478 610.032 469.049 603.331 473.299 591.135L486.421 553.472C490.671 541.276 484.202 527.593 481.851 514.882C481.015 510.374 481.308 505.602 482.922 500.968C487.892 486.705 503.524 479.183 517.835 484.169C522.483 485.789 526.422 488.53 529.448 491.98C537.988 501.714 544.735 515.264 556.973 519.528L594.764 532.698C607.002 536.962 620.709 530.539 633.445 528.219C637.964 527.397 642.753 527.698 647.401 529.317C661.712 534.304 669.285 549.909 664.315 564.173C659.345 578.436 643.714 585.957 629.403 580.97Z" fill="#313131"/>
<path d="M175.043 907.145C170.396 905.526 166.457 902.785 163.427 899.333C154.89 889.6 148.143 876.05 135.905 871.786L91.1294 856.182C83.0025 853.351 74.1795 857.092 66.4363 860.817C58.6932 864.542 50.264 869.101 47.4417 877.201L31.8938 921.824C27.6439 934.021 34.1162 947.705 36.4676 960.416C37.2994 964.922 37.0104 969.698 35.3957 974.332C30.4259 988.595 14.7947 996.115 0.483556 991.129C-13.8276 986.142 -21.4008 970.537 -16.4308 956.273C-14.8162 951.639 -12.0788 947.717 -8.62297 944.705C1.11823 936.207 14.6891 929.507 18.939 917.31L32.0616 879.648C36.3114 867.451 29.8429 853.768 27.4915 841.057C26.6559 836.55 26.9481 831.777 28.5627 827.144C33.5325 812.88 49.1648 805.358 63.4759 810.344C68.1237 811.964 72.0623 814.705 75.0882 818.155C83.6287 827.889 90.3756 841.439 102.614 845.703L140.405 858.873C152.643 863.137 166.349 856.714 179.085 854.394C183.604 853.573 188.393 853.873 193.041 855.493C207.352 860.479 214.926 876.084 209.956 890.348C204.986 904.611 189.355 912.132 175.043 907.145Z" fill="#313131"/>
<path d="M242.522 477.863C273.31 488.591 306.965 472.329 317.693 441.541C328.421 410.753 312.159 377.098 281.371 366.37C250.583 355.642 216.927 371.904 206.199 402.692C195.472 433.48 211.734 467.136 242.522 477.863Z" fill="#313131"/>
<path d="M302.471 1014.5C333.259 1025.23 366.914 1008.97 377.642 978.179C388.37 947.391 372.108 913.736 341.319 903.008C310.531 892.28 276.876 908.542 266.148 939.33C255.42 970.118 271.683 1003.77 302.471 1014.5Z" fill="#313131"/>
<path d="M6.6282 1214.49C37.4164 1225.22 71.0717 1208.96 81.7995 1178.17C92.5272 1147.38 76.2652 1113.73 45.477 1103C14.6889 1092.27 -18.9665 1108.53 -29.6943 1139.32C-40.4221 1170.11 -24.16 1203.77 6.6282 1214.49Z" fill="#313131"/>
<path d="M1319.15 1328.99C1349.94 1339.72 1383.59 1323.46 1394.32 1292.67C1405.05 1261.88 1388.79 1228.23 1358 1217.5C1327.21 1206.77 1293.56 1223.03 1282.83 1253.82C1272.1 1284.61 1288.36 1318.27 1319.15 1328.99Z" fill="#313131"/>
<path d="M312.524 1127.59C308.803 1126.29 305.575 1124.22 302.96 1121.61C293.787 1112.47 287.033 1098.66 274.795 1094.39L235.065 1080.55C227.563 1077.93 219.417 1081.39 212.27 1084.83C205.123 1088.26 197.343 1092.47 194.738 1099.95L180.941 1139.55C176.691 1151.74 183.363 1165.59 184.856 1178.43C185.282 1182.09 184.908 1185.9 183.616 1189.61C179.028 1202.77 164.6 1209.72 151.389 1205.11C138.178 1200.51 131.187 1186.1 135.775 1172.94C137.067 1169.23 139.141 1166.01 141.748 1163.41C150.896 1154.28 164.731 1147.58 168.981 1135.38L179.984 1103.8C184.233 1091.6 177.561 1077.75 176.068 1064.92C175.643 1061.26 176.016 1057.45 177.309 1053.74C181.896 1040.57 196.325 1033.63 209.536 1038.23C213.257 1039.53 216.485 1041.61 219.1 1044.21C228.273 1053.35 235.027 1067.17 247.265 1071.43L278.948 1082.47C291.187 1086.74 305.061 1080.11 317.93 1078.65C321.598 1078.23 325.416 1078.61 329.138 1079.91C342.348 1084.51 349.339 1098.92 344.751 1112.08C340.164 1125.25 325.735 1132.19 312.524 1127.59Z" fill="#313131"/>
<path d="M452.398 1319.04C456.123 1320.34 459.35 1322.41 461.965 1325.02C471.136 1334.16 477.89 1347.98 490.129 1352.24L529.859 1366.08C537.361 1368.7 545.508 1365.25 552.653 1361.81C559.802 1358.37 567.581 1354.16 570.186 1346.68L583.983 1307.09C588.233 1294.89 581.561 1281.04 580.066 1268.2C579.644 1264.54 580.016 1260.73 581.309 1257.02C585.896 1243.86 600.325 1236.92 613.536 1241.52C626.748 1246.12 633.738 1260.53 629.15 1273.69C627.858 1277.4 625.784 1280.62 623.175 1283.22C614.03 1292.35 600.191 1299.06 595.941 1311.25L584.939 1342.83C580.689 1355.03 587.364 1368.88 588.856 1381.72C589.282 1385.38 588.91 1389.18 587.616 1392.89C583.03 1406.06 568.601 1413 555.39 1408.4C551.666 1407.1 548.439 1405.03 545.823 1402.42C536.652 1393.28 529.898 1379.46 517.66 1375.2L485.976 1364.16C473.738 1359.9 459.862 1366.52 446.994 1367.98C443.325 1368.4 439.51 1368.02 435.786 1366.72C422.578 1362.12 415.584 1347.71 420.171 1334.55C424.758 1321.38 439.191 1314.44 452.398 1319.04Z" fill="#313131"/>
<path d="M457.173 1103.47C455.559 1108.11 452.821 1112.03 449.366 1115.04C439.624 1123.54 426.053 1130.24 421.804 1142.43L406.255 1187.06C403.433 1195.16 407.204 1203.97 410.952 1211.7C414.703 1219.43 419.295 1227.84 427.422 1230.67L472.194 1246.27C484.432 1250.54 498.138 1244.12 510.879 1241.8C515.397 1240.98 520.183 1241.27 524.835 1242.89C539.146 1247.88 546.719 1263.49 541.749 1277.75C536.779 1292.01 521.148 1299.53 506.837 1294.55C502.185 1292.93 498.25 1290.19 495.22 1286.74C486.68 1277 479.933 1263.45 467.695 1259.19L429.907 1246.02C417.669 1241.76 403.963 1248.18 391.223 1250.5C386.704 1251.32 381.918 1251.02 377.267 1249.4C362.956 1244.41 355.382 1228.81 360.352 1214.54C361.967 1209.91 364.708 1205.99 368.16 1202.98C377.901 1194.48 391.472 1187.78 395.722 1175.58L408.845 1137.92C413.095 1125.72 406.626 1112.04 404.275 1099.33C403.443 1094.82 403.732 1090.05 405.347 1085.41C410.317 1071.15 425.948 1063.63 440.259 1068.62C454.57 1073.6 462.143 1089.21 457.173 1103.47Z" fill="#313131"/>
<path d="M315.357 1343.68C316.972 1339.04 319.713 1335.12 323.165 1332.11C332.906 1323.61 346.477 1316.91 350.727 1304.71L366.275 1260.09C369.098 1251.99 365.331 1243.18 361.579 1235.45C357.827 1227.72 353.24 1219.31 345.109 1216.47L300.336 1200.87C288.098 1196.61 274.392 1203.03 261.652 1205.35C257.137 1206.17 252.347 1205.87 247.7 1204.25C233.385 1199.27 225.812 1183.66 230.781 1169.4C235.751 1155.13 251.382 1147.61 265.697 1152.6C270.345 1154.22 274.284 1156.96 277.31 1160.41C285.851 1170.15 292.598 1183.7 304.836 1187.96L342.627 1201.13C354.865 1205.39 368.572 1198.97 381.308 1196.65C385.827 1195.83 390.616 1196.13 395.264 1197.75C409.575 1202.73 417.148 1218.34 412.178 1232.6C410.564 1237.24 407.826 1241.16 404.37 1244.17C394.629 1252.67 381.058 1259.37 376.808 1271.57L363.685 1309.23C359.436 1321.43 365.904 1335.11 368.255 1347.82C369.091 1352.33 368.798 1357.1 367.184 1361.74C362.214 1376 346.583 1383.52 332.272 1378.53C317.96 1373.55 310.387 1357.94 315.357 1343.68Z" fill="#313131"/>
<path d="M506.837 1294.55C502.185 1292.93 498.25 1290.19 495.22 1286.74C486.68 1277 479.933 1263.45 467.695 1259.19L422.922 1243.59C414.795 1240.76 405.968 1244.5 398.225 1248.22C390.486 1251.95 382.056 1256.51 379.234 1264.61L363.685 1309.23C359.436 1321.43 365.904 1335.11 368.255 1347.82C369.091 1352.33 368.798 1357.1 367.184 1361.74C362.214 1376 346.583 1383.52 332.272 1378.53C317.96 1373.55 310.387 1357.94 315.357 1343.68C316.972 1339.04 319.713 1335.12 323.165 1332.11C332.906 1323.61 346.477 1316.91 350.727 1304.71L363.85 1267.05C368.1 1254.85 361.632 1241.17 359.28 1228.46C358.448 1223.96 358.738 1219.18 360.352 1214.54C365.322 1200.28 380.953 1192.76 395.264 1197.75C399.915 1199.37 403.851 1202.11 406.881 1205.56C415.421 1215.29 422.168 1228.84 434.406 1233.11L472.194 1246.27C484.432 1250.54 498.138 1244.12 510.879 1241.8C515.397 1240.98 520.183 1241.27 524.835 1242.89C539.146 1247.88 546.719 1263.49 541.749 1277.75C536.779 1292.01 521.148 1299.53 506.837 1294.55Z" fill="#313131"/>
<path d="M677.743 945.895C676.129 950.529 673.387 954.45 669.935 957.464C660.194 965.961 646.62 972.66 642.37 984.857L626.821 1029.48C623.999 1037.58 627.77 1046.39 631.522 1054.12C635.273 1061.85 639.861 1070.26 647.988 1073.1L692.764 1088.7C705.002 1092.96 718.708 1086.54 731.445 1084.22C735.964 1083.4 740.753 1083.7 745.401 1085.32C759.712 1090.3 767.285 1105.91 762.315 1120.17C757.345 1134.44 741.714 1141.96 727.403 1136.97C722.755 1135.35 718.816 1132.61 715.787 1129.16C707.25 1119.43 700.503 1105.88 688.265 1101.61L650.473 1088.44C638.235 1084.18 624.529 1090.6 611.789 1092.92C607.274 1093.74 602.484 1093.44 597.837 1091.82C583.525 1086.84 575.952 1071.23 580.922 1056.97C582.537 1052.34 585.274 1048.41 588.73 1045.4C598.471 1036.9 612.042 1030.2 616.292 1018.01L629.415 980.343C633.665 968.146 627.196 954.463 624.845 941.753C624.009 937.245 624.302 932.47 625.917 927.837C630.887 913.573 646.518 906.053 660.829 911.04C675.14 916.026 682.713 931.632 677.743 945.895Z" fill="#313131"/>
<path d="M223.384 1272.07C221.769 1276.7 219.028 1280.63 215.576 1283.64C205.835 1292.14 192.26 1298.84 188.01 1311.03L172.462 1355.66C169.639 1363.76 173.41 1372.57 177.162 1380.3C180.914 1388.03 185.501 1396.44 193.628 1399.27L238.405 1414.87C250.643 1419.14 264.349 1412.71 277.085 1410.39C281.604 1409.57 286.394 1409.87 291.041 1411.49C305.352 1416.48 312.926 1432.08 307.956 1446.35C302.986 1460.61 287.355 1468.13 273.043 1463.15C268.396 1461.53 264.457 1458.78 261.427 1455.33C252.89 1445.6 246.143 1432.05 233.905 1427.79L196.114 1414.62C183.876 1410.35 170.169 1416.78 157.429 1419.1C152.914 1419.92 148.125 1419.62 143.477 1418C129.166 1413.01 121.593 1397.41 126.563 1383.14C128.177 1378.51 130.915 1374.59 134.371 1371.58C144.112 1363.08 157.683 1356.38 161.932 1344.18L175.055 1306.52C179.305 1294.32 172.837 1280.64 170.485 1267.93C169.65 1263.42 169.943 1258.65 171.557 1254.01C176.527 1239.75 192.158 1232.23 206.469 1237.21C220.781 1242.2 228.354 1257.81 223.384 1272.07Z" fill="#313131"/>
<path d="M535.929 1186.1C537.543 1181.46 540.281 1177.54 543.737 1174.53C553.478 1166.03 567.049 1159.33 571.299 1147.13L586.847 1102.51C589.669 1094.41 585.898 1085.6 582.147 1077.87C578.399 1070.14 573.807 1061.73 565.681 1058.9L520.908 1043.3C508.67 1039.03 494.964 1045.45 482.223 1047.77C477.706 1048.59 472.917 1048.29 468.268 1046.67C453.956 1041.69 446.383 1026.08 451.353 1011.82C456.323 997.556 471.954 990.035 486.266 995.022C490.915 996.642 494.853 999.383 497.882 1002.83C506.422 1012.57 513.169 1026.12 525.407 1030.38L563.195 1043.55C575.433 1047.81 589.139 1041.39 601.88 1039.07C606.395 1038.25 611.184 1038.55 615.835 1040.17C630.147 1045.16 637.72 1060.76 632.75 1075.02C631.135 1079.66 628.394 1083.58 624.942 1086.59C615.201 1095.09 601.626 1101.79 597.376 1113.99L584.253 1151.65C580.003 1163.85 586.476 1177.53 588.827 1190.24C589.659 1194.75 589.37 1199.52 587.755 1204.16C582.785 1218.42 567.154 1225.94 552.843 1220.95C538.528 1215.97 530.959 1200.36 535.929 1186.1Z" fill="#313131"/>
<path d="M727.403 1136.97C722.755 1135.35 718.816 1132.61 715.787 1129.16C707.25 1119.43 700.503 1105.88 688.265 1101.61L643.489 1086.01C635.362 1083.18 626.539 1086.92 618.796 1090.64C611.053 1094.37 602.624 1098.93 599.801 1107.03L584.253 1151.65C580.003 1163.85 586.476 1177.53 588.827 1190.24C589.659 1194.75 589.37 1199.52 587.755 1204.16C582.785 1218.42 567.154 1225.94 552.843 1220.95C538.532 1215.97 530.959 1200.36 535.929 1186.1C537.543 1181.46 540.281 1177.54 543.737 1174.53C553.478 1166.03 567.049 1159.33 571.299 1147.13L584.421 1109.47C588.671 1097.28 582.202 1083.59 579.851 1070.88C579.015 1066.37 579.308 1061.6 580.922 1056.97C585.892 1042.71 601.524 1035.18 615.835 1040.17C620.483 1041.79 624.422 1044.53 627.448 1047.98C635.988 1057.71 642.735 1071.26 654.973 1075.53L692.764 1088.7C705.002 1092.96 718.708 1086.54 731.445 1084.22C735.964 1083.4 740.753 1083.7 745.401 1085.32C759.712 1090.3 767.285 1105.91 762.315 1120.17C757.345 1134.44 741.714 1141.96 727.403 1136.97Z" fill="#313131"/>
<path d="M400.471 1570.5C431.259 1581.23 464.914 1564.97 475.642 1534.18C486.37 1503.39 470.108 1469.74 439.32 1459.01C408.531 1448.28 374.876 1464.54 364.148 1495.33C353.42 1526.12 369.683 1559.77 400.471 1570.5Z" fill="#313131"/>
<path d="M125.774 1477.21C-177.93 1216.84 -258.66 563.874 63.9586 347.771C187.783 264.992 308.832 283.965 431.672 303.006C564.314 323.508 698.97 344.223 841.408 235.871C1195.39 -32.8714 1480.67 122.347 1693.67 425.988C1853.5 653.831 1939.51 802.005 2022.77 981.387C2152.47 1260.73 2038.5 1314.23 1909.14 1337.54C1779.79 1360.86 1541.76 1212.71 1023.98 1486.5C506.197 1760.3 290.872 1618.76 125.774 1477.21Z" fill="url(#paint0_linear)" fill-opacity="0.2"/>
<defs>
<linearGradient id="paint0_linear" x1="269.131" y1="306.603" x2="1613.72" y2="1569.84" gradientUnits="userSpaceOnUse">
<stop stop-color="#0FBDE9"/>
<stop offset="0.0001" stop-color="#0FBDE9"/>
<stop offset="0.864583" stop-color="#5C34FA"/>
</linearGradient>
</defs>
</svg>
