<svg width="568" height="588" viewBox="0 0 568 588" fill="none" xmlns="http://www.w3.org/2000/svg">
<path d="M299.217 19.8377C320.275 79.2855 257.388 199.629 195.131 188.425C151.148 180.509 335.922 117.691 308.843 209.805C302.141 221.035 290.023 247.075 295.167 261.4" stroke="#0FBDE9" stroke-opacity="0.9" stroke-width="4" stroke-linecap="round" stroke-linejoin="round" stroke-dasharray="1 13"/>
<g filter="url(#filter0_b)">
<path d="M551.76 382.931C568.465 444.442 580.012 525.847 539.188 555.929C506.207 580.232 479.307 562.379 445.158 555.929C408.283 548.98 397.222 548.721 329.523 568.33C228.179 597.684 127.913 601.808 72.2805 520.372C30.5358 459.265 30.9238 445.48 9.9812 397.893C-22.645 323.786 27.798 259.486 116.409 259.486C205.02 259.486 256.206 306.986 376.739 247.913C497.272 188.84 534.698 320.107 551.76 382.931Z" fill="url(#paint0_linear)" fill-opacity="0.6"/>
</g>
<defs>
<filter id="filter0_b" x="-26" y="207" width="619.049" height="406.587" filterUnits="userSpaceOnUse" color-interpolation-filters="sRGB">
<feFlood flood-opacity="0" result="BackgroundImageFix"/>
<feGaussianBlur in="BackgroundImage" stdDeviation="13"/>
<feComposite in2="SourceAlpha" operator="in" result="effect1_backgroundBlur"/>
<feBlend mode="normal" in="SourceGraphic" in2="effect1_backgroundBlur" result="shape"/>
</filter>
<linearGradient id="paint0_linear" x1="444.995" y1="594.509" x2="113.212" y2="224.908" gradientUnits="userSpaceOnUse">
<stop stop-color="#0FBDE9"/>
<stop offset="0.0001" stop-color="#0FBDE9"/>
<stop offset="0.864583" stop-color="#5C34FA"/>
</linearGradient>
</defs>
</svg>
