<svg width="1440" height="1566" viewBox="0 0 1440 1566" fill="none" xmlns="http://www.w3.org/2000/svg">
<path d="M871.704 1171.2C875.432 1172.79 878.599 1175.14 881.101 1178C889.878 1188.01 895.848 1202.65 908.106 1207.87L947.903 1224.83C955.417 1228.03 964.013 1225.05 971.583 1222.02C979.153 1218.99 987.425 1215.21 990.616 1207.72L1007.51 1168.06C1012.72 1155.84 1006.83 1141.17 1006.19 1127.9C1006.01 1124.11 1006.66 1120.23 1008.24 1116.52C1013.86 1103.33 1029.14 1097.21 1042.37 1102.85C1055.61 1108.48 1061.78 1123.75 1056.16 1136.93C1054.58 1140.65 1052.23 1143.8 1049.37 1146.29C1039.36 1155.02 1024.7 1160.94 1019.49 1173.16L1006.02 1204.79C1000.81 1217.01 1006.7 1231.68 1007.34 1244.95C1007.52 1248.74 1006.87 1252.62 1005.29 1256.33C999.673 1269.52 984.39 1275.64 971.158 1270C967.43 1268.41 964.262 1266.06 961.761 1263.21C952.984 1253.19 947.014 1238.56 934.756 1233.33L903.019 1219.81C890.761 1214.59 876.068 1220.42 862.766 1221.03C858.975 1221.21 855.084 1220.55 851.357 1218.96C838.124 1213.32 831.951 1198.06 837.57 1184.87C843.189 1171.69 858.471 1165.57 871.704 1171.2Z" fill="#313131"/>
<path d="M741.49 965.108C737.76 963.518 734.593 961.17 732.091 958.315C723.316 948.299 717.345 933.661 705.087 928.438L665.291 911.483C657.776 908.282 649.18 911.258 641.611 914.293C634.04 917.322 625.768 921.101 622.577 928.591L605.679 968.253C600.474 980.47 606.358 995.143 607.002 1008.42C607.181 1012.2 606.535 1016.08 604.952 1019.79C599.333 1032.98 584.051 1039.1 570.818 1033.46C557.584 1027.83 551.412 1012.56 557.031 999.376C558.614 995.661 560.964 992.507 563.82 990.018C573.834 981.287 588.496 975.367 593.701 963.15L607.176 931.52C612.382 919.303 606.494 904.628 605.854 891.358C605.67 887.574 606.316 883.696 607.9 879.978C613.518 866.793 628.8 860.672 642.033 866.31C645.764 867.899 648.931 870.247 651.432 873.103C660.207 883.119 666.178 897.756 678.437 902.979L710.173 916.5C722.432 921.723 737.125 915.889 750.426 915.279C754.219 915.105 758.106 915.762 761.837 917.352C775.066 922.988 781.242 938.251 775.625 951.436C770.006 964.625 754.72 970.744 741.49 965.108Z" fill="#313131"/>
<path d="M721.648 1185.92C723.626 1181.27 726.706 1177.44 730.46 1174.59C741.041 1166.55 755.427 1160.62 760.632 1148.4L779.675 1103.7C783.132 1095.59 779.875 1086.29 776.566 1078.1C773.253 1069.91 769.127 1060.96 760.986 1057.49L716.139 1038.38C703.88 1033.16 689.375 1038.8 676.145 1040.3C671.453 1040.83 666.564 1040.19 661.905 1038.2C647.57 1032.1 640.883 1015.56 646.97 1001.27C653.057 986.987 669.613 980.357 683.948 986.464C688.607 988.449 692.454 991.532 695.323 995.283C703.409 1005.86 709.391 1020.23 721.65 1025.45L759.5 1041.58C771.759 1046.8 786.264 1041.16 799.494 1039.66C804.186 1039.13 809.075 1039.77 813.734 1041.76C828.069 1047.87 834.756 1064.4 828.669 1078.69C826.691 1083.33 823.607 1087.16 819.858 1090.01C809.276 1098.05 794.89 1103.99 789.685 1116.2L773.612 1153.93C768.407 1166.15 774.094 1180.63 775.625 1193.83C776.166 1198.51 775.539 1203.39 773.561 1208.03C767.474 1222.32 750.918 1228.95 736.583 1222.84C722.248 1216.74 715.561 1200.2 721.648 1185.92Z" fill="#313131"/>
<path d="M883.777 949.339C881.8 953.981 878.716 957.813 874.966 960.665C864.384 968.707 849.998 974.639 844.793 986.857L825.75 1031.55C822.294 1039.67 825.547 1048.96 828.86 1057.15C832.173 1065.34 836.295 1074.29 844.44 1077.76L889.287 1096.87C901.545 1102.09 916.051 1096.45 929.281 1094.96C933.969 1094.43 938.862 1095.07 943.517 1097.05C957.856 1103.16 964.543 1119.69 958.456 1133.98C952.369 1148.27 935.813 1154.9 921.474 1148.79C916.818 1146.81 912.968 1143.72 910.103 1139.97C902.017 1129.4 896.035 1115.03 883.776 1109.81L845.922 1093.68C833.663 1088.45 819.158 1094.09 805.932 1095.59C801.239 1096.12 796.347 1095.48 791.692 1093.5C777.357 1087.39 770.67 1070.86 776.757 1056.57C778.734 1051.93 781.814 1048.09 785.568 1045.24C796.15 1037.2 810.536 1031.27 815.741 1019.05L831.813 981.327C837.018 969.109 831.331 954.625 829.8 941.422C829.255 936.741 829.887 931.863 831.864 927.222C837.952 912.935 854.507 906.304 868.842 912.411C883.177 918.519 889.864 935.052 883.777 949.339Z" fill="#313131"/>
<path d="M683.948 986.464C688.607 988.449 692.454 991.532 695.323 995.283C703.409 1005.86 709.391 1020.23 721.65 1025.45L766.497 1044.56C774.638 1048.02 783.952 1044.8 792.153 1041.52C800.35 1038.23 809.313 1034.14 812.77 1026.02L831.813 981.327C837.018 969.109 831.331 954.625 829.8 941.422C829.255 936.741 829.887 931.863 831.864 927.222C837.952 912.935 854.507 906.304 868.842 912.411C883.177 918.519 889.864 935.052 883.777 949.339C881.8 953.981 878.716 957.813 874.966 960.665C864.384 968.707 849.998 974.639 844.793 986.857L828.721 1024.58C823.515 1036.8 829.202 1051.28 830.734 1064.48C831.274 1069.17 830.646 1074.05 828.669 1078.69C822.582 1092.97 806.027 1099.6 791.692 1093.5C787.032 1091.51 783.185 1088.43 780.317 1084.68C772.23 1074.1 766.248 1059.73 753.99 1054.51L716.139 1038.38C703.88 1033.16 689.375 1038.8 676.145 1040.3C671.453 1040.83 666.564 1040.19 661.905 1038.2C647.57 1032.1 640.883 1015.56 646.97 1001.27C653.057 986.987 669.613 980.357 683.948 986.464Z" fill="#313131"/>
<path d="M484.46 1332.27C486.438 1327.63 489.522 1323.8 493.272 1320.94C503.853 1312.9 518.243 1306.97 523.448 1294.76L542.491 1250.06C545.948 1241.94 542.69 1232.65 539.378 1224.46C536.065 1216.27 531.942 1207.32 523.802 1203.85L478.951 1184.74C466.692 1179.52 452.187 1185.16 438.961 1186.65C434.268 1187.18 429.376 1186.54 424.721 1184.56C410.386 1178.45 403.698 1161.92 409.786 1147.63C415.872 1133.34 432.429 1126.71 446.764 1132.82C451.419 1134.8 455.27 1137.89 458.138 1141.64C466.221 1152.22 472.203 1166.58 484.461 1171.81L522.316 1187.93C534.574 1193.16 549.08 1187.52 562.31 1186.02C566.998 1185.49 571.89 1186.13 576.546 1188.11C590.881 1194.22 597.568 1210.75 591.481 1225.04C589.503 1229.68 586.423 1233.52 582.669 1236.37C572.088 1244.41 557.702 1250.34 552.497 1262.56L536.424 1300.28C531.219 1312.5 536.906 1326.99 538.437 1340.19C538.982 1344.87 538.35 1349.75 536.373 1354.39C530.286 1368.68 513.73 1375.31 499.395 1369.2C485.06 1363.09 478.373 1346.56 484.46 1332.27Z" fill="#313131"/>
<path d="M973.162 1029.17C975.139 1024.53 978.223 1020.7 981.973 1017.84C992.555 1009.8 1006.94 1003.87 1012.15 991.654L1031.19 946.957C1034.65 938.844 1031.39 929.545 1028.08 921.355C1024.77 913.165 1020.64 904.216 1012.5 900.747L967.652 881.639C955.394 876.416 940.888 882.055 927.662 883.552C922.97 884.082 918.078 883.441 913.422 881.458C899.087 875.35 892.4 858.817 898.487 844.53C904.574 830.243 921.13 823.612 935.465 829.719C940.121 831.703 943.971 834.788 946.84 838.538C954.922 849.114 960.904 863.482 973.163 868.704L1011.02 884.832C1023.28 890.055 1037.78 884.416 1051.01 882.92C1055.7 882.389 1060.59 883.029 1065.25 885.012C1079.58 891.12 1086.27 907.653 1080.18 921.94C1078.2 926.582 1075.12 930.416 1071.37 933.267C1060.79 941.308 1046.4 947.241 1041.2 959.458L1025.13 997.183C1019.92 1009.4 1025.61 1023.88 1027.14 1037.09C1027.68 1041.77 1027.05 1046.65 1025.07 1051.29C1018.99 1065.57 1002.43 1072.21 988.097 1066.1C973.762 1059.99 967.075 1043.46 973.162 1029.17Z" fill="#313131"/>
<path d="M646.587 1095.7C644.61 1100.34 641.53 1104.17 637.776 1107.02C627.194 1115.06 612.808 1121 607.603 1133.21L588.56 1177.91C585.104 1186.02 588.361 1195.32 591.674 1203.51C594.983 1211.7 599.109 1220.65 607.25 1224.12L652.097 1243.23C664.355 1248.45 678.861 1242.81 692.091 1241.32C696.782 1240.79 701.673 1241.43 706.33 1243.41C720.666 1249.52 727.353 1266.05 721.266 1280.34C715.179 1294.63 698.623 1301.26 684.287 1295.15C679.63 1293.16 675.78 1290.08 672.913 1286.33C664.826 1275.75 658.845 1261.39 646.586 1256.16L608.735 1240.04C596.477 1234.81 581.972 1240.45 568.742 1241.95C564.053 1242.48 559.161 1241.84 554.502 1239.85C540.167 1233.75 533.48 1217.21 539.567 1202.93C541.544 1198.28 544.628 1194.45 548.378 1191.6C558.96 1183.56 573.349 1177.63 578.554 1165.41L594.627 1127.69C599.832 1115.47 594.141 1100.98 592.61 1087.78C592.069 1083.1 592.697 1078.22 594.674 1073.58C600.761 1059.29 617.317 1052.66 631.652 1058.77C645.991 1064.88 652.674 1081.41 646.587 1095.7Z" fill="#313131"/>
<path d="M1135.29 792.596C1133.31 797.237 1130.23 801.071 1126.48 803.922C1115.9 811.963 1101.51 817.896 1096.3 830.113L1077.26 874.81C1073.81 882.924 1077.06 892.223 1080.38 900.413C1083.68 908.601 1087.81 917.552 1095.95 921.02L1140.8 940.127C1153.06 945.35 1167.56 939.711 1180.79 938.215C1185.48 937.686 1190.37 938.325 1195.03 940.309C1209.37 946.417 1216.05 962.95 1209.97 977.237C1203.88 991.525 1187.32 998.156 1172.99 992.048C1168.33 990.064 1164.48 986.98 1161.61 983.229C1153.53 972.652 1147.55 958.284 1135.29 953.062L1097.44 936.936C1085.18 931.713 1070.67 937.352 1057.44 938.847C1052.75 939.379 1047.86 938.738 1043.2 936.753C1028.87 930.646 1022.18 914.113 1028.27 899.825C1030.25 895.184 1033.33 891.351 1037.08 888.499C1047.66 880.458 1062.05 874.527 1067.26 862.309L1083.33 824.585C1088.53 812.367 1082.84 797.881 1081.31 784.679C1080.77 779.999 1081.4 775.12 1083.38 770.478C1089.46 756.191 1106.02 749.56 1120.35 755.668C1134.69 761.777 1141.38 778.309 1135.29 792.596Z" fill="#313131"/>
<path d="M446.764 1132.82C451.419 1134.8 455.27 1137.89 458.138 1141.64C466.221 1152.22 472.203 1166.58 484.461 1171.81L529.312 1190.92C537.452 1194.38 546.762 1191.16 554.964 1187.87C563.165 1184.59 572.128 1180.5 575.584 1172.38L594.627 1127.69C599.832 1115.47 594.141 1100.98 592.61 1087.78C592.069 1083.1 592.697 1078.22 594.674 1073.58C600.761 1059.29 617.317 1052.66 631.652 1058.77C645.987 1064.88 652.674 1081.41 646.587 1095.7C644.61 1100.34 641.53 1104.17 637.776 1107.02C627.194 1115.06 612.808 1121 607.603 1133.21L591.531 1170.94C586.326 1183.16 592.013 1197.64 593.544 1210.84C594.089 1215.52 593.458 1220.4 591.481 1225.04C585.394 1239.33 568.837 1245.96 554.502 1239.85C549.846 1237.87 545.996 1234.79 543.131 1231.04C535.045 1220.46 529.063 1206.09 516.804 1200.87L478.951 1184.74C466.692 1179.52 452.187 1185.16 438.961 1186.65C434.268 1187.18 429.376 1186.54 424.721 1184.56C410.386 1178.45 403.698 1161.92 409.786 1147.63C415.872 1133.34 432.429 1126.71 446.764 1132.82Z" fill="#313131"/>
<path d="M935.465 829.719C940.121 831.703 943.971 834.788 946.84 838.538C954.922 849.114 960.904 863.482 973.163 868.704L1018.01 887.815C1026.15 891.283 1035.46 888.056 1043.67 884.772C1051.87 881.488 1060.83 877.395 1064.29 869.282L1083.33 824.585C1088.53 812.367 1082.84 797.881 1081.31 784.679C1080.77 779.999 1081.4 775.12 1083.38 770.478C1089.46 756.191 1106.02 749.56 1120.35 755.668C1134.69 761.775 1141.38 778.308 1135.29 792.596C1133.31 797.237 1130.23 801.071 1126.48 803.922C1115.9 811.963 1101.51 817.896 1096.3 830.113L1080.23 867.838C1075.03 880.055 1080.71 894.54 1082.25 907.742C1082.79 912.424 1082.16 917.299 1080.18 921.94C1074.1 936.227 1057.54 942.86 1043.2 936.753C1038.55 934.77 1034.7 931.685 1031.83 927.936C1023.75 917.358 1017.76 902.991 1005.51 897.768L967.652 881.639C955.394 876.416 940.888 882.055 927.662 883.552C922.97 884.082 918.078 883.441 913.422 881.458C899.087 875.35 892.4 858.817 898.487 844.53C904.574 830.243 921.13 823.612 935.465 829.719Z" fill="#313131"/>
<path d="M836.486 1265.41C805.647 1252.27 769.995 1266.62 756.856 1297.46C743.717 1328.3 758.066 1363.95 788.906 1377.09C819.745 1390.23 855.397 1375.88 868.536 1345.04C881.675 1314.2 867.326 1278.55 836.486 1265.41Z" fill="#313131"/>
<path d="M812.19 710.758C781.35 697.619 745.699 711.968 732.56 742.807C719.421 773.647 733.77 809.298 764.609 822.437C795.448 835.576 831.1 821.227 844.239 790.388C857.378 759.548 843.029 723.897 812.19 710.758Z" fill="#313131"/>
<path d="M847.407 616.554C851.135 618.142 854.302 620.494 856.804 623.348C865.58 633.362 871.55 648 883.809 653.223L923.606 670.178C931.12 673.38 939.716 670.402 947.286 667.37C954.856 664.338 963.128 660.56 966.319 653.071L983.217 613.408C988.422 601.191 982.537 586.519 981.896 573.246C981.713 569.463 982.36 565.584 983.943 561.869C989.562 548.68 1004.84 542.559 1018.08 548.197C1031.31 553.835 1037.48 569.097 1031.86 582.285C1030.28 586 1027.93 589.154 1025.08 591.643C1015.06 600.375 1000.4 606.295 995.197 618.512L981.721 650.142C976.516 662.359 982.4 677.031 983.042 690.304C983.225 694.087 982.578 697.967 980.995 701.682C975.376 714.87 960.093 720.991 946.861 715.353C943.133 713.765 939.965 711.413 937.464 708.559C928.687 698.544 922.717 683.906 910.459 678.684L878.722 665.162C866.464 659.94 851.771 665.774 838.469 666.383C834.678 666.556 830.787 665.901 827.06 664.312C813.827 658.675 807.654 643.413 813.273 630.225C818.892 617.037 834.174 610.916 847.407 616.554Z" fill="#313131"/>
<path d="M697.351 631.266C699.329 626.625 702.409 622.79 706.163 619.94C716.744 611.899 731.13 605.966 736.335 593.749L755.378 549.052C758.835 540.938 755.578 531.639 752.269 523.451C748.956 515.261 744.829 506.31 736.689 502.842L691.842 483.735C679.583 478.512 665.078 484.151 651.848 485.647C647.156 486.176 642.267 485.538 637.608 483.553C623.273 477.445 616.586 460.912 622.673 446.625C628.76 432.337 645.316 425.707 659.651 431.814C664.31 433.799 668.157 436.882 671.026 440.633C679.112 451.21 685.094 465.578 697.353 470.8L735.203 486.926C747.462 492.149 761.967 486.51 775.197 485.015C779.889 484.485 784.778 485.124 789.437 487.109C803.772 493.216 810.459 509.749 804.372 524.037C802.394 528.678 799.31 532.511 795.56 535.363C784.979 543.404 770.593 549.337 765.388 561.554L749.315 599.279C744.11 611.496 749.797 625.981 751.328 639.183C751.869 643.863 751.242 648.742 749.264 653.383C743.177 667.671 726.621 674.301 712.286 668.194C697.951 662.087 691.264 645.553 697.351 631.266Z" fill="#313131"/>
<path d="M859.48 394.689C857.503 399.331 854.419 403.163 850.669 406.015C840.087 414.057 825.701 419.989 820.496 432.207L801.453 476.904C797.997 485.017 801.25 494.315 804.563 502.504C807.876 510.694 811.998 519.644 820.143 523.114L864.99 542.221C877.248 547.443 891.754 541.805 904.984 540.309C909.672 539.778 914.564 540.418 919.22 542.401C933.559 548.51 940.246 565.044 934.159 579.331C928.072 593.618 911.516 600.249 897.177 594.14C892.521 592.156 888.671 589.072 885.806 585.322C877.72 574.745 871.738 560.378 859.479 555.155L821.625 539.027C809.366 533.805 794.861 539.443 781.635 540.941C776.942 541.47 772.05 540.83 767.395 538.847C753.06 532.739 746.373 516.206 752.46 501.919C754.437 497.277 757.517 493.443 761.271 490.593C771.853 482.551 786.239 476.619 791.444 464.401L807.516 426.677C812.721 414.459 807.034 399.975 805.503 386.772C804.958 382.091 805.59 377.213 807.567 372.572C813.654 358.285 830.21 351.654 844.545 357.761C858.88 363.869 865.567 380.402 859.48 394.689Z" fill="#313131"/>
<path d="M659.651 431.814C664.31 433.799 668.157 436.882 671.026 440.633C679.112 451.21 685.094 465.578 697.353 470.8L742.2 489.906C750.34 493.374 759.655 490.15 767.856 486.866C776.053 483.579 785.016 479.487 788.473 471.374L807.516 426.677C812.721 414.459 807.034 399.975 805.503 386.772C804.958 382.091 805.59 377.213 807.567 372.572C813.654 358.285 830.21 351.654 844.545 357.761C858.88 363.869 865.567 380.402 859.48 394.689C857.503 399.331 854.419 403.163 850.669 406.015C840.087 414.057 825.701 419.989 820.496 432.207L804.423 469.931C799.218 482.149 804.905 496.633 806.436 509.835C806.977 514.515 806.349 519.395 804.372 524.037C798.285 538.324 781.73 544.954 767.395 538.847C762.735 536.862 758.888 533.778 756.019 530.027C747.933 519.45 741.951 505.083 729.693 499.86L691.842 483.735C679.583 478.512 665.078 484.151 651.848 485.647C647.156 486.176 642.267 485.538 637.608 483.553C623.273 477.445 616.586 460.912 622.673 446.625C628.76 432.337 645.316 425.707 659.651 431.814Z" fill="#313131"/>
<path d="M460.163 777.621C462.14 772.98 465.224 769.147 468.974 766.295C479.556 758.254 493.946 752.323 499.151 740.105L518.194 695.408C521.651 687.294 518.393 677.996 515.08 669.806C511.768 661.616 507.645 652.666 499.505 649.198L454.654 630.09C442.395 624.867 427.89 630.506 414.663 632.003C409.971 632.533 405.079 631.892 400.423 629.909C386.088 623.801 379.401 607.268 385.488 592.981C391.575 578.694 408.132 572.063 422.466 578.17C427.122 580.154 430.973 583.239 433.841 586.989C441.924 597.565 447.906 611.932 460.164 617.155L498.019 633.283C510.277 638.506 524.782 632.867 538.013 631.371C542.701 630.84 547.593 631.48 552.249 633.463C566.584 639.571 573.271 656.104 567.184 670.391C565.206 675.033 562.126 678.867 558.372 681.718C547.791 689.759 533.405 695.692 528.2 707.909L512.127 745.634C506.922 757.851 512.609 772.336 514.14 785.537C514.685 790.219 514.053 795.097 512.076 799.738C505.989 814.026 489.433 820.656 475.098 814.549C460.763 808.442 454.076 791.908 460.163 777.621Z" fill="#313131"/>
<path d="M948.864 474.52C950.842 469.879 953.926 466.046 957.676 463.194C968.258 455.153 982.647 449.222 987.852 437.004L1006.9 392.307C1010.35 384.194 1007.09 374.895 1003.78 366.705C1000.47 358.515 996.346 349.566 988.206 346.097L943.355 326.989C931.096 321.766 916.591 327.405 903.365 328.902C898.673 329.432 893.78 328.791 889.125 326.808C874.79 320.701 868.103 304.167 874.19 289.88C880.277 275.593 896.833 268.962 911.168 275.069C915.823 277.053 919.674 280.138 922.543 283.888C930.625 294.464 936.607 308.832 948.866 314.054L986.72 330.182C998.979 335.405 1013.48 329.766 1026.71 328.27C1031.4 327.739 1036.29 328.379 1040.95 330.363C1055.29 336.47 1061.97 353.004 1055.89 367.291C1053.91 371.932 1050.83 375.766 1047.07 378.617C1036.49 386.658 1022.11 392.591 1016.9 404.808L1000.83 442.533C995.623 454.75 1001.31 469.235 1002.84 482.437C1003.39 487.119 1002.75 491.996 1000.78 496.637C994.69 510.925 978.134 517.556 963.799 511.448C949.464 505.341 942.777 488.807 948.864 474.52Z" fill="#313131"/>
<path d="M622.29 541.046C620.313 545.688 617.233 549.522 613.479 552.373C602.897 560.414 588.511 566.347 583.306 578.564L564.263 623.261C560.806 631.375 564.064 640.674 567.376 648.864C570.685 657.051 574.812 666.003 582.953 669.471L627.8 688.578C640.058 693.801 654.564 688.162 667.794 686.666C672.485 686.136 677.376 686.776 682.033 688.76C696.369 694.868 703.056 711.401 696.969 725.688C690.881 739.976 674.326 746.606 659.99 740.499C655.333 738.515 651.483 735.43 648.616 731.68C640.529 721.103 634.547 706.735 622.289 701.513L584.438 685.387C572.18 680.164 557.674 685.802 544.444 687.298C539.756 687.829 534.864 687.189 530.204 685.204C515.869 679.097 509.182 662.563 515.27 648.276C517.247 643.635 520.331 639.802 524.081 636.95C534.663 628.909 549.052 622.978 554.257 610.76L570.33 573.036C575.535 560.818 569.844 546.332 568.313 533.13C567.772 528.45 568.4 523.571 570.377 518.929C576.464 504.642 593.02 498.011 607.355 504.119C621.694 510.228 628.377 526.759 622.29 541.046Z" fill="#313131"/>
<path d="M1110.99 237.946C1109.01 242.587 1105.93 246.421 1102.18 249.272C1091.6 257.313 1077.21 263.246 1072.01 275.463L1052.96 320.16C1049.51 328.274 1052.77 337.573 1056.08 345.763C1059.39 353.951 1063.51 362.902 1071.65 366.37L1116.5 385.477C1128.76 390.7 1143.27 385.061 1156.5 383.566C1161.19 383.036 1166.08 383.675 1170.73 385.659C1185.07 391.767 1191.76 408.3 1185.67 422.587C1179.58 436.875 1163.03 443.506 1148.69 437.398C1144.03 435.414 1140.18 432.33 1137.32 428.579C1129.23 418.002 1123.25 403.635 1110.99 398.412L1073.14 382.286C1060.88 377.063 1046.38 382.702 1033.15 384.197C1028.46 384.729 1023.57 384.088 1018.91 382.103C1004.57 375.996 997.884 359.463 1003.97 345.175C1005.95 340.534 1009.03 336.701 1012.78 333.849C1023.36 325.808 1037.75 319.877 1042.96 307.66L1059.03 269.935C1064.24 257.718 1058.55 243.231 1057.01 230.029C1056.47 225.349 1057.1 220.47 1059.08 215.828C1065.17 201.541 1081.72 194.91 1096.06 201.018C1110.4 207.127 1117.08 223.659 1110.99 237.946Z" fill="#313131"/>
<path d="M422.466 578.17C427.122 580.154 430.973 583.239 433.841 586.989C441.924 597.565 447.906 611.932 460.164 617.155L505.014 636.266C513.155 639.734 522.465 636.507 530.666 633.223C538.868 629.939 547.83 625.846 551.287 617.733L570.33 573.036C575.535 560.818 569.844 546.332 568.313 533.13C567.772 528.45 568.4 523.571 570.377 518.929C576.464 504.642 593.02 498.011 607.355 504.119C621.69 510.226 628.377 526.759 622.29 541.046C620.313 545.688 617.233 549.522 613.479 552.373C602.897 560.414 588.511 566.347 583.306 578.564L567.234 616.289C562.029 628.506 567.716 642.991 569.247 656.193C569.792 660.875 569.161 665.75 567.184 670.391C561.097 684.678 544.539 691.311 530.204 685.204C525.549 683.221 521.699 680.136 518.834 676.387C510.748 665.809 504.766 651.442 492.507 646.219L454.654 630.09C442.395 624.867 427.89 630.506 414.663 632.003C409.971 632.533 405.079 631.892 400.423 629.909C386.088 623.801 379.401 607.268 385.488 592.981C391.575 578.694 408.132 572.063 422.466 578.17Z" fill="#313131"/>
<path d="M911.168 275.069C915.823 277.053 919.674 280.138 922.543 283.888C930.625 294.464 936.607 308.832 948.866 314.054L993.716 333.165C1001.86 336.633 1011.17 333.406 1019.37 330.122C1027.57 326.838 1036.53 322.745 1039.99 314.632L1059.03 269.935C1064.24 257.718 1058.55 243.231 1057.01 230.029C1056.47 225.349 1057.1 220.47 1059.08 215.828C1065.17 201.541 1081.72 194.91 1096.06 201.018C1110.39 207.125 1117.08 223.658 1110.99 237.946C1109.01 242.587 1105.93 246.421 1102.18 249.272C1091.6 257.313 1077.21 263.246 1072.01 275.463L1055.94 313.188C1050.73 325.405 1056.42 339.89 1057.95 353.092C1058.49 357.774 1057.86 362.649 1055.89 367.291C1049.8 381.578 1033.24 388.211 1018.91 382.103C1014.25 380.12 1010.4 377.035 1007.54 373.286C999.449 362.708 993.467 348.341 981.209 343.118L943.355 326.989C931.096 321.766 916.591 327.405 903.365 328.902C898.673 329.432 893.78 328.791 889.125 326.808C874.79 320.701 868.103 304.167 874.19 289.88C880.277 275.593 896.833 268.962 911.168 275.069Z" fill="#313131"/>
<path d="M812.189 710.757C781.35 697.618 745.698 711.967 732.559 742.807C719.42 773.646 733.769 809.298 764.609 822.437C795.448 835.576 831.1 821.227 844.239 790.387C857.378 759.548 843.029 723.896 812.189 710.757Z" fill="#313131"/>
<path d="M552.389 325.178C521.549 312.039 485.898 326.388 472.759 357.227C459.62 388.067 473.969 423.718 504.808 436.857C535.648 449.996 571.299 435.647 584.438 404.808C597.577 373.968 583.228 338.317 552.389 325.178Z" fill="#313131"/>
<path d="M237.048 956.697C235.45 960.446 232.959 963.541 229.93 965.845C221.383 972.34 209.763 977.133 205.558 987.001L190.176 1023.11C187.384 1029.66 190.012 1037.17 192.688 1043.78C195.364 1050.4 198.694 1057.63 205.273 1060.43L241.498 1075.86C251.4 1080.08 263.116 1075.53 273.803 1074.32C277.59 1073.89 281.542 1074.41 285.302 1076.01C296.884 1080.94 302.286 1094.3 297.369 1105.84C292.452 1117.38 279.079 1122.74 267.497 1117.8C263.736 1116.2 260.626 1113.71 258.312 1110.68C251.78 1102.14 246.948 1090.53 237.047 1086.31L206.47 1073.29C196.568 1069.07 184.852 1073.62 174.168 1074.83C170.378 1075.26 166.426 1074.74 162.666 1073.14C151.087 1068.21 145.685 1054.85 150.602 1043.31C152.199 1039.56 154.688 1036.46 157.72 1034.16C166.267 1027.67 177.887 1022.87 182.091 1013.01L195.074 982.534C199.278 972.666 194.685 960.966 193.448 950.302C193.008 946.52 193.518 942.58 195.115 938.831C200.032 927.291 213.405 921.935 224.984 926.868C236.563 931.801 241.964 945.156 237.048 956.697Z" fill="#313131"/>
<path d="M309.247 1021.18C310.845 1017.43 313.336 1014.33 316.365 1012.03C324.912 1005.54 336.535 1000.74 340.74 990.876L356.122 954.772C358.914 948.219 356.283 940.707 353.607 934.092C350.931 927.477 347.601 920.248 341.025 917.447L304.797 902.012C294.895 897.793 283.179 902.348 272.495 903.557C268.705 903.985 264.754 903.468 260.993 901.865C249.414 896.932 244.013 883.578 248.929 872.037C253.846 860.497 267.219 855.141 278.798 860.074C282.559 861.676 285.669 864.168 287.986 867.198C294.515 875.74 299.347 887.345 309.248 891.564L339.825 904.591C349.727 908.81 361.444 904.255 372.13 903.047C375.917 902.618 379.869 903.135 383.629 904.737C395.208 909.67 400.61 923.025 395.693 934.565C394.096 938.314 391.608 941.411 388.576 943.714C380.028 950.209 368.408 955.001 364.204 964.87L351.221 995.342C347.017 1005.21 351.61 1016.91 352.847 1027.57C353.287 1031.36 352.777 1035.3 351.18 1039.04C346.263 1050.59 332.89 1055.94 321.311 1051.01C309.732 1046.07 304.331 1032.72 309.247 1021.18Z" fill="#313131"/>
<path d="M440.205 830.087C438.608 833.837 436.12 836.934 433.088 839.236C424.54 845.732 412.92 850.524 408.716 860.392L393.334 896.496C390.542 903.05 393.173 910.561 395.849 917.176C398.522 923.79 401.855 931.02 408.43 933.822L444.655 949.255C454.557 953.474 466.274 948.919 476.96 947.711C480.749 947.283 484.7 947.8 488.462 949.403C500.042 954.336 505.443 967.691 500.526 979.231C495.609 990.772 482.237 996.128 470.657 991.194C466.895 989.591 463.785 987.1 461.469 984.071C454.938 975.527 450.106 963.922 440.204 959.703L409.63 946.678C399.729 942.459 388.012 947.013 377.325 948.221C373.538 948.651 369.587 948.134 365.823 946.53C354.244 941.597 348.843 928.242 353.759 916.702C355.357 912.953 357.848 909.857 360.877 907.553C369.424 901.058 381.047 896.267 385.252 886.399L398.234 855.927C402.439 846.058 397.842 834.357 396.605 823.693C396.168 819.912 396.675 815.972 398.272 812.222C403.189 800.682 416.562 795.326 428.141 800.259C439.723 805.194 445.122 818.547 440.205 830.087Z" fill="#313131"/>
<path d="M278.798 860.074C282.559 861.676 285.669 864.168 287.986 867.198C294.515 875.74 299.347 887.345 309.248 891.564L345.476 907C352.051 909.802 359.572 907.196 366.196 904.543C372.821 901.89 380.06 898.584 382.853 892.031L398.234 855.927C402.439 846.058 397.842 834.357 396.605 823.693C396.168 819.912 396.675 815.972 398.272 812.222C403.189 800.682 416.562 795.326 428.141 800.259C439.72 805.192 445.122 818.547 440.205 830.087C438.608 833.837 436.12 836.934 433.088 839.236C424.54 845.732 412.92 850.524 408.716 860.392L395.734 890.864C391.529 900.732 396.123 912.432 397.36 923.096C397.8 926.878 397.29 930.816 395.693 934.565C390.776 946.105 377.402 951.463 365.823 946.53C362.063 944.928 358.953 942.436 356.639 939.408C350.107 930.864 345.275 919.259 335.373 915.04L304.797 902.012C294.895 897.793 283.179 902.348 272.495 903.557C268.705 903.985 264.754 903.468 260.993 901.865C249.414 896.932 244.013 883.578 248.929 872.037C253.846 860.497 267.219 855.141 278.798 860.074Z" fill="#313131"/>
<path d="M179.223 763.983C154.313 753.37 125.515 764.961 114.902 789.871C104.289 814.781 115.879 843.579 140.79 854.192C165.7 864.805 194.498 853.214 205.111 828.304C215.724 803.394 204.133 774.596 179.223 763.983Z" fill="#313131"/>
<path d="M340.471 1149.14C315.561 1138.53 286.763 1150.12 276.15 1175.03C265.538 1199.94 277.128 1228.74 302.038 1239.35C326.949 1249.96 355.746 1238.37 366.359 1213.46C376.972 1188.55 365.382 1159.76 340.471 1149.14Z" fill="#313131"/>
<path d="M207.669 687.89C210.681 689.173 213.239 691.073 215.26 693.378C222.349 701.467 227.171 713.291 237.073 717.51L269.219 731.205C275.289 733.791 282.232 731.386 288.346 728.937C294.461 726.488 301.143 723.436 303.72 717.387L317.369 685.35C321.574 675.481 316.821 663.63 316.302 652.909C316.154 649.853 316.677 646.719 317.956 643.719C322.494 633.066 334.838 628.122 345.527 632.676C356.216 637.23 361.202 649.557 356.663 660.21C355.385 663.211 353.487 665.759 351.181 667.769C343.09 674.822 331.25 679.604 327.046 689.472L316.161 715.021C311.957 724.889 316.71 736.741 317.228 747.462C317.376 750.518 316.853 753.651 315.575 756.652C311.036 767.305 298.692 772.249 288.003 767.695C284.992 766.412 282.433 764.513 280.412 762.207C273.323 754.118 268.501 742.294 258.599 738.076L232.964 727.154C223.062 722.935 211.195 727.648 200.45 728.139C197.388 728.279 194.245 727.75 191.234 726.467C180.545 721.913 175.559 709.586 180.098 698.933C184.636 688.28 196.981 683.336 207.669 687.89Z" fill="#313131"/>
<path d="M102.49 521.417C99.4766 520.133 96.9184 518.237 94.8976 515.93C87.81 507.84 82.987 496.016 73.0852 491.798L40.9399 478.102C34.8698 475.516 27.9263 477.921 21.8126 480.372C15.697 482.819 9.0157 485.871 6.4383 491.921L-7.21092 523.958C-11.4153 533.826 -6.66299 545.678 -6.14273 556.399C-5.99759 559.454 -6.51969 562.588 -7.79826 565.589C-12.3369 576.242 -24.681 581.186 -35.3703 576.632C-46.0595 572.078 -51.0452 559.75 -46.5065 549.098C-45.228 546.097 -43.3294 543.549 -41.0223 541.538C-32.9335 534.486 -21.0909 529.704 -16.8864 519.836L-6.00155 494.287C-1.79714 484.418 -6.55257 472.565 -7.06975 461.846C-7.21802 458.79 -6.69652 455.657 -5.41703 452.654C-0.879572 442.004 11.4645 437.06 22.1537 441.614C25.1671 442.898 27.7252 444.794 29.746 447.101C36.8336 455.191 41.6566 467.015 51.5585 471.233L77.1935 482.155C87.0953 486.373 98.9635 481.661 109.708 481.168C112.771 481.028 115.911 481.559 118.925 482.843C129.611 487.395 134.599 499.724 130.062 510.374C125.523 521.027 113.176 525.97 102.49 521.417Z" fill="#313131"/>
<path d="M86.4627 699.774C88.0599 696.025 90.5479 692.928 93.5799 690.626C102.127 684.13 113.747 679.338 117.952 669.47L133.334 633.366C136.126 626.812 133.495 619.301 130.822 612.687C128.146 606.072 124.813 598.841 118.238 596.04L82.0124 580.606C72.1106 576.388 60.394 580.942 49.7074 582.151C45.9173 582.578 41.9687 582.063 38.2052 580.459C26.6262 575.526 21.2248 562.171 26.1415 550.631C31.0583 539.09 44.4313 533.734 56.0103 538.668C59.7739 540.271 62.8812 542.761 65.1982 545.791C71.7299 554.335 76.5618 565.94 86.4637 570.159L117.037 583.184C126.939 587.403 138.656 582.848 149.342 581.64C153.132 581.212 157.081 581.728 160.844 583.332C172.423 588.265 177.825 601.62 172.908 613.16C171.311 616.909 168.82 620.005 165.791 622.309C157.243 628.804 145.623 633.596 141.419 643.465L128.436 673.937C124.232 683.805 128.826 695.505 130.062 706.169C130.499 709.949 129.992 713.89 128.395 717.639C123.478 729.18 110.105 734.536 98.5263 729.603C86.9473 724.669 81.5459 711.315 86.4627 699.774Z" fill="#313131"/>
<path d="M217.422 508.68C215.824 512.429 213.333 515.525 210.304 517.829C201.757 524.324 190.137 529.116 185.932 538.985L170.55 575.089C167.758 581.642 170.386 589.152 173.062 595.768C175.738 602.383 179.068 609.612 185.647 612.415L221.872 627.848C231.774 632.067 243.49 627.512 254.177 626.304C257.964 625.875 261.916 626.392 265.676 627.994C277.258 632.929 282.66 646.283 277.743 657.824C272.826 669.364 259.453 674.72 247.871 669.786C244.11 668.184 241 665.692 238.686 662.663C232.154 654.12 227.322 642.515 217.421 638.296L186.844 625.269C176.942 621.05 165.226 625.605 154.542 626.814C150.752 627.242 146.8 626.725 143.04 625.123C131.461 620.19 126.059 606.835 130.976 595.294C132.573 591.545 135.062 588.448 138.094 586.146C146.641 579.65 158.261 574.858 162.465 564.99L175.448 534.518C179.652 524.649 175.059 512.95 173.822 502.286C173.382 498.504 173.892 494.564 175.489 490.815C180.406 479.275 193.779 473.919 205.358 478.852C216.937 483.785 222.338 497.14 217.422 508.68Z" fill="#313131"/>
<path d="M56.0103 538.668C59.7739 540.271 62.8812 542.761 65.1982 545.791C71.7299 554.335 76.5618 565.94 86.4637 570.159L122.689 585.591C129.264 588.393 136.788 585.788 143.412 583.135C150.034 580.481 157.274 577.175 160.066 570.622L175.448 534.518C179.652 524.649 175.059 512.95 173.822 502.286C173.382 498.504 173.892 494.564 175.489 490.815C180.406 479.275 193.779 473.919 205.358 478.852C216.937 483.785 222.338 497.14 217.422 508.68C215.824 512.429 213.333 515.525 210.304 517.829C201.757 524.324 190.137 529.116 185.932 538.985L172.95 569.457C168.745 579.325 173.339 591.025 174.576 601.689C175.013 605.469 174.505 609.411 172.908 613.16C167.991 624.701 154.619 630.056 143.04 625.123C139.276 623.519 136.169 621.029 133.852 617.999C127.32 609.455 122.488 597.85 112.586 593.632L82.0124 580.606C72.1106 576.388 60.394 580.942 49.7074 582.151C45.9173 582.578 41.9687 582.063 38.2052 580.459C26.6262 575.526 21.2248 562.171 26.1415 550.631C31.0583 539.09 44.4313 533.734 56.0103 538.668Z" fill="#313131"/>
<path d="M-105.125 817.992C-103.528 814.243 -101.037 811.147 -98.0078 808.843C-89.4606 802.348 -77.8374 797.557 -73.633 787.689L-58.2509 751.584C-55.4588 745.031 -58.09 737.52 -60.7659 730.905C-63.4417 724.289 -66.7719 717.06 -73.3473 714.259L-109.575 698.824C-119.477 694.605 -131.194 699.16 -141.877 700.369C-145.668 700.797 -149.619 700.28 -153.38 698.678C-164.959 693.745 -170.36 680.39 -165.443 668.849C-160.527 657.309 -147.153 651.953 -135.574 656.886C-131.814 658.488 -128.704 660.98 -126.386 664.01C-119.858 672.553 -115.026 684.158 -105.124 688.376L-74.5476 701.403C-64.6457 705.622 -52.9291 701.067 -42.2426 699.859C-38.4556 699.43 -34.5038 699.947 -30.7433 701.549C-19.1643 706.482 -13.763 719.837 -18.6797 731.377C-20.2769 735.126 -22.7649 738.224 -25.7971 740.526C-34.3445 747.022 -45.9645 751.814 -50.1688 761.682L-63.1514 792.154C-67.3558 802.023 -62.7622 813.723 -61.5254 824.386C-61.0854 828.168 -61.5955 832.108 -63.1928 835.857C-68.1095 847.397 -81.4826 852.753 -93.0616 847.82C-104.641 842.887 -110.042 829.532 -105.125 817.992Z" fill="#313131"/>
<path d="M289.621 573.163C291.219 569.414 293.71 566.318 296.739 564.015C305.286 557.52 316.909 552.729 321.114 542.86L336.496 506.756C339.288 500.203 336.657 492.691 333.981 486.076C331.305 479.461 327.975 472.232 321.399 469.43L285.171 453.996C275.269 449.777 263.553 454.332 252.869 455.541C249.079 455.969 245.127 455.452 241.367 453.849C229.788 448.916 224.387 435.562 229.303 424.021C234.22 412.481 247.593 407.125 259.172 412.058C262.933 413.66 266.043 416.152 268.36 419.181C274.889 427.724 279.721 439.329 289.622 443.548L320.199 456.575C330.101 460.793 341.818 456.239 352.504 455.031C356.291 454.602 360.243 455.118 364.003 456.721C375.582 461.654 380.984 475.009 376.067 486.549C374.47 490.298 371.982 493.395 368.95 495.698C360.402 502.193 348.782 506.985 344.578 516.854L331.595 547.326C327.391 557.194 331.984 568.894 333.221 579.558C333.661 583.34 333.151 587.279 331.554 591.029C326.637 602.569 313.264 607.925 301.685 602.992C290.106 598.059 284.705 584.704 289.621 573.163Z" fill="#313131"/>
<path d="M25.8323 626.9C24.2349 630.649 21.7471 633.746 18.715 636.048C10.1676 642.544 -1.45249 647.336 -5.65689 657.204L-21.0388 693.308C-23.8309 699.862 -21.1998 707.373 -18.524 713.988C-15.8511 720.602 -12.5179 727.833 -5.9425 730.634L30.2826 746.068C40.1845 750.286 51.9011 745.732 62.5875 744.524C66.3767 744.096 70.3279 744.612 74.0896 746.215C85.6692 751.148 91.0706 764.503 86.1535 776.043C81.2367 787.584 67.864 792.94 56.2844 788.006C52.5227 786.404 49.4128 783.913 47.0967 780.883C40.565 772.339 35.7331 760.734 25.8313 756.516L-4.74228 743.49C-14.6441 739.271 -26.3608 743.826 -37.0472 745.034C-40.8344 745.463 -44.786 744.946 -48.5495 743.342C-60.1285 738.409 -65.53 725.055 -60.6132 713.514C-59.0159 709.765 -56.5248 706.669 -53.4958 704.365C-44.9485 697.87 -33.3254 693.079 -29.121 683.211L-16.1385 652.739C-11.9341 642.87 -16.5308 631.169 -17.7675 620.505C-18.2044 616.725 -17.6975 612.784 -16.1001 609.035C-11.1834 597.494 2.18971 592.138 13.7687 597.071C25.3508 602.006 30.749 615.359 25.8323 626.9Z" fill="#313131"/>
<path d="M420.579 382.071C418.982 385.821 416.494 388.918 413.462 391.22C404.914 397.716 393.294 402.508 389.09 412.376L373.708 448.48C370.916 455.033 373.547 462.545 376.223 469.16C378.895 475.774 382.229 483.004 388.804 485.806L425.029 501.239C434.931 505.458 446.648 500.903 457.334 499.695C461.123 499.267 465.074 499.784 468.836 501.386C480.416 506.32 485.817 519.675 480.9 531.215C475.983 542.756 462.611 548.112 451.031 543.178C447.269 541.575 444.159 539.084 441.843 536.055C435.312 527.511 430.48 515.906 420.578 511.687L390.004 498.661C380.102 494.443 368.386 498.997 357.699 500.205C353.912 500.635 349.961 500.117 346.197 498.514C334.618 493.581 329.217 480.226 334.133 468.686C335.731 464.937 338.222 461.841 341.251 459.537C349.798 453.042 361.421 448.251 365.626 438.382L378.608 407.91C382.813 398.042 378.216 386.341 376.979 375.677C376.542 371.896 377.049 367.955 378.646 364.206C383.563 352.666 396.936 347.31 408.515 352.243C420.097 357.177 425.496 370.531 420.579 382.071Z" fill="#313131"/>
<path d="M-135.574 656.886C-131.814 658.488 -128.704 660.98 -126.386 664.01C-119.858 672.553 -115.026 684.158 -105.124 688.376L-68.8967 703.813C-62.3213 706.614 -54.8009 704.008 -48.1763 701.355C-41.5519 698.702 -34.3122 695.396 -31.5201 688.843L-16.1385 652.739C-11.9341 642.87 -16.5308 631.169 -17.7675 620.505C-18.2044 616.725 -17.6975 612.784 -16.1001 609.035C-11.1834 597.494 2.18971 592.138 13.7687 597.071C25.3477 602.004 30.7492 615.359 25.8323 626.9C24.2349 630.649 21.7471 633.746 18.715 636.048C10.1676 642.544 -1.45249 647.336 -5.65689 657.204L-18.6391 687.677C-22.8434 697.545 -18.2497 709.245 -17.013 719.909C-16.5731 723.69 -17.0824 727.628 -18.6797 731.377C-23.5964 742.918 -36.9705 748.276 -48.5495 743.342C-52.31 741.74 -55.4201 739.249 -57.7341 736.22C-64.2657 727.676 -69.0976 716.071 -78.9994 711.852L-109.575 698.824C-119.477 694.605 -131.194 699.16 -141.877 700.369C-145.668 700.797 -149.619 700.28 -153.38 698.678C-164.959 693.745 -170.36 680.39 -165.443 668.849C-160.527 657.309 -147.153 651.953 -135.574 656.886Z" fill="#313131"/>
<path d="M259.172 412.058C262.933 413.66 266.043 416.152 268.36 419.181C274.889 427.724 279.721 439.329 289.622 443.548L325.85 458.984C332.425 461.786 339.946 459.179 346.57 456.526C353.195 453.874 360.434 450.568 363.227 444.014L378.608 407.91C382.813 398.042 378.216 386.341 376.979 375.677C376.542 371.896 377.049 367.955 378.646 364.206C383.563 352.666 396.936 347.31 408.515 352.243C420.094 357.176 425.496 370.531 420.579 382.071C418.982 385.821 416.494 388.918 413.462 391.22C404.914 397.716 393.294 402.508 389.09 412.376L376.108 442.848C371.903 452.716 376.497 464.416 377.734 475.08C378.174 478.862 377.664 482.8 376.067 486.549C371.15 498.089 357.776 503.447 346.197 498.514C342.437 496.912 339.327 494.42 337.012 491.392C330.481 482.848 325.649 471.243 315.747 467.024L285.171 453.996C275.269 449.777 263.553 454.332 252.869 455.541C249.079 455.969 245.127 455.452 241.367 453.849C229.788 448.916 224.387 435.562 229.303 424.021C234.22 412.481 247.593 407.125 259.172 412.058Z" fill="#313131"/>
<path d="M179.223 763.983C154.312 753.37 125.515 764.96 114.902 789.871C104.289 814.781 115.879 843.579 140.79 854.192C165.7 864.805 194.497 853.214 205.11 828.304C215.723 803.393 204.133 774.596 179.223 763.983Z" fill="#313131"/>
<path d="M159.597 315.967C134.686 305.354 105.889 316.944 95.2761 341.855C84.6631 366.765 96.2534 395.563 121.164 406.176C146.074 416.789 174.872 405.198 185.485 380.288C196.098 355.378 184.507 326.58 159.597 315.967Z" fill="#313131"/>
<path d="M1508.54 1052.29C1511.9 1053.73 1514.75 1055.84 1517.01 1058.42C1524.92 1067.44 1530.3 1080.63 1541.34 1085.34L1577.21 1100.62C1583.98 1103.5 1591.73 1100.82 1598.55 1098.09C1605.37 1095.36 1612.82 1091.95 1615.7 1085.2L1630.93 1049.46C1635.62 1038.45 1630.31 1025.23 1629.74 1013.27C1629.57 1009.86 1630.15 1006.36 1631.58 1003.01C1636.64 991.129 1650.42 985.613 1662.34 990.694C1674.27 995.774 1679.83 1009.53 1674.76 1021.41C1673.34 1024.76 1671.22 1027.6 1668.65 1029.85C1659.62 1037.71 1646.41 1043.05 1641.72 1054.06L1629.58 1082.56C1624.89 1093.57 1630.19 1106.79 1630.77 1118.76C1630.93 1122.16 1630.35 1125.66 1628.92 1129.01C1623.86 1140.89 1610.09 1146.41 1598.16 1141.33C1594.8 1139.9 1591.95 1137.78 1589.7 1135.21C1581.79 1126.18 1576.41 1112.99 1565.36 1108.28L1536.76 1096.1C1525.71 1091.39 1512.47 1096.65 1500.49 1097.2C1497.07 1097.35 1493.56 1096.76 1490.2 1095.33C1478.28 1090.25 1472.72 1076.5 1477.78 1064.61C1482.84 1052.73 1496.61 1047.21 1508.54 1052.29Z" fill="#313131"/>
<path d="M1391.2 866.568C1387.83 865.136 1384.98 863.02 1382.73 860.446C1374.82 851.42 1369.44 838.229 1358.39 833.523L1322.53 818.244C1315.76 815.358 1308.01 818.041 1301.19 820.775C1294.36 823.505 1286.91 826.911 1284.04 833.66L1268.81 869.402C1264.12 880.412 1269.42 893.635 1270 905.595C1270.16 909.004 1269.58 912.5 1268.15 915.848C1263.09 927.733 1249.32 933.249 1237.39 928.168C1225.47 923.088 1219.9 909.335 1224.97 897.45C1226.39 894.101 1228.51 891.259 1231.09 889.016C1240.11 881.148 1253.32 875.813 1258.01 864.803L1270.16 836.3C1274.85 825.29 1269.54 812.066 1268.97 800.107C1268.8 796.697 1269.38 793.202 1270.81 789.852C1275.87 777.97 1289.64 772.454 1301.57 777.535C1304.93 778.967 1307.78 781.083 1310.04 783.657C1317.95 792.682 1323.33 805.873 1334.37 810.58L1362.97 822.765C1374.02 827.471 1387.26 822.214 1399.25 821.664C1402.67 821.507 1406.17 822.1 1409.53 823.532C1421.45 828.611 1427.02 842.366 1421.96 854.248C1416.89 866.133 1403.12 871.647 1391.2 866.568Z" fill="#313131"/>
<path d="M1373.31 1065.55C1375.1 1061.37 1377.87 1057.91 1381.26 1055.35C1390.79 1048.1 1403.76 1042.75 1408.45 1031.74L1425.61 991.464C1428.72 984.152 1425.79 975.772 1422.8 968.393C1419.82 961.013 1416.1 952.946 1408.76 949.821L1368.35 932.602C1357.3 927.896 1344.23 932.977 1332.31 934.325C1328.08 934.802 1323.68 934.227 1319.48 932.438C1306.56 926.935 1300.53 912.035 1306.02 899.16C1311.5 886.285 1326.42 880.31 1339.34 885.813C1343.54 887.602 1347.01 890.381 1349.59 893.761C1356.88 903.293 1362.27 916.24 1373.32 920.946L1407.43 935.479C1418.47 940.185 1431.54 935.104 1443.47 933.756C1447.69 933.279 1452.1 933.854 1456.3 935.643C1469.22 941.147 1475.24 956.046 1469.76 968.921C1467.98 973.104 1465.2 976.558 1461.82 979.128C1452.28 986.374 1439.32 991.721 1434.63 1002.73L1420.14 1036.73C1415.45 1047.74 1420.58 1060.79 1421.96 1072.69C1422.44 1076.9 1421.88 1081.3 1420.1 1085.48C1414.61 1098.36 1399.69 1104.33 1386.77 1098.83C1373.86 1093.33 1367.83 1078.43 1373.31 1065.55Z" fill="#313131"/>
<path d="M1519.42 852.358C1517.64 856.541 1514.86 859.995 1511.48 862.564C1501.94 869.811 1488.98 875.158 1484.29 886.167L1467.13 926.447C1464.01 933.758 1466.94 942.137 1469.93 949.517C1472.92 956.897 1476.63 964.963 1483.97 968.089L1524.38 985.308C1535.43 990.014 1548.5 984.933 1560.43 983.585C1564.65 983.106 1569.06 983.683 1573.25 985.471C1586.18 990.976 1592.2 1005.88 1586.72 1018.75C1581.23 1031.63 1566.31 1037.6 1553.39 1032.1C1549.19 1030.31 1545.72 1027.53 1543.14 1024.15C1535.86 1014.62 1530.47 1001.67 1519.42 996.964L1485.31 982.43C1474.26 977.724 1461.19 982.805 1449.27 984.154C1445.04 984.632 1440.63 984.055 1436.44 982.267C1423.52 976.764 1417.49 961.864 1422.98 948.989C1424.76 944.807 1427.53 941.351 1430.92 938.783C1440.45 931.536 1453.42 926.19 1458.11 915.18L1472.59 881.184C1477.28 870.174 1472.16 857.121 1470.78 845.224C1470.29 841.005 1470.86 836.609 1472.64 832.427C1478.12 819.551 1493.04 813.576 1505.96 819.08C1518.88 824.584 1524.9 839.483 1519.42 852.358Z" fill="#313131"/>
<path d="M1339.34 885.813C1343.54 887.602 1347.01 890.381 1349.59 893.761C1356.88 903.293 1362.27 916.24 1373.32 920.946L1413.73 938.164C1421.07 941.289 1429.46 938.383 1436.85 935.424C1444.24 932.463 1452.32 928.774 1455.43 921.463L1472.59 881.184C1477.28 870.174 1472.16 857.121 1470.78 845.224C1470.29 841.005 1470.86 836.609 1472.64 832.427C1478.12 819.551 1493.04 813.576 1505.96 819.08C1518.88 824.584 1524.9 839.483 1519.42 852.358C1517.64 856.541 1514.86 859.995 1511.48 862.564C1501.94 869.811 1488.98 875.158 1484.29 886.167L1469.8 920.163C1465.11 931.173 1470.24 944.226 1471.62 956.123C1472.11 960.341 1471.54 964.739 1469.76 968.921C1464.27 981.797 1449.35 987.771 1436.44 982.267C1432.24 980.478 1428.77 977.7 1426.18 974.32C1418.9 964.788 1413.51 951.841 1402.46 947.134L1368.35 932.602C1357.3 927.896 1344.23 932.977 1332.31 934.325C1328.08 934.802 1323.68 934.227 1319.48 932.438C1306.56 926.935 1300.53 912.035 1306.02 899.16C1311.5 886.285 1326.42 880.31 1339.34 885.813Z" fill="#313131"/>
<path d="M1159.57 1197.44C1161.35 1193.26 1164.13 1189.81 1167.51 1187.24C1177.05 1179.99 1190.01 1174.64 1194.7 1163.63L1211.86 1123.35C1214.98 1116.04 1212.04 1107.66 1209.06 1100.28C1206.07 1092.9 1202.36 1084.84 1195.02 1081.71L1154.6 1064.49C1143.56 1059.79 1130.49 1064.87 1118.57 1066.22C1114.34 1066.69 1109.93 1066.12 1105.73 1064.33C1092.82 1058.83 1086.79 1043.93 1092.28 1031.05C1097.76 1018.18 1112.68 1012.2 1125.6 1017.7C1129.79 1019.49 1133.26 1022.27 1135.85 1025.65C1143.13 1035.18 1148.52 1048.13 1159.57 1052.84L1193.68 1067.37C1204.73 1072.08 1217.8 1066.99 1229.72 1065.65C1233.95 1065.17 1238.36 1065.75 1242.55 1067.53C1255.47 1073.04 1261.5 1087.94 1256.01 1100.81C1254.23 1104.99 1251.45 1108.45 1248.07 1111.02C1238.54 1118.26 1225.57 1123.61 1220.88 1134.62L1206.4 1168.62C1201.71 1179.63 1206.83 1192.68 1208.21 1204.58C1208.7 1208.8 1208.13 1213.19 1206.35 1217.37C1200.87 1230.25 1185.95 1236.22 1173.03 1230.72C1160.11 1225.22 1154.08 1210.32 1159.57 1197.44Z" fill="#313131"/>
<path d="M1599.97 924.299C1601.75 920.116 1604.53 916.662 1607.91 914.092C1617.45 906.846 1630.41 901.501 1635.1 890.491L1652.26 850.211C1655.38 842.9 1652.44 834.52 1649.46 827.14C1646.47 819.759 1642.76 811.694 1635.42 808.569L1595 791.349C1583.96 786.642 1570.89 791.724 1558.97 793.073C1554.74 793.55 1550.33 792.973 1546.13 791.186C1533.22 785.682 1527.19 770.783 1532.68 757.908C1538.16 745.033 1553.08 739.057 1566 744.561C1570.19 746.348 1573.66 749.128 1576.25 752.508C1583.53 762.039 1588.92 774.986 1599.97 779.693L1634.08 794.226C1645.13 798.933 1658.2 793.852 1670.12 792.504C1674.35 792.025 1678.76 792.602 1682.95 794.389C1695.87 799.893 1701.9 814.792 1696.41 827.667C1694.63 831.85 1691.85 835.305 1688.47 837.874C1678.94 845.121 1665.97 850.467 1661.28 861.476L1646.8 895.473C1642.11 906.483 1647.23 919.536 1648.61 931.433C1649.1 935.652 1648.53 940.047 1646.75 944.23C1641.27 957.105 1626.35 963.081 1613.43 957.577C1600.51 952.073 1594.48 937.174 1599.97 924.299Z" fill="#313131"/>
<path d="M1305.67 984.25C1303.89 988.433 1301.11 991.888 1297.73 994.457C1288.2 1001.7 1275.23 1007.05 1270.54 1018.06L1253.38 1058.34C1250.27 1065.65 1253.2 1074.03 1256.19 1081.41C1259.17 1088.79 1262.89 1096.86 1270.22 1099.98L1310.64 1117.2C1321.68 1121.91 1334.76 1116.82 1346.68 1115.48C1350.91 1115 1355.31 1115.58 1359.51 1117.36C1372.43 1122.87 1378.46 1137.77 1372.97 1150.64C1367.48 1163.52 1352.57 1169.49 1339.65 1163.99C1335.45 1162.2 1331.98 1159.42 1329.4 1156.04C1322.11 1146.51 1316.72 1133.56 1305.67 1128.86L1271.56 1114.32C1260.51 1109.62 1247.44 1114.7 1235.52 1116.05C1231.3 1116.53 1226.89 1115.95 1222.69 1114.16C1209.77 1108.66 1203.74 1093.76 1209.23 1080.88C1211.01 1076.7 1213.79 1073.24 1217.17 1070.67C1226.71 1063.43 1239.67 1058.08 1244.36 1047.07L1258.85 1013.08C1263.54 1002.07 1258.41 989.013 1257.03 977.116C1256.54 972.898 1257.11 968.501 1258.89 964.318C1264.38 951.444 1279.3 945.468 1292.21 950.972C1305.14 956.477 1311.16 971.375 1305.67 984.25Z" fill="#313131"/>
<path d="M1746.07 711.106C1744.29 715.289 1741.51 718.744 1738.13 721.313C1728.6 728.56 1715.63 733.906 1710.94 744.916L1693.78 785.195C1690.67 792.507 1693.6 800.887 1696.59 808.267C1699.57 815.646 1703.29 823.712 1710.62 826.838L1751.04 844.056C1762.08 848.763 1775.16 843.681 1787.08 842.334C1791.31 841.856 1795.71 842.432 1799.91 844.221C1812.83 849.725 1818.86 864.624 1813.37 877.499C1807.88 890.374 1792.97 896.35 1780.05 890.846C1775.85 889.058 1772.38 886.278 1769.8 882.898C1762.51 873.366 1757.12 860.419 1746.07 855.713L1711.96 841.18C1700.91 836.474 1687.84 841.555 1675.92 842.903C1671.7 843.382 1667.29 842.805 1663.09 841.016C1650.17 835.512 1644.14 820.613 1649.63 807.738C1651.41 803.555 1654.19 800.101 1657.57 797.531C1667.11 790.285 1680.07 784.94 1684.76 773.93L1699.25 739.934C1703.94 728.924 1698.81 715.87 1697.43 703.972C1696.94 699.755 1697.51 695.358 1699.29 691.175C1704.78 678.3 1719.7 672.324 1732.61 677.828C1745.54 683.333 1751.56 698.231 1746.07 711.106Z" fill="#313131"/>
<path d="M1125.6 1017.7C1129.79 1019.49 1133.26 1022.27 1135.85 1025.65C1143.13 1035.18 1148.52 1048.13 1159.57 1052.84L1199.99 1070.06C1207.32 1073.18 1215.71 1070.28 1223.1 1067.32C1230.5 1064.36 1238.57 1060.67 1241.69 1053.36L1258.85 1013.08C1263.54 1002.07 1258.41 989.013 1257.03 977.116C1256.54 972.898 1257.11 968.501 1258.89 964.318C1264.38 951.444 1279.3 945.468 1292.21 950.972C1305.13 956.475 1311.16 971.374 1305.67 984.25C1303.89 988.433 1301.11 991.888 1297.73 994.457C1288.2 1001.7 1275.23 1007.05 1270.54 1018.06L1256.06 1052.06C1251.37 1063.07 1256.49 1076.12 1257.87 1088.02C1258.36 1092.23 1257.79 1096.63 1256.01 1100.81C1250.53 1113.69 1235.61 1119.66 1222.69 1114.16C1218.49 1112.37 1215.02 1109.59 1212.44 1106.21C1205.15 1096.68 1199.76 1083.73 1188.72 1079.03L1154.6 1064.49C1143.56 1059.79 1130.49 1064.87 1118.57 1066.22C1114.34 1066.69 1109.93 1066.12 1105.73 1064.33C1092.82 1058.83 1086.79 1043.93 1092.28 1031.05C1097.76 1018.18 1112.68 1012.2 1125.6 1017.7Z" fill="#313131"/>
<path d="M1566 744.561C1570.19 746.348 1573.66 749.128 1576.25 752.508C1583.53 762.039 1588.92 774.986 1599.97 779.693L1640.39 796.914C1647.72 800.04 1656.11 797.132 1663.5 794.172C1670.9 791.213 1678.97 787.525 1682.09 780.213L1699.25 739.934C1703.94 728.924 1698.81 715.87 1697.43 703.972C1696.94 699.755 1697.51 695.358 1699.29 691.175C1704.78 678.3 1719.7 672.324 1732.61 677.828C1745.53 683.332 1751.56 698.231 1746.07 711.106C1744.29 715.289 1741.51 718.744 1738.13 721.313C1728.6 728.56 1715.63 733.906 1710.94 744.916L1696.46 778.912C1691.77 789.922 1696.89 802.975 1698.27 814.872C1698.76 819.091 1698.19 823.485 1696.41 827.667C1690.93 840.542 1676.01 846.52 1663.09 841.016C1658.89 839.228 1655.42 836.449 1652.84 833.07C1645.55 823.538 1640.16 810.591 1629.12 805.884L1595 791.349C1583.96 786.642 1570.89 791.724 1558.97 793.073C1554.74 793.55 1550.33 792.973 1546.13 791.186C1533.22 785.682 1527.19 770.783 1532.68 757.908C1538.16 745.033 1553.08 739.057 1566 744.561Z" fill="#313131"/>
<path d="M1476.8 1137.19C1449.01 1125.35 1416.88 1138.28 1405.04 1166.07C1393.2 1193.86 1406.13 1225.99 1433.92 1237.83C1461.72 1249.67 1493.84 1236.74 1505.68 1208.95C1517.52 1181.16 1504.59 1149.03 1476.8 1137.19Z" fill="#313131"/>
<path d="M1454.91 637.357C1427.12 625.517 1394.99 638.447 1383.15 666.239C1371.31 694.03 1384.24 726.158 1412.03 737.998C1439.82 749.839 1471.95 736.908 1483.79 709.117C1495.63 681.325 1482.7 649.197 1454.91 637.357Z" fill="#313131"/>
<path d="M1490.91 551.162C1494.27 552.594 1497.13 554.713 1499.38 557.285C1507.29 566.31 1512.67 579.501 1523.72 584.207L1559.58 599.487C1566.35 602.372 1574.1 599.688 1580.92 596.956C1587.74 594.224 1595.2 590.819 1598.07 584.07L1613.3 548.328C1617.99 537.318 1612.69 524.096 1612.11 512.135C1611.95 508.726 1612.53 505.23 1613.95 501.882C1619.02 489.997 1632.79 484.481 1644.71 489.562C1656.64 494.643 1662.2 508.396 1657.14 520.281C1655.71 523.628 1653.6 526.471 1651.02 528.714C1642 536.583 1628.79 541.918 1624.1 552.927L1611.95 581.431C1607.26 592.441 1612.56 605.663 1613.14 617.624C1613.31 621.033 1612.72 624.529 1611.3 627.877C1606.23 639.762 1592.46 645.277 1580.54 640.197C1577.18 638.766 1574.32 636.646 1572.07 634.074C1564.16 625.049 1558.78 611.858 1547.73 607.152L1519.13 594.967C1508.09 590.26 1494.85 595.518 1482.86 596.066C1479.44 596.222 1475.94 595.632 1472.58 594.201C1460.65 589.12 1455.09 575.367 1460.15 563.482C1465.22 551.597 1478.99 546.082 1490.91 551.162Z" fill="#313131"/>
<path d="M1373.57 365.436C1370.21 364.004 1367.35 361.888 1365.1 359.315C1357.19 350.289 1351.81 337.098 1340.76 332.391L1304.9 317.112C1298.13 314.227 1290.38 316.909 1283.56 319.644C1276.74 322.374 1269.28 325.779 1266.41 332.528L1251.18 368.271C1246.49 379.28 1251.79 392.503 1252.37 404.463C1252.54 407.872 1251.95 411.369 1250.53 414.717C1245.46 426.602 1231.69 432.117 1219.77 427.037C1207.84 421.956 1202.28 408.203 1207.34 396.318C1208.77 392.97 1210.89 390.127 1213.46 387.884C1222.48 380.016 1235.7 374.681 1240.39 363.672L1252.53 335.168C1257.22 324.158 1251.92 310.934 1251.34 298.975C1251.17 295.565 1251.76 292.071 1253.18 288.72C1258.25 276.838 1272.02 271.322 1283.94 276.403C1287.3 277.835 1290.16 279.951 1292.41 282.525C1300.32 291.551 1305.7 304.742 1316.75 309.448L1345.35 321.633C1356.39 326.34 1369.64 321.082 1381.62 320.532C1385.04 320.375 1388.54 320.968 1391.9 322.4C1403.83 327.479 1409.39 341.234 1404.33 353.116C1399.27 365.001 1385.49 370.515 1373.57 365.436Z" fill="#313131"/>
<path d="M1355.69 564.421C1357.47 560.238 1360.25 556.783 1363.63 554.214C1373.17 546.967 1386.13 541.621 1390.82 530.611L1407.98 490.332C1411.1 483.021 1408.16 474.64 1405.18 467.262C1402.19 459.881 1398.47 451.815 1391.14 448.689L1350.72 431.471C1339.68 426.764 1326.61 431.846 1314.68 433.194C1310.45 433.671 1306.05 433.096 1301.85 431.307C1288.93 425.803 1282.91 410.903 1288.39 398.029C1293.88 385.153 1308.8 379.178 1321.71 384.682C1325.91 386.471 1329.38 389.249 1331.97 392.629C1339.25 402.161 1344.64 415.108 1355.69 419.815L1389.8 434.347C1400.85 439.053 1413.92 433.972 1425.84 432.624C1430.07 432.147 1434.47 432.722 1438.67 434.511C1451.59 440.015 1457.62 454.914 1452.13 467.789C1450.35 471.972 1447.57 475.426 1444.19 477.996C1434.66 485.243 1421.69 490.589 1417 501.599L1402.52 535.595C1397.83 546.605 1402.95 559.658 1404.33 571.555C1404.82 575.772 1404.25 580.169 1402.47 584.352C1396.99 597.227 1382.07 603.202 1369.15 597.699C1356.23 592.195 1350.2 577.296 1355.69 564.421Z" fill="#313131"/>
<path d="M1501.79 351.226C1500.01 355.409 1497.23 358.863 1493.85 361.433C1484.32 368.679 1471.35 374.026 1466.66 385.036L1449.5 425.315C1446.39 432.626 1449.32 441.005 1452.3 448.385C1455.29 455.765 1459 463.831 1466.34 466.958L1506.76 484.176C1517.81 488.883 1530.88 483.801 1542.8 482.453C1547.02 481.975 1551.43 482.551 1555.63 484.339C1568.55 489.844 1574.58 504.744 1569.09 517.618C1563.61 530.494 1548.69 536.469 1535.76 530.964C1531.57 529.176 1528.1 526.397 1525.52 523.018C1518.23 513.486 1512.84 500.539 1501.79 495.832L1467.68 481.299C1456.63 476.592 1443.56 481.673 1431.64 483.023C1427.41 483.5 1423 482.923 1418.81 481.136C1405.89 475.632 1399.86 460.733 1405.35 447.857C1407.13 443.675 1409.91 440.219 1413.29 437.651C1422.83 430.404 1435.79 425.058 1440.48 414.048L1454.97 380.052C1459.66 369.042 1454.53 355.989 1453.15 344.092C1452.66 339.873 1453.23 335.477 1455.01 331.295C1460.5 318.42 1475.42 312.444 1488.33 317.948C1501.25 323.452 1507.28 338.351 1501.79 351.226Z" fill="#313131"/>
<path d="M1321.71 384.682C1325.91 386.471 1329.38 389.249 1331.97 392.629C1339.25 402.161 1344.64 415.108 1355.69 419.815L1396.1 437.032C1403.44 440.158 1411.83 437.252 1419.22 434.292C1426.61 431.331 1434.69 427.643 1437.8 420.331L1454.97 380.052C1459.66 369.042 1454.53 355.989 1453.15 344.092C1452.66 339.873 1453.23 335.477 1455.01 331.295C1460.5 318.42 1475.42 312.444 1488.33 317.948C1501.25 323.452 1507.28 338.351 1501.79 351.226C1500.01 355.409 1497.23 358.863 1493.85 361.433C1484.32 368.679 1471.35 374.026 1466.66 385.036L1452.18 419.032C1447.49 430.041 1452.61 443.094 1453.99 454.991C1454.48 459.209 1453.91 463.607 1452.13 467.789C1446.65 480.665 1431.73 486.639 1418.81 481.136C1414.61 479.347 1411.14 476.568 1408.56 473.188C1401.27 463.656 1395.88 450.709 1384.83 446.002L1350.72 431.471C1339.68 426.764 1326.61 431.846 1314.68 433.194C1310.45 433.671 1306.05 433.096 1301.85 431.307C1288.93 425.803 1282.91 410.903 1288.39 398.029C1293.88 385.153 1308.8 379.178 1321.71 384.682Z" fill="#313131"/>
<path d="M1141.94 696.31C1143.73 692.128 1146.5 688.674 1149.88 686.104C1159.42 678.857 1172.39 673.512 1177.08 662.502L1194.24 622.223C1197.35 614.911 1194.42 606.531 1191.43 599.151C1188.45 591.771 1184.73 583.706 1177.4 580.58L1136.98 563.36C1125.93 558.654 1112.86 563.735 1100.94 565.084C1096.71 565.562 1092.3 564.985 1088.11 563.197C1075.19 557.694 1069.16 542.794 1074.65 529.919C1080.13 517.044 1095.05 511.069 1107.97 516.572C1112.17 518.36 1115.64 521.14 1118.22 524.52C1125.51 534.051 1130.9 546.998 1141.94 551.704L1176.06 566.238C1187.1 570.945 1200.18 565.863 1212.1 564.515C1216.32 564.037 1220.73 564.613 1224.93 566.401C1237.85 571.904 1243.87 586.804 1238.39 599.679C1236.6 603.861 1233.83 607.317 1230.45 609.886C1220.91 617.132 1207.95 622.479 1203.26 633.488L1188.77 667.485C1184.08 678.494 1189.21 691.547 1190.59 703.444C1191.08 707.663 1190.51 712.059 1188.73 716.242C1183.24 729.117 1168.32 735.092 1155.4 729.588C1142.48 724.085 1136.46 709.185 1141.94 696.31Z" fill="#313131"/>
<path d="M1582.34 423.167C1584.13 418.984 1586.9 415.53 1590.28 412.96C1599.82 405.714 1612.79 400.369 1617.48 389.359L1634.64 349.079C1637.75 341.768 1634.82 333.388 1631.83 326.008C1628.85 318.627 1625.13 310.562 1617.8 307.437L1577.38 290.217C1566.33 285.51 1553.26 290.592 1541.34 291.941C1537.11 292.418 1532.7 291.841 1528.51 290.054C1515.59 284.55 1509.56 269.651 1515.05 256.776C1520.53 243.901 1535.45 237.925 1548.37 243.429C1552.57 245.216 1556.04 247.996 1558.62 251.376C1565.91 260.907 1571.3 273.854 1582.34 278.561L1616.46 293.095C1627.5 297.801 1640.58 292.72 1652.5 291.372C1656.72 290.893 1661.13 291.47 1665.33 293.257C1678.25 298.761 1684.27 313.66 1678.79 326.535C1677 330.718 1674.23 334.173 1670.85 336.742C1661.31 343.989 1648.35 349.335 1643.66 360.345L1629.17 394.341C1624.48 405.351 1629.61 418.404 1630.99 430.301C1631.48 434.52 1630.91 438.916 1629.13 443.098C1623.64 455.973 1608.72 461.949 1595.8 456.445C1582.88 450.941 1576.86 436.042 1582.34 423.167Z" fill="#313131"/>
<path d="M1288.05 483.118C1286.26 487.301 1283.49 490.756 1280.11 493.325C1270.57 500.571 1257.61 505.918 1252.92 516.928L1235.75 557.207C1232.64 564.518 1235.57 572.898 1238.56 580.279C1241.54 587.657 1245.26 595.724 1252.6 598.849L1293.01 616.068C1304.06 620.774 1317.13 615.693 1329.05 614.345C1333.28 613.868 1337.69 614.444 1341.88 616.232C1354.8 621.736 1360.83 636.635 1355.34 649.51C1349.86 662.386 1334.94 668.361 1322.02 662.857C1317.82 661.069 1314.35 658.29 1311.77 654.91C1304.48 645.378 1299.09 632.431 1288.05 627.724L1253.94 613.192C1242.89 608.485 1229.82 613.567 1217.89 614.914C1213.67 615.393 1209.26 614.816 1205.06 613.027C1192.14 607.524 1186.12 592.625 1191.6 579.749C1193.39 575.567 1196.16 572.113 1199.54 569.543C1209.08 562.296 1222.05 556.951 1226.74 545.942L1241.22 511.945C1245.91 500.936 1240.78 487.881 1239.4 475.984C1238.92 471.766 1239.48 467.37 1241.26 463.187C1246.75 450.312 1261.67 444.336 1274.59 449.84C1287.51 455.345 1293.53 470.243 1288.05 483.118Z" fill="#313131"/>
<path d="M1728.45 209.975C1726.66 214.157 1723.89 217.612 1720.51 220.181C1710.97 227.428 1698.01 232.774 1693.32 243.784L1676.15 284.063C1673.04 291.375 1675.97 299.755 1678.96 307.135C1681.94 314.514 1685.66 322.58 1693 325.706L1733.41 342.924C1744.46 347.631 1757.53 342.55 1769.45 341.202C1773.68 340.724 1778.09 341.301 1782.28 343.089C1795.2 348.593 1801.23 363.492 1795.74 376.367C1790.26 389.242 1775.34 395.218 1762.42 389.714C1758.22 387.926 1754.75 385.146 1752.17 381.766C1744.88 372.235 1739.49 359.287 1728.45 354.581L1694.34 340.049C1683.29 335.342 1670.22 340.423 1658.29 341.771C1654.07 342.25 1649.66 341.673 1645.46 339.884C1632.54 334.38 1626.52 319.481 1632 306.606C1633.79 302.423 1636.56 298.969 1639.94 296.399C1649.48 289.153 1662.45 283.808 1667.14 272.798L1681.62 238.802C1686.31 227.792 1681.18 214.738 1679.8 202.84C1679.32 198.623 1679.88 194.226 1681.66 190.043C1687.15 177.168 1702.07 171.193 1714.99 176.696C1727.91 182.202 1733.93 197.1 1728.45 209.975Z" fill="#313131"/>
<path d="M1107.97 516.572C1112.17 518.36 1115.64 521.14 1118.22 524.52C1125.51 534.051 1130.9 546.998 1141.94 551.704L1182.36 568.926C1189.7 572.051 1198.09 569.144 1205.48 566.184C1212.87 563.224 1220.95 559.536 1224.06 552.225L1241.22 511.945C1245.91 500.936 1240.78 487.881 1239.4 475.984C1238.92 471.766 1239.48 467.37 1241.26 463.187C1246.75 450.312 1261.67 444.336 1274.59 449.84C1287.51 455.344 1293.53 470.243 1288.05 483.118C1286.26 487.301 1283.49 490.756 1280.11 493.325C1270.57 500.571 1257.61 505.918 1252.92 516.928L1238.43 550.924C1233.74 561.933 1238.87 574.986 1240.25 586.884C1240.74 591.103 1240.17 595.496 1238.39 599.679C1232.9 612.554 1217.98 618.531 1205.06 613.027C1200.87 611.24 1197.4 608.46 1194.82 605.082C1187.53 595.549 1182.14 582.602 1171.09 577.896L1136.98 563.36C1125.93 558.654 1112.86 563.735 1100.94 565.084C1096.71 565.562 1092.3 564.985 1088.11 563.197C1075.19 557.694 1069.16 542.794 1074.65 529.919C1080.13 517.044 1095.05 511.069 1107.97 516.572Z" fill="#313131"/>
<path d="M1548.37 243.429C1552.57 245.216 1556.04 247.996 1558.62 251.376C1565.91 260.907 1571.3 273.854 1582.34 278.561L1622.76 295.782C1630.1 298.908 1638.49 296 1645.88 293.04C1653.27 290.081 1661.35 286.393 1664.46 279.081L1681.62 238.802C1686.31 227.792 1681.18 214.738 1679.8 202.84C1679.32 198.623 1679.88 194.226 1681.66 190.043C1687.15 177.168 1702.07 171.193 1714.99 176.696C1727.91 182.2 1733.93 197.099 1728.45 209.975C1726.66 214.157 1723.89 217.612 1720.51 220.181C1710.97 227.428 1698.01 232.774 1693.32 243.784L1678.83 277.78C1674.14 288.79 1679.27 301.843 1680.65 313.74C1681.14 317.959 1680.57 322.353 1678.79 326.535C1673.3 339.41 1658.38 345.388 1645.46 339.884C1641.27 338.097 1637.8 335.317 1635.22 331.938C1627.93 322.406 1622.54 309.459 1611.49 304.752L1577.38 290.217C1566.33 285.51 1553.26 290.592 1541.34 291.941C1537.11 292.418 1532.7 291.841 1528.51 290.054C1515.59 284.55 1509.56 269.651 1515.05 256.776C1520.53 243.901 1535.45 237.925 1548.37 243.429Z" fill="#313131"/>
<path d="M1376.77 148.247C1348.98 136.406 1316.85 149.337 1305.01 177.129C1293.17 204.92 1306.1 237.048 1333.89 248.888C1361.68 260.729 1393.81 247.798 1405.65 220.007C1417.49 192.215 1404.56 160.087 1376.77 148.247Z" fill="#313131"/>
<path d="M1689.23 306.681C1941.89 577.869 1948.6 1187.44 1629.17 1353C1506.59 1416.39 1397.1 1386.39 1285.97 1356.13C1165.96 1323.52 1044.13 1290.5 901.757 1375.51C548.003 1586.29 301.412 1413.83 136.739 1112.19C13.175 885.858 -50.6678 740.522 -108.749 566.736C-199.241 296.1 -88.7608 258.647 32.755 250.578C154.271 242.509 358.086 403.571 863.182 205.103C1368.28 6.63522 1551.88 159.258 1689.23 306.681Z" fill="url(#paint0_linear)" fill-opacity="0.2"/>
<defs>
<linearGradient id="paint0_linear" x1="1436" y1="1369.65" x2="328.817" y2="67.2915" gradientUnits="userSpaceOnUse">
<stop stop-color="#0FBDE9"/>
<stop offset="0.0001" stop-color="#0FBDE9"/>
<stop offset="0.864583" stop-color="#5C34FA"/>
</linearGradient>
</defs>
</svg>
