<svg width="1440" height="1725" viewBox="0 0 1440 1725" fill="none" xmlns="http://www.w3.org/2000/svg">
<path d="M1033.36 431.167C1029.47 429.187 1026.23 426.424 1023.74 423.169C1015.01 411.749 1009.65 395.554 996.824 389.041L955.198 367.897C947.339 363.905 937.866 366.488 929.495 369.204C921.124 371.92 911.942 375.389 907.963 383.222L886.891 424.708C880.4 437.486 885.673 453.712 885.401 468.052C885.324 472.139 884.346 476.27 882.372 480.155C875.365 493.95 858.465 499.433 844.624 492.402C830.783 485.372 825.242 468.49 832.249 454.696C834.223 450.81 836.982 447.584 840.237 445.111C851.656 436.434 867.869 431.122 874.36 418.343L891.165 385.259C897.655 372.481 892.383 356.255 892.654 341.915C892.731 337.828 893.709 333.698 895.683 329.812C902.69 316.017 919.591 310.534 933.432 317.565C937.331 319.545 940.571 322.308 943.058 325.562C951.783 336.983 957.15 353.178 969.972 359.691L1003.17 376.553C1015.99 383.065 1032.23 377.848 1046.6 378.157C1050.7 378.245 1054.84 379.233 1058.74 381.214C1072.58 388.244 1078.12 405.126 1071.11 418.92C1064.11 432.715 1047.21 438.197 1033.36 431.167Z" fill="#313131"/>
<path d="M1158.64 662.541C1162.54 664.523 1165.78 667.282 1168.27 670.538C1176.99 681.96 1182.36 698.155 1195.19 704.668L1236.81 725.811C1244.67 729.804 1254.14 727.222 1262.51 724.503C1270.89 721.79 1280.07 718.32 1284.05 710.486L1305.12 669.001C1311.61 656.222 1306.34 639.995 1306.61 625.657C1306.69 621.571 1307.66 617.439 1309.64 613.553C1316.65 599.758 1333.55 594.275 1347.39 601.306C1361.23 608.337 1366.77 625.219 1359.76 639.013C1357.79 642.899 1355.03 646.125 1351.77 648.598C1340.36 657.275 1324.14 662.586 1317.65 675.365L1300.84 708.448C1294.35 721.227 1299.63 737.456 1299.36 751.793C1299.28 755.881 1298.3 760.01 1296.33 763.899C1289.32 777.69 1272.42 783.173 1258.58 776.142C1254.68 774.16 1251.44 771.402 1248.95 768.146C1240.23 756.724 1234.86 740.529 1222.04 734.016L1188.84 717.155C1176.02 710.642 1159.78 715.859 1145.41 715.552C1141.31 715.464 1137.17 714.474 1133.27 712.492C1119.43 705.463 1113.89 688.58 1120.89 674.789C1127.9 660.994 1144.81 655.513 1158.64 662.541Z" fill="#313131"/>
<path d="M1196.02 426.203C1193.55 431.058 1189.96 434.964 1185.71 437.761C1173.73 445.653 1157.81 450.999 1151.32 463.777L1127.57 510.529C1123.26 519.015 1126.09 529.265 1129.06 538.322C1132.04 547.381 1135.83 557.32 1144.35 561.645L1191.26 585.471C1204.08 591.984 1220.11 586.964 1234.46 586.312C1239.55 586.082 1244.77 587.124 1249.64 589.6C1264.64 597.216 1270.64 615.504 1263.05 630.448C1255.46 645.392 1237.15 651.332 1222.16 643.716C1217.28 641.24 1213.36 637.642 1210.55 633.394C1202.61 621.418 1197.21 605.513 1184.38 599L1144.79 578.891C1131.97 572.378 1115.94 577.398 1101.59 578.049C1096.5 578.28 1091.28 577.238 1086.4 574.762C1071.41 567.146 1065.41 548.858 1073 533.914C1075.47 529.059 1079.06 525.155 1083.31 522.356C1095.29 514.464 1111.21 509.118 1117.7 496.34L1137.74 456.881C1144.23 444.102 1139.16 428.092 1138.47 413.765C1138.22 408.686 1139.25 403.477 1141.72 398.623C1149.31 383.679 1167.62 377.739 1182.61 385.355C1197.61 392.971 1203.61 411.259 1196.02 426.203Z" fill="#313131"/>
<path d="M1004.28 669.205C1006.74 664.351 1010.34 660.447 1014.59 657.648C1026.57 649.756 1042.49 644.41 1048.98 631.631L1072.73 584.88C1077.04 576.394 1074.21 566.146 1071.23 557.087C1068.26 548.028 1064.47 538.091 1055.95 533.764L1009.04 509.937C996.22 503.425 980.191 508.445 965.836 509.097C960.749 509.329 955.527 508.285 950.657 505.811C935.659 498.193 929.657 479.904 937.248 464.961C944.839 450.017 963.148 444.077 978.145 451.695C983.015 454.168 986.938 457.769 989.751 462.014C997.692 473.991 1003.09 489.896 1015.91 496.409L1055.51 516.52C1068.33 523.033 1084.36 518.013 1098.71 517.359C1103.8 517.129 1109.02 518.173 1113.89 520.647C1128.89 528.263 1134.89 546.551 1127.3 561.495C1124.83 566.35 1121.24 570.256 1116.99 573.053C1105.01 580.945 1089.09 586.29 1082.6 599.069L1062.55 638.528C1056.06 651.306 1061.14 667.317 1061.83 681.644C1062.08 686.725 1061.04 691.932 1058.58 696.786C1050.99 711.73 1032.68 717.67 1017.68 710.054C1002.69 702.438 996.688 684.149 1004.28 669.205Z" fill="#313131"/>
<path d="M1222.16 643.716C1217.28 641.24 1213.36 637.642 1210.55 633.394C1202.61 621.418 1197.21 605.513 1184.38 599L1137.47 575.175C1128.96 570.85 1118.7 573.647 1109.63 576.589C1100.56 579.533 1090.61 583.29 1086.3 591.777L1062.55 638.528C1056.06 651.306 1061.14 667.317 1061.83 681.644C1062.08 686.725 1061.04 691.932 1058.58 696.786C1050.99 711.73 1032.68 717.67 1017.68 710.054C1002.69 702.438 996.688 684.149 1004.28 669.205C1006.74 664.351 1010.34 660.447 1014.59 657.648C1026.57 649.756 1042.49 644.41 1048.98 631.631L1069.02 592.173C1075.51 579.394 1070.44 563.384 1069.75 549.057C1069.5 543.978 1070.53 538.768 1073 533.914C1080.59 518.97 1098.9 513.031 1113.89 520.647C1118.77 523.122 1122.68 526.721 1125.5 530.968C1133.44 542.945 1138.84 558.85 1151.66 565.363L1191.26 585.471C1204.08 591.984 1220.11 586.964 1234.46 586.312C1239.55 586.082 1244.77 587.124 1249.64 589.6C1264.64 597.216 1270.64 615.504 1263.05 630.448C1255.46 645.392 1237.15 651.332 1222.16 643.716Z" fill="#313131"/>
<path d="M1462.04 285.798C1459.58 290.653 1455.98 294.557 1451.74 297.356C1439.76 305.248 1423.83 310.591 1417.34 323.37L1393.59 370.122C1389.28 378.608 1392.12 388.858 1395.09 397.917C1398.06 406.976 1401.85 416.913 1410.37 421.237L1457.28 445.066C1470.1 451.579 1486.13 446.559 1500.48 445.906C1505.57 445.675 1510.8 446.719 1515.67 449.193C1530.66 456.809 1536.66 475.097 1529.07 490.041C1521.48 504.985 1503.17 510.925 1488.18 503.309C1483.31 500.836 1479.39 497.235 1476.57 492.988C1468.63 481.013 1463.23 465.108 1450.41 458.595L1410.82 438.484C1397.99 431.971 1381.96 436.991 1367.61 437.643C1362.52 437.875 1357.3 436.831 1352.43 434.357C1337.44 426.741 1331.44 408.452 1339.03 393.509C1341.49 388.654 1345.09 384.749 1349.34 381.951C1361.31 374.059 1377.23 368.713 1383.73 355.935L1403.77 316.476C1410.26 303.697 1405.19 287.687 1404.49 273.36C1404.25 268.279 1405.28 263.072 1407.75 258.217C1415.34 243.274 1433.65 237.334 1448.64 244.95C1463.63 252.566 1469.64 270.854 1462.04 285.798Z" fill="#313131"/>
<path d="M913.813 576.759C911.347 581.614 907.748 585.518 903.503 588.317C891.526 596.209 875.6 601.553 869.109 614.331L845.362 661.083C841.052 669.569 843.885 679.819 846.859 688.878C849.832 697.938 853.623 707.874 862.137 712.199L909.05 736.027C921.872 742.54 937.901 737.52 952.251 736.867C957.343 736.636 962.565 737.681 967.434 740.154C982.428 747.77 988.43 766.059 980.839 781.003C973.249 795.946 954.94 801.886 939.946 794.27C935.076 791.797 931.154 788.196 928.336 783.949C920.4 771.974 915 756.069 902.178 749.556L862.584 729.445C849.762 722.932 833.733 727.952 819.378 728.604C814.291 728.836 809.069 727.792 804.199 725.319C789.205 717.703 783.203 699.414 790.794 684.47C793.26 679.615 796.855 675.71 801.104 672.912C813.082 665.02 829.003 659.674 835.494 646.896L855.537 607.437C862.027 594.659 856.954 578.648 856.262 564.321C856.015 559.24 857.048 554.033 859.514 549.179C867.105 534.235 885.414 528.295 900.408 535.911C915.402 543.527 921.404 561.816 913.813 576.759Z" fill="#313131"/>
<path d="M1270.31 528.798C1272.77 523.943 1276.37 520.038 1280.62 517.24C1292.59 509.348 1308.52 504.002 1315.01 491.224L1338.75 444.472C1343.06 435.986 1340.23 425.737 1337.26 416.677C1334.29 407.62 1330.49 397.682 1321.98 393.357L1275.07 369.53C1262.25 363.017 1246.22 368.038 1231.86 368.689C1226.77 368.919 1221.55 367.876 1216.68 365.402C1201.69 357.785 1195.69 339.497 1203.28 324.553C1210.87 309.609 1229.18 303.669 1244.17 311.285C1249.04 313.76 1252.96 317.36 1255.78 321.607C1263.72 333.583 1269.12 349.488 1281.94 356.001L1321.53 376.11C1334.35 382.623 1350.38 377.603 1364.74 376.952C1369.83 376.719 1375.05 377.763 1379.92 380.239C1394.91 387.855 1400.92 406.143 1393.33 421.087C1390.86 425.942 1387.26 429.846 1383.02 432.645C1371.04 440.537 1355.11 445.881 1348.62 458.659L1328.58 498.118C1322.09 510.897 1327.17 526.909 1327.86 541.236C1328.1 546.315 1327.07 551.524 1324.61 556.379C1317.01 571.322 1298.71 577.263 1283.71 569.647C1268.71 562.029 1262.72 543.742 1270.31 528.798Z" fill="#313131"/>
<path d="M722.075 819.759C724.541 814.904 728.136 810.999 732.385 808.202C744.363 800.309 760.284 794.964 766.775 782.185L790.522 735.434C794.832 726.948 791.999 716.698 789.025 707.638C786.056 698.581 782.261 688.643 773.747 684.318L726.838 660.491C714.016 653.978 697.988 658.999 683.633 659.65C678.543 659.881 673.321 658.837 668.45 656.363C653.456 648.747 647.454 630.458 655.045 615.514C662.635 600.57 680.944 594.63 695.938 602.247C700.81 604.721 704.732 608.321 707.548 612.568C715.489 624.544 720.888 640.449 733.71 646.962L773.3 667.072C786.122 673.584 802.151 668.564 816.506 667.913C821.594 667.68 826.815 668.725 831.689 671.2C846.683 678.816 852.685 697.105 845.094 712.049C842.628 716.903 839.029 720.807 834.784 723.606C822.807 731.498 806.881 736.842 800.39 749.621L780.348 789.079C773.857 801.858 778.935 817.87 779.626 832.198C779.869 837.277 778.84 842.485 776.374 847.34C768.783 862.284 750.474 868.224 735.48 860.608C720.482 852.99 714.484 834.703 722.075 819.759Z" fill="#313131"/>
<path d="M1488.18 503.309C1483.31 500.836 1479.39 497.235 1476.57 492.988C1468.63 481.013 1463.23 465.108 1450.41 458.595L1403.5 434.764C1394.98 430.44 1384.72 433.239 1375.65 436.181C1366.58 439.123 1356.64 442.88 1352.33 451.366L1328.58 498.118C1322.09 510.897 1327.17 526.909 1327.86 541.236C1328.1 546.315 1327.07 551.524 1324.61 556.379C1317.01 571.322 1298.71 577.263 1283.71 569.647C1268.72 562.031 1262.72 543.742 1270.31 528.798C1272.77 523.943 1276.37 520.038 1280.62 517.24C1292.59 509.348 1308.52 504.002 1315.01 491.224L1335.05 451.765C1341.54 438.987 1336.47 422.977 1335.77 408.649C1335.53 403.568 1336.56 398.364 1339.03 393.509C1346.62 378.565 1364.93 372.623 1379.92 380.239C1384.79 382.712 1388.71 386.313 1391.53 390.558C1399.47 402.535 1404.87 418.44 1417.69 424.953L1457.28 445.066C1470.1 451.579 1486.13 446.559 1500.48 445.906C1505.57 445.675 1510.8 446.719 1515.67 449.193C1530.66 456.809 1536.66 475.097 1529.07 490.041C1521.48 504.985 1503.17 510.925 1488.18 503.309Z" fill="#313131"/>
<path d="M939.946 794.27C935.076 791.797 931.154 788.196 928.336 783.949C920.4 771.974 915 756.069 902.178 749.556L855.266 725.726C846.752 721.401 836.492 724.2 827.423 727.142C818.353 730.084 808.405 733.842 804.094 742.328L780.348 789.079C773.857 801.858 778.935 817.87 779.626 832.198C779.869 837.277 778.84 842.485 776.374 847.34C768.783 862.284 750.474 868.224 735.48 860.608C720.487 852.992 714.484 834.703 722.075 819.759C724.541 814.904 728.136 810.999 732.385 808.202C744.363 800.309 760.284 794.964 766.775 782.185L786.817 742.726C793.308 729.948 788.234 713.938 787.543 699.61C787.295 694.529 788.328 689.325 790.794 684.47C798.384 669.527 816.695 663.584 831.689 671.2C836.558 673.674 840.481 677.275 843.294 681.52C851.235 693.496 856.635 709.401 869.457 715.914L909.05 736.027C921.872 742.54 937.901 737.52 952.251 736.867C957.343 736.636 962.565 737.681 967.434 740.154C982.428 747.77 988.43 766.059 980.839 781.003C973.249 795.946 954.94 801.886 939.946 794.27Z" fill="#313131"/>
<path d="M1078.12 332.278C1110.38 348.662 1149.81 335.795 1166.19 303.539C1182.58 271.282 1169.71 231.85 1137.45 215.466C1105.2 199.081 1065.76 211.948 1049.38 244.205C1033 276.461 1045.86 315.893 1078.12 332.278Z" fill="#313131"/>
<path d="M1064.07 931.311C1096.33 947.696 1135.76 934.829 1152.14 902.572C1168.53 870.316 1155.66 830.884 1123.4 814.5C1091.15 798.115 1051.72 810.982 1035.33 843.238C1018.95 875.495 1031.81 914.927 1064.07 931.311Z" fill="#313131"/>
<path d="M1019.32 1030.2C1015.42 1028.22 1012.18 1025.46 1009.69 1022.2C1000.96 1010.78 995.597 994.588 982.775 988.075L941.15 966.931C933.29 962.939 923.818 965.522 915.446 968.238C907.075 970.954 897.893 974.423 893.914 982.257L872.842 1023.74C866.351 1036.52 871.624 1052.75 871.352 1067.09C871.275 1071.17 870.297 1075.3 868.323 1079.19C861.316 1092.98 844.416 1098.47 830.575 1091.44C816.734 1084.41 811.194 1067.52 818.2 1053.73C820.174 1049.84 822.933 1046.62 826.188 1044.14C837.607 1035.47 853.82 1030.16 860.311 1017.38L877.116 984.294C883.607 971.515 878.334 955.289 878.605 940.95C878.683 936.863 879.661 932.732 881.634 928.846C888.641 915.051 905.542 909.568 919.383 916.599C923.282 918.579 926.523 921.342 929.009 924.596C937.734 936.017 943.102 952.213 955.924 958.725L989.119 975.587C1001.94 982.1 1018.18 976.882 1032.55 977.191C1036.65 977.28 1040.79 978.267 1044.69 980.248C1058.53 987.278 1064.07 1004.16 1057.06 1017.95C1050.06 1031.75 1033.16 1037.23 1019.32 1030.2Z" fill="#313131"/>
<path d="M1181.97 1025.24C1179.5 1030.09 1175.91 1034 1171.66 1036.79C1159.68 1044.69 1143.76 1050.03 1137.27 1062.81L1113.52 1109.56C1109.21 1118.05 1112.05 1128.3 1115.02 1137.36C1117.99 1146.42 1121.78 1156.35 1130.3 1160.68L1177.21 1184.51C1190.03 1191.02 1206.06 1186 1220.41 1185.35C1225.5 1185.12 1230.72 1186.16 1235.59 1188.63C1250.59 1196.25 1256.59 1214.54 1249 1229.48C1241.41 1244.43 1223.1 1250.37 1208.11 1242.75C1203.23 1240.27 1199.31 1236.68 1196.5 1232.43C1188.56 1220.45 1183.16 1204.55 1170.33 1198.03L1130.74 1177.93C1117.92 1171.41 1101.89 1176.43 1087.54 1177.08C1082.45 1177.31 1077.23 1176.27 1072.36 1173.8C1057.36 1166.18 1051.36 1147.89 1058.95 1132.95C1061.42 1128.09 1065.02 1124.19 1069.26 1121.39C1081.24 1113.5 1097.16 1108.15 1103.65 1095.37L1123.69 1055.92C1130.18 1043.14 1125.11 1027.13 1124.42 1012.8C1124.18 1007.72 1125.21 1002.51 1127.67 997.657C1135.26 982.713 1153.57 976.773 1168.56 984.389C1183.56 992.005 1189.56 1010.29 1181.97 1025.24Z" fill="#313131"/>
<path d="M990.229 1268.24C992.695 1263.38 996.294 1259.48 1000.54 1256.68C1012.52 1248.79 1028.44 1243.44 1034.93 1230.67L1058.68 1183.91C1062.99 1175.43 1060.16 1165.18 1057.18 1156.12C1054.21 1147.06 1050.42 1137.13 1041.9 1132.8L994.993 1108.97C982.171 1102.46 966.142 1107.48 951.787 1108.13C946.7 1108.36 941.478 1107.32 936.608 1104.85C921.611 1097.23 915.609 1078.94 923.199 1063.99C930.79 1049.05 949.099 1043.11 964.097 1050.73C968.966 1053.2 972.889 1056.8 975.702 1061.05C983.643 1073.02 989.043 1088.93 1001.86 1095.44L1041.46 1115.55C1054.28 1122.07 1070.31 1117.05 1084.66 1116.39C1089.75 1116.16 1094.97 1117.21 1099.84 1119.68C1114.84 1127.3 1120.84 1145.59 1113.25 1160.53C1110.78 1165.38 1107.19 1169.29 1102.94 1172.09C1090.96 1179.98 1075.04 1185.32 1068.55 1198.1L1048.51 1237.56C1042.02 1250.34 1047.09 1266.35 1047.78 1280.68C1048.03 1285.76 1046.99 1290.97 1044.53 1295.82C1036.94 1310.76 1018.63 1316.7 1003.63 1309.09C988.641 1301.47 982.639 1283.18 990.229 1268.24Z" fill="#313131"/>
<path d="M1208.11 1242.75C1203.23 1240.27 1199.31 1236.68 1196.5 1232.43C1188.56 1220.45 1183.16 1204.55 1170.33 1198.03L1123.43 1174.21C1114.91 1169.88 1104.65 1172.68 1095.58 1175.62C1086.51 1178.57 1076.56 1182.32 1072.25 1190.81L1048.51 1237.56C1042.02 1250.34 1047.09 1266.35 1047.78 1280.68C1048.03 1285.76 1046.99 1290.97 1044.53 1295.82C1036.94 1310.76 1018.63 1316.7 1003.63 1309.09C988.641 1301.47 982.639 1283.18 990.229 1268.24C992.695 1263.38 996.294 1259.48 1000.54 1256.68C1012.52 1248.79 1028.44 1243.44 1034.93 1230.67L1054.97 1191.21C1061.46 1178.43 1056.39 1162.42 1055.7 1148.09C1055.45 1143.01 1056.48 1137.8 1058.95 1132.95C1066.54 1118 1084.85 1112.06 1099.84 1119.68C1104.72 1122.16 1108.64 1125.76 1111.45 1130C1119.39 1141.98 1124.79 1157.88 1137.62 1164.4L1177.21 1184.51C1190.03 1191.02 1206.06 1186 1220.41 1185.35C1225.5 1185.12 1230.72 1186.16 1235.59 1188.63C1250.59 1196.25 1256.59 1214.54 1249 1229.48C1241.41 1244.43 1223.1 1250.37 1208.11 1242.75Z" fill="#313131"/>
<path d="M1448 884.832C1445.53 889.687 1441.93 893.591 1437.69 896.39C1425.71 904.282 1409.78 909.626 1403.29 922.404L1379.54 969.156C1375.23 977.642 1378.07 987.892 1381.04 996.951C1384.02 1006.01 1387.81 1015.95 1396.32 1020.27L1443.23 1044.1C1456.05 1050.61 1472.08 1045.59 1486.43 1044.94C1491.53 1044.71 1496.75 1045.75 1501.62 1048.23C1516.61 1055.84 1522.61 1074.13 1515.02 1089.08C1507.43 1104.02 1489.12 1109.96 1474.13 1102.34C1469.26 1099.87 1465.34 1096.27 1462.52 1092.02C1454.58 1080.05 1449.18 1064.14 1436.36 1057.63L1396.77 1037.52C1383.94 1031 1367.92 1036.03 1353.56 1036.68C1348.47 1036.91 1343.25 1035.87 1338.38 1033.39C1323.39 1025.78 1317.39 1007.49 1324.98 992.543C1327.44 987.688 1331.04 983.783 1335.29 980.985C1347.26 973.093 1363.19 967.747 1369.68 954.969L1389.72 915.51C1396.21 902.731 1391.14 886.721 1390.44 872.394C1390.2 867.313 1391.23 862.106 1393.7 857.252C1401.29 842.308 1419.6 836.368 1434.59 843.984C1449.58 851.6 1455.59 869.888 1448 884.832Z" fill="#313131"/>
<path d="M899.764 1175.79C897.298 1180.65 893.699 1184.55 889.455 1187.35C877.477 1195.24 861.551 1200.59 855.06 1213.37L831.313 1260.12C827.003 1268.6 829.836 1278.85 832.81 1287.91C835.783 1296.97 839.574 1306.91 848.089 1311.23L895.001 1335.06C907.823 1341.57 923.852 1336.55 938.203 1335.9C943.294 1335.67 948.516 1336.71 953.385 1339.19C968.379 1346.8 974.381 1365.09 966.791 1380.04C959.2 1394.98 940.891 1400.92 925.897 1393.3C921.028 1390.83 917.105 1387.23 914.288 1382.98C906.351 1371.01 900.951 1355.1 888.129 1348.59L848.535 1328.48C835.713 1321.97 819.684 1326.99 805.329 1327.64C800.242 1327.87 795.02 1326.83 790.15 1324.35C775.157 1316.74 769.155 1298.45 776.745 1283.5C779.211 1278.65 782.806 1274.74 787.055 1271.95C799.033 1264.05 814.954 1258.71 821.445 1245.93L841.488 1206.47C847.979 1193.69 842.905 1177.68 842.213 1163.36C841.966 1158.27 843 1153.07 845.466 1148.21C853.056 1133.27 871.365 1127.33 886.359 1134.95C901.353 1142.56 907.355 1160.85 899.764 1175.79Z" fill="#313131"/>
<path d="M1256.26 1127.83C1258.72 1122.98 1262.32 1119.07 1266.57 1116.27C1278.55 1108.38 1294.47 1103.04 1300.96 1090.26L1324.7 1043.51C1329.02 1035.02 1326.18 1024.77 1323.21 1015.71C1320.24 1006.65 1316.44 996.716 1307.93 992.391L1261.02 968.564C1248.2 962.051 1232.17 967.072 1217.82 967.723C1212.73 967.954 1207.5 966.91 1202.63 964.436C1187.64 956.819 1181.64 938.531 1189.23 923.587C1196.82 908.643 1215.13 902.703 1230.12 910.319C1234.99 912.794 1238.91 916.394 1241.73 920.641C1249.67 932.617 1255.07 948.522 1267.89 955.035L1307.48 975.144C1320.31 981.657 1336.33 976.637 1350.69 975.986C1355.78 975.753 1361 976.798 1365.87 979.273C1380.87 986.889 1386.87 1005.18 1379.28 1020.12C1376.81 1024.98 1373.21 1028.88 1368.97 1031.68C1356.99 1039.57 1341.06 1044.91 1334.57 1057.69L1314.53 1097.15C1308.04 1109.93 1313.12 1125.94 1313.81 1140.27C1314.05 1145.35 1313.02 1150.56 1310.56 1155.41C1302.97 1170.36 1284.66 1176.3 1269.66 1168.68C1254.67 1161.06 1248.67 1142.78 1256.26 1127.83Z" fill="#313131"/>
<path d="M708.026 1418.79C710.492 1413.94 714.087 1410.03 718.336 1407.24C730.314 1399.34 746.235 1394 752.726 1381.22L776.473 1334.47C780.784 1325.98 777.95 1315.73 774.977 1306.67C772.007 1297.62 768.212 1287.68 759.698 1283.35L712.79 1259.53C699.968 1253.01 683.939 1258.03 669.584 1258.68C664.494 1258.91 659.273 1257.87 654.402 1255.4C639.407 1247.78 633.405 1229.49 640.996 1214.55C648.587 1199.6 666.895 1193.66 681.89 1201.28C686.761 1203.75 690.683 1207.36 693.499 1211.6C701.44 1223.58 706.84 1239.48 719.662 1246L759.252 1266.11C772.074 1272.62 788.102 1267.6 802.457 1266.95C807.545 1266.71 812.767 1267.76 817.64 1270.23C832.634 1277.85 838.636 1296.14 831.045 1311.08C828.579 1315.94 824.981 1319.84 820.736 1322.64C808.758 1330.53 792.832 1335.88 786.341 1348.65L766.299 1388.11C759.808 1400.89 764.886 1416.9 765.577 1431.23C765.82 1436.31 764.791 1441.52 762.325 1446.37C754.734 1461.32 736.425 1467.26 721.431 1459.64C706.434 1452.02 700.436 1433.74 708.026 1418.79Z" fill="#313131"/>
<path d="M1474.13 1102.34C1469.26 1099.87 1465.34 1096.27 1462.52 1092.02C1454.58 1080.05 1449.18 1064.14 1436.36 1057.63L1389.45 1033.8C1380.93 1029.47 1370.68 1032.27 1361.61 1035.22C1352.54 1038.16 1342.59 1041.91 1338.28 1050.4L1314.53 1097.15C1308.04 1109.93 1313.12 1125.94 1313.81 1140.27C1314.05 1145.35 1313.02 1150.56 1310.56 1155.41C1302.97 1170.36 1284.66 1176.3 1269.66 1168.68C1254.67 1161.06 1248.67 1142.78 1256.26 1127.83C1258.72 1122.98 1262.32 1119.07 1266.57 1116.27C1278.55 1108.38 1294.47 1103.04 1300.96 1090.26L1321 1050.8C1327.49 1038.02 1322.42 1022.01 1321.73 1007.68C1321.48 1002.6 1322.51 997.398 1324.98 992.543C1332.57 977.599 1350.88 971.657 1365.87 979.273C1370.74 981.746 1374.66 985.348 1377.48 989.592C1385.42 1001.57 1390.82 1017.47 1403.64 1023.99L1443.23 1044.1C1456.05 1050.61 1472.08 1045.59 1486.43 1044.94C1491.53 1044.71 1496.75 1045.75 1501.62 1048.23C1516.61 1055.84 1522.61 1074.13 1515.02 1089.08C1507.43 1104.02 1489.12 1109.96 1474.13 1102.34Z" fill="#313131"/>
<path d="M925.897 1393.3C921.028 1390.83 917.105 1387.23 914.288 1382.98C906.351 1371.01 900.951 1355.1 888.129 1348.59L841.218 1324.76C832.703 1320.43 822.443 1323.23 813.374 1326.18C804.304 1329.12 794.356 1332.88 790.045 1341.36L766.299 1388.11C759.808 1400.89 764.886 1416.9 765.577 1431.23C765.82 1436.31 764.791 1441.52 762.325 1446.37C754.734 1461.32 736.425 1467.26 721.431 1459.64C706.438 1452.03 700.435 1433.74 708.026 1418.79C710.492 1413.94 714.087 1410.03 718.336 1407.24C730.314 1399.34 746.235 1394 752.726 1381.22L772.768 1341.76C779.259 1328.98 774.185 1312.97 773.494 1298.64C773.247 1293.56 774.279 1288.36 776.745 1283.5C784.336 1268.56 802.646 1262.62 817.64 1270.23C822.509 1272.71 826.432 1276.31 829.245 1280.55C837.186 1292.53 842.586 1308.44 855.408 1314.95L895.001 1335.06C907.823 1341.57 923.852 1336.55 938.203 1335.9C943.294 1335.67 948.516 1336.71 953.385 1339.19C968.379 1346.8 974.381 1365.09 966.791 1380.04C959.2 1394.98 940.891 1400.92 925.897 1393.3Z" fill="#313131"/>
<path d="M1064.07 931.312C1096.33 947.696 1135.76 934.829 1152.14 902.573C1168.53 870.316 1155.66 830.884 1123.4 814.5C1091.15 798.115 1051.72 810.982 1035.33 843.239C1018.95 875.495 1031.81 914.927 1064.07 931.312Z" fill="#313131"/>
<path d="M1701.24 708.171C1703.23 704.25 1706.14 701.097 1709.57 698.836C1719.24 692.461 1732.1 688.143 1737.35 677.821L1756.53 640.058C1760.01 633.203 1757.73 624.926 1755.32 617.608C1752.92 610.291 1749.86 602.264 1742.98 598.769L1705.09 579.523C1694.73 574.263 1681.78 578.318 1670.19 578.844C1666.08 579.032 1661.86 578.188 1657.93 576.19C1645.81 570.037 1640.97 555.264 1647.1 543.194C1653.23 531.123 1668.02 526.325 1680.13 532.478C1684.07 534.476 1687.23 537.385 1689.51 540.814C1695.92 550.488 1700.28 563.335 1710.64 568.595L1742.62 584.84C1752.98 590.101 1765.93 586.046 1777.52 585.518C1781.63 585.332 1785.85 586.176 1789.78 588.174C1801.89 594.325 1806.74 609.098 1800.61 621.169C1798.62 625.09 1795.71 628.245 1792.28 630.504C1782.61 636.879 1769.75 641.197 1764.5 651.519L1748.31 683.392C1743.07 693.713 1747.17 706.646 1747.73 718.219C1747.93 722.323 1747.09 726.528 1745.1 730.45C1738.97 742.521 1724.18 747.318 1712.07 741.167C1699.96 735.015 1695.11 720.242 1701.24 708.171Z" fill="#313131"/>
<path d="M1628.17 633.499C1626.18 637.42 1623.27 640.573 1619.84 642.834C1610.17 649.209 1597.3 653.525 1592.06 663.847L1572.88 701.611C1569.4 708.465 1571.68 716.745 1574.09 724.062C1576.49 731.38 1579.55 739.406 1586.43 742.899L1624.32 762.147C1634.68 767.407 1647.62 763.352 1659.22 762.825C1663.33 762.639 1667.55 763.482 1671.48 765.48C1683.59 771.632 1688.44 786.404 1682.31 798.475C1676.18 810.546 1661.39 815.344 1649.28 809.192C1645.34 807.194 1642.17 804.285 1639.9 800.855C1633.49 791.182 1629.13 778.335 1618.77 773.075L1586.79 756.83C1576.43 751.569 1563.48 755.624 1551.89 756.15C1547.78 756.338 1543.56 755.495 1539.63 753.497C1527.52 747.345 1522.67 732.572 1528.8 720.501C1530.79 716.58 1533.7 713.425 1537.13 711.166C1546.8 704.791 1559.66 700.473 1564.91 690.151L1581.1 658.278C1586.34 647.956 1582.24 635.024 1581.68 623.452C1581.48 619.347 1582.32 615.142 1584.31 611.22C1590.44 599.149 1605.23 594.351 1617.34 600.503C1629.45 606.655 1634.3 621.428 1628.17 633.499Z" fill="#313131"/>
<path d="M1473.29 829.781C1475.28 825.859 1478.19 822.705 1481.62 820.445C1491.3 814.07 1504.16 809.752 1509.4 799.43L1528.58 761.667C1532.06 754.812 1529.77 746.533 1527.37 739.215C1524.97 731.9 1521.91 723.872 1515.03 720.379L1477.14 701.133C1466.78 695.872 1453.84 699.927 1442.24 700.453C1438.13 700.639 1433.91 699.796 1429.98 697.798C1417.87 691.646 1413.02 676.873 1419.15 664.803C1425.28 652.732 1440.07 647.934 1452.18 654.086C1456.12 656.084 1459.28 658.992 1461.56 662.423C1467.97 672.097 1472.33 684.944 1482.69 690.204L1514.67 706.448C1525.03 711.709 1537.97 707.653 1549.57 707.127C1553.68 706.94 1557.9 707.783 1561.83 709.783C1573.94 715.935 1578.79 730.707 1572.66 742.778C1570.67 746.699 1567.76 749.852 1564.33 752.114C1554.66 758.488 1541.79 762.805 1536.55 773.127L1520.36 804.999C1515.12 815.321 1519.22 828.255 1519.78 839.828C1519.98 843.93 1519.14 848.137 1517.15 852.059C1511.02 864.13 1496.23 868.928 1484.12 862.776C1472.01 856.623 1467.16 841.851 1473.29 829.781Z" fill="#313131"/>
<path d="M1649.28 809.192C1645.34 807.194 1642.17 804.285 1639.9 800.855C1633.49 791.182 1629.13 778.335 1618.77 773.075L1580.88 753.825C1574 750.332 1565.71 752.593 1558.39 754.97C1551.06 757.346 1543.03 760.381 1539.54 767.236L1520.36 804.999C1515.12 815.321 1519.22 828.255 1519.78 839.828C1519.98 843.93 1519.14 848.137 1517.15 852.059C1511.02 864.13 1496.23 868.928 1484.12 862.776C1472.01 856.624 1467.16 841.852 1473.29 829.781C1475.28 825.859 1478.19 822.705 1481.62 820.445C1491.3 814.07 1504.16 809.752 1509.4 799.43L1525.59 767.558C1530.83 757.236 1526.73 744.304 1526.17 732.731C1525.97 728.627 1526.81 724.423 1528.8 720.501C1534.93 708.431 1549.72 703.631 1561.83 709.783C1565.77 711.781 1568.93 714.689 1571.21 718.118C1577.62 727.792 1581.98 740.639 1592.34 745.9L1624.32 762.147C1634.68 767.407 1647.62 763.352 1659.22 762.825C1663.33 762.639 1667.55 763.482 1671.48 765.48C1683.59 771.632 1688.44 786.404 1682.31 798.475C1676.18 810.546 1661.39 815.344 1649.28 809.192Z" fill="#313131"/>
<path d="M1749.54 919.886C1775.59 933.121 1807.44 922.728 1820.68 896.673C1833.91 870.617 1823.52 838.767 1797.46 825.532C1771.41 812.298 1739.56 822.691 1726.32 848.746C1713.09 874.801 1723.48 906.652 1749.54 919.886Z" fill="#313131"/>
<path d="M1603.82 493.438C1629.88 506.673 1661.73 496.28 1674.96 470.224C1688.2 444.169 1677.8 412.318 1651.75 399.084C1625.69 385.849 1593.84 396.242 1580.61 422.298C1567.37 448.353 1577.77 480.204 1603.82 493.438Z" fill="#313131"/>
<path d="M1713.39 999.764C1710.24 998.164 1707.62 995.933 1705.61 993.304C1698.56 984.079 1694.23 970.997 1683.87 965.737L1650.25 948.658C1643.9 945.433 1636.25 947.52 1629.49 949.714C1622.73 951.908 1615.31 954.71 1612.09 961.037L1595.07 994.547C1589.83 1004.87 1594.09 1017.97 1593.87 1029.56C1593.81 1032.86 1593.02 1036.2 1591.42 1039.33C1585.76 1050.48 1572.11 1054.91 1560.93 1049.23C1549.75 1043.55 1545.28 1029.91 1550.94 1018.77C1552.53 1015.63 1554.76 1013.02 1557.39 1011.03C1566.61 1004.02 1579.71 999.727 1584.95 989.405L1598.53 962.682C1603.77 952.361 1599.51 939.254 1599.73 927.671C1599.79 924.37 1600.58 921.034 1602.18 917.895C1607.84 906.752 1621.49 902.323 1632.67 908.002C1635.82 909.602 1638.43 911.833 1640.44 914.462C1647.49 923.687 1651.83 936.769 1662.18 942.03L1689 955.649C1699.35 960.91 1712.47 956.695 1724.08 956.945C1727.39 957.017 1730.73 957.815 1733.88 959.414C1745.06 965.093 1749.54 978.729 1743.88 989.872C1738.22 1001.01 1724.57 1005.44 1713.39 999.764Z" fill="#313131"/>
<path d="M1814.58 1186.66C1817.73 1188.26 1820.35 1190.48 1822.36 1193.11C1829.4 1202.34 1833.74 1215.42 1844.1 1220.68L1877.72 1237.76C1884.07 1240.99 1891.72 1238.9 1898.48 1236.7C1905.24 1234.51 1912.66 1231.71 1915.87 1225.38L1932.9 1191.87C1938.14 1181.55 1933.88 1168.44 1934.1 1156.86C1934.16 1153.56 1934.95 1150.22 1936.55 1147.09C1942.21 1135.94 1955.86 1131.51 1967.04 1137.19C1978.22 1142.87 1982.69 1156.51 1977.03 1167.65C1975.44 1170.79 1973.21 1173.4 1970.58 1175.39C1961.36 1182.4 1948.26 1186.69 1943.02 1197.01L1929.44 1223.74C1924.2 1234.06 1928.46 1247.17 1928.24 1258.75C1928.18 1262.05 1927.39 1265.39 1925.79 1268.53C1920.14 1279.67 1906.48 1284.1 1895.3 1278.42C1892.15 1276.82 1889.54 1274.59 1887.53 1271.96C1880.48 1262.73 1876.14 1249.65 1865.79 1244.39L1838.97 1230.77C1828.62 1225.51 1815.5 1229.72 1803.89 1229.47C1800.58 1229.4 1797.24 1228.6 1794.09 1227C1782.91 1221.33 1778.43 1207.69 1784.09 1196.55C1789.75 1185.41 1803.4 1180.98 1814.58 1186.66Z" fill="#313131"/>
<path d="M1844.77 995.755C1842.78 999.676 1839.87 1002.83 1836.44 1005.09C1826.77 1011.47 1813.91 1015.78 1808.66 1026.1L1789.48 1063.87C1786 1070.72 1788.29 1079 1790.69 1086.32C1793.09 1093.64 1796.16 1101.66 1803.03 1105.16L1840.92 1124.4C1851.28 1129.66 1864.23 1125.61 1875.82 1125.08C1879.93 1124.9 1884.15 1125.74 1888.09 1127.74C1900.2 1133.89 1905.05 1148.66 1898.91 1160.73C1892.78 1172.8 1877.99 1177.6 1865.88 1171.45C1861.95 1169.45 1858.78 1166.54 1856.51 1163.11C1850.09 1153.44 1845.73 1140.59 1835.37 1135.33L1803.39 1119.09C1793.04 1113.83 1780.09 1117.88 1768.49 1118.41C1764.38 1118.59 1760.17 1117.75 1756.23 1115.75C1744.12 1109.6 1739.27 1094.83 1745.4 1082.76C1747.39 1078.84 1750.3 1075.68 1753.73 1073.42C1763.41 1067.05 1776.27 1062.73 1781.51 1052.41L1797.7 1020.53C1802.94 1010.21 1798.84 997.281 1798.28 985.707C1798.09 981.605 1798.92 977.398 1800.91 973.477C1807.04 961.406 1821.83 956.608 1833.94 962.759C1846.05 968.911 1850.9 983.684 1844.77 995.755Z" fill="#313131"/>
<path d="M1689.89 1192.04C1691.89 1188.12 1694.79 1184.96 1698.22 1182.7C1707.9 1176.33 1720.76 1172.01 1726 1161.69L1745.18 1123.92C1748.66 1117.07 1746.38 1108.79 1743.98 1101.48C1741.57 1094.16 1738.51 1086.13 1731.63 1082.64L1693.74 1063.39C1683.38 1058.13 1670.44 1062.18 1658.84 1062.71C1654.73 1062.9 1650.51 1062.06 1646.58 1060.06C1634.47 1053.9 1629.62 1039.13 1635.75 1027.06C1641.88 1014.99 1656.67 1010.19 1668.78 1016.35C1672.72 1018.34 1675.89 1021.25 1678.16 1024.68C1684.57 1034.35 1688.93 1047.2 1699.29 1052.46L1731.27 1068.71C1741.63 1073.97 1754.58 1069.91 1766.17 1069.39C1770.28 1069.2 1774.5 1070.04 1778.43 1072.04C1790.54 1078.19 1795.39 1092.97 1789.26 1105.04C1787.27 1108.96 1784.37 1112.11 1780.93 1114.37C1771.26 1120.75 1758.4 1125.06 1753.16 1135.39L1736.97 1167.26C1731.72 1177.58 1735.82 1190.51 1736.38 1202.09C1736.58 1206.19 1735.74 1210.4 1733.75 1214.32C1727.62 1226.39 1712.83 1231.19 1700.72 1225.03C1688.61 1218.88 1683.76 1204.11 1689.89 1192.04Z" fill="#313131"/>
<path d="M1865.88 1171.45C1861.95 1169.45 1858.78 1166.54 1856.51 1163.11C1850.09 1153.44 1845.73 1140.59 1835.37 1135.33L1797.48 1116.09C1790.6 1112.59 1782.31 1114.85 1774.99 1117.23C1767.67 1119.61 1759.63 1122.64 1756.15 1129.5L1736.97 1167.26C1731.72 1177.58 1735.82 1190.51 1736.38 1202.09C1736.58 1206.19 1735.74 1210.4 1733.75 1214.32C1727.62 1226.39 1712.83 1231.19 1700.72 1225.03C1688.61 1218.88 1683.76 1204.11 1689.89 1192.04C1691.89 1188.12 1694.79 1184.96 1698.22 1182.7C1707.9 1176.33 1720.76 1172.01 1726 1161.69L1742.19 1129.82C1747.43 1119.49 1743.33 1106.56 1742.77 1094.99C1742.58 1090.89 1743.41 1086.68 1745.4 1082.76C1751.53 1070.69 1766.32 1065.89 1778.43 1072.04C1782.37 1074.04 1785.54 1076.95 1787.81 1080.38C1794.23 1090.05 1798.59 1102.9 1808.94 1108.16L1840.92 1124.4C1851.28 1129.66 1864.23 1125.61 1875.82 1125.08C1879.93 1124.9 1884.15 1125.74 1888.09 1127.74C1900.2 1133.89 1905.05 1148.66 1898.91 1160.73C1892.78 1172.8 1877.99 1177.6 1865.88 1171.45Z" fill="#313131"/>
<path d="M2059.65 882.343C2057.66 886.264 2054.75 889.417 2051.32 891.679C2041.65 898.053 2028.79 902.37 2023.54 912.692L2004.36 950.455C2000.88 957.31 2003.17 965.589 2005.57 972.906C2007.97 980.224 2011.03 988.25 2017.91 991.743L2055.8 1010.99C2066.16 1016.25 2079.11 1012.2 2090.7 1011.67C2094.81 1011.48 2099.03 1012.33 2102.96 1014.32C2115.08 1020.48 2119.92 1035.25 2113.79 1047.32C2107.66 1059.39 2092.87 1064.19 2080.76 1058.04C2076.83 1056.04 2073.66 1053.13 2071.38 1049.7C2064.97 1040.03 2060.61 1027.18 2050.25 1021.92L2018.27 1005.67C2007.92 1000.41 1994.97 1004.47 1983.37 1004.99C1979.26 1005.18 1975.05 1004.34 1971.11 1002.34C1959 996.189 1954.15 981.416 1960.28 969.346C1962.28 965.425 1965.18 962.27 1968.61 960.01C1978.29 953.635 1991.15 949.317 1996.39 938.996L2012.58 907.123C2017.82 896.801 2013.72 883.869 2013.17 872.296C2012.97 868.192 2013.8 863.986 2015.79 860.065C2021.92 847.994 2036.71 843.196 2048.82 849.348C2060.94 855.5 2065.78 870.272 2059.65 882.343Z" fill="#313131"/>
<path d="M1616.82 1117.37C1614.83 1121.29 1611.92 1124.44 1608.49 1126.7C1598.82 1133.08 1585.95 1137.39 1580.71 1147.71L1561.53 1185.48C1558.05 1192.33 1560.34 1200.61 1562.74 1207.93C1565.14 1215.25 1568.2 1223.27 1575.08 1226.77L1612.97 1246.01C1623.33 1251.27 1636.28 1247.22 1647.87 1246.69C1651.98 1246.51 1656.2 1247.35 1660.13 1249.35C1672.24 1255.5 1677.09 1270.27 1670.96 1282.34C1664.83 1294.41 1650.04 1299.21 1637.93 1293.06C1634 1291.06 1630.83 1288.15 1628.55 1284.72C1622.14 1275.05 1617.78 1262.2 1607.42 1256.94L1575.44 1240.7C1565.08 1235.44 1552.14 1239.49 1540.54 1240.02C1536.43 1240.2 1532.21 1239.36 1528.28 1237.36C1516.17 1231.21 1511.32 1216.44 1517.45 1204.37C1519.44 1200.45 1522.35 1197.29 1525.78 1195.03C1535.45 1188.66 1548.32 1184.34 1553.56 1174.02L1569.75 1142.15C1574.99 1131.82 1570.89 1118.89 1570.33 1107.32C1570.13 1103.21 1570.97 1099.01 1572.96 1095.09C1579.09 1083.02 1593.88 1078.22 1605.99 1084.37C1618.1 1090.52 1622.95 1105.29 1616.82 1117.37Z" fill="#313131"/>
<path d="M1904.78 1078.63C1906.77 1074.7 1909.67 1071.55 1913.1 1069.29C1922.78 1062.91 1935.64 1058.6 1940.88 1048.27L1960.06 1010.51C1963.55 1003.66 1961.26 995.378 1958.86 988.06C1956.46 980.744 1953.39 972.716 1946.51 969.223L1908.62 949.977C1898.27 944.716 1885.32 948.771 1873.72 949.297C1869.61 949.484 1865.4 948.641 1861.46 946.642C1849.35 940.49 1844.5 925.718 1850.63 913.647C1856.76 901.576 1871.55 896.778 1883.66 902.93C1887.6 904.929 1890.77 907.837 1893.04 911.267C1899.46 920.941 1903.82 933.788 1914.18 939.049L1946.15 955.292C1956.51 960.553 1969.46 956.498 1981.05 955.972C1985.16 955.784 1989.38 956.628 1993.32 958.627C2005.43 964.779 2010.28 979.551 2004.14 991.622C2002.15 995.544 1999.25 998.697 1995.82 1000.96C1986.14 1007.33 1973.28 1011.65 1968.04 1021.97L1951.85 1053.84C1946.6 1064.17 1950.7 1077.1 1951.26 1088.67C1951.46 1092.77 1950.63 1096.98 1948.64 1100.9C1942.5 1112.97 1927.72 1117.77 1915.6 1111.62C1903.49 1105.47 1898.65 1090.7 1904.78 1078.63Z" fill="#313131"/>
<path d="M1461.94 1313.65C1463.94 1309.73 1466.84 1306.57 1470.27 1304.31C1479.95 1297.94 1492.81 1293.62 1498.05 1283.3L1517.23 1245.53C1520.71 1238.68 1518.43 1230.4 1516.02 1223.08C1513.62 1215.77 1510.56 1207.74 1503.68 1204.25L1465.79 1185C1455.44 1179.74 1442.49 1183.79 1430.89 1184.32C1426.78 1184.51 1422.56 1183.66 1418.63 1181.67C1406.52 1175.51 1401.67 1160.74 1407.8 1148.67C1413.93 1136.6 1428.72 1131.8 1440.83 1137.95C1444.77 1139.95 1447.94 1142.86 1450.21 1146.29C1456.62 1155.96 1460.99 1168.81 1471.34 1174.07L1503.32 1190.31C1513.68 1195.58 1526.63 1191.52 1538.22 1190.99C1542.33 1190.81 1546.55 1191.65 1550.48 1193.65C1562.6 1199.8 1567.44 1214.57 1561.31 1226.65C1559.32 1230.57 1556.41 1233.72 1552.99 1235.98C1543.31 1242.36 1530.45 1246.67 1525.2 1256.99L1509.01 1288.87C1503.77 1299.19 1507.87 1312.12 1508.43 1323.69C1508.63 1327.8 1507.8 1332 1505.8 1335.93C1499.67 1348 1484.88 1352.79 1472.77 1346.64C1460.66 1340.49 1455.81 1325.72 1461.94 1313.65Z" fill="#313131"/>
<path d="M2080.76 1058.04C2076.83 1056.04 2073.66 1053.13 2071.38 1049.7C2064.97 1040.03 2060.61 1027.18 2050.25 1021.92L2012.36 1002.67C2005.48 999.176 1997.2 1001.44 1989.87 1003.81C1982.54 1006.19 1974.51 1009.23 1971.03 1016.08L1951.85 1053.84C1946.6 1064.17 1950.7 1077.1 1951.26 1088.67C1951.46 1092.77 1950.63 1096.98 1948.64 1100.9C1942.5 1112.97 1927.72 1117.77 1915.6 1111.62C1903.49 1105.47 1898.65 1090.7 1904.78 1078.63C1906.77 1074.7 1909.67 1071.55 1913.1 1069.29C1922.78 1062.91 1935.64 1058.6 1940.88 1048.27L1957.07 1016.4C1962.31 1006.08 1958.22 993.148 1957.66 981.575C1957.46 977.471 1958.29 973.267 1960.28 969.346C1966.42 957.275 1981.21 952.475 1993.32 958.627C1997.25 960.625 2000.42 963.534 2002.69 966.963C2009.1 976.637 2013.47 989.484 2023.82 994.745L2055.8 1010.99C2066.16 1016.25 2079.11 1012.2 2090.7 1011.67C2094.81 1011.48 2099.03 1012.33 2102.96 1014.32C2115.08 1020.48 2119.92 1035.25 2113.79 1047.32C2107.66 1059.39 2092.87 1064.19 2080.76 1058.04Z" fill="#313131"/>
<path d="M1637.93 1293.06C1634 1291.06 1630.83 1288.15 1628.55 1284.72C1622.14 1275.05 1617.78 1262.2 1607.42 1256.94L1569.53 1237.69C1562.65 1234.2 1554.36 1236.46 1547.04 1238.84C1539.71 1241.21 1531.68 1244.25 1528.2 1251.1L1509.01 1288.87C1503.77 1299.19 1507.87 1312.12 1508.43 1323.69C1508.63 1327.8 1507.8 1332 1505.8 1335.93C1499.67 1348 1484.88 1352.79 1472.77 1346.64C1460.66 1340.49 1455.81 1325.72 1461.94 1313.65C1463.94 1309.73 1466.84 1306.57 1470.27 1304.31C1479.95 1297.94 1492.81 1293.62 1498.05 1283.3L1514.24 1251.42C1519.48 1241.1 1515.38 1228.17 1514.83 1216.6C1514.63 1212.49 1515.46 1208.29 1517.45 1204.37C1523.58 1192.3 1538.37 1187.5 1550.48 1193.65C1554.42 1195.65 1557.59 1198.56 1559.86 1201.99C1566.27 1211.66 1570.63 1224.51 1580.99 1229.77L1612.97 1246.01C1623.33 1251.27 1636.28 1247.22 1647.87 1246.69C1651.98 1246.51 1656.2 1247.35 1660.13 1249.35C1672.24 1255.5 1677.09 1270.27 1670.96 1282.34C1664.83 1294.41 1650.04 1299.21 1637.93 1293.06Z" fill="#313131"/>
<path d="M1749.54 919.886C1775.59 933.121 1807.44 922.728 1820.68 896.673C1833.91 870.617 1823.52 838.767 1797.46 825.532C1771.41 812.297 1739.56 822.691 1726.32 848.746C1713.09 874.801 1723.48 906.652 1749.54 919.886Z" fill="#313131"/>
<path d="M1738.19 1403.75C1764.24 1416.99 1796.1 1406.6 1809.33 1380.54C1822.56 1354.48 1812.17 1322.63 1786.12 1309.4C1760.06 1296.16 1728.21 1306.56 1714.98 1332.61C1701.74 1358.67 1712.13 1390.52 1738.19 1403.75Z" fill="#313131"/>
<path d="M279.001 483.356C275.487 481.571 272.567 479.082 270.326 476.149C262.463 465.857 257.626 451.262 246.072 445.393L208.56 426.34C201.477 422.742 192.941 425.07 185.397 427.517C177.853 429.965 169.579 433.091 165.993 440.15L147.004 477.535C141.154 489.051 145.906 503.673 145.661 516.595C145.592 520.278 144.71 524.001 142.932 527.502C136.617 539.934 121.388 544.875 108.914 538.539C96.4414 532.204 91.4485 516.99 97.7628 504.559C99.5414 501.057 102.028 498.15 104.961 495.922C115.252 488.102 129.862 483.315 135.712 471.799L150.855 441.986C156.704 430.47 151.953 415.848 152.198 402.926C152.267 399.243 153.148 395.52 154.927 392.018C161.242 379.587 176.472 374.646 188.945 380.982C192.459 382.766 195.379 385.256 197.62 388.189C205.482 398.481 210.319 413.075 221.874 418.945L251.788 434.139C263.343 440.008 277.982 435.306 290.93 435.585C294.62 435.665 298.353 436.555 301.867 438.34C314.34 444.675 319.333 459.889 313.018 472.32C306.704 484.75 291.474 489.692 279.001 483.356Z" fill="#313131"/>
<path d="M406.839 735.093C410.355 736.879 413.275 739.365 415.516 742.299C423.377 752.592 428.215 767.187 439.769 773.056L477.28 792.11C484.364 795.708 492.9 793.381 500.443 790.93C507.988 788.485 516.262 785.358 519.848 778.299L538.837 740.914C544.687 729.399 539.936 714.776 540.178 701.854C540.251 698.172 541.131 694.449 542.91 690.947C549.225 678.516 564.455 673.574 576.928 679.91C589.402 686.246 594.394 701.459 588.08 713.89C586.301 717.392 583.814 720.3 580.88 722.528C570.592 730.347 555.977 735.134 550.128 746.649L534.984 776.463C529.135 787.978 533.889 802.603 533.644 815.523C533.575 819.207 532.695 822.929 530.915 826.433C524.602 838.861 509.372 843.802 496.898 837.466C493.382 835.68 490.462 833.195 488.221 830.26C480.36 819.967 475.522 805.373 463.968 799.503L434.054 784.309C422.499 778.44 407.86 783.141 394.911 782.864C391.22 782.785 387.49 781.893 383.974 780.107C371.504 773.773 366.508 758.558 372.821 746.13C379.135 733.699 394.369 728.759 406.839 735.093Z" fill="#313131"/>
<path d="M425.578 478.883C423.356 483.258 420.117 486.777 416.288 489.298C405.494 496.41 391.146 501.227 385.297 512.743L363.897 554.874C360.012 562.521 362.565 571.758 365.242 579.92C367.921 588.084 371.341 597.04 379.014 600.938L421.286 622.409C432.84 628.279 447.285 623.754 460.221 623.167C464.809 622.96 469.512 623.899 473.903 626.13C487.415 632.993 492.824 649.474 485.984 662.941C479.143 676.408 462.644 681.761 449.132 674.897C444.74 672.667 441.209 669.423 438.67 665.596C431.514 654.803 426.648 640.47 415.093 634.601L379.416 616.479C367.861 610.61 353.417 615.134 340.481 615.721C335.892 615.929 331.19 614.989 326.799 612.759C313.287 605.895 307.878 589.414 314.718 575.947C316.94 571.573 320.184 568.055 324.009 565.532C334.803 558.42 349.151 553.603 355 542.087L373.062 506.529C378.911 495.013 374.339 480.585 373.716 467.674C373.496 463.097 374.424 458.403 376.646 454.028C383.487 440.561 399.986 435.208 413.498 442.072C427.01 448.935 432.419 465.416 425.578 478.883Z" fill="#313131"/>
<path d="M252.789 697.868C255.011 693.493 258.255 689.975 262.08 687.453C272.874 680.34 287.222 675.523 293.071 664.007L314.471 621.876C318.355 614.229 315.806 604.994 313.126 596.83C310.446 588.667 307.03 579.712 299.354 575.813L257.082 554.341C245.527 548.472 231.082 552.996 218.146 553.583C213.562 553.792 208.856 552.852 204.468 550.623C190.952 543.758 185.543 527.276 192.384 513.81C199.224 500.343 215.724 494.99 229.239 501.855C233.627 504.084 237.163 507.329 239.697 511.155C246.854 521.947 251.72 536.28 263.275 542.149L298.955 560.273C310.51 566.142 324.954 561.618 337.887 561.029C342.475 560.822 347.181 561.763 351.569 563.992C365.081 570.855 370.49 587.336 363.649 600.803C361.427 605.178 358.188 608.697 354.359 611.218C343.565 618.33 329.217 623.148 323.368 634.663L305.306 670.222C299.456 681.738 304.029 696.165 304.652 709.077C304.875 713.655 303.943 718.347 301.721 722.722C294.881 736.189 278.381 741.542 264.87 734.679C251.358 727.816 245.949 711.335 252.789 697.868Z" fill="#313131"/>
<path d="M449.132 674.897C444.74 672.667 441.209 669.423 438.67 665.596C431.514 654.803 426.648 640.47 415.093 634.601L372.821 613.13C365.148 609.233 355.898 611.754 347.725 614.405C339.556 617.058 330.591 620.444 326.706 628.091L305.306 670.222C299.456 681.738 304.029 696.165 304.652 709.077C304.875 713.655 303.943 718.347 301.721 722.722C294.881 736.189 278.381 741.542 264.87 734.679C251.358 727.816 245.949 711.335 252.789 697.868C255.011 693.493 258.255 689.975 262.08 687.453C272.874 680.34 287.222 675.523 293.071 664.007L311.133 628.449C316.982 616.933 312.41 602.505 311.787 589.594C311.568 585.017 312.496 580.322 314.718 575.947C321.559 562.48 338.057 557.128 351.569 563.992C355.961 566.223 359.493 569.466 362.031 573.293C369.188 584.086 374.054 598.419 385.608 604.288L421.286 622.409C432.84 628.279 447.285 623.754 460.221 623.167C464.809 622.96 469.512 623.899 473.903 626.13C487.415 632.993 492.824 649.474 485.984 662.941C479.143 676.408 462.644 681.761 449.132 674.897Z" fill="#313131"/>
<path d="M665.312 352.355C663.09 356.73 659.846 360.248 656.021 362.77C645.227 369.882 630.876 374.698 625.026 386.213L603.626 428.344C599.742 435.992 602.295 445.228 604.975 453.392C607.654 461.556 611.07 470.51 618.743 474.408L661.019 495.881C672.574 501.751 687.018 497.226 699.951 496.638C704.539 496.43 709.245 497.371 713.633 499.6C727.145 506.463 732.554 522.944 725.713 536.411C718.873 549.878 702.373 555.231 688.862 548.368C684.474 546.139 680.938 542.894 678.4 539.066C671.247 528.275 666.381 513.942 654.826 508.073L619.146 489.949C607.591 484.08 593.146 488.604 580.21 489.192C575.626 489.401 570.92 488.46 566.532 486.231C553.02 479.368 547.611 462.886 554.451 449.42C556.673 445.045 559.913 441.525 563.742 439.004C574.536 431.892 588.884 427.075 594.733 415.559L612.795 380.001C618.644 368.485 614.072 354.057 613.449 341.146C613.226 336.567 614.158 331.875 616.38 327.5C623.22 314.033 639.72 308.68 653.231 315.544C666.743 322.407 672.152 338.888 665.312 352.355Z" fill="#313131"/>
<path d="M171.265 614.559C169.043 618.933 165.8 622.451 161.974 624.974C151.181 632.086 136.829 636.901 130.98 648.417L109.58 690.548C105.695 698.195 108.249 707.432 110.928 715.596C113.608 723.76 117.024 732.714 124.697 736.611L166.973 758.085C178.527 763.954 192.972 759.43 205.904 758.842C210.493 758.634 215.198 759.575 219.586 761.804C233.098 768.667 238.507 785.148 231.667 798.615C224.826 812.082 208.327 817.435 194.815 810.572C190.427 808.343 186.892 805.097 184.353 801.27C177.201 790.479 172.335 776.146 160.78 770.277L125.099 752.153C113.544 746.284 99.0999 750.808 86.1635 751.395C81.5791 751.604 76.8733 750.664 72.4851 748.435C58.9733 741.572 53.5645 725.09 60.4048 711.623C62.6269 707.249 65.8664 703.729 69.6955 701.208C80.4896 694.096 94.8374 689.279 100.687 677.763L118.749 642.204C124.598 630.689 120.025 616.261 119.402 603.35C119.179 598.771 120.111 594.079 122.333 589.704C129.174 576.237 145.673 570.884 159.185 577.747C172.697 584.611 178.106 601.092 171.265 614.559Z" fill="#313131"/>
<path d="M492.524 571.337C494.747 566.962 497.986 563.443 501.815 560.922C512.609 553.81 526.957 548.993 532.806 537.477L554.206 495.346C558.091 487.699 555.537 478.462 552.858 470.298C550.182 462.136 546.762 453.18 539.089 449.283L496.817 427.811C485.262 421.942 470.818 426.466 457.881 427.053C453.294 427.261 448.589 426.32 444.2 424.091C430.687 417.227 425.278 400.746 432.119 387.279C438.96 373.812 455.458 368.459 468.971 375.323C473.361 377.553 476.895 380.797 479.433 384.624C486.589 395.417 491.455 409.75 503.01 415.619L538.687 433.741C550.242 439.61 564.686 435.086 577.622 434.499C582.207 434.29 586.913 435.231 591.304 437.461C604.816 444.325 610.225 460.806 603.385 474.273C601.162 478.647 597.919 482.165 594.094 484.688C583.3 491.8 568.949 496.615 563.099 508.131L545.037 543.69C539.188 555.205 543.764 569.635 544.387 582.546C544.606 587.124 543.679 591.817 541.456 596.192C534.616 609.659 518.116 615.012 504.605 608.149C491.089 601.284 485.684 584.804 492.524 571.337Z" fill="#313131"/>
<path d="M-1.52225 833.541C0.700091 829.166 3.93945 825.647 7.76848 823.126C18.5626 816.014 32.9104 811.196 38.7597 799.681L60.1597 757.55C64.0442 749.903 61.4907 740.666 58.8111 732.502C56.135 724.34 52.7153 715.384 45.0423 711.486L2.77033 690.015C-8.78437 684.146 -23.229 688.67 -36.1652 689.256C-40.7521 689.464 -45.4572 688.524 -49.8468 686.294C-63.3594 679.431 -68.7683 662.95 -61.9275 649.483C-55.087 636.016 -38.5881 630.663 -25.0755 637.527C-20.6859 639.756 -17.1512 643.001 -14.6138 646.828C-7.45769 657.62 -2.59144 671.953 8.96326 677.823L44.6403 695.945C56.195 701.814 70.6396 697.29 83.5758 696.703C88.1604 696.493 92.866 697.434 97.2578 699.665C110.77 706.528 116.179 723.009 109.338 736.476C107.116 740.851 103.873 744.369 100.047 746.892C89.2535 754.004 74.902 758.819 69.0527 770.335L50.9909 805.893C45.1416 817.409 49.7176 831.839 50.3407 844.75C50.5598 849.327 49.6321 854.021 47.4098 858.396C40.5695 871.863 24.0699 877.216 10.5581 870.352C-2.95734 863.487 -8.36255 847.008 -1.52225 833.541Z" fill="#313131"/>
<path d="M688.862 548.368C684.474 546.139 680.938 542.894 678.4 539.066C671.247 528.275 666.381 513.942 654.826 508.073L612.552 486.598C604.879 482.7 595.633 485.223 587.46 487.874C579.287 490.526 570.322 493.911 566.437 501.559L545.037 543.69C539.188 555.205 543.764 569.635 544.387 582.546C544.606 587.124 543.679 591.817 541.456 596.192C534.616 609.659 518.116 615.012 504.605 608.149C491.093 601.285 485.684 584.804 492.524 571.337C494.747 566.962 497.986 563.443 501.815 560.922C512.609 553.81 526.957 548.993 532.806 537.477L550.868 501.918C556.717 490.403 552.144 475.975 551.521 463.064C551.299 458.485 552.229 453.795 554.451 449.42C561.292 435.953 577.792 430.598 591.304 437.461C595.692 439.69 599.227 442.935 601.762 446.761C608.918 457.554 613.785 471.887 625.339 477.756L661.019 495.881C672.574 501.751 687.018 497.226 699.951 496.638C704.539 496.43 709.245 497.371 713.633 499.6C727.145 506.463 732.554 522.944 725.713 536.411C718.873 549.878 702.373 555.231 688.862 548.368Z" fill="#313131"/>
<path d="M194.815 810.572C190.427 808.343 186.892 805.097 184.353 801.27C177.201 790.479 172.335 776.146 160.78 770.277L118.505 748.802C110.832 744.904 101.587 747.427 93.4132 750.078C85.2401 752.729 76.275 756.115 72.3906 763.763L50.9909 805.893C45.1416 817.409 49.7176 831.839 50.3407 844.75C50.5598 849.327 49.6321 854.021 47.4098 858.396C40.5695 871.863 24.0699 877.216 10.5581 870.352C-2.95372 863.489 -8.36272 847.008 -1.52225 833.541C0.700091 829.166 3.93945 825.647 7.76848 823.126C18.5626 816.014 32.9104 811.196 38.7597 799.681L56.8211 764.122C62.6703 752.606 58.0979 738.179 57.4748 725.267C57.2521 720.688 58.1826 715.998 60.4048 711.623C67.2451 698.157 83.746 692.802 97.2578 699.665C101.646 701.894 105.181 705.139 107.716 708.965C114.872 719.758 119.738 734.09 131.293 739.96L166.973 758.085C178.527 763.954 192.972 759.43 205.904 758.842C210.493 758.634 215.198 759.575 219.586 761.804C233.098 768.667 238.507 785.148 231.667 798.615C224.826 812.082 208.327 817.435 194.815 810.572Z" fill="#313131"/>
<path d="M319.332 394.24C348.4 409.006 383.934 397.41 398.7 368.342C413.465 339.273 401.87 303.739 372.801 288.974C343.733 274.208 308.198 285.804 293.433 314.872C278.668 343.941 290.263 379.475 319.332 394.24Z" fill="#313131"/>
<path d="M306.671 934.068C335.74 948.833 371.274 937.238 386.039 908.169C400.804 879.101 389.209 843.566 360.141 828.801C331.072 814.036 295.538 825.631 280.772 854.7C266.007 883.768 277.602 919.303 306.671 934.068Z" fill="#313131"/>
<path d="M-13.349 1092.52C15.7196 1107.28 51.2539 1095.69 66.0191 1066.62C80.7843 1037.55 69.1892 1002.02 40.1206 987.253C11.052 972.487 -24.4824 984.083 -39.2476 1013.15C-54.0128 1042.22 -42.4176 1077.75 -13.349 1092.52Z" fill="#313131"/>
<path d="M1150.26 1261.63C1153.77 1263.41 1156.69 1265.9 1158.94 1268.83C1166.8 1279.13 1171.63 1293.72 1183.19 1299.59L1220.7 1318.64C1227.78 1322.24 1236.32 1319.91 1243.86 1317.46C1251.41 1315.02 1259.68 1311.89 1263.27 1304.83L1282.26 1267.45C1288.11 1255.93 1283.36 1241.31 1283.6 1228.39C1283.67 1224.71 1284.55 1220.98 1286.33 1217.48C1292.64 1205.05 1307.87 1200.11 1320.35 1206.44C1332.82 1212.78 1337.81 1227.99 1331.5 1240.42C1329.72 1243.93 1327.23 1246.83 1324.3 1249.06C1314.01 1256.88 1299.4 1261.67 1293.55 1273.18L1278.4 1303C1272.56 1314.51 1277.31 1329.14 1277.06 1342.06C1276.99 1345.74 1276.11 1349.46 1274.33 1352.97C1268.02 1365.39 1252.79 1370.34 1240.32 1364C1236.8 1362.21 1233.88 1359.73 1231.64 1356.79C1223.78 1346.5 1218.94 1331.91 1207.39 1326.04L1177.47 1310.84C1165.92 1304.97 1151.28 1309.67 1138.33 1309.4C1134.64 1309.32 1130.91 1308.43 1127.39 1306.64C1114.92 1300.31 1109.93 1285.09 1116.24 1272.66C1122.56 1260.23 1137.79 1255.29 1150.26 1261.63Z" fill="#313131"/>
<path d="M301.447 1047.48C297.933 1045.7 295.013 1043.21 292.772 1040.27C284.909 1029.98 280.072 1015.39 268.518 1009.52L231.006 990.464C223.923 986.866 215.387 989.194 207.843 991.641C200.299 994.089 192.025 997.215 188.439 1004.27L169.45 1041.66C163.6 1053.17 168.352 1067.8 168.107 1080.72C168.038 1084.4 167.156 1088.12 165.378 1091.63C159.063 1104.06 143.834 1109 131.36 1102.66C118.887 1096.33 113.895 1081.11 120.209 1068.68C121.987 1065.18 124.474 1062.27 127.407 1060.05C137.698 1052.23 152.308 1047.44 158.158 1035.92L173.301 1006.11C179.151 994.594 174.399 979.972 174.644 967.05C174.713 963.367 175.595 959.644 177.373 956.142C183.688 943.711 198.918 938.77 211.391 945.106C214.905 946.891 217.825 949.38 220.066 952.313C227.928 962.605 232.765 977.2 244.32 983.069L274.234 998.263C285.789 1004.13 300.428 999.43 313.376 999.709C317.066 999.789 320.799 1000.68 324.313 1002.46C336.786 1008.8 341.779 1024.01 335.464 1036.44C329.15 1048.87 313.92 1053.82 301.447 1047.48Z" fill="#313131"/>
<path d="M414.343 1255.99C417.859 1257.77 420.779 1260.26 423.02 1263.19C430.881 1273.49 435.719 1288.08 447.273 1293.95L484.785 1313C491.868 1316.6 500.404 1314.27 507.947 1311.82C515.492 1309.38 523.766 1306.25 527.352 1299.19L546.341 1261.81C552.191 1250.29 547.44 1235.67 547.682 1222.75C547.755 1219.06 548.636 1215.34 550.414 1211.84C556.729 1199.41 571.959 1194.47 584.432 1200.8C596.906 1207.14 601.898 1222.35 595.584 1234.78C593.805 1238.29 591.318 1241.19 588.384 1243.42C578.096 1251.24 563.481 1256.03 557.632 1267.54L542.488 1297.36C536.639 1308.87 541.394 1323.5 541.148 1336.42C541.079 1340.1 540.199 1343.82 538.419 1347.33C532.106 1359.75 516.876 1364.7 504.403 1358.36C500.886 1356.57 497.966 1354.09 495.725 1351.15C487.865 1340.86 483.027 1326.27 471.472 1320.4L441.558 1305.2C430.003 1299.33 415.364 1304.03 402.416 1303.76C398.724 1303.68 394.995 1302.79 391.478 1301C379.008 1294.67 374.012 1279.45 380.325 1267.02C386.639 1254.59 401.873 1249.65 414.343 1255.99Z" fill="#313131"/>
<path d="M448.024 1043.01C445.802 1047.38 442.563 1050.9 438.734 1053.42C427.94 1060.53 413.592 1065.35 407.743 1076.87L386.343 1119C382.458 1126.65 385.012 1135.88 387.688 1144.04C390.367 1152.21 393.787 1161.16 401.46 1165.06L443.732 1186.53C455.287 1192.4 469.731 1187.88 482.668 1187.29C487.256 1187.08 491.958 1188.02 496.349 1190.25C509.861 1197.12 515.27 1213.6 508.43 1227.06C501.589 1240.53 485.09 1245.88 471.578 1239.02C467.186 1236.79 463.655 1233.55 461.116 1229.72C453.96 1218.93 449.094 1204.59 437.539 1198.73L401.862 1180.6C390.307 1174.73 375.863 1179.26 362.927 1179.85C358.338 1180.05 353.636 1179.11 349.245 1176.88C335.733 1170.02 330.324 1153.54 337.164 1140.07C339.386 1135.7 342.63 1132.18 346.455 1129.66C357.249 1122.54 371.597 1117.73 377.446 1106.21L395.508 1070.65C401.357 1059.14 396.785 1044.71 396.162 1031.8C395.942 1027.22 396.87 1022.53 399.093 1018.15C405.933 1004.69 422.432 999.333 435.944 1006.2C449.456 1013.06 454.865 1029.54 448.024 1043.01Z" fill="#313131"/>
<path d="M275.235 1261.99C277.457 1257.62 280.701 1254.1 284.526 1251.58C295.32 1244.46 309.668 1239.65 315.517 1228.13L336.917 1186C340.802 1178.35 338.252 1169.12 335.572 1160.95C332.892 1152.79 329.476 1143.84 321.8 1139.94L279.528 1118.47C267.973 1112.6 253.529 1117.12 240.592 1117.71C236.008 1117.92 231.302 1116.98 226.914 1114.75C213.398 1107.88 207.99 1091.4 214.83 1077.93C221.67 1064.47 238.17 1059.11 251.685 1065.98C256.073 1068.21 259.609 1071.45 262.144 1075.28C269.3 1086.07 274.166 1100.4 285.721 1106.27L321.401 1124.4C332.956 1130.27 347.401 1125.74 360.333 1125.15C364.921 1124.95 369.627 1125.89 374.015 1128.12C387.527 1134.98 392.936 1151.46 386.095 1164.93C383.873 1169.3 380.634 1172.82 376.805 1175.34C366.011 1182.45 351.663 1187.27 345.814 1198.79L327.752 1234.35C321.903 1245.86 326.475 1260.29 327.098 1273.2C327.321 1277.78 326.389 1282.47 324.167 1286.85C317.327 1300.31 300.827 1305.67 287.316 1298.8C273.804 1291.94 268.395 1275.46 275.235 1261.99Z" fill="#313131"/>
<path d="M471.578 1239.02C467.186 1236.79 463.655 1233.55 461.116 1229.72C453.96 1218.93 449.094 1204.59 437.539 1198.73L395.267 1177.25C387.594 1173.36 378.344 1175.88 370.171 1178.53C362.002 1181.18 353.037 1184.57 349.152 1192.22L327.752 1234.35C321.903 1245.86 326.475 1260.29 327.098 1273.2C327.321 1277.78 326.389 1282.47 324.167 1286.85C317.327 1300.31 300.827 1305.67 287.316 1298.8C273.804 1291.94 268.395 1275.46 275.235 1261.99C277.457 1257.62 280.701 1254.1 284.526 1251.58C295.32 1244.46 309.668 1239.65 315.517 1228.13L333.579 1192.57C339.429 1181.06 334.856 1166.63 334.233 1153.72C334.014 1149.14 334.942 1144.45 337.164 1140.07C344.005 1126.6 360.503 1121.25 374.015 1128.12C378.407 1130.35 381.939 1133.59 384.478 1137.42C391.634 1148.21 396.5 1162.54 408.055 1168.41L443.732 1186.53C455.287 1192.4 469.731 1187.88 482.668 1187.29C487.256 1187.08 491.958 1188.02 496.349 1190.25C509.861 1197.12 515.27 1213.6 508.43 1227.06C501.589 1240.53 485.09 1245.88 471.578 1239.02Z" fill="#313131"/>
<path d="M687.758 916.479C685.536 920.854 682.292 924.372 678.467 926.894C667.673 934.006 653.322 938.822 647.472 950.337L626.072 992.468C622.188 1000.12 624.741 1009.35 627.421 1017.52C630.1 1025.68 633.517 1034.63 641.19 1038.53L683.465 1060.01C695.02 1065.87 709.464 1061.35 722.397 1060.76C726.985 1060.55 731.691 1061.5 736.079 1063.72C749.591 1070.59 755 1087.07 748.159 1100.54C741.319 1114 724.82 1119.36 711.308 1112.49C706.92 1110.26 703.384 1107.02 700.846 1103.19C693.693 1092.4 688.827 1078.07 677.272 1072.2L641.592 1054.07C630.037 1048.2 615.592 1052.73 602.656 1053.32C598.072 1053.52 593.366 1052.58 588.978 1050.36C575.466 1043.49 570.057 1027.01 576.897 1013.54C579.12 1009.17 582.359 1005.65 586.188 1003.13C596.982 996.016 611.33 991.199 617.179 979.684L635.241 944.125C641.09 932.609 636.518 918.181 635.895 905.27C635.672 900.691 636.604 895.999 638.826 891.624C645.666 878.157 662.166 872.804 675.677 879.668C689.189 886.531 694.598 903.012 687.758 916.479Z" fill="#313131"/>
<path d="M193.711 1178.68C191.489 1183.06 188.246 1186.58 184.42 1189.1C173.627 1196.21 159.275 1201.03 153.426 1212.54L132.026 1254.67C128.141 1262.32 130.695 1271.56 133.374 1279.72C136.054 1287.88 139.47 1296.84 147.143 1300.74L189.419 1322.21C200.973 1328.08 215.418 1323.55 228.351 1322.97C232.939 1322.76 237.644 1323.7 242.032 1325.93C255.544 1332.79 260.953 1349.27 254.113 1362.74C247.273 1376.21 230.773 1381.56 217.261 1374.7C212.873 1372.47 209.338 1369.22 206.799 1365.39C199.647 1354.6 194.781 1340.27 183.226 1334.4L147.545 1316.28C135.99 1310.41 121.546 1314.93 108.61 1315.52C104.025 1315.73 99.3193 1314.79 94.9311 1312.56C81.4193 1305.7 76.0105 1289.21 82.8508 1275.75C85.073 1271.37 88.3125 1267.85 92.1415 1265.33C102.936 1258.22 117.283 1253.4 123.133 1241.89L141.195 1206.33C147.044 1194.81 142.472 1180.38 141.848 1167.47C141.626 1162.89 142.557 1158.2 144.779 1153.83C151.62 1140.36 168.119 1135.01 181.631 1141.87C195.143 1148.73 200.552 1165.22 193.711 1178.68Z" fill="#313131"/>
<path d="M514.97 1135.46C517.193 1131.09 520.432 1127.57 524.261 1125.05C535.055 1117.93 549.403 1113.12 555.252 1101.6L576.652 1059.47C580.537 1051.82 577.983 1042.59 575.304 1034.42C572.628 1026.26 569.208 1017.3 561.535 1013.41L519.263 991.935C507.708 986.066 493.264 990.59 480.327 991.177C475.74 991.385 471.035 990.444 466.646 988.215C453.133 981.351 447.724 964.87 454.565 951.403C461.406 937.936 477.904 932.583 491.417 939.447C495.807 941.677 499.341 944.921 501.879 948.748C509.035 959.541 513.901 973.874 525.456 979.743L561.133 997.865C572.688 1003.73 587.132 999.21 600.068 998.623C604.653 998.414 609.359 999.355 613.75 1001.59C627.262 1008.45 632.671 1024.93 625.831 1038.4C623.609 1042.77 620.365 1046.29 616.54 1048.81C605.746 1055.92 591.395 1060.74 585.545 1072.26L567.484 1107.81C561.634 1119.33 566.21 1133.76 566.833 1146.67C567.052 1151.25 566.125 1155.94 563.902 1160.32C557.062 1173.78 540.563 1179.14 527.051 1172.27C513.535 1165.41 508.13 1148.93 514.97 1135.46Z" fill="#313131"/>
<path d="M711.308 1112.49C706.92 1110.26 703.384 1107.02 700.846 1103.19C693.693 1092.4 688.827 1078.07 677.272 1072.2L634.998 1050.72C627.325 1046.82 618.079 1049.35 609.906 1052C601.733 1054.65 592.768 1058.04 588.883 1065.68L567.484 1107.81C561.634 1119.33 566.21 1133.76 566.833 1146.67C567.052 1151.25 566.125 1155.94 563.902 1160.32C557.062 1173.78 540.563 1179.14 527.051 1172.27C513.539 1165.41 508.13 1148.93 514.97 1135.46C517.193 1131.09 520.432 1127.57 524.261 1125.05C535.055 1117.93 549.403 1113.12 555.252 1101.6L573.314 1066.04C579.163 1054.53 574.591 1040.1 573.967 1027.19C573.745 1022.61 574.675 1017.92 576.897 1013.54C583.738 1000.08 600.239 994.722 613.75 1001.59C618.139 1003.81 621.673 1007.06 624.209 1010.88C631.364 1021.68 636.231 1036.01 647.785 1041.88L683.465 1060.01C695.02 1065.87 709.464 1061.35 722.397 1060.76C726.985 1060.55 731.691 1061.5 736.079 1063.72C749.591 1070.59 755 1087.07 748.159 1100.54C741.319 1114 724.82 1119.36 711.308 1112.49Z" fill="#313131"/>
<path d="M329.117 1498.19C358.186 1512.96 393.72 1501.36 408.485 1472.29C423.25 1443.22 411.655 1407.69 382.587 1392.93C353.518 1378.16 317.984 1389.76 303.218 1418.82C288.453 1447.89 300.048 1483.43 329.117 1498.19Z" fill="#313131"/>
<path d="M656.766 1353.09C654.544 1357.46 651.301 1360.98 647.476 1363.5C636.682 1370.62 622.33 1375.43 616.481 1386.95L595.081 1429.08C591.196 1436.73 593.75 1445.96 596.43 1454.13C599.109 1462.29 602.525 1471.24 610.198 1475.14L652.474 1496.61C664.028 1502.48 678.473 1497.96 691.406 1497.37C695.994 1497.16 700.699 1498.1 705.088 1500.33C718.599 1507.2 724.008 1523.68 717.168 1537.14C710.328 1550.61 693.828 1555.96 680.316 1549.1C675.928 1546.87 672.393 1543.63 669.854 1539.8C662.702 1529.01 657.836 1514.68 646.281 1508.81L610.6 1490.68C599.046 1484.81 584.601 1489.34 571.665 1489.93C567.08 1490.13 562.374 1489.19 557.986 1486.96C544.474 1480.1 539.066 1463.62 545.906 1450.15C548.128 1445.78 551.368 1442.26 555.197 1439.74C565.991 1432.63 580.339 1427.81 586.188 1416.29L604.25 1380.73C610.099 1369.22 605.527 1354.79 604.903 1341.88C604.681 1337.3 605.612 1332.61 607.834 1328.23C614.675 1314.77 631.174 1309.41 644.686 1316.28C658.198 1323.14 663.607 1339.62 656.766 1353.09Z" fill="#313131"/>
<path d="M69.4363 1368.86C-196.551 1070.06 -188.861 412.167 159.856 241.346C293.676 175.946 411.08 211.002 530.25 246.368C658.937 284.497 789.591 323.107 945.291 234.865C1332.15 16.0938 1594 208.217 1764.3 537.713C1892.09 784.956 1957.42 943.337 2015.83 1132.28C2106.85 1426.51 1986.72 1464.22 1855.41 1469.95C1724.09 1475.68 1508.12 1296.9 958.259 1498.69C408.397 1700.47 214.031 1531.29 69.4363 1368.86Z" fill="url(#paint0_linear)" fill-opacity="0.2"/>
<defs>
<linearGradient id="paint0_linear" x1="368.698" y1="228.105" x2="1531.47" y2="1660.47" gradientUnits="userSpaceOnUse">
<stop stop-color="#0FBDE9"/>
<stop offset="0.0001" stop-color="#0FBDE9"/>
<stop offset="0.864583" stop-color="#5C34FA"/>
</linearGradient>
</defs>
</svg>
