<svg width="1440" height="1566" viewBox="0 0 1440 1566" fill="none" xmlns="http://www.w3.org/2000/svg">
<path d="M840.704 1171.2C844.432 1172.79 847.599 1175.14 850.101 1178C858.878 1188.01 864.848 1202.65 877.106 1207.87L916.903 1224.83C924.417 1228.03 933.013 1225.05 940.583 1222.02C948.153 1218.99 956.425 1215.21 959.616 1207.72L976.514 1168.06C981.719 1155.84 975.835 1141.17 975.193 1127.9C975.01 1124.11 975.657 1120.23 977.24 1116.52C982.859 1103.33 998.141 1097.21 1011.37 1102.85C1024.61 1108.48 1030.78 1123.75 1025.16 1136.93C1023.58 1140.65 1021.23 1143.8 1018.37 1146.29C1008.36 1155.02 993.699 1160.94 988.494 1173.16L975.018 1204.79C969.813 1217.01 975.697 1231.68 976.339 1244.95C976.522 1248.74 975.875 1252.62 974.292 1256.33C968.673 1269.52 953.39 1275.64 940.158 1270C936.43 1268.41 933.262 1266.06 930.761 1263.21C921.984 1253.19 916.014 1238.56 903.756 1233.33L872.019 1219.81C859.761 1214.59 845.068 1220.42 831.766 1221.03C827.975 1221.21 824.084 1220.55 820.357 1218.96C807.124 1213.32 800.951 1198.06 806.57 1184.87C812.189 1171.69 827.471 1165.57 840.704 1171.2Z" fill="#313131"/>
<path d="M710.49 965.107C706.76 963.518 703.593 961.17 701.091 958.314C692.316 948.298 686.345 933.661 674.087 928.438L634.291 911.483C626.776 908.281 618.18 911.258 610.611 914.292C603.04 917.322 594.768 921.101 591.577 928.59L574.679 968.252C569.474 980.47 575.358 995.142 576.002 1008.41C576.181 1012.2 575.535 1016.08 573.952 1019.79C568.333 1032.98 553.051 1039.1 539.818 1033.46C526.584 1027.83 520.412 1012.56 526.031 999.376C527.614 995.66 529.964 992.506 532.82 990.017C542.834 981.286 557.496 975.366 562.701 963.149L576.176 931.52C581.382 919.302 575.494 904.628 574.854 891.357C574.67 887.573 575.316 883.695 576.9 879.977C582.518 866.792 597.8 860.671 611.033 866.309C614.764 867.899 617.931 870.247 620.432 873.102C629.207 883.118 635.178 897.756 647.437 902.979L679.173 916.5C691.432 921.723 706.125 915.889 719.426 915.278C723.219 915.104 727.106 915.762 730.837 917.351C744.066 922.988 750.242 938.251 744.625 951.436C739.006 964.624 723.72 970.744 710.49 965.107Z" fill="#313131"/>
<path d="M690.648 1185.92C692.626 1181.27 695.706 1177.44 699.46 1174.59C710.041 1166.55 724.427 1160.62 729.632 1148.4L748.675 1103.7C752.132 1095.59 748.875 1086.29 745.566 1078.1C742.253 1069.91 738.127 1060.96 729.986 1057.49L685.139 1038.38C672.88 1033.16 658.375 1038.8 645.145 1040.3C640.453 1040.83 635.564 1040.19 630.905 1038.2C616.57 1032.09 609.883 1015.56 615.97 1001.27C622.057 986.987 638.613 980.356 652.948 986.463C657.607 988.449 661.454 991.531 664.323 995.283C672.409 1005.86 678.391 1020.23 690.65 1025.45L728.5 1041.58C740.759 1046.8 755.264 1041.16 768.494 1039.66C773.186 1039.13 778.075 1039.77 782.734 1041.76C797.069 1047.87 803.756 1064.4 797.669 1078.69C795.691 1083.33 792.607 1087.16 788.858 1090.01C778.276 1098.05 763.89 1103.99 758.685 1116.2L742.612 1153.93C737.407 1166.15 743.094 1180.63 744.625 1193.83C745.166 1198.51 744.539 1203.39 742.561 1208.03C736.474 1222.32 719.918 1228.95 705.583 1222.84C691.248 1216.74 684.561 1200.2 690.648 1185.92Z" fill="#313131"/>
<path d="M852.777 949.339C850.8 953.98 847.716 957.813 843.966 960.665C833.384 968.706 818.998 974.639 813.793 986.856L794.75 1031.55C791.294 1039.67 794.547 1048.96 797.86 1057.15C801.173 1065.34 805.295 1074.29 813.44 1077.76L858.287 1096.87C870.545 1102.09 885.051 1096.45 898.281 1094.96C902.969 1094.43 907.862 1095.07 912.517 1097.05C926.856 1103.16 933.543 1119.69 927.456 1133.98C921.369 1148.27 904.813 1154.9 890.474 1148.79C885.818 1146.81 881.968 1143.72 879.103 1139.97C871.017 1129.39 865.035 1115.03 852.776 1109.8L814.922 1093.68C802.663 1088.45 788.158 1094.09 774.932 1095.59C770.239 1096.12 765.347 1095.48 760.692 1093.5C746.357 1087.39 739.67 1070.86 745.757 1056.57C747.734 1051.93 750.814 1048.09 754.568 1045.24C765.15 1037.2 779.536 1031.27 784.741 1019.05L800.813 981.326C806.018 969.109 800.331 954.624 798.8 941.422C798.255 936.74 798.887 931.863 800.864 927.221C806.952 912.934 823.507 906.303 837.842 912.411C852.177 918.518 858.864 935.051 852.777 949.339Z" fill="#313131"/>
<path d="M652.948 986.463C657.607 988.449 661.454 991.531 664.323 995.283C672.409 1005.86 678.391 1020.23 690.65 1025.45L735.497 1044.56C743.638 1048.02 752.952 1044.8 761.153 1041.51C769.35 1038.23 778.313 1034.14 781.77 1026.02L800.813 981.326C806.018 969.109 800.331 954.624 798.8 941.422C798.255 936.74 798.887 931.863 800.864 927.221C806.952 912.934 823.507 906.303 837.842 912.411C852.177 918.518 858.864 935.051 852.777 949.339C850.8 953.98 847.716 957.813 843.966 960.665C833.384 968.706 818.998 974.639 813.793 986.856L797.721 1024.58C792.515 1036.8 798.202 1051.28 799.734 1064.48C800.274 1069.16 799.646 1074.04 797.669 1078.69C791.582 1092.97 775.027 1099.6 760.692 1093.5C756.032 1091.51 752.185 1088.43 749.317 1084.68C741.23 1074.1 735.248 1059.73 722.99 1054.51L685.139 1038.38C672.88 1033.16 658.375 1038.8 645.145 1040.3C640.453 1040.83 635.564 1040.19 630.905 1038.2C616.57 1032.09 609.883 1015.56 615.97 1001.27C622.057 986.987 638.613 980.356 652.948 986.463Z" fill="#313131"/>
<path d="M453.46 1332.27C455.438 1327.63 458.522 1323.8 462.272 1320.94C472.853 1312.9 487.243 1306.97 492.448 1294.75L511.491 1250.06C514.948 1241.94 511.69 1232.64 508.378 1224.46C505.065 1216.27 500.942 1207.32 492.802 1203.85L447.951 1184.74C435.692 1179.52 421.187 1185.15 407.961 1186.65C403.268 1187.18 398.376 1186.54 393.721 1184.56C379.386 1178.45 372.698 1161.92 378.786 1147.63C384.872 1133.34 401.429 1126.71 415.764 1132.82C420.419 1134.8 424.27 1137.89 427.138 1141.64C435.221 1152.21 441.203 1166.58 453.461 1171.8L491.316 1187.93C503.574 1193.16 518.08 1187.52 531.31 1186.02C535.998 1185.49 540.89 1186.13 545.546 1188.11C559.881 1194.22 566.568 1210.75 560.481 1225.04C558.503 1229.68 555.423 1233.52 551.669 1236.37C541.088 1244.41 526.702 1250.34 521.497 1262.56L505.424 1300.28C500.219 1312.5 505.906 1326.99 507.437 1340.19C507.982 1344.87 507.35 1349.75 505.373 1354.39C499.286 1368.67 482.73 1375.31 468.395 1369.2C454.06 1363.09 447.373 1346.56 453.46 1332.27Z" fill="#313131"/>
<path d="M942.162 1029.17C944.139 1024.53 947.223 1020.7 950.973 1017.84C961.555 1009.8 975.944 1003.87 981.149 991.654L1000.19 946.956C1003.65 938.843 1000.39 929.544 997.079 921.354C993.766 913.165 989.644 904.215 981.503 900.747L936.652 881.638C924.394 876.416 909.888 882.054 896.662 883.551C891.97 884.081 887.078 883.441 882.422 881.457C868.087 875.35 861.4 858.817 867.487 844.529C873.574 830.242 890.13 823.611 904.465 829.719C909.121 831.702 912.971 834.787 915.84 838.538C923.922 849.114 929.904 863.481 942.163 868.704L980.017 884.831C992.276 890.054 1006.78 884.416 1020.01 882.92C1024.7 882.389 1029.59 883.028 1034.25 885.012C1048.58 891.119 1055.27 907.653 1049.18 921.94C1047.2 926.581 1044.12 930.416 1040.37 933.266C1029.79 941.308 1015.4 947.24 1010.2 959.457L994.126 997.182C988.921 1009.4 994.608 1023.88 996.139 1037.09C996.683 1041.77 996.052 1046.65 994.075 1051.29C987.987 1065.57 971.431 1072.2 957.097 1066.1C942.762 1059.99 936.075 1043.46 942.162 1029.17Z" fill="#313131"/>
<path d="M615.587 1095.7C613.61 1100.34 610.53 1104.17 606.776 1107.02C596.194 1115.06 581.808 1121 576.603 1133.21L557.56 1177.91C554.104 1186.02 557.361 1195.32 560.674 1203.51C563.983 1211.7 568.109 1220.65 576.25 1224.12L621.097 1243.23C633.355 1248.45 647.861 1242.81 661.091 1241.32C665.782 1240.79 670.673 1241.43 675.33 1243.41C689.666 1249.52 696.353 1266.05 690.266 1280.34C684.179 1294.63 667.623 1301.26 653.287 1295.15C648.63 1293.16 644.78 1290.08 641.913 1286.33C633.826 1275.75 627.845 1261.38 615.586 1256.16L577.735 1240.04C565.477 1234.81 550.972 1240.45 537.742 1241.95C533.053 1242.48 528.161 1241.84 523.502 1239.85C509.167 1233.75 502.48 1217.21 508.567 1202.93C510.544 1198.28 513.628 1194.45 517.378 1191.6C527.96 1183.56 542.349 1177.63 547.554 1165.41L563.627 1127.69C568.832 1115.47 563.141 1100.98 561.61 1087.78C561.069 1083.1 561.697 1078.22 563.674 1073.58C569.761 1059.29 586.317 1052.66 600.652 1058.77C614.991 1064.88 621.674 1081.41 615.587 1095.7Z" fill="#313131"/>
<path d="M1104.29 792.595C1102.31 797.237 1099.23 801.071 1095.48 803.921C1084.9 811.963 1070.51 817.896 1065.3 830.113L1046.26 874.81C1042.81 882.923 1046.06 892.222 1049.38 900.412C1052.68 908.6 1056.81 917.551 1064.95 921.019L1109.8 940.126C1122.06 945.349 1136.56 939.71 1149.79 938.215C1154.48 937.685 1159.37 938.325 1164.03 940.309C1178.37 946.416 1185.05 962.95 1178.97 977.237C1172.88 991.524 1156.32 998.155 1141.99 992.047C1137.33 990.063 1133.48 986.979 1130.61 983.228C1122.53 972.651 1116.55 958.284 1104.29 953.061L1066.44 936.935C1054.18 931.712 1039.67 937.351 1026.44 938.847C1021.75 939.378 1016.86 938.738 1012.2 936.753C997.868 930.645 991.181 914.112 997.268 899.825C999.246 895.183 1002.33 891.351 1006.08 888.499C1016.66 880.457 1031.05 874.526 1036.26 862.309L1052.33 824.584C1057.53 812.367 1051.84 797.881 1050.31 784.679C1049.77 779.998 1050.4 775.12 1052.38 770.478C1058.46 756.191 1075.02 749.56 1089.35 755.667C1103.69 761.776 1110.38 778.308 1104.29 792.595Z" fill="#313131"/>
<path d="M415.764 1132.82C420.419 1134.8 424.27 1137.89 427.138 1141.64C435.221 1152.21 441.203 1166.58 453.461 1171.8L498.312 1190.92C506.452 1194.38 515.762 1191.16 523.964 1187.87C532.165 1184.59 541.128 1180.5 544.584 1172.38L563.627 1127.69C568.832 1115.47 563.141 1100.98 561.61 1087.78C561.069 1083.1 561.697 1078.22 563.674 1073.58C569.761 1059.29 586.317 1052.66 600.652 1058.77C614.987 1064.88 621.674 1081.41 615.587 1095.7C613.61 1100.34 610.53 1104.17 606.776 1107.02C596.194 1115.06 581.808 1121 576.603 1133.21L560.531 1170.94C555.326 1183.16 561.013 1197.64 562.544 1210.84C563.089 1215.52 562.458 1220.4 560.481 1225.04C554.394 1239.33 537.837 1245.96 523.502 1239.85C518.846 1237.87 514.996 1234.79 512.131 1231.04C504.045 1220.46 498.063 1206.09 485.804 1200.87L447.951 1184.74C435.692 1179.52 421.187 1185.15 407.961 1186.65C403.268 1187.18 398.376 1186.54 393.721 1184.56C379.386 1178.45 372.698 1161.92 378.786 1147.63C384.872 1133.34 401.429 1126.71 415.764 1132.82Z" fill="#313131"/>
<path d="M904.465 829.719C909.121 831.702 912.971 834.787 915.84 838.538C923.922 849.114 929.904 863.481 942.163 868.704L987.013 887.814C995.153 891.282 1004.46 888.056 1012.67 884.771C1020.87 881.487 1029.83 877.395 1033.29 869.281L1052.33 824.584C1057.53 812.367 1051.84 797.881 1050.31 784.679C1049.77 779.998 1050.4 775.12 1052.38 770.478C1058.46 756.191 1075.02 749.56 1089.35 755.667C1103.69 761.774 1110.38 778.308 1104.29 792.595C1102.31 797.237 1099.23 801.071 1095.48 803.921C1084.9 811.963 1070.51 817.896 1065.3 830.113L1049.23 867.838C1044.03 880.054 1049.71 894.539 1051.25 907.741C1051.79 912.423 1051.16 917.299 1049.18 921.94C1043.1 936.227 1026.54 942.86 1012.2 936.753C1007.55 934.769 1003.7 931.684 1000.83 927.935C992.746 917.358 986.764 902.99 974.506 897.768L936.652 881.638C924.394 876.416 909.888 882.054 896.662 883.551C891.97 884.081 887.078 883.441 882.422 881.457C868.087 875.35 861.4 858.817 867.487 844.529C873.574 830.242 890.13 823.611 904.465 829.719Z" fill="#313131"/>
<path d="M805.486 1265.41C774.647 1252.27 738.995 1266.62 725.856 1297.46C712.717 1328.3 727.066 1363.95 757.906 1377.09C788.745 1390.23 824.397 1375.88 837.536 1345.04C850.675 1314.2 836.326 1278.55 805.486 1265.41Z" fill="#313131"/>
<path d="M781.19 710.757C750.35 697.618 714.699 711.967 701.56 742.807C688.421 773.646 702.77 809.298 733.609 822.437C764.448 835.576 800.1 821.227 813.239 790.387C826.378 759.548 812.029 723.896 781.19 710.757Z" fill="#313131"/>
<path d="M816.407 616.554C820.135 618.142 823.302 620.494 825.804 623.348C834.58 633.362 840.55 648 852.809 653.223L892.606 670.178C900.12 673.38 908.716 670.402 916.286 667.37C923.856 664.338 932.128 660.56 935.319 653.071L952.217 613.408C957.422 601.191 951.537 586.519 950.896 573.246C950.713 569.463 951.36 565.584 952.943 561.869C958.562 548.68 973.844 542.559 987.077 548.197C1000.31 553.835 1006.48 569.097 1000.86 582.285C999.281 586 996.931 589.154 994.076 591.643C984.059 600.375 969.402 606.295 964.197 618.512L950.721 650.142C945.516 662.359 951.4 677.031 952.042 690.304C952.225 694.087 951.578 697.967 949.995 701.682C944.376 714.87 929.093 720.991 915.861 715.353C912.133 713.765 908.965 711.413 906.464 708.559C897.687 698.544 891.717 683.906 879.459 678.684L847.722 665.162C835.464 659.94 820.771 665.774 807.469 666.383C803.678 666.556 799.787 665.901 796.06 664.312C782.827 658.675 776.654 643.413 782.273 630.225C787.892 617.037 803.174 610.916 816.407 616.554Z" fill="#313131"/>
<path d="M666.351 631.266C668.329 626.625 671.409 622.79 675.163 619.94C685.744 611.899 700.13 605.966 705.335 593.749L724.378 549.052C727.835 540.938 724.578 531.639 721.269 523.451C717.956 515.261 713.829 506.31 705.689 502.842L660.842 483.735C648.583 478.512 634.078 484.151 620.848 485.647C616.156 486.176 611.267 485.538 606.608 483.553C592.273 477.445 585.586 460.912 591.673 446.625C597.76 432.337 614.316 425.707 628.651 431.814C633.31 433.799 637.157 436.882 640.026 440.633C648.112 451.21 654.094 465.578 666.353 470.8L704.203 486.926C716.462 492.149 730.967 486.51 744.197 485.015C748.889 484.485 753.778 485.124 758.437 487.109C772.772 493.216 779.459 509.749 773.372 524.037C771.394 528.678 768.31 532.511 764.56 535.363C753.979 543.404 739.593 549.337 734.388 561.554L718.315 599.279C713.11 611.496 718.797 625.981 720.328 639.183C720.869 643.863 720.242 648.742 718.264 653.383C712.177 667.671 695.621 674.301 681.286 668.194C666.951 662.087 660.264 645.553 666.351 631.266Z" fill="#313131"/>
<path d="M828.48 394.689C826.503 399.331 823.419 403.163 819.669 406.015C809.087 414.057 794.701 419.989 789.496 432.207L770.453 476.904C766.997 485.017 770.25 494.315 773.563 502.504C776.876 510.694 780.998 519.644 789.143 523.114L833.99 542.221C846.248 547.443 860.754 541.805 873.984 540.309C878.672 539.778 883.564 540.418 888.22 542.401C902.559 548.51 909.246 565.044 903.159 579.331C897.072 593.618 880.516 600.249 866.177 594.14C861.521 592.156 857.671 589.072 854.806 585.322C846.72 574.745 840.738 560.378 828.479 555.155L790.625 539.027C778.366 533.805 763.861 539.443 750.635 540.941C745.942 541.47 741.05 540.83 736.395 538.847C722.06 532.739 715.373 516.206 721.46 501.919C723.437 497.277 726.517 493.443 730.271 490.593C740.853 482.551 755.239 476.619 760.444 464.401L776.516 426.677C781.721 414.459 776.034 399.975 774.503 386.772C773.958 382.091 774.59 377.213 776.567 372.572C782.654 358.285 799.21 351.654 813.545 357.761C827.88 363.869 834.567 380.402 828.48 394.689Z" fill="#313131"/>
<path d="M628.651 431.814C633.31 433.799 637.157 436.882 640.026 440.633C648.112 451.21 654.094 465.578 666.353 470.8L711.2 489.906C719.34 493.374 728.655 490.15 736.856 486.866C745.053 483.579 754.016 479.487 757.473 471.374L776.516 426.677C781.721 414.459 776.034 399.975 774.503 386.772C773.958 382.091 774.59 377.213 776.567 372.572C782.654 358.285 799.21 351.654 813.545 357.761C827.88 363.869 834.567 380.402 828.48 394.689C826.503 399.331 823.419 403.163 819.669 406.015C809.087 414.057 794.701 419.989 789.496 432.207L773.423 469.931C768.218 482.149 773.905 496.633 775.436 509.835C775.977 514.515 775.349 519.395 773.372 524.037C767.285 538.324 750.73 544.954 736.395 538.847C731.735 536.862 727.888 533.778 725.019 530.027C716.933 519.45 710.951 505.083 698.693 499.86L660.842 483.735C648.583 478.512 634.078 484.151 620.848 485.647C616.156 486.176 611.267 485.538 606.608 483.553C592.273 477.445 585.586 460.912 591.673 446.625C597.76 432.337 614.316 425.707 628.651 431.814Z" fill="#313131"/>
<path d="M429.163 777.621C431.14 772.98 434.224 769.147 437.974 766.295C448.556 758.254 462.946 752.323 468.151 740.105L487.194 695.408C490.651 687.294 487.393 677.996 484.08 669.806C480.768 661.616 476.645 652.666 468.505 649.198L423.654 630.09C411.395 624.867 396.89 630.506 383.663 632.003C378.971 632.533 374.079 631.892 369.423 629.909C355.088 623.801 348.401 607.268 354.488 592.981C360.575 578.694 377.132 572.063 391.466 578.17C396.122 580.154 399.973 583.239 402.841 586.989C410.924 597.565 416.906 611.932 429.164 617.155L467.019 633.283C479.277 638.506 493.782 632.867 507.013 631.371C511.701 630.84 516.593 631.48 521.249 633.463C535.584 639.571 542.271 656.104 536.184 670.391C534.206 675.033 531.126 678.867 527.372 681.718C516.791 689.759 502.405 695.692 497.2 707.909L481.127 745.634C475.922 757.851 481.609 772.336 483.14 785.537C483.685 790.219 483.053 795.097 481.076 799.738C474.989 814.026 458.433 820.656 444.098 814.549C429.763 808.442 423.076 791.908 429.163 777.621Z" fill="#313131"/>
<path d="M917.864 474.52C919.842 469.879 922.926 466.046 926.676 463.194C937.258 455.153 951.647 449.222 956.852 437.004L975.895 392.307C979.352 384.194 976.095 374.895 972.782 366.705C969.469 358.515 965.346 349.566 957.206 346.097L912.355 326.989C900.096 321.766 885.591 327.405 872.365 328.902C867.673 329.432 862.78 328.791 858.125 326.808C843.79 320.701 837.103 304.167 843.19 289.88C849.277 275.593 865.833 268.962 880.168 275.069C884.823 277.053 888.674 280.138 891.543 283.888C899.625 294.464 905.607 308.832 917.866 314.054L955.72 330.182C967.979 335.405 982.484 329.766 995.714 328.27C1000.4 327.739 1005.29 328.379 1009.95 330.363C1024.29 336.47 1030.97 353.004 1024.89 367.291C1022.91 371.932 1019.83 375.766 1016.07 378.617C1005.49 386.658 991.106 392.591 985.901 404.808L969.829 442.533C964.623 454.75 970.31 469.235 971.842 482.437C972.386 487.119 971.755 491.996 969.777 496.637C963.69 510.925 947.134 517.556 932.799 511.448C918.464 505.341 911.777 488.807 917.864 474.52Z" fill="#313131"/>
<path d="M591.29 541.046C589.313 545.688 586.233 549.522 582.479 552.373C571.897 560.414 557.511 566.347 552.306 578.564L533.263 623.261C529.806 631.375 533.064 640.674 536.376 648.864C539.685 657.051 543.812 666.003 551.953 669.471L596.8 688.578C609.058 693.801 623.564 688.162 636.794 686.666C641.485 686.136 646.376 686.776 651.033 688.76C665.369 694.868 672.056 711.401 665.969 725.688C659.881 739.976 643.326 746.606 628.99 740.499C624.333 738.515 620.483 735.43 617.616 731.68C609.529 721.103 603.547 706.735 591.289 701.513L553.438 685.387C541.18 680.164 526.674 685.802 513.444 687.298C508.756 687.829 503.864 687.189 499.204 685.204C484.869 679.097 478.182 662.563 484.27 648.276C486.247 643.635 489.331 639.802 493.081 636.95C503.663 628.909 518.052 622.978 523.257 610.76L539.33 573.036C544.535 560.818 538.844 546.332 537.313 533.13C536.772 528.45 537.4 523.571 539.377 518.929C545.464 504.642 562.02 498.011 576.355 504.119C590.694 510.228 597.377 526.759 591.29 541.046Z" fill="#313131"/>
<path d="M1079.99 237.946C1078.01 242.587 1074.93 246.421 1071.18 249.272C1060.6 257.313 1046.21 263.246 1041.01 275.463L1021.96 320.16C1018.51 328.274 1021.77 337.573 1025.08 345.763C1028.39 353.951 1032.51 362.902 1040.65 366.37L1085.5 385.477C1097.76 390.7 1112.27 385.061 1125.5 383.566C1130.19 383.036 1135.08 383.675 1139.73 385.659C1154.07 391.767 1160.76 408.3 1154.67 422.587C1148.58 436.875 1132.03 443.506 1117.69 437.398C1113.03 435.414 1109.18 432.33 1106.32 428.579C1098.23 418.002 1092.25 403.635 1079.99 398.412L1042.14 382.286C1029.88 377.063 1015.38 382.702 1002.15 384.197C997.457 384.729 992.565 384.088 987.906 382.103C973.571 375.996 966.884 359.463 972.971 345.175C974.948 340.534 978.032 336.701 981.782 333.849C992.364 325.808 1006.75 319.877 1011.96 307.66L1028.03 269.935C1033.24 257.718 1027.55 243.231 1026.01 230.029C1025.47 225.349 1026.1 220.47 1028.08 215.828C1034.17 201.541 1050.72 194.91 1065.06 201.018C1079.4 207.127 1086.08 223.659 1079.99 237.946Z" fill="#313131"/>
<path d="M391.466 578.17C396.122 580.154 399.973 583.239 402.841 586.989C410.924 597.565 416.906 611.932 429.164 617.155L474.014 636.266C482.155 639.734 491.465 636.507 499.666 633.223C507.868 629.939 516.83 625.846 520.287 617.733L539.33 573.036C544.535 560.818 538.844 546.332 537.313 533.13C536.772 528.45 537.4 523.571 539.377 518.929C545.464 504.642 562.02 498.011 576.355 504.119C590.69 510.226 597.377 526.759 591.29 541.046C589.313 545.688 586.233 549.522 582.479 552.373C571.897 560.414 557.511 566.347 552.306 578.564L536.234 616.289C531.029 628.506 536.716 642.991 538.247 656.193C538.792 660.875 538.161 665.75 536.184 670.391C530.097 684.678 513.539 691.311 499.204 685.204C494.549 683.221 490.699 680.136 487.834 676.387C479.748 665.809 473.766 651.442 461.507 646.219L423.654 630.09C411.395 624.867 396.89 630.506 383.663 632.003C378.971 632.533 374.079 631.892 369.423 629.909C355.088 623.801 348.401 607.268 354.488 592.981C360.575 578.694 377.132 572.063 391.466 578.17Z" fill="#313131"/>
<path d="M880.168 275.069C884.823 277.053 888.674 280.138 891.543 283.888C899.625 294.464 905.607 308.832 917.866 314.054L962.716 333.165C970.856 336.633 980.167 333.406 988.368 330.122C996.569 326.838 1005.53 322.745 1008.99 314.632L1028.03 269.935C1033.24 257.718 1027.55 243.231 1026.01 230.029C1025.47 225.349 1026.1 220.47 1028.08 215.828C1034.17 201.541 1050.72 194.91 1065.06 201.018C1079.39 207.125 1086.08 223.658 1079.99 237.946C1078.01 242.587 1074.93 246.421 1071.18 249.272C1060.6 257.313 1046.21 263.246 1041.01 275.463L1024.94 313.188C1019.73 325.405 1025.42 339.89 1026.95 353.092C1027.49 357.774 1026.86 362.649 1024.89 367.291C1018.8 381.578 1002.24 388.211 987.906 382.103C983.25 380.12 979.4 377.035 976.535 373.286C968.449 362.708 962.467 348.341 950.209 343.118L912.355 326.989C900.096 321.766 885.591 327.405 872.365 328.902C867.673 329.432 862.78 328.791 858.125 326.808C843.79 320.701 837.103 304.167 843.19 289.88C849.277 275.593 865.833 268.962 880.168 275.069Z" fill="#313131"/>
<path d="M781.189 710.757C750.35 697.618 714.698 711.967 701.559 742.807C688.42 773.646 702.769 809.298 733.609 822.437C764.448 835.576 800.1 821.227 813.239 790.387C826.378 759.548 812.029 723.896 781.189 710.757Z" fill="#313131"/>
<path d="M521.389 325.178C490.549 312.039 454.898 326.388 441.759 357.227C428.62 388.067 442.969 423.718 473.808 436.857C504.648 449.996 540.299 435.647 553.438 404.808C566.577 373.968 552.228 338.317 521.389 325.178Z" fill="#313131"/>
<path d="M206.048 956.697C204.45 960.446 201.959 963.542 198.93 965.845C190.383 972.341 178.763 977.133 174.558 987.002L159.176 1023.11C156.384 1029.66 159.012 1037.17 161.688 1043.78C164.364 1050.4 167.694 1057.63 174.273 1060.43L210.498 1075.86C220.4 1080.08 232.116 1075.53 242.803 1074.32C246.59 1073.89 250.542 1074.41 254.302 1076.01C265.884 1080.95 271.286 1094.3 266.369 1105.84C261.452 1117.38 248.079 1122.74 236.497 1117.8C232.736 1116.2 229.626 1113.71 227.312 1110.68C220.78 1102.14 215.948 1090.53 206.047 1086.31L175.47 1073.29C165.568 1069.07 153.852 1073.62 143.168 1074.83C139.378 1075.26 135.426 1074.74 131.666 1073.14C120.087 1068.21 114.685 1054.85 119.602 1043.31C121.199 1039.56 123.688 1036.46 126.72 1034.16C135.267 1027.67 146.887 1022.88 151.091 1013.01L164.074 982.535C168.278 972.666 163.685 960.966 162.448 950.302C162.008 946.521 162.518 942.581 164.115 938.832C169.032 927.291 182.405 921.935 193.984 926.869C205.563 931.802 210.964 945.156 206.048 956.697Z" fill="#313131"/>
<path d="M278.247 1021.18C279.845 1017.43 282.336 1014.34 285.365 1012.03C293.912 1005.54 305.535 1000.75 309.74 990.877L325.122 954.773C327.914 948.219 325.283 940.708 322.607 934.093C319.931 927.477 316.601 920.248 310.025 917.447L273.797 902.012C263.895 897.793 252.179 902.348 241.495 903.557C237.705 903.985 233.754 903.468 229.993 901.866C218.414 896.933 213.013 883.578 217.929 872.038C222.846 860.497 236.219 855.141 247.798 860.074C251.559 861.676 254.669 864.168 256.986 867.198C263.515 875.741 268.347 887.346 278.248 891.564L308.825 904.591C318.727 908.81 330.444 904.255 341.13 903.047C344.917 902.618 348.869 903.135 352.629 904.737C364.208 909.67 369.61 923.025 364.693 934.566C363.096 938.315 360.608 941.412 357.576 943.714C349.028 950.21 337.408 955.002 333.204 964.87L320.221 995.343C316.017 1005.21 320.61 1016.91 321.847 1027.57C322.287 1031.36 321.777 1035.3 320.18 1039.05C315.263 1050.59 301.89 1055.94 290.311 1051.01C278.732 1046.08 273.331 1032.72 278.247 1021.18Z" fill="#313131"/>
<path d="M409.205 830.088C407.608 833.837 405.12 836.934 402.088 839.237C393.54 845.732 381.92 850.524 377.716 860.393L362.334 896.497C359.542 903.05 362.173 910.561 364.849 917.177C367.522 923.79 370.855 931.021 377.43 933.822L413.655 949.256C423.557 953.474 435.274 948.92 445.96 947.712C449.749 947.284 453.7 947.8 457.462 949.403C469.042 954.336 474.443 967.691 469.526 979.232C464.609 990.772 451.237 996.128 439.657 991.195C435.895 989.592 432.785 987.101 430.469 984.071C423.938 975.527 419.106 963.922 409.204 959.704L378.63 946.678C368.729 942.459 357.012 947.014 346.325 948.222C342.538 948.651 338.587 948.134 334.823 946.531C323.244 941.597 317.843 928.243 322.759 916.702C324.357 912.953 326.848 909.857 329.877 907.554C338.424 901.058 350.047 896.267 354.252 886.399L367.234 855.927C371.439 846.059 366.842 834.357 365.605 823.693C365.168 819.913 365.675 815.972 367.272 812.223C372.189 800.683 385.562 795.326 397.141 800.26C408.723 805.194 414.122 818.548 409.205 830.088Z" fill="#313131"/>
<path d="M247.798 860.074C251.559 861.676 254.669 864.168 256.986 867.198C263.515 875.741 268.347 887.346 278.248 891.564L314.476 907.001C321.051 909.802 328.572 907.196 335.196 904.543C341.821 901.89 349.06 898.585 351.853 892.031L367.234 855.927C371.439 846.059 366.842 834.357 365.605 823.693C365.168 819.913 365.675 815.972 367.272 812.223C372.189 800.683 385.562 795.326 397.141 800.26C408.72 805.193 414.122 818.547 409.205 830.088C407.608 833.837 405.12 836.934 402.088 839.237C393.54 845.732 381.92 850.524 377.716 860.393L364.734 890.865C360.529 900.733 365.123 912.433 366.36 923.097C366.8 926.879 366.29 930.817 364.693 934.566C359.776 946.106 346.402 951.464 334.823 946.531C331.063 944.928 327.953 942.437 325.639 939.408C319.107 930.864 314.275 919.259 304.373 915.041L273.797 902.012C263.895 897.793 252.179 902.348 241.495 903.557C237.705 903.985 233.754 903.468 229.993 901.866C218.414 896.933 213.013 883.578 217.929 872.038C222.846 860.497 236.219 855.141 247.798 860.074Z" fill="#313131"/>
<path d="M148.223 763.984C123.313 753.371 94.5151 764.961 83.9021 789.871C73.2891 814.782 84.8795 843.579 109.79 854.192C134.7 864.805 163.498 853.215 174.111 828.305C184.724 803.394 173.133 774.597 148.223 763.984Z" fill="#313131"/>
<path d="M309.471 1149.14C284.561 1138.53 255.763 1150.12 245.15 1175.03C234.538 1199.94 246.128 1228.74 271.038 1239.35C295.949 1249.96 324.746 1238.37 335.359 1213.46C345.972 1188.55 334.382 1159.76 309.471 1149.14Z" fill="#313131"/>
<path d="M176.669 687.891C179.681 689.174 182.239 691.074 184.26 693.379C191.349 701.468 196.171 713.292 206.073 717.51L238.219 731.206C244.289 733.792 251.232 731.386 257.346 728.938C263.461 726.489 270.143 723.437 272.72 717.387L286.369 685.35C290.574 675.482 285.821 663.631 285.302 652.91C285.154 649.854 285.677 646.72 286.956 643.719C291.494 633.066 303.838 628.122 314.527 632.676C325.216 637.23 330.202 649.558 325.663 660.211C324.385 663.211 322.487 665.759 320.181 667.769C312.09 674.823 300.25 679.604 296.046 689.473L285.161 715.022C280.957 724.89 285.71 736.741 286.228 747.462C286.376 750.518 285.853 753.652 284.575 756.653C280.036 767.306 267.692 772.25 257.003 767.696C253.992 766.413 251.433 764.513 249.412 762.208C242.323 754.118 237.501 742.295 227.599 738.076L201.964 727.154C192.062 722.936 180.195 727.649 169.45 728.14C166.388 728.28 163.245 727.751 160.234 726.468C149.545 721.914 144.559 709.586 149.098 698.933C153.636 688.281 165.981 683.337 176.669 687.891Z" fill="#313131"/>
<path d="M71.4899 521.418C68.4766 520.134 65.9184 518.237 63.8976 515.931C56.81 507.84 51.987 496.017 42.0852 491.798L9.93985 478.103C3.8698 475.517 -3.07374 477.921 -9.18745 480.372C-15.303 482.819 -21.9843 485.872 -24.5617 491.921L-38.2109 523.958C-42.4153 533.827 -37.663 545.679 -37.1427 556.399C-36.9976 559.454 -37.5197 562.589 -38.7983 565.59C-43.3369 576.242 -55.681 581.186 -66.3703 576.632C-77.0595 572.078 -82.0452 559.751 -77.5065 549.098C-76.228 546.097 -74.3294 543.549 -72.0223 541.539C-63.9335 534.486 -52.0909 529.704 -47.8864 519.836L-37.0016 494.287C-32.7971 484.419 -37.5526 472.566 -38.0697 461.847C-38.218 458.79 -37.6965 455.657 -36.417 452.654C-31.8796 442.004 -19.5355 437.06 -8.84627 441.614C-5.83293 442.898 -3.27483 444.795 -1.254 447.101C5.83359 455.191 10.6566 467.015 20.5585 471.234L46.1935 482.155C56.0953 486.374 67.9635 481.662 78.7078 481.169C81.7712 481.028 84.9112 481.559 87.9245 482.843C98.6107 487.396 103.599 499.724 99.062 510.375C94.5233 521.028 82.1761 525.97 71.4899 521.418Z" fill="#313131"/>
<path d="M55.4627 699.775C57.0599 696.026 59.5479 692.928 62.5799 690.626C71.1273 684.131 82.7474 679.339 86.9518 669.47L102.334 633.366C105.126 626.813 102.495 619.301 99.8219 612.687C97.146 606.072 93.8129 598.842 87.2375 596.04L51.0124 580.607C41.1106 576.388 29.394 580.943 18.7074 582.151C14.9173 582.579 10.9687 582.063 7.20516 580.46C-4.37385 575.527 -9.77517 562.172 -4.85849 550.631C0.0583284 539.091 13.4313 533.735 25.0103 538.668C28.7739 540.272 31.8812 542.762 34.1982 545.792C40.7299 554.335 45.5618 565.94 55.4637 570.159L86.0372 583.185C95.939 587.403 107.656 582.849 118.342 581.641C122.132 581.213 126.081 581.729 129.844 583.332C141.423 588.265 146.825 601.62 141.908 613.161C140.311 616.91 137.82 620.006 134.791 622.309C126.243 628.805 114.623 633.597 110.419 643.465L97.4364 673.937C93.232 683.806 97.8257 695.506 99.0623 706.17C99.4993 709.95 98.9923 713.891 97.3951 717.64C92.4783 729.18 79.1053 734.536 67.5263 729.603C55.9473 724.67 50.5459 711.315 55.4627 699.775Z" fill="#313131"/>
<path d="M186.422 508.681C184.824 512.43 182.333 515.526 179.304 517.829C170.757 524.325 159.137 529.117 154.932 538.985L139.55 575.09C136.758 581.643 139.386 589.153 142.062 595.768C144.738 602.383 148.068 609.612 154.647 612.415L190.872 627.849C200.774 632.067 212.49 627.513 223.177 626.304C226.964 625.875 230.916 626.392 234.676 627.994C246.258 632.929 251.66 646.284 246.743 657.824C241.826 669.365 228.453 674.721 216.871 669.786C213.11 668.184 210 665.692 207.686 662.664C201.154 654.12 196.322 642.515 186.421 638.296L155.844 625.269C145.942 621.051 134.226 625.605 123.542 626.815C119.752 627.243 115.8 626.725 112.04 625.123C100.461 620.19 95.0594 606.835 99.9762 595.295C101.573 591.546 104.062 588.449 107.094 586.146C115.641 579.651 127.261 574.859 131.465 564.99L144.448 534.518C148.652 524.65 144.059 512.95 142.822 502.286C142.382 498.505 142.892 494.565 144.489 490.816C149.406 479.275 162.779 473.919 174.358 478.852C185.937 483.786 191.338 497.14 186.422 508.681Z" fill="#313131"/>
<path d="M25.0103 538.668C28.7739 540.272 31.8812 542.762 34.1982 545.792C40.7299 554.335 45.5618 565.94 55.4637 570.159L91.6891 585.592C98.2645 588.393 105.788 585.788 112.412 583.136C119.034 580.481 126.274 577.176 129.066 570.622L144.448 534.518C148.652 524.65 144.059 512.95 142.822 502.286C142.382 498.505 142.892 494.565 144.489 490.816C149.406 479.275 162.779 473.919 174.358 478.852C185.937 483.786 191.338 497.14 186.422 508.681C184.824 512.43 182.333 515.526 179.304 517.829C170.757 524.325 159.137 529.117 154.932 538.985L141.95 569.457C137.745 579.326 142.339 591.026 143.576 601.689C144.013 605.47 143.505 609.412 141.908 613.161C136.991 624.701 123.619 630.056 112.04 625.123C108.276 623.52 105.169 621.029 102.852 617.999C96.3199 609.456 91.488 597.851 81.5862 593.632L51.0124 580.607C41.1106 576.388 29.394 580.943 18.7074 582.151C14.9173 582.579 10.9687 582.063 7.20516 580.46C-4.37385 575.527 -9.77517 562.172 -4.85849 550.631C0.0583284 539.091 13.4313 533.735 25.0103 538.668Z" fill="#313131"/>
<path d="M-136.125 817.992C-134.528 814.243 -132.037 811.147 -129.008 808.844C-120.461 802.348 -108.837 797.558 -104.633 787.689L-89.2509 751.585C-86.4588 745.031 -89.09 737.52 -91.7659 730.905C-94.4417 724.29 -97.7719 717.061 -104.347 714.259L-140.575 698.824C-150.477 694.606 -162.194 699.16 -172.877 700.37C-176.668 700.798 -180.619 700.28 -184.38 698.678C-195.959 693.745 -201.36 680.39 -196.443 668.85C-191.527 657.31 -178.153 651.953 -166.574 656.887C-162.814 658.489 -159.704 660.981 -157.386 664.01C-150.858 672.553 -146.026 684.158 -136.124 688.377L-105.548 701.404C-95.6457 705.622 -83.9291 701.068 -73.2426 699.859C-69.4556 699.43 -65.5038 699.947 -61.7433 701.55C-50.1643 706.483 -44.763 719.838 -49.6797 731.378C-51.2769 735.127 -53.7649 738.224 -56.7971 740.527C-65.3445 747.022 -76.9645 751.814 -81.1688 761.682L-94.1514 792.155C-98.3558 802.023 -93.7622 813.723 -92.5254 824.387C-92.0854 828.169 -92.5955 832.108 -94.1928 835.857C-99.1095 847.398 -112.483 852.754 -124.062 847.821C-135.641 842.888 -141.042 829.533 -136.125 817.992Z" fill="#313131"/>
<path d="M258.621 573.164C260.219 569.415 262.71 566.319 265.739 564.015C274.286 557.52 285.909 552.729 290.114 542.861L305.496 506.757C308.288 500.203 305.657 492.692 302.981 486.077C300.305 479.461 296.975 472.232 290.399 469.431L254.171 453.996C244.269 449.777 232.553 454.332 221.869 455.541C218.079 455.969 214.127 455.452 210.367 453.85C198.788 448.917 193.387 435.562 198.303 424.021C203.22 412.481 216.593 407.125 228.172 412.058C231.933 413.66 235.043 416.152 237.36 419.182C243.889 427.725 248.721 439.33 258.622 443.548L289.199 456.575C299.101 460.794 310.818 456.239 321.504 455.031C325.291 454.602 329.243 455.119 333.003 456.721C344.582 461.654 349.984 475.009 345.067 486.55C343.47 490.299 340.982 493.396 337.95 495.698C329.402 502.194 317.782 506.986 313.578 516.854L300.595 547.326C296.391 557.195 300.984 568.895 302.221 579.558C302.661 583.34 302.151 587.28 300.554 591.029C295.637 602.57 282.264 607.925 270.685 602.992C259.106 598.059 253.705 584.704 258.621 573.164Z" fill="#313131"/>
<path d="M-5.16767 626.9C-6.76505 630.65 -9.25289 633.746 -12.285 636.049C-20.8324 642.544 -32.4525 647.337 -36.6569 657.205L-52.0388 693.309C-54.8309 699.862 -52.1998 707.374 -49.524 713.989C-46.8511 720.603 -43.5179 727.833 -36.9425 730.634L-0.717365 746.068C9.18448 750.287 20.9011 745.732 31.5875 744.524C35.3767 744.096 39.3279 744.613 43.0896 746.215C54.6692 751.149 60.0706 764.503 55.1535 776.044C50.2367 787.584 36.864 792.94 25.2844 788.007C21.5227 786.404 18.4128 783.913 16.0967 780.883C9.56498 772.34 4.73312 760.735 -5.16873 756.516L-35.7423 743.49C-45.6441 739.272 -57.3608 743.826 -68.0472 745.034C-71.8344 745.464 -75.786 744.946 -79.5495 743.343C-91.1285 738.41 -96.53 725.055 -91.6132 713.514C-90.0159 709.765 -87.5248 706.67 -84.4958 704.366C-75.9485 697.871 -64.3254 693.08 -60.121 683.211L-47.1385 652.739C-42.9341 642.871 -47.5308 631.17 -48.7675 620.506C-49.2044 616.725 -48.6975 612.784 -47.1001 609.035C-42.1834 597.495 -28.8103 592.139 -17.2313 597.072C-5.64917 602.006 -0.250976 615.36 -5.16767 626.9Z" fill="#313131"/>
<path d="M389.579 382.072C387.982 385.821 385.494 388.918 382.462 391.22C373.914 397.716 362.294 402.508 358.09 412.377L342.708 448.48C339.916 455.034 342.547 462.545 345.223 469.161C347.895 475.774 351.229 483.005 357.804 485.806L394.029 501.24C403.931 505.458 415.648 500.904 426.334 499.696C430.123 499.268 434.074 499.784 437.836 501.387C449.416 506.32 454.817 519.675 449.9 531.215C444.983 542.756 431.611 548.112 420.031 543.179C416.269 541.576 413.159 539.085 410.843 536.055C404.312 527.511 399.48 515.906 389.578 511.688L359.004 498.662C349.102 494.443 337.386 498.998 326.699 500.206C322.912 500.635 318.961 500.118 315.197 498.514C303.618 493.581 298.217 480.227 303.133 468.686C304.731 464.937 307.222 461.841 310.251 459.537C318.798 453.042 330.421 448.251 334.626 438.383L347.608 407.911C351.813 398.042 347.216 386.341 345.979 375.677C345.542 371.897 346.049 367.956 347.646 364.207C352.563 352.666 365.936 347.31 377.515 352.243C389.097 357.178 394.496 370.532 389.579 382.072Z" fill="#313131"/>
<path d="M-166.574 656.887C-162.814 658.489 -159.704 660.981 -157.386 664.01C-150.858 672.553 -146.026 684.158 -136.124 688.377L-99.8967 703.813C-93.3213 706.614 -85.8009 704.008 -79.1763 701.355C-72.5519 698.703 -65.3122 695.397 -62.5201 688.843L-47.1385 652.739C-42.9341 642.871 -47.5308 631.17 -48.7675 620.506C-49.2044 616.725 -48.6975 612.784 -47.1001 609.035C-42.1834 597.495 -28.8103 592.139 -17.2313 597.072C-5.65226 602.005 -0.250844 615.36 -5.16767 626.9C-6.76505 630.65 -9.25289 633.746 -12.285 636.049C-20.8324 642.544 -32.4525 647.337 -36.6569 657.205L-49.6391 687.677C-53.8434 697.545 -49.2497 709.245 -48.013 719.909C-47.5731 723.691 -48.0824 727.629 -49.6797 731.378C-54.5964 742.918 -67.9705 748.276 -79.5495 743.343C-83.31 741.741 -86.4201 739.249 -88.7341 736.221C-95.2657 727.677 -100.098 716.072 -109.999 711.853L-140.575 698.824C-150.477 694.606 -162.194 699.16 -172.877 700.37C-176.668 700.798 -180.619 700.28 -184.38 698.678C-195.959 693.745 -201.36 680.39 -196.443 668.85C-191.527 657.31 -178.153 651.953 -166.574 656.887Z" fill="#313131"/>
<path d="M228.172 412.058C231.933 413.66 235.043 416.152 237.36 419.182C243.889 427.725 248.721 439.33 258.622 443.548L294.85 458.985C301.425 461.786 308.946 459.18 315.57 456.527C322.195 453.874 329.434 450.568 332.227 444.015L347.608 407.911C351.813 398.042 347.216 386.341 345.979 375.677C345.542 371.897 346.049 367.956 347.646 364.207C352.563 352.666 365.936 347.31 377.515 352.243C389.094 357.177 394.496 370.531 389.579 382.072C387.982 385.821 385.494 388.918 382.462 391.22C373.914 397.716 362.294 402.508 358.09 412.377L345.108 442.849C340.903 452.717 345.497 464.417 346.734 475.081C347.174 478.862 346.664 482.801 345.067 486.55C340.15 498.09 326.776 503.448 315.197 498.514C311.437 496.912 308.327 494.421 306.012 491.392C299.481 482.848 294.649 471.243 284.747 467.025L254.171 453.996C244.269 449.777 232.553 454.332 221.869 455.541C218.079 455.969 214.127 455.452 210.367 453.85C198.788 448.917 193.387 435.562 198.303 424.021C203.22 412.481 216.593 407.125 228.172 412.058Z" fill="#313131"/>
<path d="M148.223 763.983C123.312 753.37 94.5148 764.961 83.9018 789.871C73.2888 814.782 84.8792 843.579 109.79 854.192C134.7 864.805 163.497 853.215 174.11 828.304C184.723 803.394 173.133 774.596 148.223 763.983Z" fill="#313131"/>
<path d="M128.597 315.968C103.686 305.355 74.8891 316.945 64.2761 341.855C53.6631 366.766 65.2534 395.563 90.1639 406.176C115.074 416.789 143.872 405.199 154.485 380.288C165.098 355.378 153.507 326.581 128.597 315.968Z" fill="#313131"/>
<path d="M1477.54 1052.29C1480.9 1053.72 1483.75 1055.84 1486.01 1058.42C1493.92 1067.44 1499.3 1080.63 1510.34 1085.34L1546.21 1100.62C1552.98 1103.5 1560.73 1100.82 1567.55 1098.09C1574.37 1095.36 1581.82 1091.95 1584.7 1085.2L1599.93 1049.46C1604.62 1038.45 1599.31 1025.23 1598.74 1013.27C1598.57 1009.86 1599.15 1006.36 1600.58 1003.01C1605.64 991.129 1619.42 985.613 1631.34 990.693C1643.27 995.774 1648.83 1009.53 1643.76 1021.41C1642.34 1024.76 1640.22 1027.6 1637.65 1029.85C1628.62 1037.71 1615.41 1043.05 1610.72 1054.06L1598.58 1082.56C1593.89 1093.57 1599.19 1106.79 1599.77 1118.75C1599.93 1122.16 1599.35 1125.66 1597.92 1129.01C1592.86 1140.89 1579.09 1146.41 1567.16 1141.33C1563.8 1139.9 1560.95 1137.78 1558.7 1135.21C1550.79 1126.18 1545.41 1112.99 1534.36 1108.28L1505.76 1096.1C1494.71 1091.39 1481.47 1096.65 1469.49 1097.2C1466.07 1097.35 1462.56 1096.76 1459.2 1095.33C1447.28 1090.25 1441.72 1076.5 1446.78 1064.61C1451.84 1052.73 1465.61 1047.21 1477.54 1052.29Z" fill="#313131"/>
<path d="M1360.2 866.567C1356.83 865.135 1353.98 863.019 1351.73 860.446C1343.82 851.42 1338.44 838.229 1327.39 833.522L1291.53 818.243C1284.76 815.358 1277.01 818.04 1270.19 820.775C1263.36 823.505 1255.91 826.91 1253.04 833.66L1237.81 869.402C1233.12 880.412 1238.42 893.634 1239 905.595C1239.16 909.003 1238.58 912.5 1237.15 915.848C1232.09 927.733 1218.32 933.249 1206.39 928.168C1194.47 923.087 1188.9 909.334 1193.97 897.449C1195.39 894.101 1197.51 891.259 1200.09 889.016C1209.11 881.147 1222.32 875.813 1227.01 864.803L1239.16 836.299C1243.85 825.29 1238.54 812.066 1237.97 800.107C1237.8 796.697 1238.38 793.202 1239.81 789.851C1244.87 777.969 1258.64 772.454 1270.57 777.534C1273.93 778.967 1276.78 781.083 1279.04 783.656C1286.95 792.682 1292.33 805.873 1303.37 810.579L1331.97 822.764C1343.02 827.471 1356.26 822.213 1368.25 821.663C1371.67 821.507 1375.17 822.099 1378.53 823.531C1390.45 828.611 1396.02 842.365 1390.96 854.247C1385.89 866.132 1372.12 871.647 1360.2 866.567Z" fill="#313131"/>
<path d="M1342.31 1065.55C1344.1 1061.37 1346.87 1057.91 1350.26 1055.35C1359.79 1048.1 1372.76 1042.75 1377.45 1031.74L1394.61 991.463C1397.72 984.152 1394.79 975.772 1391.8 968.393C1388.82 961.013 1385.1 952.946 1377.76 949.82L1337.35 932.602C1326.3 927.895 1313.23 932.977 1301.31 934.325C1297.08 934.802 1292.68 934.227 1288.48 932.438C1275.56 926.934 1269.53 912.035 1275.02 899.16C1280.5 886.284 1295.42 880.309 1308.34 885.813C1312.54 887.602 1316.01 890.38 1318.59 893.76C1325.88 903.292 1331.27 916.239 1342.32 920.946L1376.43 935.478C1387.47 940.185 1400.54 935.103 1412.47 933.756C1416.69 933.278 1421.1 933.854 1425.3 935.643C1438.22 941.146 1444.24 956.045 1438.76 968.921C1436.98 973.103 1434.2 976.557 1430.82 979.127C1421.28 986.374 1408.32 991.72 1403.63 1002.73L1389.14 1036.73C1384.45 1047.74 1389.58 1060.79 1390.96 1072.69C1391.44 1076.9 1390.88 1081.3 1389.1 1085.48C1383.61 1098.36 1368.69 1104.33 1355.77 1098.83C1342.86 1093.33 1336.83 1078.43 1342.31 1065.55Z" fill="#313131"/>
<path d="M1488.42 852.358C1486.64 856.54 1483.86 859.994 1480.48 862.564C1470.94 869.811 1457.98 875.157 1453.29 886.167L1436.13 926.447C1433.01 933.758 1435.94 942.136 1438.93 949.517C1441.92 956.897 1445.63 964.962 1452.97 968.089L1493.38 985.307C1504.43 990.014 1517.5 984.933 1529.43 983.585C1533.65 983.106 1538.06 983.683 1542.25 985.47C1555.18 990.975 1561.2 1005.87 1555.72 1018.75C1550.23 1031.63 1535.31 1037.6 1522.39 1032.1C1518.19 1030.31 1514.72 1027.53 1512.14 1024.15C1504.86 1014.62 1499.47 1001.67 1488.42 996.963L1454.31 982.43C1443.26 977.723 1430.19 982.805 1418.27 984.154C1414.04 984.631 1409.63 984.054 1405.44 982.267C1392.52 976.763 1386.49 961.864 1391.98 948.989C1393.76 944.806 1396.53 941.351 1399.92 938.782C1409.45 931.536 1422.42 926.189 1427.11 915.179L1441.59 881.183C1446.28 870.174 1441.16 857.12 1439.78 845.223C1439.29 841.004 1439.86 836.609 1441.64 832.426C1447.12 819.551 1462.04 813.576 1474.96 819.079C1487.88 824.583 1493.9 839.482 1488.42 852.358Z" fill="#313131"/>
<path d="M1308.34 885.813C1312.54 887.602 1316.01 890.38 1318.59 893.76C1325.88 903.292 1331.27 916.239 1342.32 920.946L1382.73 938.164C1390.07 941.289 1398.46 938.383 1405.85 935.423C1413.24 932.462 1421.32 928.774 1424.43 921.463L1441.59 881.183C1446.28 870.174 1441.16 857.12 1439.78 845.223C1439.29 841.004 1439.86 836.609 1441.64 832.426C1447.12 819.551 1462.04 813.576 1474.96 819.079C1487.88 824.583 1493.9 839.482 1488.42 852.358C1486.64 856.54 1483.86 859.994 1480.48 862.564C1470.94 869.811 1457.98 875.157 1453.29 886.167L1438.8 920.163C1434.11 931.173 1439.24 944.226 1440.62 956.123C1441.11 960.34 1440.54 964.738 1438.76 968.921C1433.27 981.796 1418.35 987.771 1405.44 982.267C1401.24 980.478 1397.77 977.7 1395.18 974.319C1387.9 964.787 1382.51 951.84 1371.46 947.134L1337.35 932.602C1326.3 927.895 1313.23 932.977 1301.31 934.325C1297.08 934.802 1292.68 934.227 1288.48 932.438C1275.56 926.934 1269.53 912.035 1275.02 899.16C1280.5 886.284 1295.42 880.309 1308.34 885.813Z" fill="#313131"/>
<path d="M1128.57 1197.44C1130.35 1193.26 1133.13 1189.81 1136.51 1187.23C1146.05 1179.99 1159.01 1174.64 1163.7 1163.63L1180.86 1123.35C1183.98 1116.04 1181.04 1107.66 1178.06 1100.28C1175.07 1092.9 1171.36 1084.84 1164.02 1081.71L1123.6 1064.49C1112.56 1059.79 1099.49 1064.87 1087.57 1066.22C1083.34 1066.69 1078.93 1066.12 1074.73 1064.33C1061.82 1058.82 1055.79 1043.93 1061.28 1031.05C1066.76 1018.18 1081.68 1012.2 1094.6 1017.7C1098.79 1019.49 1102.26 1022.27 1104.85 1025.65C1112.13 1035.18 1117.52 1048.13 1128.57 1052.84L1162.68 1067.37C1173.73 1072.08 1186.8 1066.99 1198.72 1065.65C1202.95 1065.17 1207.36 1065.74 1211.55 1067.53C1224.47 1073.04 1230.5 1087.94 1225.01 1100.81C1223.23 1104.99 1220.45 1108.45 1217.07 1111.02C1207.54 1118.26 1194.57 1123.61 1189.88 1134.62L1175.4 1168.62C1170.71 1179.63 1175.83 1192.68 1177.21 1204.58C1177.7 1208.79 1177.13 1213.19 1175.35 1217.37C1169.87 1230.25 1154.95 1236.22 1142.03 1230.72C1129.11 1225.22 1123.08 1210.32 1128.57 1197.44Z" fill="#313131"/>
<path d="M1568.97 924.298C1570.75 920.116 1573.53 916.662 1576.91 914.091C1586.45 906.845 1599.41 901.5 1604.1 890.49L1621.26 850.211C1624.38 842.899 1621.44 834.519 1618.46 827.139C1615.47 819.759 1611.76 811.694 1604.42 808.568L1564 791.348C1552.96 786.642 1539.89 791.723 1527.97 793.072C1523.74 793.55 1519.33 792.973 1515.13 791.185C1502.22 785.682 1496.19 770.782 1501.68 757.907C1507.16 745.032 1522.08 739.057 1535 744.56C1539.19 746.348 1542.66 749.128 1545.25 752.508C1552.53 762.039 1557.92 774.986 1568.97 779.692L1603.08 794.226C1614.13 798.932 1627.2 793.851 1639.12 792.503C1643.35 792.024 1647.76 792.601 1651.95 794.389C1664.87 799.892 1670.9 814.792 1665.41 827.667C1663.63 831.849 1660.85 835.305 1657.47 837.873C1647.94 845.12 1634.97 850.467 1630.28 861.476L1615.8 895.472C1611.11 906.482 1616.23 919.535 1617.61 931.432C1618.1 935.651 1617.53 940.047 1615.75 944.229C1610.27 957.105 1595.35 963.08 1582.43 957.576C1569.51 952.073 1563.48 937.173 1568.97 924.298Z" fill="#313131"/>
<path d="M1274.67 984.249C1272.89 988.432 1270.11 991.887 1266.73 994.456C1257.2 1001.7 1244.23 1007.05 1239.54 1018.06L1222.38 1058.34C1219.27 1065.65 1222.2 1074.03 1225.19 1081.41C1228.17 1088.79 1231.89 1096.86 1239.22 1099.98L1279.64 1117.2C1290.68 1121.91 1303.76 1116.82 1315.68 1115.48C1319.91 1115 1324.31 1115.58 1328.51 1117.36C1341.43 1122.87 1347.46 1137.77 1341.97 1150.64C1336.48 1163.52 1321.57 1169.49 1308.65 1163.99C1304.45 1162.2 1300.98 1159.42 1298.4 1156.04C1291.11 1146.51 1285.72 1133.56 1274.67 1128.86L1240.56 1114.32C1229.51 1109.62 1216.44 1114.7 1204.52 1116.05C1200.3 1116.52 1195.89 1115.95 1191.69 1114.16C1178.77 1108.66 1172.74 1093.76 1178.23 1080.88C1180.01 1076.7 1182.79 1073.24 1186.17 1070.67C1195.71 1063.43 1208.67 1058.08 1213.36 1047.07L1227.85 1013.08C1232.54 1002.07 1227.41 989.012 1226.03 977.115C1225.54 972.898 1226.11 968.501 1227.89 964.318C1233.38 951.443 1248.3 945.467 1261.21 950.971C1274.14 956.476 1280.16 971.374 1274.67 984.249Z" fill="#313131"/>
<path d="M1715.07 711.106C1713.29 715.289 1710.51 718.744 1707.13 721.313C1697.6 728.559 1684.63 733.906 1679.94 744.915L1662.78 785.195C1659.67 792.506 1662.6 800.886 1665.59 808.267C1668.57 815.645 1672.29 823.712 1679.62 826.837L1720.04 844.056C1731.08 848.762 1744.16 843.681 1756.08 842.333C1760.31 841.856 1764.71 842.432 1768.91 844.22C1781.83 849.724 1787.86 864.623 1782.37 877.498C1776.88 890.374 1761.97 896.349 1749.05 890.845C1744.85 889.057 1741.38 886.278 1738.8 882.898C1731.51 873.366 1726.12 860.419 1715.07 855.712L1680.96 841.18C1669.91 836.473 1656.84 841.555 1644.92 842.902C1640.7 843.381 1636.29 842.804 1632.09 841.015C1619.17 835.512 1613.14 820.613 1618.63 807.737C1620.41 803.555 1623.19 800.101 1626.57 797.531C1636.11 790.284 1649.07 784.939 1653.76 773.929L1668.25 739.933C1672.94 728.924 1667.81 715.869 1666.43 703.972C1665.94 699.754 1666.51 695.357 1668.29 691.175C1673.78 678.3 1688.7 672.324 1701.61 677.828C1714.54 683.333 1720.56 698.231 1715.07 711.106Z" fill="#313131"/>
<path d="M1094.6 1017.7C1098.79 1019.49 1102.26 1022.27 1104.85 1025.65C1112.13 1035.18 1117.52 1048.13 1128.57 1052.84L1168.99 1070.06C1176.32 1073.18 1184.71 1070.28 1192.1 1067.32C1199.5 1064.36 1207.57 1060.67 1210.69 1053.36L1227.85 1013.08C1232.54 1002.07 1227.41 989.012 1226.03 977.115C1225.54 972.898 1226.11 968.501 1227.89 964.318C1233.38 951.443 1248.3 945.467 1261.21 950.971C1274.13 956.475 1280.16 971.374 1274.67 984.249C1272.89 988.432 1270.11 991.887 1266.73 994.456C1257.2 1001.7 1244.23 1007.05 1239.54 1018.06L1225.06 1052.06C1220.37 1063.06 1225.49 1076.12 1226.87 1088.01C1227.36 1092.23 1226.79 1096.63 1225.01 1100.81C1219.53 1113.69 1204.61 1119.66 1191.69 1114.16C1187.49 1112.37 1184.02 1109.59 1181.44 1106.21C1174.15 1096.68 1168.76 1083.73 1157.72 1079.03L1123.6 1064.49C1112.56 1059.79 1099.49 1064.87 1087.57 1066.22C1083.34 1066.69 1078.93 1066.12 1074.73 1064.33C1061.82 1058.82 1055.79 1043.93 1061.28 1031.05C1066.76 1018.18 1081.68 1012.2 1094.6 1017.7Z" fill="#313131"/>
<path d="M1535 744.56C1539.19 746.348 1542.66 749.128 1545.25 752.508C1552.53 762.039 1557.92 774.986 1568.97 779.692L1609.39 796.914C1616.72 800.039 1625.11 797.132 1632.5 794.172C1639.9 791.212 1647.97 787.524 1651.09 780.213L1668.25 739.933C1672.94 728.924 1667.81 715.869 1666.43 703.972C1665.94 699.754 1666.51 695.357 1668.29 691.175C1673.78 678.3 1688.7 672.324 1701.61 677.828C1714.53 683.331 1720.56 698.231 1715.07 711.106C1713.29 715.289 1710.51 718.744 1707.13 721.313C1697.6 728.559 1684.63 733.906 1679.94 744.915L1665.46 778.912C1660.77 789.921 1665.89 802.974 1667.27 814.871C1667.76 819.091 1667.19 823.484 1665.41 827.667C1659.93 840.542 1645.01 846.519 1632.09 841.015C1627.89 839.228 1624.42 836.448 1621.84 833.07C1614.55 823.537 1609.16 810.59 1598.12 805.884L1564 791.348C1552.96 786.642 1539.89 791.723 1527.97 793.072C1523.74 793.55 1519.33 792.973 1515.13 791.185C1502.22 785.682 1496.19 770.782 1501.68 757.907C1507.16 745.032 1522.08 739.057 1535 744.56Z" fill="#313131"/>
<path d="M1445.8 1137.19C1418.01 1125.35 1385.88 1138.28 1374.04 1166.07C1362.2 1193.86 1375.13 1225.99 1402.92 1237.83C1430.72 1249.67 1462.84 1236.74 1474.68 1208.95C1486.52 1181.15 1473.59 1149.03 1445.8 1137.19Z" fill="#313131"/>
<path d="M1423.91 637.356C1396.12 625.516 1363.99 638.447 1352.15 666.238C1340.31 694.03 1353.24 726.158 1381.03 737.998C1408.82 749.838 1440.95 736.908 1452.79 709.116C1464.63 681.325 1451.7 649.197 1423.91 637.356Z" fill="#313131"/>
<path d="M1459.91 551.162C1463.27 552.593 1466.13 554.713 1468.38 557.285C1476.29 566.309 1481.67 579.5 1492.72 584.207L1528.58 599.486C1535.35 602.371 1543.1 599.688 1549.92 596.956C1556.74 594.224 1564.2 590.819 1567.07 584.07L1582.3 548.327C1586.99 537.318 1581.69 524.096 1581.11 512.135C1580.95 508.726 1581.53 505.229 1582.95 501.882C1588.02 489.997 1601.79 484.481 1613.71 489.562C1625.64 494.642 1631.2 508.395 1626.14 520.28C1624.71 523.628 1622.6 526.471 1620.02 528.713C1611 536.582 1597.79 541.917 1593.1 552.927L1580.95 581.431C1576.26 592.44 1581.56 605.662 1582.14 617.623C1582.31 621.032 1581.72 624.528 1580.3 627.876C1575.23 639.761 1561.46 645.277 1549.54 640.196C1546.18 638.765 1543.32 636.646 1541.07 634.074C1533.16 625.049 1527.78 611.858 1516.73 607.151L1488.13 594.966C1477.09 590.26 1463.85 595.518 1451.86 596.066C1448.44 596.222 1444.94 595.631 1441.58 594.2C1429.65 589.12 1424.09 575.367 1429.15 563.482C1434.22 551.597 1447.99 546.081 1459.91 551.162Z" fill="#313131"/>
<path d="M1342.57 365.436C1339.21 364.003 1336.35 361.887 1334.1 359.314C1326.19 350.288 1320.81 337.097 1309.76 332.391L1273.9 317.111C1267.13 314.226 1259.38 316.909 1252.56 319.643C1245.74 322.373 1238.28 325.779 1235.41 332.528L1220.18 368.27C1215.49 379.28 1220.79 392.502 1221.37 404.463C1221.54 407.871 1220.95 411.368 1219.53 414.716C1214.46 426.601 1200.69 432.117 1188.77 427.036C1176.84 421.955 1171.28 408.202 1176.34 396.317C1177.77 392.969 1179.89 390.127 1182.46 387.884C1191.48 380.015 1204.7 374.681 1209.39 363.671L1221.53 335.168C1226.22 324.158 1220.92 310.934 1220.34 298.975C1220.17 295.565 1220.76 292.07 1222.18 288.72C1227.25 276.838 1241.02 271.322 1252.94 276.403C1256.3 277.835 1259.16 279.951 1261.41 282.524C1269.32 291.55 1274.7 304.741 1285.75 309.448L1314.35 321.633C1325.39 326.339 1338.64 321.082 1350.62 320.532C1354.04 320.375 1357.54 320.967 1360.9 322.4C1372.83 327.479 1378.39 341.234 1373.33 353.115C1368.27 365.001 1354.49 370.515 1342.57 365.436Z" fill="#313131"/>
<path d="M1324.69 564.42C1326.47 560.237 1329.25 556.782 1332.63 554.214C1342.17 546.967 1355.13 541.621 1359.82 530.611L1376.98 490.331C1380.1 483.02 1377.16 474.64 1374.18 467.261C1371.19 459.881 1367.47 451.814 1360.14 448.689L1319.72 431.47C1308.68 426.764 1295.61 431.845 1283.68 433.193C1279.45 433.67 1275.05 433.095 1270.85 431.306C1257.93 425.802 1251.91 410.903 1257.39 398.028C1262.88 385.153 1277.8 379.177 1290.71 384.681C1294.91 386.47 1298.38 389.248 1300.97 392.629C1308.25 402.16 1313.64 415.108 1324.69 419.814L1358.8 434.346C1369.85 439.053 1382.92 433.972 1394.84 432.624C1399.07 432.146 1403.47 432.722 1407.67 434.511C1420.59 440.015 1426.62 454.914 1421.13 467.789C1419.35 471.972 1416.57 475.425 1413.19 477.995C1403.66 485.242 1390.69 490.588 1386 501.598L1371.52 535.594C1366.83 546.604 1371.95 559.657 1373.33 571.555C1373.82 575.772 1373.25 580.169 1371.47 584.351C1365.99 597.227 1351.07 603.202 1338.15 597.698C1325.23 592.194 1319.2 577.295 1324.69 564.42Z" fill="#313131"/>
<path d="M1470.79 351.226C1469.01 355.408 1466.23 358.862 1462.85 361.432C1453.32 368.679 1440.35 374.025 1435.66 385.035L1418.5 425.315C1415.39 432.626 1418.32 441.005 1421.3 448.385C1424.29 455.765 1428 463.83 1435.34 466.957L1475.76 484.176C1486.81 488.882 1499.88 483.801 1511.8 482.453C1516.02 481.974 1520.43 482.551 1524.63 484.338C1537.55 489.844 1543.58 504.743 1538.09 517.618C1532.61 530.493 1517.69 536.469 1504.76 530.963C1500.57 529.176 1497.1 526.396 1494.52 523.017C1487.23 513.486 1481.84 500.538 1470.79 495.832L1436.68 481.298C1425.63 476.592 1412.56 481.673 1400.64 483.022C1396.41 483.5 1392 482.922 1387.81 481.135C1374.89 475.631 1368.86 460.732 1374.35 447.857C1376.13 443.674 1378.91 440.219 1382.29 437.651C1391.83 430.404 1404.79 425.057 1409.48 414.048L1423.97 380.052C1428.66 369.042 1423.53 355.989 1422.15 344.091C1421.66 339.873 1422.23 335.477 1424.01 331.294C1429.5 318.419 1444.42 312.444 1457.33 317.948C1470.25 323.451 1476.28 338.35 1470.79 351.226Z" fill="#313131"/>
<path d="M1290.71 384.681C1294.91 386.47 1298.38 389.248 1300.97 392.629C1308.25 402.16 1313.64 415.108 1324.69 419.814L1365.1 437.032C1372.44 440.157 1380.83 437.251 1388.22 434.292C1395.61 431.33 1403.69 427.642 1406.8 420.331L1423.97 380.052C1428.66 369.042 1423.53 355.989 1422.15 344.091C1421.66 339.873 1422.23 335.477 1424.01 331.294C1429.5 318.419 1444.42 312.444 1457.33 317.948C1470.25 323.451 1476.28 338.35 1470.79 351.226C1469.01 355.408 1466.23 358.862 1462.85 361.432C1453.32 368.679 1440.35 374.025 1435.66 385.035L1421.18 419.031C1416.49 430.041 1421.61 443.094 1422.99 454.991C1423.48 459.208 1422.91 463.606 1421.13 467.789C1415.65 480.664 1400.73 486.639 1387.81 481.135C1383.61 479.346 1380.14 476.568 1377.56 473.187C1370.27 463.656 1364.88 450.708 1353.83 446.002L1319.72 431.47C1308.68 426.764 1295.61 431.845 1283.68 433.193C1279.45 433.67 1275.05 433.095 1270.85 431.306C1257.93 425.802 1251.91 410.903 1257.39 398.028C1262.88 385.153 1277.8 379.177 1290.71 384.681Z" fill="#313131"/>
<path d="M1110.94 696.31C1112.73 692.127 1115.5 688.673 1118.88 686.103C1128.42 678.857 1141.39 673.512 1146.08 662.502L1163.24 622.222C1166.35 614.911 1163.42 606.531 1160.43 599.151C1157.45 591.77 1153.73 583.705 1146.4 580.58L1105.98 563.36C1094.93 558.653 1081.86 563.735 1069.94 565.084C1065.71 565.561 1061.3 564.984 1057.11 563.197C1044.19 557.693 1038.16 542.794 1043.65 529.919C1049.13 517.044 1064.05 511.068 1076.97 516.572C1081.17 518.359 1084.64 521.139 1087.22 524.519C1094.51 534.05 1099.9 546.997 1110.94 551.704L1145.06 566.237C1156.1 570.944 1169.18 565.863 1181.1 564.515C1185.32 564.036 1189.73 564.613 1193.93 566.4C1206.85 571.904 1212.87 586.803 1207.39 599.678C1205.6 603.861 1202.83 607.316 1199.45 609.885C1189.91 617.132 1176.95 622.478 1172.26 633.488L1157.77 667.484C1153.08 678.494 1158.21 691.547 1159.59 703.444C1160.08 707.663 1159.51 712.058 1157.73 716.241C1152.24 729.116 1137.32 735.092 1124.4 729.588C1111.48 724.084 1105.46 709.185 1110.94 696.31Z" fill="#313131"/>
<path d="M1551.34 423.166C1553.13 418.984 1555.9 415.53 1559.28 412.96C1568.82 405.713 1581.79 400.368 1586.48 389.358L1603.64 349.079C1606.75 341.767 1603.82 333.387 1600.83 326.007C1597.85 318.627 1594.13 310.562 1586.8 307.436L1546.38 290.216C1535.33 285.51 1522.26 290.591 1510.34 291.94C1506.11 292.418 1501.7 291.841 1497.51 290.053C1484.59 284.55 1478.56 269.651 1484.05 256.775C1489.53 243.9 1504.45 237.925 1517.37 243.428C1521.57 245.216 1525.04 247.996 1527.62 251.376C1534.91 260.907 1540.3 273.854 1551.34 278.56L1585.46 293.094C1596.5 297.801 1609.58 292.719 1621.5 291.371C1625.72 290.893 1630.13 291.469 1634.33 293.257C1647.25 298.76 1653.27 313.66 1647.79 326.535C1646 330.717 1643.23 334.173 1639.85 336.742C1630.31 343.988 1617.35 349.335 1612.66 360.344L1598.17 394.341C1593.48 405.35 1598.61 418.404 1599.99 430.301C1600.48 434.52 1599.91 438.915 1598.13 443.098C1592.64 455.973 1577.72 461.948 1564.8 456.445C1551.88 450.941 1545.86 436.042 1551.34 423.166Z" fill="#313131"/>
<path d="M1257.05 483.118C1255.26 487.3 1252.49 490.756 1249.11 493.324C1239.57 500.571 1226.61 505.917 1221.92 516.927L1204.75 557.206C1201.64 564.518 1204.57 572.898 1207.56 580.278C1210.54 587.657 1214.26 595.723 1221.6 598.849L1262.01 616.067C1273.06 620.774 1286.13 615.692 1298.05 614.345C1302.28 613.867 1306.69 614.444 1310.88 616.232C1323.8 621.736 1329.83 636.635 1324.34 649.51C1318.86 662.385 1303.94 668.361 1291.02 662.857C1286.82 661.069 1283.35 658.289 1280.77 654.909C1273.48 645.377 1268.09 632.43 1257.05 627.724L1222.94 613.192C1211.89 608.485 1198.82 613.566 1186.89 614.914C1182.67 615.393 1178.26 614.816 1174.06 613.027C1161.14 607.523 1155.12 592.624 1160.6 579.749C1162.39 575.566 1165.16 572.112 1168.54 569.542C1178.08 562.296 1191.05 556.951 1195.74 545.941L1210.22 511.945C1214.91 500.935 1209.78 487.881 1208.4 475.983C1207.92 471.766 1208.48 467.369 1210.26 463.186C1215.75 450.311 1230.67 444.336 1243.59 449.839C1256.51 455.345 1262.53 470.243 1257.05 483.118Z" fill="#313131"/>
<path d="M1697.45 209.974C1695.66 214.157 1692.89 217.612 1689.51 220.181C1679.97 227.427 1667.01 232.774 1662.32 243.784L1645.15 284.063C1642.04 291.374 1644.97 299.754 1647.96 307.135C1650.94 314.513 1654.66 322.58 1662 325.705L1702.41 342.924C1713.46 347.63 1726.53 342.549 1738.45 341.201C1742.68 340.724 1747.09 341.3 1751.28 343.088C1764.2 348.592 1770.23 363.491 1764.74 376.367C1759.26 389.242 1744.34 395.217 1731.42 389.713C1727.22 387.925 1723.75 385.146 1721.17 381.766C1713.88 372.234 1708.49 359.287 1697.45 354.58L1663.34 340.048C1652.29 335.342 1639.22 340.423 1627.29 341.771C1623.07 342.25 1618.66 341.672 1614.46 339.884C1601.54 334.38 1595.52 319.481 1601 306.605C1602.79 302.423 1605.56 298.969 1608.94 296.399C1618.48 289.152 1631.45 283.807 1636.14 272.798L1650.62 238.802C1655.31 227.792 1650.18 214.737 1648.8 202.84C1648.32 198.622 1648.88 194.226 1650.66 190.043C1656.15 177.168 1671.07 171.192 1683.99 176.696C1696.91 182.201 1702.93 197.099 1697.45 209.974Z" fill="#313131"/>
<path d="M1076.97 516.572C1081.17 518.359 1084.64 521.139 1087.22 524.519C1094.51 534.05 1099.9 546.997 1110.94 551.704L1151.36 568.925C1158.7 572.051 1167.09 569.143 1174.48 566.183C1181.87 563.224 1189.95 559.536 1193.06 552.224L1210.22 511.945C1214.91 500.935 1209.78 487.881 1208.4 475.983C1207.92 471.766 1208.48 467.369 1210.26 463.186C1215.75 450.311 1230.67 444.336 1243.59 449.839C1256.51 455.343 1262.53 470.242 1257.05 483.118C1255.26 487.3 1252.49 490.756 1249.11 493.324C1239.57 500.571 1226.61 505.917 1221.92 516.927L1207.43 550.923C1202.74 561.933 1207.87 574.986 1209.25 586.883C1209.74 591.102 1209.17 595.496 1207.39 599.678C1201.9 612.553 1186.98 618.531 1174.06 613.027C1169.87 611.24 1166.4 608.46 1163.82 605.081C1156.53 595.549 1151.14 582.602 1140.09 577.895L1105.98 563.36C1094.93 558.653 1081.86 563.735 1069.94 565.084C1065.71 565.561 1061.3 564.984 1057.11 563.197C1044.19 557.693 1038.16 542.794 1043.65 529.919C1049.13 517.044 1064.05 511.068 1076.97 516.572Z" fill="#313131"/>
<path d="M1517.37 243.428C1521.57 245.216 1525.04 247.996 1527.62 251.376C1534.91 260.907 1540.3 273.854 1551.34 278.56L1591.76 295.782C1599.1 298.907 1607.49 296 1614.88 293.04C1622.27 290.081 1630.35 286.392 1633.46 279.081L1650.62 238.802C1655.31 227.792 1650.18 214.737 1648.8 202.84C1648.32 198.622 1648.88 194.226 1650.66 190.043C1656.15 177.168 1671.07 171.192 1683.99 176.696C1696.91 182.2 1702.93 197.099 1697.45 209.974C1695.66 214.157 1692.89 217.612 1689.51 220.181C1679.97 227.427 1667.01 232.774 1662.32 243.784L1647.83 277.78C1643.14 288.789 1648.27 301.842 1649.65 313.74C1650.14 317.959 1649.57 322.352 1647.79 326.535C1642.3 339.41 1627.38 345.387 1614.46 339.884C1610.27 338.096 1606.8 335.316 1604.22 331.938C1596.93 322.406 1591.54 309.458 1580.49 304.752L1546.38 290.216C1535.33 285.51 1522.26 290.591 1510.34 291.94C1506.11 292.418 1501.7 291.841 1497.51 290.053C1484.59 284.55 1478.56 269.651 1484.05 256.775C1489.53 243.9 1504.45 237.925 1517.37 243.428Z" fill="#313131"/>
<path d="M1345.77 148.246C1317.98 136.406 1285.85 149.337 1274.01 177.128C1262.17 204.92 1275.1 237.047 1302.89 248.888C1330.68 260.728 1362.81 247.797 1374.65 220.006C1386.49 192.215 1373.56 160.087 1345.77 148.246Z" fill="#313131"/>
<path d="M1656.23 306.68C1908.89 577.869 1915.6 1187.44 1596.17 1353C1473.59 1416.39 1364.1 1386.38 1252.97 1356.13C1132.96 1323.52 1011.13 1290.5 868.757 1375.51C515.003 1586.29 268.412 1413.83 103.739 1112.19C-19.825 885.858 -83.6678 740.522 -141.749 566.736C-232.241 296.099 -121.761 258.646 -0.245023 250.578C121.271 242.509 325.086 403.57 830.182 205.103C1335.28 6.63473 1518.88 159.258 1656.23 306.68Z" fill="url(#paint0_linear)" fill-opacity="0.2"/>
<defs>
<linearGradient id="paint0_linear" x1="1403" y1="1369.65" x2="295.817" y2="67.2911" gradientUnits="userSpaceOnUse">
<stop stop-color="#0FBDE9"/>
<stop offset="0.0001" stop-color="#0FBDE9"/>
<stop offset="0.864583" stop-color="#5C34FA"/>
</linearGradient>
</defs>
</svg>
