<svg width="1440" height="1876" viewBox="0 0 1440 1876" fill="none" xmlns="http://www.w3.org/2000/svg">
<path d="M868.365 431.166C864.466 429.186 861.226 426.423 858.739 423.168C850.014 411.748 844.647 395.553 831.825 389.04L790.199 367.896C782.339 363.904 772.867 366.487 764.496 369.203C756.124 371.919 746.942 375.388 742.963 383.221L721.891 424.707C715.4 437.485 720.673 453.711 720.402 468.051C720.325 472.138 719.346 476.269 717.373 480.154C710.366 493.949 693.465 499.432 679.624 492.402C665.783 485.371 660.243 468.489 667.25 454.695C669.223 450.809 671.982 447.583 675.237 445.11C686.657 436.433 702.87 431.121 709.361 418.342L726.165 385.258C732.656 372.48 727.383 356.254 727.655 341.914C727.732 337.827 728.71 333.697 730.684 329.811C737.691 316.016 754.591 310.533 768.432 317.564C772.331 319.544 775.572 322.307 778.059 325.561C786.783 336.982 792.151 353.177 804.973 359.69L838.168 376.552C850.99 383.064 867.234 377.847 881.603 378.156C885.698 378.244 889.84 379.232 893.739 381.213C907.58 388.243 913.121 405.125 906.114 418.919C899.107 432.714 882.206 438.196 868.365 431.166Z" fill="#313131"/>
<path d="M996.153 718.596C1000.06 720.578 1003.3 723.336 1005.78 726.592C1014.51 738.014 1019.87 754.209 1032.7 760.722L1074.32 781.866C1082.18 785.858 1091.65 783.276 1100.02 780.557C1108.4 777.844 1117.58 774.374 1121.56 766.54L1142.63 725.055C1149.12 712.277 1143.85 696.05 1144.12 681.711C1144.2 677.625 1145.17 673.493 1147.15 669.607C1154.16 655.813 1171.06 650.33 1184.9 657.36C1198.74 664.391 1204.28 681.273 1197.27 695.067C1195.3 698.953 1192.54 702.18 1189.28 704.653C1177.87 713.329 1161.65 718.641 1155.16 731.419L1138.35 764.502C1131.86 777.281 1137.14 793.51 1136.87 807.847C1136.79 811.935 1135.81 816.064 1133.84 819.953C1126.83 833.744 1109.93 839.227 1096.09 832.197C1092.19 830.215 1088.95 827.457 1086.46 824.2C1077.74 812.779 1072.37 796.583 1059.55 790.07L1026.35 773.209C1013.53 766.696 997.286 771.913 982.918 771.606C978.821 771.518 974.683 770.528 970.781 768.546C956.943 761.518 951.399 744.634 958.404 730.843C965.411 717.048 982.316 711.567 996.153 718.596Z" fill="#313131"/>
<path d="M1031.02 426.202C1028.55 431.057 1024.96 434.963 1020.71 437.76C1008.73 445.652 992.81 450.998 986.319 463.776L962.572 510.528C958.262 519.014 961.095 529.264 964.065 538.321C967.038 547.38 970.833 557.319 979.347 561.644L1026.26 585.47C1039.08 591.983 1055.11 586.963 1069.46 586.311C1074.55 586.081 1079.77 587.123 1084.64 589.599C1099.64 597.215 1105.64 615.504 1098.05 630.447C1090.46 645.391 1072.15 651.331 1057.16 643.715C1052.28 641.24 1048.36 637.641 1045.55 633.393C1037.61 621.417 1032.21 605.512 1019.38 598.999L979.794 578.89C966.972 572.377 950.943 577.397 936.588 578.048C931.496 578.279 926.279 577.237 921.405 574.761C906.412 567.145 900.409 548.857 908 533.913C910.466 529.058 914.065 525.154 918.31 522.355C930.288 514.463 946.209 509.117 952.7 496.339L972.743 456.88C979.233 444.102 974.16 428.091 973.468 413.764C973.225 408.685 974.254 403.476 976.72 398.622C984.311 383.678 1002.62 377.738 1017.61 385.354C1032.61 392.97 1038.61 411.258 1031.02 426.202Z" fill="#313131"/>
<path d="M839.279 669.204C841.745 664.35 845.344 660.446 849.588 657.647C861.566 649.755 877.488 644.409 883.979 631.63L907.726 584.879C912.036 576.393 909.207 566.145 906.233 557.086C903.26 548.027 899.469 538.09 890.95 533.763L844.042 509.936C831.22 503.424 815.191 508.444 800.836 509.096C795.749 509.328 790.527 508.284 785.658 505.81C770.66 498.192 764.658 479.903 772.248 464.96C779.839 450.016 798.148 444.076 813.146 451.694C818.015 454.167 821.938 457.768 824.751 462.013C832.692 473.99 838.092 489.895 850.914 496.408L890.508 516.519C903.33 523.032 919.359 518.012 933.71 517.358C938.801 517.128 944.023 518.172 948.893 520.646C963.886 528.262 969.889 546.55 962.298 561.494C959.832 566.349 956.237 570.255 951.988 573.052C940.01 580.944 924.089 586.289 917.598 599.068L897.555 638.527C891.064 651.305 896.138 667.316 896.83 681.643C897.077 686.724 896.043 691.931 893.578 696.785C885.987 711.729 867.678 717.669 852.684 710.053C837.69 702.437 831.688 684.148 839.279 669.204Z" fill="#313131"/>
<path d="M1057.16 643.715C1052.28 641.24 1048.36 637.641 1045.55 633.393C1037.61 621.417 1032.21 605.512 1019.38 598.999L972.475 575.174C963.96 570.849 953.697 573.646 944.627 576.588C935.562 579.532 925.613 583.289 921.303 591.776L897.555 638.527C891.064 651.305 896.138 667.316 896.83 681.643C897.077 686.724 896.043 691.931 893.578 696.785C885.987 711.729 867.678 717.669 852.684 710.053C837.69 702.437 831.688 684.148 839.279 669.204C841.745 664.35 845.344 660.446 849.588 657.647C861.566 649.755 877.488 644.409 883.979 631.63L904.022 592.172C910.513 579.393 905.439 563.383 904.747 549.056C904.504 543.977 905.534 538.767 908 533.913C915.591 518.969 933.899 513.03 948.893 520.646C953.766 523.121 957.685 526.72 960.502 530.967C968.443 542.944 973.843 558.849 986.665 565.362L1026.26 585.47C1039.08 591.983 1055.11 586.963 1069.46 586.311C1074.55 586.081 1079.77 587.123 1084.64 589.599C1099.64 597.215 1105.64 615.504 1098.05 630.447C1090.46 645.391 1072.15 651.331 1057.16 643.715Z" fill="#313131"/>
<path d="M1297.05 285.797C1294.58 290.652 1290.98 294.556 1286.74 297.355C1274.76 305.247 1258.83 310.59 1252.34 323.369L1228.59 370.121C1224.28 378.607 1227.12 388.857 1230.09 397.916C1233.06 406.975 1236.86 416.912 1245.37 421.236L1292.28 445.065C1305.1 451.578 1321.13 446.558 1335.48 445.905C1340.58 445.674 1345.8 446.718 1350.67 449.192C1365.66 456.808 1371.66 475.096 1364.07 490.04C1356.48 504.984 1338.17 510.924 1323.18 503.308C1318.31 500.835 1314.39 497.234 1311.57 492.987C1303.63 481.012 1298.23 465.107 1285.41 458.594L1245.82 438.483C1232.99 431.97 1216.97 436.99 1202.61 437.642C1197.52 437.874 1192.3 436.83 1187.43 434.356C1172.44 426.74 1166.44 408.452 1174.03 393.508C1176.49 388.653 1180.09 384.748 1184.34 381.95C1196.31 374.058 1212.24 368.712 1218.73 355.934L1238.77 316.475C1245.26 303.696 1240.19 287.686 1239.49 273.359C1239.25 268.278 1240.28 263.071 1242.75 258.217C1250.34 243.273 1268.65 237.333 1283.64 244.949C1298.63 252.565 1304.64 270.853 1297.05 285.797Z" fill="#313131"/>
<path d="M748.814 576.759C746.348 581.613 742.749 585.517 738.504 588.316C726.526 596.208 710.601 601.552 704.11 614.33L680.363 661.082C676.052 669.568 678.886 679.818 681.859 688.877C684.833 697.937 688.623 707.873 697.138 712.198L744.05 736.027C756.872 742.539 772.901 737.519 787.252 736.866C792.343 736.635 797.565 737.68 802.435 740.153C817.428 747.769 823.431 766.058 815.84 781.002C808.249 795.945 789.94 801.885 774.946 794.269C770.077 791.796 766.154 788.195 763.337 783.948C755.4 771.973 750 756.068 737.178 749.555L697.584 729.444C684.762 722.931 668.733 727.951 654.378 728.603C649.291 728.835 644.069 727.791 639.2 725.318C624.206 717.702 618.204 699.413 625.794 684.469C628.26 679.614 631.855 675.709 636.104 672.911C648.082 665.019 664.003 659.673 670.494 646.895L690.537 607.436C697.028 594.658 691.954 578.647 691.262 564.32C691.015 559.239 692.049 554.033 694.515 549.178C702.106 534.234 720.415 528.294 735.408 535.91C750.402 543.526 756.404 561.815 748.814 576.759Z" fill="#313131"/>
<path d="M1105.31 528.797C1107.77 523.942 1111.37 520.037 1115.62 517.239C1127.59 509.347 1143.52 504.001 1150.01 491.223L1173.75 444.472C1178.06 435.985 1175.23 425.736 1172.26 416.676C1169.29 407.619 1165.49 397.681 1156.98 393.356L1110.07 369.529C1097.25 363.016 1081.22 368.037 1066.86 368.688C1061.77 368.918 1056.55 367.875 1051.68 365.401C1036.69 357.784 1030.69 339.496 1038.28 324.552C1045.87 309.608 1064.18 303.668 1079.17 311.284C1084.04 313.759 1087.96 317.359 1090.78 321.606C1098.72 333.582 1104.12 349.487 1116.94 356L1156.53 376.109C1169.35 382.622 1185.38 377.602 1199.74 376.951C1204.83 376.718 1210.05 377.762 1214.92 380.238C1229.91 387.854 1235.92 406.143 1228.33 421.087C1225.86 425.941 1222.26 429.845 1218.02 432.644C1206.04 440.536 1190.11 445.88 1183.62 458.658L1163.58 498.117C1157.09 510.896 1162.17 526.908 1162.86 541.235C1163.1 546.315 1162.07 551.523 1159.61 556.378C1152.02 571.321 1133.71 577.262 1118.71 569.646C1103.71 562.028 1097.72 543.741 1105.31 528.797Z" fill="#313131"/>
<path d="M557.075 819.758C559.542 814.903 563.136 810.998 567.385 808.201C579.363 800.308 595.285 794.963 601.775 782.184L625.522 735.433C629.833 726.947 626.999 716.697 624.026 707.637C621.056 698.58 617.262 688.642 608.747 684.317L561.839 660.49C549.017 653.977 532.988 658.998 518.633 659.649C513.543 659.88 508.322 658.836 503.451 656.362C488.456 648.746 482.454 630.457 490.045 615.513C497.636 600.569 515.944 594.629 530.939 602.246C535.81 604.72 539.732 608.32 542.548 612.567C550.489 624.543 555.889 640.448 568.711 646.961L608.301 667.071C621.123 673.583 637.152 668.563 651.507 667.912C656.594 667.679 661.816 668.724 666.689 671.199C681.683 678.815 687.685 697.104 680.095 712.048C677.629 716.902 674.03 720.806 669.785 723.605C657.807 731.497 641.882 736.841 635.391 749.62L615.348 789.078C608.857 801.857 613.935 817.869 614.627 832.197C614.87 837.276 613.84 842.484 611.374 847.339C603.784 862.283 585.475 868.223 570.481 860.607C555.483 852.989 549.485 834.702 557.075 819.758Z" fill="#313131"/>
<path d="M1323.18 503.308C1318.31 500.835 1314.39 497.234 1311.57 492.987C1303.63 481.012 1298.23 465.107 1285.41 458.594L1238.5 434.763C1229.98 430.439 1219.72 433.238 1210.65 436.18C1201.59 439.122 1191.64 442.879 1187.33 451.366L1163.58 498.117C1157.09 510.896 1162.17 526.908 1162.86 541.235C1163.1 546.315 1162.07 551.523 1159.61 556.378C1152.02 571.321 1133.71 577.262 1118.71 569.646C1103.72 562.03 1097.72 543.741 1105.31 528.797C1107.77 523.942 1111.37 520.037 1115.62 517.239C1127.59 509.347 1143.52 504.001 1150.01 491.223L1170.05 451.764C1176.54 438.986 1171.47 422.976 1170.77 408.648C1170.53 403.567 1171.56 398.363 1174.03 393.508C1181.62 378.564 1199.93 372.622 1214.92 380.238C1219.79 382.711 1223.71 386.312 1226.53 390.557C1234.47 402.534 1239.87 418.439 1252.69 424.952L1292.28 445.065C1305.1 451.578 1321.13 446.558 1335.48 445.905C1340.58 445.674 1345.8 446.718 1350.67 449.192C1365.66 456.808 1371.66 475.096 1364.07 490.04C1356.48 504.984 1338.17 510.924 1323.18 503.308Z" fill="#313131"/>
<path d="M774.946 794.269C770.077 791.796 766.154 788.195 763.337 783.948C755.4 771.973 750 756.068 737.178 749.555L690.267 725.725C681.752 721.4 671.493 724.199 662.423 727.141C653.354 730.083 643.405 733.84 639.095 742.327L615.348 789.078C608.857 801.857 613.935 817.869 614.627 832.197C614.87 837.276 613.84 842.484 611.374 847.339C603.784 862.283 585.475 868.223 570.481 860.607C555.487 852.991 549.485 834.702 557.075 819.758C559.542 814.903 563.136 810.998 567.385 808.201C579.363 800.308 595.285 794.963 601.775 782.184L621.818 742.725C628.308 729.947 623.235 713.937 622.543 699.609C622.296 694.528 623.329 689.324 625.794 684.469C633.385 669.526 651.696 663.583 666.689 671.199C671.559 673.673 675.481 677.274 678.294 681.519C686.235 693.495 691.635 709.4 704.457 715.913L744.05 736.027C756.872 742.539 772.901 737.519 787.252 736.866C792.343 736.635 797.565 737.68 802.435 740.153C817.428 747.769 823.431 766.058 815.84 781.002C808.249 795.945 789.94 801.885 774.946 794.269Z" fill="#313131"/>
<path d="M913.119 332.277C945.376 348.661 984.808 335.794 1001.19 303.538C1017.58 271.281 1004.71 231.849 972.453 215.465C940.197 199.08 900.765 211.947 884.38 244.204C867.996 276.46 880.863 315.892 913.119 332.277Z" fill="#313131"/>
<path d="M899.07 931.31C931.327 947.695 970.759 934.828 987.143 902.571C1003.53 870.315 990.661 830.883 958.404 814.499C926.147 798.114 886.716 810.981 870.331 843.237C853.947 875.494 866.814 914.926 899.07 931.31Z" fill="#313131"/>
<path d="M854.317 1030.2C850.417 1028.22 847.177 1025.46 844.69 1022.2C835.965 1010.78 830.598 994.587 817.776 988.074L776.15 966.93C768.29 962.938 758.818 965.521 750.447 968.237C742.075 970.953 732.893 974.422 728.915 982.256L707.842 1023.74C701.351 1036.52 706.624 1052.75 706.353 1067.08C706.276 1071.17 705.297 1075.3 703.324 1079.19C696.317 1092.98 679.417 1098.47 665.575 1091.44C651.735 1084.41 646.194 1067.52 653.201 1053.73C655.175 1049.84 657.934 1046.62 661.188 1044.14C672.608 1035.47 688.821 1030.15 695.312 1017.38L712.116 984.293C718.607 971.514 713.334 955.288 713.606 940.949C713.683 936.862 714.661 932.731 716.635 928.845C723.642 915.05 740.543 909.567 754.383 916.598C758.283 918.578 761.523 921.341 764.01 924.595C772.735 936.016 778.102 952.212 790.924 958.724L824.119 975.586C836.941 982.099 853.185 976.881 867.554 977.19C871.649 977.279 875.791 978.266 879.69 980.247C893.531 987.277 899.072 1004.16 892.065 1017.95C885.058 1031.75 868.157 1037.23 854.317 1030.2Z" fill="#313131"/>
<path d="M1016.97 1025.24C1014.5 1030.09 1010.91 1034 1006.66 1036.79C994.683 1044.69 978.761 1050.03 972.27 1062.81L948.523 1109.56C944.213 1118.05 947.046 1128.3 950.016 1137.36C952.989 1146.41 956.784 1156.35 965.298 1160.68L1012.21 1184.5C1025.03 1191.02 1041.06 1186 1055.41 1185.35C1060.5 1185.12 1065.72 1186.16 1070.6 1188.63C1085.59 1196.25 1091.59 1214.54 1084 1229.48C1076.41 1244.43 1058.1 1250.37 1043.11 1242.75C1038.23 1240.27 1034.31 1236.67 1031.5 1232.43C1023.56 1220.45 1018.16 1204.55 1005.33 1198.03L965.745 1177.92C952.923 1171.41 936.894 1176.43 922.539 1177.08C917.448 1177.31 912.23 1176.27 907.356 1173.8C892.363 1166.18 886.36 1147.89 893.951 1132.95C896.417 1128.09 900.016 1124.19 904.261 1121.39C916.239 1113.5 932.16 1108.15 938.651 1095.37L958.694 1055.91C965.185 1043.14 960.111 1027.13 959.419 1012.8C959.176 1007.72 960.206 1002.51 962.671 997.656C970.262 982.712 988.571 976.772 1003.56 984.388C1018.56 992.004 1024.56 1010.29 1016.97 1025.24Z" fill="#313131"/>
<path d="M825.23 1268.24C827.696 1263.38 831.295 1259.48 835.54 1256.68C847.517 1248.79 863.439 1243.44 869.93 1230.66L893.677 1183.91C897.987 1175.43 895.158 1165.18 892.184 1156.12C889.211 1147.06 885.42 1137.12 876.902 1132.8L829.993 1108.97C817.171 1102.46 801.143 1107.48 786.787 1108.13C781.7 1108.36 776.478 1107.32 771.609 1104.84C756.611 1097.23 750.609 1078.94 758.2 1063.99C765.79 1049.05 784.099 1043.11 799.097 1050.73C803.966 1053.2 807.889 1056.8 810.702 1061.05C818.643 1073.02 824.043 1088.93 836.865 1095.44L876.459 1115.55C889.281 1122.07 905.31 1117.05 919.661 1116.39C924.752 1116.16 929.974 1117.21 934.844 1119.68C949.837 1127.3 955.84 1145.58 948.249 1160.53C945.783 1165.38 942.188 1169.29 937.939 1172.09C925.961 1179.98 910.04 1185.32 903.549 1198.1L883.506 1237.56C877.016 1250.34 882.089 1266.35 882.781 1280.68C883.028 1285.76 881.995 1290.96 879.529 1295.82C871.938 1310.76 853.629 1316.7 838.635 1309.09C823.641 1301.47 817.639 1283.18 825.23 1268.24Z" fill="#313131"/>
<path d="M1043.11 1242.75C1038.23 1240.27 1034.31 1236.67 1031.5 1232.43C1023.56 1220.45 1018.16 1204.55 1005.33 1198.03L958.426 1174.21C949.912 1169.88 939.648 1172.68 930.578 1175.62C921.513 1178.57 911.564 1182.32 907.254 1190.81L883.506 1237.56C877.016 1250.34 882.089 1266.35 882.781 1280.68C883.028 1285.76 881.995 1290.96 879.529 1295.82C871.938 1310.76 853.629 1316.7 838.635 1309.09C823.641 1301.47 817.639 1283.18 825.23 1268.24C827.696 1263.38 831.295 1259.48 835.54 1256.68C847.517 1248.79 863.439 1243.44 869.93 1230.66L889.973 1191.21C896.464 1178.43 891.39 1162.42 890.698 1148.09C890.455 1143.01 891.485 1137.8 893.951 1132.95C901.542 1118 919.85 1112.06 934.844 1119.68C939.717 1122.16 943.637 1125.75 946.454 1130C954.394 1141.98 959.794 1157.88 972.616 1164.4L1012.21 1184.5C1025.03 1191.02 1041.06 1186 1055.41 1185.35C1060.5 1185.12 1065.72 1186.16 1070.6 1188.63C1085.59 1196.25 1091.59 1214.54 1084 1229.48C1076.41 1244.43 1058.1 1250.37 1043.11 1242.75Z" fill="#313131"/>
<path d="M1283 884.831C1280.53 889.686 1276.93 893.59 1272.69 896.389C1260.71 904.281 1244.78 909.625 1238.29 922.403L1214.55 969.155C1210.23 977.641 1213.07 987.891 1216.04 996.95C1219.02 1006.01 1222.81 1015.95 1231.32 1020.27L1278.23 1044.1C1291.05 1050.61 1307.08 1045.59 1321.43 1044.94C1326.53 1044.71 1331.75 1045.75 1336.62 1048.23C1351.61 1055.84 1357.61 1074.13 1350.02 1089.07C1342.43 1104.02 1324.12 1109.96 1309.13 1102.34C1304.26 1099.87 1300.34 1096.27 1297.52 1092.02C1289.58 1080.05 1284.18 1064.14 1271.36 1057.63L1231.77 1037.52C1218.95 1031 1202.92 1036.02 1188.56 1036.68C1183.47 1036.91 1178.25 1035.86 1173.38 1033.39C1158.39 1025.77 1152.39 1007.49 1159.98 992.542C1162.44 987.687 1166.04 983.782 1170.29 980.984C1182.26 973.092 1198.19 967.746 1204.68 954.968L1224.72 915.509C1231.21 902.73 1226.14 886.72 1225.45 872.393C1225.2 867.312 1226.23 862.105 1228.7 857.251C1236.29 842.307 1254.6 836.367 1269.59 843.983C1284.58 851.599 1290.59 869.888 1283 884.831Z" fill="#313131"/>
<path d="M734.765 1175.79C732.299 1180.65 728.7 1184.55 724.455 1187.35C712.477 1195.24 696.552 1200.59 690.061 1213.36L666.314 1260.12C662.003 1268.6 664.837 1278.85 667.81 1287.91C670.784 1296.97 674.575 1306.91 683.089 1311.23L730.001 1335.06C742.823 1341.57 758.852 1336.55 773.203 1335.9C778.295 1335.67 783.516 1336.71 788.386 1339.19C803.379 1346.8 809.382 1365.09 801.791 1380.04C794.2 1394.98 775.891 1400.92 760.898 1393.3C756.028 1390.83 752.105 1387.23 749.288 1382.98C741.351 1371.01 735.951 1355.1 723.129 1348.59L683.535 1328.48C670.713 1321.97 654.685 1326.99 640.329 1327.64C635.242 1327.87 630.02 1326.83 625.151 1324.35C610.157 1316.74 604.155 1298.45 611.746 1283.5C614.211 1278.65 617.806 1274.74 622.055 1271.95C634.033 1264.05 649.955 1258.71 656.445 1245.93L676.488 1206.47C682.979 1193.69 677.905 1177.68 677.214 1163.35C676.966 1158.27 678 1153.07 680.466 1148.21C688.057 1133.27 706.366 1127.33 721.359 1134.94C736.353 1142.56 742.355 1160.85 734.765 1175.79Z" fill="#313131"/>
<path d="M1091.26 1127.83C1093.72 1122.98 1097.32 1119.07 1101.57 1116.27C1113.55 1108.38 1129.47 1103.04 1135.96 1090.26L1159.71 1043.51C1164.02 1035.02 1161.18 1024.77 1158.21 1015.71C1155.24 1006.65 1151.44 996.715 1142.93 992.39L1096.02 968.563C1083.2 962.05 1067.17 967.071 1052.82 967.722C1047.73 967.953 1042.5 966.909 1037.63 964.435C1022.64 956.818 1016.64 938.53 1024.23 923.586C1031.82 908.642 1050.13 902.702 1065.12 910.318C1069.99 912.793 1073.92 916.393 1076.73 920.64C1084.67 932.616 1090.07 948.521 1102.89 955.034L1142.48 975.143C1155.31 981.656 1171.33 976.636 1185.69 975.985C1190.78 975.752 1196 976.797 1200.87 979.272C1215.87 986.888 1221.87 1005.18 1214.28 1020.12C1211.81 1024.98 1208.21 1028.88 1203.97 1031.68C1191.99 1039.57 1176.06 1044.91 1169.57 1057.69L1149.53 1097.15C1143.04 1109.93 1148.12 1125.94 1148.81 1140.27C1149.05 1145.35 1148.02 1150.56 1145.56 1155.41C1137.97 1170.36 1119.66 1176.3 1104.66 1168.68C1089.67 1161.06 1083.67 1142.77 1091.26 1127.83Z" fill="#313131"/>
<path d="M543.027 1418.79C545.493 1413.94 549.087 1410.03 553.336 1407.23C565.314 1399.34 581.236 1394 587.727 1381.22L611.474 1334.47C615.784 1325.98 612.951 1315.73 609.977 1306.67C607.007 1297.61 603.213 1287.68 594.698 1283.35L547.79 1259.52C534.968 1253.01 518.939 1258.03 504.584 1258.68C499.494 1258.91 494.273 1257.87 489.402 1255.4C474.407 1247.78 468.405 1229.49 475.996 1214.55C483.587 1199.6 501.896 1193.66 516.89 1201.28C521.761 1203.75 525.684 1207.35 528.499 1211.6C536.44 1223.58 541.84 1239.48 554.662 1246L594.252 1266.1C607.074 1272.62 623.103 1267.6 637.458 1266.95C642.545 1266.71 647.767 1267.76 652.64 1270.23C667.634 1277.85 673.637 1296.14 666.046 1311.08C663.58 1315.94 659.981 1319.84 655.736 1322.64C643.758 1330.53 627.833 1335.88 621.342 1348.65L601.299 1388.11C594.808 1400.89 599.886 1416.9 600.578 1431.23C600.821 1436.31 599.791 1441.52 597.325 1446.37C589.735 1461.32 571.426 1467.26 556.432 1459.64C541.434 1452.02 535.436 1433.74 543.027 1418.79Z" fill="#313131"/>
<path d="M1309.13 1102.34C1304.26 1099.87 1300.34 1096.27 1297.52 1092.02C1289.58 1080.05 1284.18 1064.14 1271.36 1057.63L1224.45 1033.8C1215.94 1029.47 1205.68 1032.27 1196.61 1035.21C1187.54 1038.16 1177.59 1041.91 1173.28 1050.4L1149.53 1097.15C1143.04 1109.93 1148.12 1125.94 1148.81 1140.27C1149.05 1145.35 1148.02 1150.56 1145.56 1155.41C1137.97 1170.36 1119.66 1176.3 1104.66 1168.68C1089.67 1161.06 1083.67 1142.78 1091.26 1127.83C1093.72 1122.98 1097.32 1119.07 1101.57 1116.27C1113.55 1108.38 1129.47 1103.04 1135.96 1090.26L1156 1050.8C1162.49 1038.02 1157.42 1022.01 1156.73 1007.68C1156.48 1002.6 1157.51 997.397 1159.98 992.542C1167.57 977.598 1185.88 971.656 1200.87 979.272C1205.74 981.745 1209.66 985.347 1212.48 989.591C1220.42 1001.57 1225.82 1017.47 1238.64 1023.99L1278.23 1044.1C1291.05 1050.61 1307.08 1045.59 1321.43 1044.94C1326.53 1044.71 1331.75 1045.75 1336.62 1048.23C1351.61 1055.84 1357.61 1074.13 1350.02 1089.07C1342.43 1104.02 1324.12 1109.96 1309.13 1102.34Z" fill="#313131"/>
<path d="M760.898 1393.3C756.028 1390.83 752.105 1387.23 749.288 1382.98C741.351 1371.01 735.951 1355.1 723.129 1348.59L676.218 1324.76C667.704 1320.43 657.444 1323.23 648.374 1326.18C639.305 1329.12 629.356 1332.87 625.046 1341.36L601.299 1388.11C594.808 1400.89 599.886 1416.9 600.578 1431.23C600.821 1436.31 599.791 1441.52 597.325 1446.37C589.735 1461.32 571.426 1467.26 556.432 1459.64C541.438 1452.03 535.436 1433.74 543.027 1418.79C545.493 1413.94 549.087 1410.03 553.336 1407.23C565.314 1399.34 581.236 1394 587.727 1381.22L607.769 1341.76C614.26 1328.98 609.186 1312.97 608.494 1298.64C608.247 1293.56 609.28 1288.36 611.746 1283.5C619.336 1268.56 637.647 1262.62 652.64 1270.23C657.51 1272.71 661.432 1276.31 664.246 1280.55C672.186 1292.53 677.586 1308.43 690.408 1314.95L730.001 1335.06C742.823 1341.57 758.852 1336.55 773.203 1335.9C778.295 1335.67 783.516 1336.71 788.386 1339.19C803.379 1346.8 809.382 1365.09 801.791 1380.04C794.2 1394.98 775.891 1400.92 760.898 1393.3Z" fill="#313131"/>
<path d="M899.07 931.311C931.327 947.695 970.759 934.828 987.143 902.572C1003.53 870.315 990.661 830.883 958.404 814.499C926.148 798.114 886.716 810.981 870.331 843.238C853.947 875.494 866.814 914.926 899.07 931.311Z" fill="#313131"/>
<path d="M1536.24 708.171C1538.23 704.25 1541.14 701.097 1544.57 698.836C1554.24 692.461 1567.1 688.143 1572.35 677.821L1591.53 640.058C1595.01 633.203 1592.73 624.926 1590.32 617.608C1587.92 610.291 1584.86 602.264 1577.98 598.769L1540.09 579.523C1529.73 574.263 1516.78 578.318 1505.19 578.844C1501.08 579.032 1496.86 578.188 1492.93 576.19C1480.81 570.037 1475.97 555.264 1482.1 543.194C1488.23 531.123 1503.02 526.325 1515.13 532.478C1519.07 534.476 1522.23 537.385 1524.51 540.814C1530.92 550.488 1535.28 563.335 1545.64 568.595L1577.62 584.84C1587.98 590.101 1600.93 586.046 1612.52 585.518C1616.63 585.332 1620.85 586.176 1624.78 588.174C1636.89 594.325 1641.74 609.098 1635.61 621.169C1633.62 625.09 1630.71 628.245 1627.28 630.504C1617.61 636.879 1604.75 641.197 1599.5 651.519L1583.31 683.392C1578.07 693.713 1582.17 706.646 1582.73 718.219C1582.93 722.323 1582.09 726.528 1580.1 730.45C1573.97 742.521 1559.18 747.318 1547.07 741.167C1534.96 735.015 1530.11 720.242 1536.24 708.171Z" fill="#313131"/>
<path d="M1463.17 633.499C1461.18 637.42 1458.27 640.573 1454.84 642.834C1445.17 649.209 1432.3 653.525 1427.06 663.847L1407.88 701.611C1404.4 708.465 1406.68 716.745 1409.09 724.062C1411.49 731.38 1414.55 739.406 1421.43 742.899L1459.32 762.147C1469.68 767.407 1482.62 763.352 1494.22 762.825C1498.33 762.639 1502.55 763.482 1506.48 765.48C1518.59 771.632 1523.44 786.404 1517.31 798.475C1511.18 810.546 1496.39 815.344 1484.28 809.192C1480.34 807.194 1477.17 804.285 1474.9 800.855C1468.49 791.182 1464.13 778.335 1453.77 773.075L1421.79 756.83C1411.43 751.569 1398.48 755.624 1386.89 756.15C1382.78 756.338 1378.56 755.495 1374.63 753.497C1362.52 747.345 1357.67 732.572 1363.8 720.501C1365.79 716.58 1368.7 713.425 1372.13 711.166C1381.8 704.791 1394.66 700.473 1399.91 690.151L1416.1 658.278C1421.34 647.956 1417.24 635.024 1416.68 623.452C1416.48 619.347 1417.32 615.142 1419.31 611.22C1425.44 599.149 1440.23 594.351 1452.34 600.503C1464.45 606.655 1469.3 621.428 1463.17 633.499Z" fill="#313131"/>
<path d="M1308.29 829.781C1310.28 825.859 1313.19 822.705 1316.62 820.445C1326.3 814.07 1339.16 809.752 1344.4 799.43L1363.58 761.667C1367.06 754.812 1364.77 746.533 1362.37 739.215C1359.97 731.9 1356.91 723.872 1350.03 720.379L1312.14 701.133C1301.78 695.872 1288.84 699.927 1277.24 700.453C1273.13 700.639 1268.91 699.796 1264.98 697.798C1252.87 691.646 1248.02 676.873 1254.15 664.803C1260.28 652.732 1275.07 647.934 1287.18 654.086C1291.12 656.084 1294.28 658.992 1296.56 662.423C1302.97 672.097 1307.33 684.944 1317.69 690.204L1349.67 706.448C1360.03 711.709 1372.97 707.653 1384.57 707.127C1388.68 706.94 1392.9 707.783 1396.83 709.783C1408.94 715.935 1413.79 730.707 1407.66 742.778C1405.67 746.699 1402.76 749.852 1399.33 752.114C1389.66 758.488 1376.79 762.805 1371.55 773.127L1355.36 804.999C1350.12 815.321 1354.22 828.255 1354.78 839.828C1354.98 843.93 1354.14 848.137 1352.15 852.059C1346.02 864.13 1331.23 868.928 1319.12 862.776C1307.01 856.623 1302.16 841.851 1308.29 829.781Z" fill="#313131"/>
<path d="M1484.28 809.192C1480.34 807.194 1477.17 804.285 1474.9 800.855C1468.49 791.182 1464.13 778.335 1453.77 773.075L1415.88 753.825C1409 750.332 1400.71 752.593 1393.39 754.97C1386.06 757.346 1378.03 760.381 1374.54 767.236L1355.36 804.999C1350.12 815.321 1354.22 828.255 1354.78 839.828C1354.98 843.93 1354.14 848.137 1352.15 852.059C1346.02 864.13 1331.23 868.928 1319.12 862.776C1307.01 856.624 1302.16 841.852 1308.29 829.781C1310.28 825.859 1313.19 822.705 1316.62 820.445C1326.3 814.07 1339.16 809.752 1344.4 799.43L1360.59 767.558C1365.83 757.236 1361.73 744.304 1361.17 732.731C1360.97 728.627 1361.81 724.423 1363.8 720.501C1369.93 708.431 1384.72 703.631 1396.83 709.783C1400.77 711.781 1403.93 714.689 1406.21 718.118C1412.62 727.792 1416.98 740.639 1427.34 745.9L1459.32 762.147C1469.68 767.407 1482.62 763.352 1494.22 762.825C1498.33 762.639 1502.55 763.482 1506.48 765.48C1518.59 771.632 1523.44 786.404 1517.31 798.475C1511.18 810.546 1496.39 815.344 1484.28 809.192Z" fill="#313131"/>
<path d="M1584.54 919.886C1610.59 933.121 1642.44 922.728 1655.68 896.673C1668.91 870.617 1658.52 838.767 1632.46 825.532C1606.41 812.298 1574.56 822.691 1561.32 848.746C1548.09 874.801 1558.48 906.652 1584.54 919.886Z" fill="#313131"/>
<path d="M1438.82 493.438C1464.88 506.673 1496.73 496.28 1509.96 470.224C1523.2 444.169 1512.8 412.318 1486.75 399.084C1460.69 385.849 1428.84 396.242 1415.61 422.298C1402.37 448.353 1412.77 480.204 1438.82 493.438Z" fill="#313131"/>
<path d="M1548.39 999.764C1545.24 998.164 1542.62 995.933 1540.61 993.304C1533.57 984.079 1529.23 970.997 1518.87 965.737L1485.25 948.658C1478.9 945.433 1471.25 947.52 1464.49 949.714C1457.73 951.908 1450.31 954.71 1447.1 961.037L1430.07 994.547C1424.83 1004.87 1429.09 1017.97 1428.87 1029.56C1428.81 1032.86 1428.02 1036.2 1426.42 1039.33C1420.76 1050.48 1407.11 1054.91 1395.93 1049.23C1384.75 1043.55 1380.28 1029.91 1385.94 1018.77C1387.53 1015.63 1389.76 1013.02 1392.39 1011.03C1401.61 1004.02 1414.71 999.727 1419.95 989.405L1433.53 962.682C1438.77 952.361 1434.51 939.254 1434.73 927.671C1434.79 924.37 1435.58 921.034 1437.18 917.895C1442.84 906.752 1456.49 902.323 1467.67 908.002C1470.82 909.602 1473.43 911.833 1475.44 914.462C1482.49 923.687 1486.83 936.769 1497.18 942.03L1524 955.649C1534.35 960.91 1547.47 956.695 1559.08 956.945C1562.39 957.017 1565.73 957.815 1568.88 959.414C1580.06 965.093 1584.54 978.729 1578.88 989.872C1573.22 1001.01 1559.57 1005.44 1548.39 999.764Z" fill="#313131"/>
<path d="M1649.58 1186.66C1652.73 1188.26 1655.35 1190.48 1657.36 1193.11C1664.4 1202.34 1668.74 1215.42 1679.1 1220.68L1712.72 1237.76C1719.07 1240.99 1726.72 1238.9 1733.48 1236.7C1740.25 1234.51 1747.66 1231.71 1750.88 1225.38L1767.9 1191.87C1773.14 1181.55 1768.88 1168.44 1769.1 1156.86C1769.16 1153.56 1769.95 1150.22 1771.55 1147.09C1777.21 1135.94 1790.86 1131.51 1802.04 1137.19C1813.22 1142.87 1817.69 1156.51 1812.03 1167.65C1810.44 1170.79 1808.21 1173.4 1805.58 1175.39C1796.36 1182.4 1783.26 1186.69 1778.02 1197.01L1764.44 1223.74C1759.2 1234.06 1763.46 1247.17 1763.24 1258.75C1763.18 1262.05 1762.39 1265.39 1760.79 1268.53C1755.14 1279.67 1741.49 1284.1 1730.3 1278.42C1727.15 1276.82 1724.54 1274.59 1722.53 1271.96C1715.48 1262.73 1711.14 1249.65 1700.79 1244.39L1673.97 1230.77C1663.62 1225.51 1650.5 1229.72 1638.89 1229.47C1635.58 1229.4 1632.24 1228.6 1629.09 1227C1617.91 1221.33 1613.43 1207.69 1619.09 1196.55C1624.75 1185.41 1638.4 1180.98 1649.58 1186.66Z" fill="#313131"/>
<path d="M1679.77 995.755C1677.78 999.676 1674.88 1002.83 1671.44 1005.09C1661.77 1011.47 1648.91 1015.78 1643.66 1026.1L1624.48 1063.87C1621 1070.72 1623.29 1079 1625.69 1086.32C1628.09 1093.64 1631.16 1101.66 1638.03 1105.16L1675.92 1124.4C1686.28 1129.66 1699.23 1125.61 1710.82 1125.08C1714.94 1124.9 1719.15 1125.74 1723.09 1127.74C1735.2 1133.89 1740.05 1148.66 1733.91 1160.73C1727.78 1172.8 1712.99 1177.6 1700.88 1171.45C1696.95 1169.45 1693.78 1166.54 1691.51 1163.11C1685.09 1153.44 1680.73 1140.59 1670.37 1135.33L1638.39 1119.09C1628.04 1113.83 1615.09 1117.88 1603.49 1118.41C1599.38 1118.59 1595.17 1117.75 1591.23 1115.75C1579.12 1109.6 1574.27 1094.83 1580.4 1082.76C1582.39 1078.84 1585.3 1075.68 1588.73 1073.42C1598.41 1067.05 1611.27 1062.73 1616.51 1052.41L1632.7 1020.53C1637.94 1010.21 1633.84 997.281 1633.28 985.707C1633.09 981.605 1633.92 977.398 1635.91 973.477C1642.04 961.406 1656.83 956.608 1668.94 962.759C1681.05 968.911 1685.9 983.684 1679.77 995.755Z" fill="#313131"/>
<path d="M1524.89 1192.04C1526.89 1188.12 1529.79 1184.96 1533.22 1182.7C1542.9 1176.33 1555.76 1172.01 1561 1161.69L1580.18 1123.92C1583.66 1117.07 1581.38 1108.79 1578.98 1101.48C1576.57 1094.16 1573.51 1086.13 1566.63 1082.64L1528.74 1063.39C1518.38 1058.13 1505.44 1062.18 1493.84 1062.71C1489.73 1062.9 1485.51 1062.06 1481.58 1060.06C1469.47 1053.9 1464.62 1039.13 1470.75 1027.06C1476.88 1014.99 1491.67 1010.19 1503.78 1016.35C1507.72 1018.34 1510.89 1021.25 1513.16 1024.68C1519.57 1034.35 1523.94 1047.2 1534.29 1052.46L1566.27 1068.71C1576.63 1073.97 1589.58 1069.91 1601.17 1069.39C1605.28 1069.2 1609.5 1070.04 1613.43 1072.04C1625.54 1078.19 1630.39 1092.97 1624.26 1105.04C1622.27 1108.96 1619.37 1112.11 1615.93 1114.37C1606.26 1120.75 1593.4 1125.06 1588.16 1135.39L1571.97 1167.26C1566.72 1177.58 1570.82 1190.51 1571.38 1202.09C1571.58 1206.19 1570.75 1210.4 1568.75 1214.32C1562.62 1226.39 1547.83 1231.19 1535.72 1225.03C1523.61 1218.88 1518.76 1204.11 1524.89 1192.04Z" fill="#313131"/>
<path d="M1700.88 1171.45C1696.95 1169.45 1693.78 1166.54 1691.51 1163.11C1685.09 1153.44 1680.73 1140.59 1670.37 1135.33L1632.48 1116.09C1625.6 1112.59 1617.31 1114.85 1609.99 1117.23C1602.67 1119.61 1594.63 1122.64 1591.15 1129.5L1571.97 1167.26C1566.72 1177.58 1570.82 1190.51 1571.38 1202.09C1571.58 1206.19 1570.75 1210.4 1568.75 1214.32C1562.62 1226.39 1547.83 1231.19 1535.72 1225.03C1523.61 1218.88 1518.76 1204.11 1524.89 1192.04C1526.89 1188.12 1529.79 1184.96 1533.22 1182.7C1542.9 1176.33 1555.76 1172.01 1561 1161.69L1577.19 1129.82C1582.43 1119.49 1578.33 1106.56 1577.78 1094.99C1577.58 1090.89 1578.41 1086.68 1580.4 1082.76C1586.53 1070.69 1601.32 1065.89 1613.43 1072.04C1617.37 1074.04 1620.54 1076.95 1622.81 1080.38C1629.23 1090.05 1633.59 1102.9 1643.94 1108.16L1675.92 1124.4C1686.28 1129.66 1699.23 1125.61 1710.82 1125.08C1714.94 1124.9 1719.15 1125.74 1723.09 1127.74C1735.2 1133.89 1740.05 1148.66 1733.91 1160.73C1727.78 1172.8 1712.99 1177.6 1700.88 1171.45Z" fill="#313131"/>
<path d="M1894.65 882.343C1892.66 886.264 1889.75 889.417 1886.33 891.679C1876.65 898.053 1863.79 902.37 1858.54 912.692L1839.36 950.455C1835.88 957.31 1838.17 965.589 1840.57 972.906C1842.97 980.224 1846.03 988.25 1852.91 991.743L1890.81 1010.99C1901.16 1016.25 1914.11 1012.2 1925.7 1011.67C1929.81 1011.48 1934.03 1012.33 1937.96 1014.32C1950.08 1020.48 1954.92 1035.25 1948.79 1047.32C1942.66 1059.39 1927.87 1064.19 1915.76 1058.04C1911.83 1056.04 1908.66 1053.13 1906.38 1049.7C1899.97 1040.03 1895.61 1027.18 1885.25 1021.92L1853.27 1005.67C1842.92 1000.41 1829.97 1004.47 1818.37 1004.99C1814.26 1005.18 1810.05 1004.34 1806.11 1002.34C1794 996.189 1789.15 981.416 1795.28 969.346C1797.28 965.425 1800.18 962.27 1803.61 960.01C1813.29 953.635 1826.15 949.317 1831.39 938.996L1847.58 907.123C1852.82 896.801 1848.72 883.869 1848.17 872.296C1847.97 868.192 1848.8 863.986 1850.79 860.065C1856.92 847.994 1871.71 843.196 1883.82 849.348C1895.94 855.5 1900.78 870.272 1894.65 882.343Z" fill="#313131"/>
<path d="M1451.82 1117.37C1449.83 1121.29 1446.92 1124.44 1443.49 1126.7C1433.82 1133.08 1420.95 1137.39 1415.71 1147.71L1396.53 1185.48C1393.05 1192.33 1395.34 1200.61 1397.74 1207.93C1400.14 1215.25 1403.2 1223.27 1410.08 1226.77L1447.97 1246.01C1458.33 1251.27 1471.28 1247.22 1482.87 1246.69C1486.98 1246.51 1491.2 1247.35 1495.13 1249.35C1507.24 1255.5 1512.09 1270.27 1505.96 1282.34C1499.83 1294.41 1485.04 1299.21 1472.93 1293.06C1469 1291.06 1465.83 1288.15 1463.55 1284.72C1457.14 1275.05 1452.78 1262.2 1442.42 1256.94L1410.44 1240.7C1400.08 1235.44 1387.14 1239.49 1375.54 1240.02C1371.43 1240.2 1367.21 1239.36 1363.28 1237.36C1351.17 1231.21 1346.32 1216.44 1352.45 1204.37C1354.44 1200.45 1357.35 1197.29 1360.78 1195.03C1370.46 1188.66 1383.32 1184.34 1388.56 1174.02L1404.75 1142.15C1409.99 1131.82 1405.89 1118.89 1405.33 1107.32C1405.13 1103.21 1405.97 1099.01 1407.96 1095.09C1414.09 1083.02 1428.88 1078.22 1440.99 1084.37C1453.1 1090.52 1457.95 1105.29 1451.82 1117.37Z" fill="#313131"/>
<path d="M1739.78 1078.63C1741.77 1074.7 1744.67 1071.55 1748.1 1069.29C1757.78 1062.91 1770.64 1058.6 1775.88 1048.27L1795.06 1010.51C1798.55 1003.66 1796.26 995.378 1793.86 988.06C1791.46 980.744 1788.39 972.716 1781.51 969.223L1743.62 949.977C1733.27 944.716 1720.32 948.771 1708.73 949.297C1704.61 949.484 1700.4 948.641 1696.46 946.642C1684.35 940.49 1679.5 925.718 1685.63 913.647C1691.76 901.576 1706.55 896.778 1718.67 902.93C1722.6 904.929 1725.77 907.837 1728.04 911.267C1734.46 920.941 1738.82 933.788 1749.18 939.049L1781.15 955.292C1791.51 960.553 1804.46 956.498 1816.05 955.972C1820.16 955.784 1824.38 956.628 1828.32 958.627C1840.43 964.779 1845.28 979.551 1839.15 991.622C1837.15 995.544 1834.25 998.697 1830.82 1000.96C1821.14 1007.33 1808.28 1011.65 1803.04 1021.97L1786.85 1053.84C1781.6 1064.17 1785.71 1077.1 1786.26 1088.67C1786.46 1092.77 1785.63 1096.98 1783.64 1100.9C1777.51 1112.97 1762.72 1117.77 1750.61 1111.62C1738.49 1105.47 1733.65 1090.7 1739.78 1078.63Z" fill="#313131"/>
<path d="M1296.95 1313.65C1298.94 1309.73 1301.84 1306.57 1305.27 1304.31C1314.95 1297.94 1327.81 1293.62 1333.05 1283.3L1352.23 1245.53C1355.71 1238.68 1353.43 1230.4 1351.02 1223.08C1348.63 1215.77 1345.56 1207.74 1338.68 1204.25L1300.79 1185C1290.44 1179.74 1277.49 1183.79 1265.89 1184.32C1261.78 1184.51 1257.56 1183.66 1253.63 1181.67C1241.52 1175.51 1236.67 1160.74 1242.8 1148.67C1248.93 1136.6 1263.72 1131.8 1275.83 1137.95C1279.77 1139.95 1282.94 1142.86 1285.21 1146.29C1291.62 1155.96 1295.99 1168.81 1306.34 1174.07L1338.32 1190.31C1348.68 1195.58 1361.63 1191.52 1373.22 1190.99C1377.33 1190.81 1381.55 1191.65 1385.49 1193.65C1397.6 1199.8 1402.44 1214.57 1396.31 1226.65C1394.32 1230.57 1391.41 1233.72 1387.99 1235.98C1378.31 1242.36 1365.45 1246.67 1360.2 1256.99L1344.01 1288.87C1338.77 1299.19 1342.87 1312.12 1343.43 1323.69C1343.63 1327.8 1342.8 1332 1340.8 1335.93C1334.67 1348 1319.88 1352.79 1307.77 1346.64C1295.66 1340.49 1290.81 1325.72 1296.95 1313.65Z" fill="#313131"/>
<path d="M1915.76 1058.04C1911.83 1056.04 1908.66 1053.13 1906.38 1049.7C1899.97 1040.03 1895.61 1027.18 1885.25 1021.92L1847.36 1002.67C1840.48 999.176 1832.2 1001.44 1824.87 1003.81C1817.55 1006.19 1809.51 1009.23 1806.03 1016.08L1786.85 1053.84C1781.6 1064.17 1785.71 1077.1 1786.26 1088.67C1786.46 1092.77 1785.63 1096.98 1783.64 1100.9C1777.51 1112.97 1762.72 1117.77 1750.61 1111.62C1738.49 1105.47 1733.65 1090.7 1739.78 1078.63C1741.77 1074.7 1744.67 1071.55 1748.1 1069.29C1757.78 1062.91 1770.64 1058.6 1775.88 1048.27L1792.07 1016.4C1797.32 1006.08 1793.22 993.148 1792.66 981.575C1792.46 977.471 1793.29 973.267 1795.28 969.346C1801.42 957.275 1816.21 952.475 1828.32 958.627C1832.25 960.625 1835.42 963.534 1837.69 966.963C1844.11 976.637 1848.47 989.484 1858.82 994.745L1890.81 1010.99C1901.16 1016.25 1914.11 1012.2 1925.7 1011.67C1929.81 1011.48 1934.03 1012.33 1937.96 1014.32C1950.08 1020.48 1954.92 1035.25 1948.79 1047.32C1942.66 1059.39 1927.87 1064.19 1915.76 1058.04Z" fill="#313131"/>
<path d="M1472.93 1293.06C1469 1291.06 1465.83 1288.15 1463.55 1284.72C1457.14 1275.05 1452.78 1262.2 1442.42 1256.94L1404.53 1237.69C1397.65 1234.2 1389.37 1236.46 1382.04 1238.84C1374.71 1241.21 1366.68 1244.25 1363.2 1251.1L1344.01 1288.87C1338.77 1299.19 1342.87 1312.12 1343.43 1323.69C1343.63 1327.8 1342.8 1332 1340.8 1335.93C1334.67 1348 1319.88 1352.79 1307.77 1346.64C1295.66 1340.49 1290.81 1325.72 1296.95 1313.65C1298.94 1309.73 1301.84 1306.57 1305.27 1304.31C1314.95 1297.94 1327.81 1293.62 1333.05 1283.3L1349.24 1251.42C1354.48 1241.1 1350.38 1228.17 1349.83 1216.6C1349.63 1212.49 1350.46 1208.29 1352.45 1204.37C1358.58 1192.3 1373.37 1187.5 1385.49 1193.65C1389.42 1195.65 1392.59 1198.56 1394.86 1201.99C1401.27 1211.66 1405.64 1224.51 1415.99 1229.77L1447.97 1246.01C1458.33 1251.27 1471.28 1247.22 1482.87 1246.69C1486.98 1246.51 1491.2 1247.35 1495.13 1249.35C1507.24 1255.5 1512.09 1270.27 1505.96 1282.34C1499.83 1294.41 1485.04 1299.21 1472.93 1293.06Z" fill="#313131"/>
<path d="M1584.54 919.886C1610.59 933.121 1642.44 922.728 1655.68 896.673C1668.91 870.617 1658.52 838.767 1632.46 825.532C1606.41 812.297 1574.56 822.691 1561.32 848.746C1548.09 874.801 1558.48 906.652 1584.54 919.886Z" fill="#313131"/>
<path d="M1573.19 1403.75C1599.25 1416.99 1631.1 1406.6 1644.33 1380.54C1657.57 1354.48 1647.17 1322.63 1621.12 1309.4C1595.06 1296.16 1563.21 1306.56 1549.98 1332.61C1536.74 1358.67 1547.13 1390.52 1573.19 1403.75Z" fill="#313131"/>
<path d="M114.001 483.355C110.487 481.571 107.567 479.081 105.326 476.148C97.4634 465.857 92.6264 451.262 81.0717 445.393L43.5601 426.339C36.4772 422.741 27.9412 425.069 20.3973 427.517C12.8532 429.964 4.57885 433.09 0.993237 440.15L-17.9963 477.535C-23.8456 489.05 -19.094 503.673 -19.3386 516.595C-19.4081 520.278 -20.2896 524 -22.0682 527.502C-28.3826 539.933 -43.6125 544.874 -56.0857 538.539C-68.5586 532.203 -73.5515 516.99 -67.2372 504.559C-65.4586 501.057 -62.9723 498.149 -60.0391 495.921C-49.7483 488.102 -35.1377 483.315 -29.2883 471.799L-14.1447 441.985C-8.29551 430.47 -13.047 415.847 -12.8023 402.925C-12.7329 399.242 -11.8515 395.52 -10.0727 392.018C-3.75837 379.587 11.4719 374.646 23.9447 380.981C27.4585 382.766 30.3788 385.255 32.6198 388.188C40.4822 398.48 45.3192 413.075 56.8739 418.944L86.788 434.139C98.3427 440.008 112.982 435.306 125.93 435.585C129.62 435.664 133.353 436.554 136.867 438.339C149.34 444.675 154.333 459.888 148.018 472.319C141.704 484.75 126.474 489.691 114.001 483.355Z" fill="#313131"/>
<path d="M269.592 740.683C273.109 742.469 276.028 744.955 278.27 747.889C286.13 758.182 290.968 772.777 302.523 778.646L340.034 797.7C347.117 801.297 355.654 798.971 363.197 796.52C370.742 794.075 379.016 790.948 382.601 783.889L401.591 746.504C407.44 734.988 402.689 720.365 402.932 707.444C403.004 703.762 403.885 700.038 405.664 696.536C411.978 684.105 427.208 679.164 439.682 685.5C452.155 691.836 457.148 707.049 450.834 719.48C449.055 722.982 446.568 725.889 443.633 728.118C433.345 735.937 418.731 740.723 412.881 752.239L397.738 782.053C391.889 793.568 396.643 808.193 396.397 821.113C396.328 824.797 395.448 828.518 393.668 832.023C387.355 844.451 372.126 849.392 359.652 843.056C356.136 841.27 353.216 838.784 350.975 835.85C343.114 825.557 338.276 810.962 326.721 805.093L296.807 789.899C285.253 784.029 270.613 788.731 257.665 788.454C253.973 788.375 250.244 787.483 246.728 785.697C234.258 779.363 229.262 764.148 235.574 751.72C241.889 739.288 257.122 734.349 269.592 740.683Z" fill="#313131"/>
<path d="M260.578 478.882C258.356 483.257 255.117 486.777 251.288 489.297C240.494 496.41 226.146 501.227 220.297 512.743L198.897 554.873C195.012 562.521 197.565 571.758 200.242 579.92C202.921 588.083 206.341 597.04 214.014 600.937L256.286 622.409C267.84 628.278 282.285 623.754 295.221 623.167C299.809 622.96 304.512 623.898 308.903 626.129C322.415 632.992 327.824 649.474 320.984 662.94C314.143 676.407 297.644 681.76 284.132 674.897C279.74 672.666 276.209 669.423 273.67 665.595C266.514 654.803 261.648 640.47 250.093 634.601L214.416 616.479C202.861 610.61 188.417 615.134 175.481 615.721C170.892 615.928 166.19 614.989 161.799 612.758C148.287 605.895 142.878 589.414 149.718 575.947C151.94 571.572 155.184 568.054 159.009 565.532C169.803 558.42 184.151 553.602 190 542.087L208.062 506.528C213.911 495.012 209.339 480.585 208.716 467.673C208.496 463.096 209.424 458.403 211.646 454.028C218.487 440.561 234.986 435.208 248.498 442.071C262.01 448.934 267.419 465.415 260.578 478.882Z" fill="#313131"/>
<path d="M87.7892 697.867C90.0113 693.492 93.2546 689.974 97.0798 687.452C107.874 680.34 122.222 675.522 128.071 664.007L149.471 621.876C153.355 614.229 150.806 604.994 148.126 596.83C145.446 588.666 142.03 579.712 134.354 575.812L92.0818 554.341C80.5271 548.471 66.0825 552.995 53.1461 553.583C48.5617 553.792 43.856 552.851 39.4678 550.622C25.9523 543.757 20.5435 527.276 27.3838 513.809C34.2243 500.342 50.7236 494.989 64.2391 501.854C68.6273 504.083 72.1626 507.328 74.6975 511.154C81.8536 521.947 86.7199 536.28 98.2746 542.149L133.955 560.273C145.51 566.142 159.954 561.618 172.887 561.029C177.475 560.821 182.181 561.762 186.569 563.991C200.081 570.855 205.49 587.335 198.649 600.802C196.427 605.177 193.188 608.697 189.359 611.218C178.565 618.33 164.217 623.147 158.368 634.663L140.306 670.221C134.456 681.737 139.029 696.165 139.652 709.076C139.875 713.655 138.943 718.347 136.721 722.722C129.881 736.189 113.381 741.542 99.8695 734.678C86.3577 727.815 80.9487 711.334 87.7892 697.867Z" fill="#313131"/>
<path d="M284.132 674.897C279.74 672.666 276.209 669.423 273.67 665.595C266.514 654.803 261.648 640.47 250.093 634.601L207.821 613.13C200.148 609.232 190.898 611.753 182.725 614.404C174.556 617.058 165.591 620.444 161.706 628.091L140.306 670.221C134.456 681.737 139.029 696.165 139.652 709.076C139.875 713.655 138.943 718.347 136.721 722.722C129.881 736.189 113.381 741.542 99.8695 734.678C86.3577 727.815 80.9487 711.334 87.7892 697.867C90.0113 693.492 93.2546 689.974 97.0798 687.452C107.874 680.34 122.222 675.522 128.071 664.007L146.133 628.448C151.982 616.933 147.41 602.505 146.787 589.594C146.568 585.017 147.496 580.322 149.718 575.947C156.559 562.48 173.057 557.128 186.569 563.991C190.961 566.222 194.493 569.465 197.031 573.293C204.188 584.085 209.054 598.418 220.608 604.288L256.286 622.409C267.84 628.278 282.285 623.754 295.221 623.167C299.809 622.96 304.512 623.898 308.903 626.129C322.415 632.992 327.824 649.474 320.984 662.94C314.143 676.407 297.644 681.76 284.132 674.897Z" fill="#313131"/>
<path d="M500.312 352.354C498.09 356.729 494.846 360.247 491.021 362.77C480.227 369.882 465.876 374.697 460.026 386.213L438.626 428.344C434.742 435.991 437.295 445.228 439.975 453.392C442.654 461.556 446.07 470.51 453.743 474.407L496.019 495.881C507.574 501.75 522.018 497.226 534.951 496.637C539.539 496.43 544.245 497.371 548.633 499.6C562.145 506.463 567.554 522.944 560.713 536.411C553.873 549.878 537.373 555.231 523.862 548.367C519.474 546.138 515.938 542.893 513.4 539.066C506.247 528.275 501.381 513.942 489.826 508.073L454.146 489.949C442.591 484.08 428.146 488.604 415.21 489.191C410.626 489.4 405.92 488.459 401.532 486.231C388.02 479.367 382.611 462.886 389.451 449.419C391.673 445.044 394.913 441.525 398.742 439.004C409.536 431.892 423.884 427.074 429.733 415.559L447.795 380C453.644 368.484 449.072 354.057 448.449 341.145C448.226 336.566 449.158 331.874 451.38 327.5C458.22 314.033 474.72 308.68 488.231 315.543C501.743 322.406 507.152 338.887 500.312 352.354Z" fill="#313131"/>
<path d="M6.26517 614.558C4.04298 618.933 0.799836 622.451 -3.02556 624.973C-13.8195 632.085 -28.1709 636.901 -34.0203 648.417L-55.4204 690.547C-59.3049 698.195 -56.7514 707.432 -54.0717 715.595C-51.3921 723.759 -47.976 732.714 -40.303 736.611L1.97255 758.085C13.5272 763.954 27.9719 759.43 40.9045 758.841C45.4927 758.633 50.1982 759.574 54.5864 761.803C68.0983 768.667 73.5073 785.148 66.6668 798.615C59.8265 812.081 43.3269 817.434 29.8151 810.571C25.4269 808.342 21.8918 805.097 19.3531 801.27C12.2008 790.478 7.33451 776.146 -4.22018 770.276L-39.9009 752.153C-51.4555 746.283 -65.9001 750.808 -78.8365 751.395C-83.4209 751.604 -88.1267 750.663 -92.5149 748.434C-106.027 741.571 -111.436 725.09 -104.595 711.623C-102.373 707.248 -99.1336 703.729 -95.3045 701.208C-84.5104 694.095 -70.1626 689.278 -64.3135 677.763L-46.2515 642.204C-40.4021 630.688 -44.9745 616.26 -45.5978 603.349C-45.8205 598.77 -44.889 594.078 -42.6668 589.703C-35.8264 576.236 -19.327 570.884 -5.81516 577.747C7.69667 584.61 13.1056 601.091 6.26517 614.558Z" fill="#313131"/>
<path d="M327.524 571.337C329.747 566.962 332.986 563.442 336.815 560.922C347.609 553.809 361.957 548.992 367.806 537.476L389.206 495.346C393.091 487.698 390.537 478.462 387.858 470.298C385.182 462.136 381.762 453.18 374.089 449.282L331.817 427.81C320.262 421.941 305.818 426.465 292.881 427.052C288.294 427.26 283.589 426.32 279.2 424.09C265.687 417.226 260.278 400.745 267.119 387.279C273.96 373.812 290.458 368.459 303.971 375.322C308.361 377.552 311.895 380.797 314.433 384.624C321.589 395.416 326.455 409.749 338.01 415.618L373.687 433.74C385.242 439.609 399.686 435.085 412.622 434.499C417.207 434.289 421.913 435.23 426.304 437.461C439.816 444.324 445.225 460.805 438.385 474.272C436.162 478.647 432.919 482.165 429.094 484.688C418.3 491.799 403.949 496.615 398.099 508.131L380.037 543.689C374.188 555.205 378.764 569.634 379.387 582.546C379.606 587.123 378.679 591.817 376.456 596.192C369.616 609.658 353.116 615.011 339.605 608.148C326.089 601.283 320.684 584.804 327.524 571.337Z" fill="#313131"/>
<path d="M-166.522 833.541C-164.3 829.166 -161.061 825.646 -157.232 823.125C-146.437 816.013 -132.09 811.196 -126.24 799.68L-104.84 757.55C-100.956 749.902 -103.509 740.665 -106.189 732.501C-108.865 724.339 -112.285 715.383 -119.958 711.486L-162.23 690.014C-173.784 684.145 -188.229 688.669 -201.165 689.256C-205.752 689.464 -210.457 688.523 -214.847 686.294C-228.359 679.43 -233.768 662.949 -226.928 649.482C-220.087 636.015 -203.588 630.662 -190.076 637.526C-185.686 639.756 -182.151 643 -179.614 646.827C-172.458 657.62 -167.591 671.953 -156.037 677.822L-120.36 695.944C-108.805 701.813 -94.3604 697.289 -81.4242 696.702C-76.8396 696.493 -72.134 697.434 -67.7422 699.665C-54.2304 706.528 -48.8214 723.009 -55.6618 736.476C-57.884 740.851 -61.1272 744.368 -64.9526 746.891C-75.7465 754.003 -90.098 758.819 -95.9473 770.334L-114.009 805.893C-119.858 817.409 -115.282 831.838 -114.659 844.75C-114.44 849.327 -115.368 854.02 -117.59 858.395C-124.431 871.862 -140.93 877.215 -154.442 870.352C-167.957 863.487 -173.363 847.007 -166.522 833.541Z" fill="#313131"/>
<path d="M523.862 548.367C519.474 546.138 515.938 542.893 513.4 539.066C506.247 528.275 501.381 513.942 489.826 508.073L447.552 486.597C439.879 482.7 430.633 485.223 422.46 487.874C414.287 490.525 405.322 493.911 401.437 501.558L380.037 543.689C374.188 555.205 378.764 569.634 379.387 582.546C379.606 587.123 378.679 591.817 376.456 596.192C369.616 609.658 353.116 615.011 339.605 608.148C326.093 601.285 320.684 584.804 327.524 571.337C329.747 566.962 332.986 563.442 336.815 560.922C347.609 553.809 361.957 548.992 367.806 537.476L385.868 501.918C391.717 490.402 387.144 475.975 386.521 463.063C386.299 458.484 387.229 453.794 389.451 449.419C396.292 435.953 412.792 430.598 426.304 437.461C430.692 439.69 434.227 442.935 436.762 446.76C443.918 457.553 448.785 471.886 460.339 477.755L496.019 495.881C507.574 501.75 522.018 497.226 534.951 496.637C539.539 496.43 544.245 497.371 548.633 499.6C562.145 506.463 567.554 522.944 560.713 536.411C553.873 549.878 537.373 555.231 523.862 548.367Z" fill="#313131"/>
<path d="M29.8151 810.571C25.4269 808.342 21.8918 805.097 19.3531 801.27C12.2008 790.478 7.33451 776.146 -4.22018 770.276L-46.4949 748.801C-54.1679 744.904 -63.4135 747.426 -71.5868 750.078C-79.7599 752.729 -88.725 756.115 -92.6094 763.762L-114.009 805.893C-119.858 817.409 -115.282 831.838 -114.659 844.75C-114.44 849.327 -115.368 854.02 -117.59 858.395C-124.431 871.862 -140.93 877.215 -154.442 870.352C-167.954 863.489 -173.363 847.008 -166.522 833.541C-164.3 829.166 -161.061 825.646 -157.232 823.125C-146.437 816.013 -132.09 811.196 -126.24 799.68L-108.179 764.121C-102.33 752.606 -106.902 738.178 -107.525 725.267C-107.748 720.688 -106.817 715.998 -104.595 711.623C-97.7549 698.156 -81.254 692.801 -67.7422 699.665C-63.354 701.894 -59.8192 705.139 -57.2841 708.964C-50.1282 719.757 -45.2619 734.09 -33.7072 739.959L1.97255 758.085C13.5272 763.954 27.9719 759.43 40.9045 758.841C45.4927 758.633 50.1982 759.574 54.5864 761.803C68.0983 768.667 73.5073 785.148 66.6668 798.615C59.8265 812.081 43.3269 817.434 29.8151 810.571Z" fill="#313131"/>
<path d="M154.332 394.24C183.4 409.005 218.934 397.41 233.7 368.341C248.465 339.273 236.87 303.738 207.801 288.973C178.733 274.208 143.198 285.803 128.433 314.872C113.668 343.94 125.263 379.475 154.332 394.24Z" fill="#313131"/>
<path d="M141.671 934.067C170.74 948.833 206.274 937.237 221.039 908.169C235.804 879.1 224.209 843.566 195.141 828.801C166.072 814.036 130.538 825.631 115.772 854.699C101.007 883.768 112.602 919.302 141.671 934.067Z" fill="#313131"/>
<path d="M-178.349 1092.52C-149.28 1107.28 -113.746 1095.69 -98.9809 1066.62C-84.2157 1037.55 -95.8108 1002.02 -124.879 987.252C-153.948 972.487 -189.482 984.082 -204.248 1013.15C-219.013 1042.22 -207.418 1077.75 -178.349 1092.52Z" fill="#313131"/>
<path d="M127.151 1041.76C123.55 1039.93 120.557 1037.38 118.26 1034.37C110.202 1023.82 105.244 1008.87 93.402 1002.85L54.9569 983.322C47.6977 979.635 38.9492 982.021 31.2175 984.529C23.4856 987.037 15.0054 990.241 11.3305 997.476L-8.13162 1035.79C-14.1266 1047.59 -9.25664 1062.58 -9.50737 1075.82C-9.57858 1079.6 -10.482 1083.41 -12.3049 1087C-18.7764 1099.74 -34.3854 1104.81 -47.1691 1098.31C-59.9524 1091.82 -65.0696 1076.23 -58.5981 1063.49C-56.7752 1059.9 -54.227 1056.92 -51.2208 1054.64C-40.6739 1046.62 -25.6997 1041.72 -19.7047 1029.91L-4.18414 999.357C1.81061 987.556 -3.05914 972.569 -2.80841 959.325C-2.7372 955.551 -1.8339 951.736 -0.0108335 948.146C6.46066 935.406 22.07 930.342 34.8533 936.835C38.4545 938.664 41.4474 941.216 43.7443 944.222C51.8023 954.77 56.7598 969.728 68.602 975.743L99.2607 991.316C111.103 997.331 126.106 992.512 139.377 992.798C143.159 992.879 146.985 993.792 150.586 995.621C163.369 1002.11 168.486 1017.71 162.015 1030.45C155.544 1043.19 139.934 1048.25 127.151 1041.76Z" fill="#313131"/>
<path d="M242.857 1255.45C246.461 1257.28 249.453 1259.83 251.75 1262.84C259.806 1273.39 264.765 1288.35 276.607 1294.36L315.052 1313.89C322.311 1317.58 331.06 1315.19 338.791 1312.68C346.524 1310.17 355.004 1306.97 358.679 1299.73L378.141 1261.42C384.136 1249.62 379.267 1234.63 379.515 1221.39C379.589 1217.61 380.492 1213.8 382.315 1210.21C388.787 1197.47 404.395 1192.4 417.18 1198.9C429.964 1205.39 435.08 1220.98 428.609 1233.72C426.786 1237.31 424.237 1240.29 421.23 1242.58C410.685 1250.59 395.707 1255.49 389.712 1267.3L374.192 1297.85C368.197 1309.65 373.07 1324.64 372.818 1337.88C372.747 1341.66 371.845 1345.47 370.021 1349.07C363.551 1361.8 347.942 1366.87 335.158 1360.37C331.554 1358.54 328.562 1356 326.265 1352.99C318.208 1342.44 313.25 1327.48 301.408 1321.47L270.749 1305.89C258.907 1299.88 243.903 1304.7 230.633 1304.41C226.849 1304.33 223.027 1303.42 219.423 1301.59C206.643 1295.1 201.522 1279.5 207.992 1266.76C214.464 1254.02 230.076 1248.96 242.857 1255.45Z" fill="#313131"/>
<path d="M277.377 1037.17C275.099 1041.66 271.779 1045.26 267.855 1047.85C256.792 1055.14 242.087 1060.07 236.092 1071.88L214.16 1115.06C210.178 1122.89 212.795 1132.36 215.538 1140.73C218.285 1149.09 221.789 1158.27 229.653 1162.27L272.977 1184.27C284.819 1190.29 299.624 1185.65 312.882 1185.05C317.584 1184.84 322.403 1185.8 326.904 1188.08C340.752 1195.12 346.296 1212.01 339.285 1225.81C332.275 1239.61 315.365 1245.1 301.516 1238.07C297.015 1235.78 293.396 1232.46 290.794 1228.53C283.46 1217.47 278.473 1202.78 266.63 1196.77L230.065 1178.19C218.223 1172.18 203.419 1176.82 190.161 1177.42C185.458 1177.63 180.639 1176.67 176.138 1174.38C162.29 1167.35 156.746 1150.46 163.757 1136.65C166.035 1132.17 169.359 1128.56 173.279 1125.98C184.342 1118.69 199.047 1113.75 205.042 1101.95L223.553 1065.51C229.548 1053.7 224.862 1038.92 224.223 1025.68C223.998 1020.99 224.949 1016.18 227.227 1011.7C234.237 997.898 251.147 992.412 264.996 999.446C278.844 1006.48 284.387 1023.37 277.377 1037.17Z" fill="#313131"/>
<path d="M100.287 1261.61C102.564 1257.12 105.888 1253.52 109.809 1250.93C120.871 1243.64 135.576 1238.71 141.571 1226.91L163.504 1183.73C167.485 1175.89 164.872 1166.42 162.125 1158.06C159.379 1149.69 155.878 1140.51 148.01 1136.52L104.686 1114.51C92.844 1108.49 78.0398 1113.13 64.7814 1113.73C60.0829 1113.95 55.2601 1112.98 50.7627 1110.7C36.9109 1103.66 31.3674 1086.77 38.3779 1072.97C45.3887 1059.17 62.2987 1053.68 76.1505 1060.72C80.6479 1063 84.2712 1066.33 86.8692 1070.25C94.2034 1081.31 99.1908 1096 111.033 1102.01L147.602 1120.59C159.444 1126.6 174.248 1121.97 187.503 1121.36C192.205 1121.15 197.028 1122.12 201.525 1124.4C215.373 1131.43 220.917 1148.33 213.906 1162.13C211.629 1166.61 208.309 1170.22 204.384 1172.8C193.322 1180.09 178.617 1185.03 172.622 1196.83L154.111 1233.27C148.116 1245.08 152.802 1259.86 153.44 1273.1C153.669 1277.79 152.714 1282.6 150.437 1287.08C143.426 1300.88 126.516 1306.37 112.668 1299.34C98.8196 1292.3 93.2759 1275.41 100.287 1261.61Z" fill="#313131"/>
<path d="M301.516 1238.07C297.015 1235.78 293.396 1232.46 290.794 1228.53C283.46 1217.47 278.473 1202.78 266.63 1196.77L223.306 1174.76C215.442 1170.77 205.962 1173.35 197.586 1176.07C189.213 1178.79 180.025 1182.26 176.043 1190.1L154.111 1233.27C148.116 1245.08 152.802 1259.86 153.44 1273.1C153.669 1277.79 152.714 1282.6 150.437 1287.08C143.426 1300.88 126.516 1306.37 112.668 1299.34C98.8196 1292.3 93.2759 1275.41 100.287 1261.61C102.564 1257.12 105.888 1253.52 109.809 1250.93C120.871 1243.64 135.576 1238.71 141.571 1226.91L160.083 1190.46C166.078 1178.66 161.392 1163.87 160.753 1150.64C160.528 1145.95 161.48 1141.14 163.757 1136.65C170.768 1122.85 187.677 1117.37 201.525 1124.4C206.026 1126.69 209.646 1130.01 212.248 1133.93C219.582 1144.99 224.57 1159.68 236.412 1165.7L272.977 1184.27C284.819 1190.29 299.624 1185.65 312.882 1185.05C317.584 1184.84 322.403 1185.8 326.904 1188.08C340.752 1195.12 346.296 1212.01 339.285 1225.81C332.275 1239.61 315.365 1245.1 301.516 1238.07Z" fill="#313131"/>
<path d="M523.077 907.496C520.799 911.98 517.475 915.585 513.555 918.171C502.492 925.459 487.783 930.395 481.789 942.197L459.856 985.377C455.875 993.214 458.492 1002.68 461.238 1011.05C463.984 1019.42 467.485 1028.59 475.349 1032.59L518.677 1054.59C530.519 1060.61 545.324 1055.97 558.578 1055.37C563.28 1055.16 568.103 1056.12 572.601 1058.41C586.449 1065.44 591.992 1082.33 584.982 1096.13C577.971 1109.94 561.061 1115.42 547.213 1108.39C542.715 1106.1 539.092 1102.78 536.49 1098.85C529.16 1087.79 524.173 1073.11 512.33 1067.09L475.762 1048.52C463.919 1042.5 449.115 1047.14 435.857 1047.74C431.158 1047.95 426.335 1046.99 421.838 1044.7C407.99 1037.67 402.446 1020.78 409.457 1006.98C411.734 1002.49 415.055 998.886 418.979 996.302C430.042 989.013 444.747 984.076 450.741 972.274L469.253 935.83C475.248 924.027 470.562 909.241 469.923 896.008C469.695 891.315 470.649 886.506 472.927 882.023C479.937 868.221 496.848 862.734 510.696 869.768C524.544 876.803 530.087 893.694 523.077 907.496Z" fill="#313131"/>
<path d="M16.7337 1176.23C14.4562 1180.71 11.1323 1184.31 7.21171 1186.9C-3.85087 1194.19 -18.5596 1199.12 -24.5546 1210.93L-46.4873 1254.11C-50.4685 1261.94 -47.8515 1271.41 -45.105 1279.78C-42.3587 1288.15 -38.8576 1297.32 -30.9937 1301.32L12.3341 1323.32C24.1764 1329.34 38.9805 1324.7 52.235 1324.1C56.9374 1323.89 61.7601 1324.85 66.2575 1327.14C80.1056 1334.17 85.6493 1351.06 78.6386 1364.86C71.628 1378.67 54.7178 1384.15 40.8697 1377.12C36.3723 1374.83 32.7492 1371.51 30.1473 1367.58C22.817 1356.52 17.8295 1341.84 5.98726 1335.82L-30.5815 1317.25C-42.4238 1311.23 -57.2279 1315.87 -70.4862 1316.47C-75.1847 1316.68 -80.0077 1315.72 -84.5051 1313.43C-98.3532 1306.4 -103.897 1289.51 -96.886 1275.71C-94.6086 1271.22 -91.2884 1267.62 -87.3641 1265.03C-76.3013 1257.74 -61.5964 1252.81 -55.6017 1241L-37.0902 1204.56C-31.0952 1192.76 -35.7813 1177.97 -36.4201 1164.74C-36.6484 1160.04 -35.6937 1155.24 -33.4162 1150.75C-26.4055 1136.95 -9.49546 1131.46 4.35266 1138.5C18.2008 1145.53 23.7444 1162.42 16.7337 1176.23Z" fill="#313131"/>
<path d="M345.989 1131.93C348.266 1127.44 351.586 1123.84 355.511 1121.25C366.573 1113.96 381.278 1109.03 387.273 1097.23L409.206 1054.05C413.187 1046.21 410.57 1036.74 407.824 1028.37C405.081 1020.01 401.576 1010.83 393.712 1006.84L350.388 984.83C338.546 978.815 323.742 983.452 310.484 984.053C305.782 984.266 300.96 983.302 296.461 981.017C282.612 973.983 277.069 957.092 284.08 943.29C291.091 929.487 308 924.001 321.849 931.036C326.348 933.321 329.971 936.646 332.571 940.568C339.905 951.63 344.893 966.319 356.735 972.335L393.3 990.908C405.142 996.923 419.947 992.286 433.205 991.685C437.903 991.47 442.726 992.434 447.227 994.721C461.075 1001.75 466.619 1018.65 459.608 1032.45C457.331 1036.93 454.007 1040.54 450.086 1043.12C439.024 1050.41 424.315 1055.35 418.32 1067.15L399.809 1103.59C393.814 1115.4 398.504 1130.18 399.143 1143.42C399.367 1148.11 398.416 1152.92 396.139 1157.4C389.128 1171.2 372.218 1176.69 358.37 1169.66C344.518 1162.62 338.978 1145.73 345.989 1131.93Z" fill="#313131"/>
<path d="M547.213 1108.39C542.715 1106.1 539.092 1102.78 536.49 1098.85C529.16 1087.79 524.173 1073.11 512.33 1067.09L469.003 1045.08C461.139 1041.09 451.664 1043.67 443.287 1046.39C434.91 1049.11 425.722 1052.58 421.741 1060.41L399.809 1103.59C393.814 1115.4 398.504 1130.18 399.143 1143.42C399.367 1148.11 398.416 1152.92 396.139 1157.4C389.128 1171.2 372.218 1176.69 358.37 1169.66C344.522 1162.62 338.978 1145.73 345.989 1131.93C348.266 1127.44 351.586 1123.84 355.511 1121.25C366.573 1113.96 381.278 1109.03 387.273 1097.23L405.784 1060.78C411.779 1048.98 407.093 1034.19 406.454 1020.96C406.226 1016.27 407.18 1011.46 409.457 1006.98C416.468 993.175 433.379 987.687 447.227 994.721C451.725 997.005 455.348 1000.33 457.946 1004.25C465.28 1015.31 470.267 1030 482.109 1036.02L518.677 1054.59C530.519 1060.61 545.324 1055.97 558.578 1055.37C563.28 1055.16 568.103 1056.12 572.601 1058.41C586.449 1065.44 591.992 1082.33 584.982 1096.13C577.971 1109.94 561.061 1115.42 547.213 1108.39Z" fill="#313131"/>
<path d="M155.51 1503.69C185.302 1518.82 221.72 1506.94 236.853 1477.14C251.986 1447.35 240.102 1410.93 210.31 1395.8C180.518 1380.67 144.099 1392.55 128.966 1422.34C113.834 1452.14 125.717 1488.55 155.51 1503.69Z" fill="#313131"/>
<path d="M1009.9 1282.37C1013.5 1284.2 1016.5 1286.75 1018.79 1289.75C1026.85 1300.3 1031.81 1315.26 1043.65 1321.28L1082.1 1340.8C1089.36 1344.49 1098.1 1342.11 1105.83 1339.6C1113.57 1337.09 1122.05 1333.89 1125.72 1326.65L1145.18 1288.33C1151.18 1276.53 1146.31 1261.55 1146.56 1248.3C1146.63 1244.53 1147.54 1240.71 1149.36 1237.12C1155.83 1224.38 1171.44 1219.32 1184.22 1225.81C1197.01 1232.31 1202.12 1247.9 1195.65 1260.64C1193.83 1264.23 1191.28 1267.21 1188.27 1269.49C1177.73 1277.5 1162.75 1282.41 1156.76 1294.21L1141.24 1324.77C1135.24 1336.57 1140.11 1351.56 1139.86 1364.8C1139.79 1368.58 1138.89 1372.39 1137.06 1375.98C1130.59 1388.72 1114.99 1393.78 1102.2 1387.29C1098.6 1385.46 1095.61 1382.91 1093.31 1379.9C1085.25 1369.36 1080.29 1354.4 1068.45 1348.38L1037.79 1332.81C1025.95 1326.79 1010.95 1331.61 997.676 1331.33C993.893 1331.25 990.071 1330.33 986.467 1328.5C973.687 1322.01 968.566 1306.42 975.036 1293.68C981.507 1280.94 997.12 1275.88 1009.9 1282.37Z" fill="#313131"/>
<path d="M474.595 1350.41C472.317 1354.89 468.993 1358.5 465.073 1361.08C454.01 1368.37 439.301 1373.31 433.306 1385.11L411.374 1428.29C407.877 1435.17 409.47 1443.31 411.771 1450.86C412.056 1451.8 412.353 1452.73 412.652 1453.64C412.686 1453.75 412.721 1453.85 412.756 1453.96C412.79 1454.06 412.825 1454.17 412.859 1454.27C415.59 1462.56 419.101 1471.55 426.867 1475.5L470.195 1497.51C482.037 1503.52 496.841 1498.89 510.096 1498.28C514.798 1498.07 519.621 1499.03 524.118 1501.32C537.966 1508.35 543.51 1525.24 536.499 1539.05C529.489 1552.85 512.579 1558.33 498.731 1551.3C494.233 1549.02 490.61 1545.69 488.008 1541.77C480.678 1530.71 475.69 1516.02 463.848 1510L427.279 1491.43C415.437 1485.41 400.633 1490.05 387.375 1490.65C382.676 1490.86 377.853 1489.9 373.356 1487.62C359.508 1480.58 353.964 1463.69 360.975 1449.89C363.252 1445.4 366.572 1441.8 370.497 1439.21C381.56 1431.92 396.264 1426.99 402.259 1415.19L420.771 1378.74C426.766 1366.94 422.08 1352.15 421.441 1338.92C421.213 1334.23 422.167 1329.42 424.445 1324.93C431.455 1311.13 448.365 1305.65 462.214 1312.68C476.062 1319.71 481.605 1336.61 474.595 1350.41Z" fill="#313131"/>
<path d="M411.771 1450.86C412.056 1451.8 412.353 1452.73 412.652 1453.64C412.723 1453.85 412.793 1454.06 412.859 1454.27C415.59 1462.56 419.101 1471.55 426.867 1475.5L470.195 1497.51L433.627 1478.93C423.065 1473.56 417.956 1461.3 411.771 1450.86Z" fill="#313131"/>
<path d="M-95.5637 1368.86C-361.551 1070.06 -353.861 412.167 -5.14397 241.346C128.676 175.946 246.08 211.002 365.25 246.368C493.937 284.497 624.591 323.107 780.291 234.865C1167.15 16.0938 1429 208.217 1599.3 537.713C1727.09 784.956 1792.42 943.337 1850.83 1132.28C1941.85 1426.51 1821.72 1464.22 1690.41 1469.95C1559.09 1475.68 1343.12 1296.9 793.259 1498.69C243.397 1700.47 49.0312 1531.29 -95.5637 1368.86Z" fill="url(#paint0_linear)" fill-opacity="0.2"/>
<defs>
<linearGradient id="paint0_linear" x1="203.698" y1="228.105" x2="1366.47" y2="1660.47" gradientUnits="userSpaceOnUse">
<stop stop-color="#0FBDE9"/>
<stop offset="0.0001" stop-color="#0FBDE9"/>
<stop offset="0.864583" stop-color="#5C34FA"/>
</linearGradient>
</defs>
</svg>
