<svg width="43" height="46" viewBox="0 0 43 46" fill="none" xmlns="http://www.w3.org/2000/svg">
<path d="M21.5022 34.464C15.2076 34.464 10.0857 29.3218 10.0857 23.0003C10.0857 16.6789 15.2076 11.5358 21.5022 11.5358C27.7968 11.5358 32.9176 16.6789 32.9176 23.0003C32.9176 29.3218 27.7968 34.464 21.5022 34.464ZM21.5022 13.4775C16.2728 13.4775 12.0187 17.7496 12.0187 23.0003C12.0187 28.2511 16.2728 32.5232 21.5022 32.5232C26.7306 32.5232 30.9856 28.2511 30.9856 23.0003C30.9856 17.7486 26.7306 13.4775 21.5022 13.4775Z" fill="#3B2B71"/>
<path d="M28.4456 31.7962H26.5126V30.1549C26.5126 28.7103 25.3428 27.5359 23.9052 27.5359H19.1C17.6624 27.5359 16.4926 28.7103 16.4926 30.1549V31.7962H14.5596V30.1549C14.5596 27.6406 16.5962 25.5951 19.1 25.5951H23.9052C26.409 25.5951 28.4456 27.6406 28.4456 30.1549V31.7962Z" fill="#3B2B71"/>
<path d="M21.2227 24.9509C18.9447 24.9509 17.0908 23.0894 17.0908 20.8012C17.0908 18.513 18.9447 16.6525 21.2227 16.6525C23.5007 16.6525 25.3536 18.513 25.3536 20.8012C25.3536 23.0894 23.4998 24.9509 21.2227 24.9509ZM21.2227 18.5932C20.0099 18.5932 19.0239 19.5837 19.0239 20.8012C19.0239 22.0187 20.0099 23.0102 21.2227 23.0102C22.4345 23.0102 23.4216 22.0197 23.4216 20.8012C23.4206 19.5837 22.4345 18.5932 21.2227 18.5932Z" fill="#3B2B71"/>
<path d="M21.5022 46.0001C20.1907 46.0001 18.8792 45.499 17.8805 44.4958C16.913 43.524 16.3804 42.233 16.3804 40.858C16.3804 39.4838 16.913 38.1929 17.8805 37.2211C18.848 36.2492 20.1341 35.7139 21.5022 35.7139C22.8704 35.7139 24.1575 36.2492 25.124 37.2211C27.1206 39.2255 27.1206 42.4885 25.124 44.4948C24.1262 45.499 22.8137 46.0001 21.5022 46.0001ZM19.2467 43.1237C20.4898 44.3705 22.5137 44.3705 23.7578 43.1237C25.0009 41.8748 25.0009 39.843 23.7578 38.5942C22.5518 37.3845 20.4527 37.3845 19.2467 38.5942C18.6447 39.199 18.3124 40.0035 18.3124 40.858C18.3134 41.7143 18.6447 42.5178 19.2467 43.1237Z" fill="#3B2B71"/>
<path d="M21.5022 10.283C20.1907 10.283 18.8792 9.78194 17.8805 8.77876C15.8839 6.77339 15.8839 3.51038 17.8805 1.50403C19.877 -0.501343 23.1274 -0.501343 25.124 1.50403C27.1206 3.51038 27.1206 6.77339 25.124 8.77876C24.1262 9.78194 22.8137 10.283 21.5022 10.283ZM21.5022 1.94053C20.6852 1.94053 19.8692 2.25274 19.2467 2.87716C18.0036 4.12599 18.0036 6.15778 19.2467 7.40662C20.4898 8.65447 22.5137 8.65447 23.7578 7.40662C25.0009 6.15778 25.0009 4.12599 23.7578 2.87716C23.1362 2.25274 22.3192 1.94053 21.5022 1.94053Z" fill="#3B2B71"/>
<path d="M20.5356 33.5842H22.4687V36.8169H20.5356V33.5842Z" fill="#3B2B71"/>
<path d="M20.5356 9.04004H22.4687V12.2727H20.5356V9.04004Z" fill="#3B2B71"/>
<path d="M5.12026 36.8393C4.6541 36.8393 4.1811 36.7747 3.71103 36.6397C0.996177 35.8577 -0.579181 33.0028 0.198726 30.2771C0.97761 27.5504 3.81756 25.9659 6.53437 26.7508C9.24922 27.5328 10.8246 30.3877 10.0467 33.1134C9.40265 35.3673 7.34745 36.8393 5.12026 36.8393ZM5.12417 28.4919C3.73742 28.4919 2.45817 29.408 2.05749 30.8124C1.57277 32.5095 2.55297 34.2878 4.24462 34.7752C5.9353 35.2636 7.70416 34.2761 8.18888 32.579C8.67361 30.8819 7.69341 29.1036 6.00175 28.6162C5.70955 28.5311 5.41441 28.4919 5.12417 28.4919Z" fill="#3B2B71"/>
<path d="M9.10761 30.5865L8.18018 28.8845L11.7355 26.932L12.6629 28.634L9.10761 30.5865Z" fill="#3B2B71"/>
<path d="M37.8746 19.4339C37.4084 19.4339 36.9354 19.3693 36.4654 19.2343C33.7505 18.4523 32.1751 15.5974 32.954 12.8717C33.7339 10.146 36.5748 8.56538 39.2897 9.34541C42.0045 10.1274 43.5799 12.9823 42.801 15.708C42.157 17.962 40.1018 19.4339 37.8746 19.4339ZM34.8118 13.4071C34.3281 15.1041 35.3083 16.8815 36.999 17.3689C38.6935 17.8592 40.4604 16.8707 40.9452 15.1726C41.4289 13.4756 40.4487 11.6982 38.758 11.2118C37.0654 10.7264 35.2975 11.71 34.8118 13.4071Z" fill="#3B2B71"/>
<path d="M31.2731 19.069L30.3389 17.3699L34.0154 15.3303L34.9506 17.0294L31.2731 19.069Z" fill="#3B2B71"/>
<path d="M5.11951 19.4517C4.26244 19.4517 3.41417 19.2335 2.64408 18.8048C1.44693 18.1383 0.580088 17.0441 0.203839 15.7229C-0.173387 14.4026 -0.0160462 13.0128 0.64752 11.8119C1.31109 10.6111 2.40074 9.74001 3.71615 9.36125C5.03057 8.98445 6.41439 9.14104 7.61154 9.80656C8.80772 10.4731 9.67456 11.5673 10.0518 12.8875C10.429 14.2088 10.2707 15.5976 9.60811 16.7994C8.94454 18.0003 7.85488 18.8714 6.53948 19.2501C6.07039 19.3852 5.59348 19.4517 5.11951 19.4517ZM5.13221 11.1024C4.83708 11.1024 4.53999 11.1435 4.24876 11.2276C3.42981 11.4635 2.75158 12.0047 2.3382 12.7535C1.92481 13.5022 1.82708 14.3664 2.06261 15.1885C2.29715 16.0116 2.8366 16.6928 3.58128 17.1067C4.32694 17.5217 5.18987 17.6215 6.00687 17.3837C7.69754 16.8973 8.67774 15.1209 8.194 13.4229C7.95945 12.6008 7.42 11.9196 6.67434 11.5046C6.19353 11.2374 5.6658 11.1024 5.13221 11.1024Z" fill="#3B2B71"/>
<path d="M11.7355 19.0678L8.18408 17.1173L9.11151 15.4143L12.6629 17.3649L11.7355 19.0678Z" fill="#3B2B71"/>
<path d="M37.8665 36.8558C37.0085 36.8558 36.1612 36.6376 35.3911 36.2089C34.1939 35.5434 33.3281 34.4492 32.9509 33.1279C32.172 30.4022 33.7473 27.5473 36.4622 26.7663C39.1741 25.9824 42.0199 27.5659 42.7978 30.2926C43.5767 33.0193 42.0004 35.8732 39.2865 36.6542C38.8174 36.7902 38.3395 36.8558 37.8665 36.8558ZM36.9938 28.6317C36.1759 28.8676 35.4966 29.4098 35.0833 30.1575C34.6709 30.9062 34.5731 31.7704 34.8067 32.5935C35.0412 33.4166 35.5817 34.0978 36.3273 34.5118C37.072 34.9278 37.932 35.0237 38.7529 34.7898C40.4436 34.3024 41.4238 32.526 40.94 30.828C40.4553 29.1289 38.6825 28.1512 36.9938 28.6317Z" fill="#3B2B71"/>
<path d="M34.0124 30.6705L30.3389 28.6319L31.2731 26.9338L34.9467 28.9725L34.0124 30.6705Z" fill="#3B2B71"/>
</svg>
