<svg width="40" height="46" viewBox="0 0 40 46" fill="none" xmlns="http://www.w3.org/2000/svg">
<path d="M7.25624 40.7425C4.45261 40.7425 2.17188 38.3327 2.17188 35.3704C2.17188 32.4081 4.45261 29.9983 7.25624 29.9983C10.0599 29.9983 12.3406 32.4081 12.3406 35.3704C12.3406 38.3327 10.0599 40.7425 7.25624 40.7425ZM7.25624 31.9575C5.47523 31.9575 4.02613 33.4886 4.02613 35.3704C4.02613 37.2522 5.47523 38.7833 7.25624 38.7833C9.03725 38.7833 10.4863 37.2522 10.4863 35.3704C10.4863 33.4886 9.03725 31.9575 7.25624 31.9575Z" fill="#35246F"/>
<path d="M0.926881 45.1938C0.806354 45.1938 0.683974 45.1693 0.566229 45.1164C0.0943211 44.9058 -0.126335 44.3308 0.0739242 43.8322C1.28382 40.8101 4.07262 38.8568 7.1785 38.8568H7.33518C8.97341 38.8568 10.5384 39.3927 11.8605 40.4065C12.2749 40.7239 12.3667 41.3372 12.0663 41.7741C11.765 42.2129 11.1874 42.3109 10.7711 41.9925C9.76703 41.2225 8.57846 40.816 7.33425 40.816H7.17757C4.81896 40.816 2.70047 42.3001 1.78076 44.5953C1.6315 44.9705 1.28846 45.1938 0.926881 45.1938Z" fill="#35246F"/>
<path d="M32.7431 40.7425C29.9394 40.7425 27.6587 38.3327 27.6587 35.3704C27.6587 32.4081 29.9394 29.9983 32.7431 29.9983C35.5467 29.9983 37.8274 32.4081 37.8274 35.3704C37.8274 38.3327 35.5476 40.7425 32.7431 40.7425ZM32.7431 31.9575C30.962 31.9575 29.5129 33.4886 29.5129 35.3704C29.5129 37.2522 30.962 38.7833 32.7431 38.7833C34.5241 38.7833 35.9732 37.2522 35.9732 35.3704C35.9732 33.4886 34.5241 31.9575 32.7431 31.9575Z" fill="#35246F"/>
<path d="M39.0715 45.1938C38.7099 45.1938 38.3669 44.9695 38.2176 44.5963C37.2979 42.3001 35.1794 40.817 32.8208 40.817H32.6651C31.4209 40.817 30.2323 41.2235 29.2282 41.9935C28.8147 42.3128 28.2334 42.2129 27.9339 41.775C27.6336 41.3381 27.7253 40.7249 28.1407 40.4075C29.4637 39.3936 31.0278 38.8578 32.666 38.8578H32.8218C35.9276 38.8578 38.7155 40.8101 39.9263 43.8332C40.1257 44.3318 39.9059 44.9068 39.434 45.1174C39.3154 45.1693 39.193 45.1938 39.0715 45.1938Z" fill="#35246F"/>
<path d="M19.9999 40.7611C17.1963 40.7611 14.9155 38.3503 14.9155 35.388C14.9155 32.4257 17.1963 30.0159 19.9999 30.0159C22.8035 30.0159 25.0852 32.4257 25.0852 35.388C25.0852 38.3503 22.8026 40.7611 19.9999 40.7611ZM19.9999 31.9741C18.2189 31.9741 16.7698 33.5052 16.7698 35.387C16.7698 37.2698 18.2189 38.8009 19.9999 38.8009C21.7809 38.8009 23.2309 37.2698 23.2309 35.387C23.23 33.5062 21.7809 31.9741 19.9999 31.9741Z" fill="#35246F"/>
<path d="M13.4014 46C13.317 46 13.2299 45.9873 13.1446 45.9618C12.6523 45.8129 12.3686 45.2702 12.5095 44.7501C13.4533 41.2813 16.5008 38.8578 19.921 38.8578H20.0777C23.496 38.8578 26.5434 41.2803 27.4882 44.7481C27.6291 45.2673 27.3463 45.811 26.8531 45.9599C26.3617 46.1088 25.8472 45.809 25.7062 45.2889C24.9896 42.6557 22.6745 40.817 20.0777 40.817H19.921C17.3232 40.817 15.0081 42.6567 14.2915 45.2908C14.1756 45.7199 13.8047 46 13.4014 46Z" fill="#35246F"/>
<path d="M11.3876 29.7778C10.8758 29.7778 10.4605 29.34 10.4605 28.7982V25.1022H9.13562C8.62385 25.1022 8.2085 24.6643 8.2085 24.1226V17.8786C8.2085 17.3379 8.62385 16.899 9.13562 16.899H30.8638C31.3765 16.899 31.7909 17.3379 31.7909 17.8786V24.1226C31.7909 24.6643 31.3765 25.1022 30.8638 25.1022H15.0257C14.5139 25.1022 14.0985 24.6643 14.0985 24.1226C14.0985 23.5819 14.5139 23.143 15.0257 23.143H29.9366V18.8582H10.0627V23.143H11.3876C11.8994 23.143 12.3147 23.5819 12.3147 24.1226V28.7982C12.3147 29.34 11.9003 29.7778 11.3876 29.7778Z" fill="#35246F"/>
<path d="M28.611 29.5339C28.0983 29.5339 27.6838 29.096 27.6838 28.5543V24.6134C27.6838 24.0717 28.0983 23.6338 28.611 23.6338C29.1237 23.6338 29.5381 24.0717 29.5381 24.6134V28.5543C29.5381 29.096 29.1237 29.5339 28.611 29.5339Z" fill="#35246F"/>
<path d="M16.1029 18.5008C15.5911 18.5008 15.1758 18.0619 15.1758 17.5212V16.282C15.1758 15.7412 15.5911 15.3024 16.1029 15.3024C16.6147 15.3024 17.03 15.7412 17.03 16.282V17.5212C17.03 18.0619 16.6147 18.5008 16.1029 18.5008Z" fill="#35246F"/>
<path d="M23.8964 18.5008C23.3837 18.5008 22.9692 18.0619 22.9692 17.5212V16.282C22.9692 15.7412 23.3837 15.3024 23.8964 15.3024C24.4091 15.3024 24.8235 15.7412 24.8235 16.282V17.5212C24.8235 18.0619 24.4091 18.5008 23.8964 18.5008Z" fill="#35246F"/>
<path d="M19.9996 10.7452C17.196 10.7452 14.9153 8.33541 14.9153 5.3731C14.9153 2.41079 17.196 0 19.9996 0C22.8033 0 25.084 2.40981 25.084 5.37212C25.084 8.33443 22.8033 10.7452 19.9996 10.7452ZM19.9996 1.9592C18.2186 1.9592 16.7695 3.49031 16.7695 5.37212C16.7695 7.25393 18.2186 8.78602 19.9996 8.78602C21.7807 8.78602 23.2298 7.25491 23.2298 5.3731C23.2298 3.49129 21.7807 1.9592 19.9996 1.9592Z" fill="#35246F"/>
<path d="M26.8614 18.0001C26.3487 18.0001 25.9343 17.5612 25.9343 17.0205C25.9343 13.6085 23.3068 10.8324 20.0776 10.8324H19.9209C16.6917 10.8324 14.0652 13.6085 14.0652 17.0205C14.0652 17.5612 13.6498 18.0001 13.1381 18.0001C12.6263 18.0001 12.2109 17.5612 12.2109 17.0205C12.2109 12.5281 15.67 8.87317 19.9209 8.87317H20.0776C24.3294 8.87317 27.7885 12.5281 27.7885 17.0205C27.7885 17.5612 27.3741 18.0001 26.8614 18.0001Z" fill="#35246F"/>
<path d="M19.9998 15.4944C19.7263 15.4944 19.4657 15.366 19.2896 15.1447L16.4192 11.5319L17.8395 10.2721L19.9896 12.9788L22.1516 10.183L23.5877 11.4232L20.7173 15.1339C20.543 15.3592 20.2816 15.4914 20.0053 15.4934C20.0035 15.4944 20.0016 15.4944 19.9998 15.4944Z" fill="#35246F"/>
<path d="M19.0728 14.5148H20.927V17.7288H19.0728V14.5148Z" fill="#35246F"/>
</svg>
