<svg width="70" height="50" viewBox="0 0 70 50" fill="none" xmlns="http://www.w3.org/2000/svg">
<path d="M1.32604 25.2288L6.90483 27.7744C7.64201 28.1106 8.44578 27.933 9.02068 27.3757L13.4386 30.5982L14.1963 31.2143C13.2352 32.9736 13.4814 35.3778 14.9428 36.8109C15.7457 37.5984 16.766 37.9344 17.7648 37.8086C17.8234 39.0228 18.3008 40.1043 19.0778 40.866C19.8414 41.6149 20.8382 41.9983 21.8997 41.8644C21.9587 43.0782 22.4359 44.1593 23.2129 44.9212C23.9835 45.677 24.9823 46.0524 26.0365 45.9194C26.0916 47.0629 26.535 48.1791 27.3479 48.9764C28.9182 50.5167 31.2806 50.2933 32.6121 48.4772L33.4986 47.2737L34.9925 48.5488C37.5754 50.7539 41.226 48.9474 41.5628 45.2822C44.2258 46.4014 47.0534 44.2428 47.0944 40.9278C49.6045 41.4737 51.832 39.365 51.9718 36.5681C55.2278 37.5739 58.1728 33.7684 56.7351 30.0473L60.7272 27.0816C61.2989 27.8648 62.2488 28.1607 63.0958 27.7742L68.6745 25.2288C69.7483 24.7389 70.2776 23.3299 69.8539 22.0876L67.3041 14.6122C67.0963 14.0028 66.5006 13.704 65.9739 13.9443C65.447 14.1847 65.1885 14.8735 65.3963 15.4827L67.946 22.9579C67.9547 22.9834 67.9439 23.0123 67.9219 23.0225L62.3431 25.5679C62.321 25.5778 62.2962 25.5655 62.2875 25.54C62.0921 24.9673 55.8303 6.60858 55.2766 4.98523C55.2745 4.97954 55.27 4.96626 55.2771 4.94744C55.2842 4.92862 55.2958 4.92341 55.3006 4.92103L60.8796 2.37548C60.8843 2.37311 60.8957 2.36789 60.9124 2.37612C60.9285 2.38434 60.933 2.39762 60.9351 2.40331L63.6381 10.3278C63.8461 10.9372 64.4416 11.236 64.9682 10.9957C65.4952 10.7553 65.7537 10.0665 65.5459 9.45726L62.8428 1.53298C62.4194 0.291035 61.201 -0.320922 60.1272 0.169118L54.5481 2.71467C53.5513 3.16945 53.0251 4.40664 53.2925 5.57948L50.3018 6.85621C49.3712 7.25358 48.3608 7.36886 47.3803 7.18907L44.3572 6.63483C43.798 6.53252 43.2724 6.97386 43.184 7.62044C43.0954 8.26735 43.4768 8.87503 44.0361 8.9775L47.0592 9.53174C48.3858 9.77478 49.7525 9.61903 51.0121 9.08123L54.0298 7.7928C54.3574 8.75327 59.5266 23.908 59.8658 24.9024L55.4656 28.1711L55.391 28.1074C55.3907 28.1071 55.3903 28.1068 55.39 28.1066C54.9186 27.7042 47.2677 21.1738 46.9087 20.8672C46.6889 20.6795 46.4157 20.5952 46.1015 20.6569C41.8537 21.4923 38.0479 19.7452 35.248 16.364C34.3769 15.312 32.9555 15.2555 32.0118 16.2356C29.2956 19.0571 25.4999 21.8083 22.8441 18.8891C22.5803 18.5993 22.5783 18.0639 22.9791 17.7647C26.362 15.2478 29.8665 11.7138 32.6867 8.41393C33.3887 7.59245 34.3982 7.21057 35.389 7.39226L39.2812 8.1059C39.8416 8.20852 40.3658 7.76703 40.4544 7.12028C40.543 6.47338 40.1615 5.86569 39.6022 5.76323L35.71 5.04959C34.0688 4.74883 32.3936 5.38324 31.2284 6.74663C30.9022 7.12819 30.5163 7.57126 30.0813 8.05719C28.7683 7.51876 27.3997 7.19713 26.0076 7.10668C21.9329 6.84198 21.5795 6.79201 20.6542 6.86079C19.9279 6.9144 19.1891 6.77161 18.5171 6.4465L16.71 5.57189C16.9708 4.40585 16.4454 3.16723 15.4526 2.71435L9.8738 0.169118C8.79961 -0.32108 7.58145 0.290877 7.1579 1.53298L0.146847 22.0876C-0.277663 23.3324 0.249386 24.7377 1.32604 25.2288ZM18.6444 34.7755C18.0435 35.5952 16.9781 35.6969 16.2691 35.0018C15.5554 34.3019 15.4745 33.0717 16.0721 32.2565L18.6083 28.8134C19.195 28.0128 20.2633 27.881 20.9837 28.5872C21.6941 29.2837 21.7818 30.5127 21.1792 31.3345C21.1789 31.3348 21.1788 31.3351 21.1785 31.3354L18.6444 34.7755ZM22.7793 38.8309C22.1771 39.6523 21.1149 39.7539 20.4041 39.057C19.6904 38.3571 19.6095 37.1269 20.2071 36.3117L22.7434 32.8686C23.3732 32.0091 24.5407 31.9339 25.2435 32.778C25.2482 32.7836 25.2521 32.7897 25.2568 32.7954C25.8357 33.5075 25.8734 34.627 25.3142 35.3898L22.7793 38.8309ZM26.9144 42.8859C26.3099 43.7106 25.2467 43.8059 24.5392 43.112C23.8255 42.4123 23.7444 41.1821 24.342 40.3669L26.8784 36.9237C27.4809 36.102 28.5503 36.0072 29.2537 36.6976C29.9625 37.3928 30.0501 38.6251 29.4493 39.4449C29.449 39.4452 29.4488 39.4455 29.4486 39.4458L26.9144 42.8859ZM33.5981 43.4792C33.5939 43.4852 33.5902 43.4919 33.5858 43.4977C33.1767 44.0531 32.0495 45.5833 31.0494 46.941C30.4485 47.7609 29.3831 47.8622 28.6742 47.1672C27.9653 46.4721 27.8777 45.2398 28.4771 44.4221L31.0134 40.9789C31.6177 40.1544 32.682 40.0594 33.3887 40.7528C34.084 41.4343 34.1905 42.6506 33.5981 43.4792ZM15.9731 7.78695L17.7254 8.63499C18.6871 9.10037 19.7453 9.30546 20.7853 9.22813C21.5695 9.16978 21.8313 9.21121 25.8923 9.47513C26.7261 9.52937 27.5505 9.67864 28.3556 9.92089C26.3493 12.0164 24.0962 14.1168 21.8394 15.793C20.3925 16.8673 20.1781 19.2316 21.4314 20.6093C23.1444 22.4918 26.9751 24.6559 33.382 18.0008C33.4968 17.8815 33.6658 17.8831 33.7665 18.005C36.87 21.7517 41.2691 23.8446 46.0196 23.0724C46.5579 23.51 45.5157 22.6267 54.1719 30.0155H54.172C55.0984 30.8062 55.3575 32.3612 54.6322 33.4344C53.9433 34.4539 52.6985 34.6514 51.799 33.8833C50.5838 32.846 51.481 33.6356 47.2092 29.8286C46.7603 29.4287 46.1167 29.5253 45.771 30.0441C45.4255 30.563 45.5089 31.3076 45.9573 31.7075L49.5014 34.866C50.112 35.7964 50.0393 37.1409 49.3165 37.9749C48.6058 38.7951 47.436 38.8726 46.5954 38.1553C45.7826 37.4616 46.4578 38.056 42.7301 34.7366C42.2814 34.3369 41.6374 34.4339 41.2921 34.9529C40.9466 35.4719 41.0303 36.2165 41.479 36.6161L44.6216 39.4145C45.2151 40.3024 45.1859 41.5795 44.5379 42.4292C43.8406 43.3435 42.6052 43.4708 41.7251 42.7194C40.3107 41.5123 41.0205 42.1356 38.2968 39.6974C37.849 39.2966 37.205 39.3914 36.8583 39.9095C36.5117 40.4275 36.5937 41.1723 37.0416 41.5731L39.2202 43.5233C39.7158 44.4356 39.6188 45.6304 38.967 46.4188C38.2557 47.2795 37.0705 47.3749 36.21 46.6404L34.8316 45.4639L35.1482 45.0339C35.7796 44.1731 36.1055 43.0581 36.0221 41.885C35.9374 40.6966 35.4491 39.664 34.7148 38.9436C33.951 38.1946 32.9533 37.8108 31.8921 37.9439C31.8364 36.7981 31.382 35.6756 30.5798 34.8884C29.8188 34.1422 28.8528 33.7836 27.857 33.8777C27.8238 33.8808 27.7906 33.8845 27.7576 33.8887C27.7557 33.8508 27.7546 33.8128 27.7519 33.7747C27.6867 32.8577 27.3777 32.0084 26.8698 31.3233C26.8666 31.319 26.8638 31.3147 26.8606 31.3104C26.0526 30.2293 24.8498 29.6831 23.6238 29.8356C23.5661 28.6447 23.0994 27.5527 22.3097 26.7782C20.7381 25.2372 18.376 25.4621 17.0454 27.2774L15.5 29.3753L14.5967 28.6409C14.5828 28.6295 14.5686 28.6185 14.5541 28.608L10.0033 25.2884C13.4438 15.2019 12.1551 18.9801 15.9731 7.78695ZM2.05448 22.9583L9.06539 2.40363C9.07209 2.38402 9.08822 2.37216 9.10531 2.37216C9.11051 2.37216 9.11584 2.37327 9.12103 2.37564L14.6998 4.92119C14.7218 4.93115 14.7326 4.96009 14.724 4.98539C14.3867 5.97433 7.93363 24.8933 7.71297 25.5402C7.70395 25.566 7.67989 25.5781 7.65746 25.568L2.07868 23.0225C2.05653 23.0123 2.04559 22.9837 2.05448 22.9583Z" fill="#35246F"/>
</svg>
