<svg width="262" height="262" viewBox="0 0 262 262" fill="none" xmlns="http://www.w3.org/2000/svg">
<g filter="url(#filter0_b)">
<rect x="1" y="1" width="260" height="260" rx="20" fill="url(#paint0_linear)" fill-opacity="0.7"/>
<rect x="1" y="1" width="260" height="260" rx="20" fill="url(#paint1_linear)" fill-opacity="0.5"/>
<rect x="1" y="1" width="260" height="260" rx="20" stroke="url(#paint2_linear)" stroke-opacity="0.54"/>
<rect x="1" y="1" width="260" height="260" rx="20" stroke="url(#paint3_linear)" stroke-opacity="0.34"/>
</g>
<path d="M21.5491 31H32.1091V32.7H23.5291V36.7H27.8891C29.5558 36.7 30.8225 37.0467 31.6891 37.74C32.5558 38.4333 32.9891 39.4333 32.9891 40.74C32.9891 42.1133 32.5158 43.1667 31.5691 43.9C30.6358 44.6333 29.2958 45 27.5491 45H21.5491V31ZM27.4691 43.42C28.6158 43.42 29.4891 43.2 30.0891 42.76C30.6891 42.32 30.9891 41.6733 30.9891 40.82C30.9891 39.1267 29.8158 38.28 27.4691 38.28H23.5291V43.42H27.4691ZM35.858 34.4H37.778V42.12L44.278 34.4H46.018V45H44.098V37.28L37.618 45H35.858V34.4ZM55.309 39.48C56.0157 39.6667 56.5623 39.9667 56.949 40.38C57.3357 40.7933 57.529 41.3067 57.529 41.92C57.529 42.5467 57.3157 43.1067 56.889 43.6C56.4623 44.08 55.869 44.46 55.109 44.74C54.3623 45.0067 53.5223 45.14 52.589 45.14C51.8023 45.14 51.029 45.04 50.269 44.84C49.5223 44.6267 48.8557 44.3267 48.269 43.94L48.849 42.48C49.3557 42.8 49.9357 43.0533 50.589 43.24C51.2423 43.4133 51.9023 43.5 52.569 43.5C53.4757 43.5 54.1957 43.3467 54.729 43.04C55.2757 42.72 55.549 42.2933 55.549 41.76C55.549 41.2667 55.329 40.8867 54.889 40.62C54.4623 40.3533 53.8557 40.22 53.069 40.22H51.129V38.84H52.929C53.649 38.84 54.2157 38.7133 54.629 38.46C55.0423 38.2067 55.249 37.86 55.249 37.42C55.249 36.94 55.0023 36.5667 54.509 36.3C54.029 36.0333 53.3757 35.9 52.549 35.9C51.4957 35.9 50.3823 36.1733 49.209 36.72L48.689 35.24C49.9823 34.5867 51.3357 34.26 52.749 34.26C53.6023 34.26 54.369 34.38 55.049 34.62C55.729 34.86 56.2623 35.2 56.649 35.64C57.0357 36.08 57.229 36.58 57.229 37.14C57.229 37.66 57.0557 38.1267 56.709 38.54C56.3623 38.9533 55.8957 39.2667 55.309 39.48ZM60.4479 34.4H62.3679V38.9H68.4079V34.4H70.3279V45H68.4079V40.56H62.3679V45H60.4479V34.4ZM83.6412 39.76C83.6412 39.9067 83.6278 40.1 83.6012 40.34H75.0012C75.1212 41.2733 75.5278 42.0267 76.2212 42.6C76.9278 43.16 77.8012 43.44 78.8412 43.44C80.1078 43.44 81.1278 43.0133 81.9012 42.16L82.9612 43.4C82.4812 43.96 81.8812 44.3867 81.1612 44.68C80.4545 44.9733 79.6612 45.12 78.7812 45.12C77.6612 45.12 76.6678 44.8933 75.8012 44.44C74.9345 43.9733 74.2612 43.3267 73.7812 42.5C73.3145 41.6733 73.0812 40.74 73.0812 39.7C73.0812 38.6733 73.3078 37.7467 73.7612 36.92C74.2278 36.0933 74.8612 35.4533 75.6612 35C76.4745 34.5333 77.3878 34.3 78.4012 34.3C79.4145 34.3 80.3145 34.5333 81.1012 35C81.9012 35.4533 82.5212 36.0933 82.9612 36.92C83.4145 37.7467 83.6412 38.6933 83.6412 39.76ZM78.4012 35.92C77.4812 35.92 76.7078 36.2 76.0812 36.76C75.4678 37.32 75.1078 38.0533 75.0012 38.96H81.8012C81.6945 38.0667 81.3278 37.34 80.7012 36.78C80.0878 36.2067 79.3212 35.92 78.4012 35.92ZM91.2398 45.12C90.1598 45.12 89.1931 44.8867 88.3398 44.42C87.4998 43.9533 86.8398 43.3133 86.3598 42.5C85.8798 41.6733 85.6398 40.74 85.6398 39.7C85.6398 38.66 85.8798 37.7333 86.3598 36.92C86.8398 36.0933 87.4998 35.4533 88.3398 35C89.1931 34.5333 90.1598 34.3 91.2398 34.3C92.1998 34.3 93.0531 34.4933 93.7998 34.88C94.5598 35.2667 95.1464 35.8267 95.5598 36.56L94.0998 37.5C93.7664 36.9933 93.3531 36.6133 92.8598 36.36C92.3664 36.1067 91.8198 35.98 91.2198 35.98C90.5264 35.98 89.8998 36.1333 89.3398 36.44C88.7931 36.7467 88.3598 37.1867 88.0398 37.76C87.7331 38.32 87.5798 38.9667 87.5798 39.7C87.5798 40.4467 87.7331 41.1067 88.0398 41.68C88.3598 42.24 88.7931 42.6733 89.3398 42.98C89.8998 43.2867 90.5264 43.44 91.2198 43.44C91.8198 43.44 92.3664 43.3133 92.8598 43.06C93.3531 42.8067 93.7664 42.4267 94.0998 41.92L95.5598 42.84C95.1464 43.5733 94.5598 44.14 93.7998 44.54C93.0531 44.9267 92.1998 45.12 91.2398 45.12ZM107.369 34.4L102.229 46.06C101.775 47.14 101.242 47.9 100.629 48.34C100.029 48.78 99.3022 49 98.4488 49C97.9288 49 97.4222 48.9133 96.9288 48.74C96.4488 48.58 96.0488 48.34 95.7288 48.02L96.5488 46.58C97.0955 47.1 97.7288 47.36 98.4488 47.36C98.9155 47.36 99.3022 47.2333 99.6088 46.98C99.9288 46.74 100.215 46.32 100.469 45.72L100.809 44.98L96.1288 34.4H98.1288L101.829 42.88L105.489 34.4H107.369ZM109.111 42.38C109.484 42.38 109.791 42.5133 110.031 42.78C110.284 43.0333 110.411 43.3533 110.411 43.74C110.411 43.94 110.384 44.1333 110.331 44.32C110.291 44.5067 110.204 44.7933 110.071 45.18L109.131 47.96H107.871L108.611 44.98C108.357 44.8867 108.151 44.7333 107.991 44.52C107.844 44.2933 107.771 44.0333 107.771 43.74C107.771 43.34 107.897 43.0133 108.151 42.76C108.404 42.5067 108.724 42.38 109.111 42.38ZM122.693 40.52H120.493V45H118.573V34.4H120.493V38.88H122.733L126.173 34.4H128.233L124.213 39.5L128.513 45H126.253L122.693 40.52ZM134.714 45.12C133.661 45.12 132.714 44.8867 131.874 44.42C131.034 43.9533 130.374 43.3133 129.894 42.5C129.428 41.6733 129.194 40.74 129.194 39.7C129.194 38.66 129.428 37.7333 129.894 36.92C130.374 36.0933 131.034 35.4533 131.874 35C132.714 34.5333 133.661 34.3 134.714 34.3C135.768 34.3 136.708 34.5333 137.534 35C138.374 35.4533 139.028 36.0933 139.494 36.92C139.974 37.7333 140.214 38.66 140.214 39.7C140.214 40.74 139.974 41.6733 139.494 42.5C139.028 43.3133 138.374 43.9533 137.534 44.42C136.708 44.8867 135.768 45.12 134.714 45.12ZM134.714 43.44C135.394 43.44 136.001 43.2867 136.534 42.98C137.081 42.66 137.508 42.22 137.814 41.66C138.121 41.0867 138.274 40.4333 138.274 39.7C138.274 38.9667 138.121 38.32 137.814 37.76C137.508 37.1867 137.081 36.7467 136.534 36.44C136.001 36.1333 135.394 35.98 134.714 35.98C134.034 35.98 133.421 36.1333 132.874 36.44C132.341 36.7467 131.914 37.1867 131.594 37.76C131.288 38.32 131.134 38.9667 131.134 39.7C131.134 40.4333 131.288 41.0867 131.594 41.66C131.914 42.22 132.341 42.66 132.874 42.98C133.421 43.2867 134.034 43.44 134.714 43.44ZM155.207 34.4V45H153.467V37.26L149.507 43.8H148.667L144.747 37.24V45H142.987V34.4H144.967L149.127 41.56L153.407 34.4H155.207ZM168.764 34.4V45H166.844V36.08H160.864V45H158.944V34.4H168.764ZM176.259 34.3C177.726 34.3 178.846 34.66 179.619 35.38C180.406 36.1 180.799 37.1733 180.799 38.6V45H178.979V43.6C178.659 44.0933 178.199 44.4733 177.599 44.74C177.012 44.9933 176.312 45.12 175.499 45.12C174.312 45.12 173.359 44.8333 172.639 44.26C171.932 43.6867 171.579 42.9333 171.579 42C171.579 41.0667 171.919 40.32 172.599 39.76C173.279 39.1867 174.359 38.9 175.839 38.9H178.879V38.52C178.879 37.6933 178.639 37.06 178.159 36.62C177.679 36.18 176.972 35.96 176.039 35.96C175.412 35.96 174.799 36.0667 174.199 36.28C173.599 36.48 173.092 36.7533 172.679 37.1L171.879 35.66C172.426 35.22 173.079 34.8867 173.839 34.66C174.599 34.42 175.406 34.3 176.259 34.3ZM175.819 43.64C176.552 43.64 177.186 43.48 177.719 43.16C178.252 42.8267 178.639 42.36 178.879 41.76V40.28H175.919C174.292 40.28 173.479 40.8267 173.479 41.92C173.479 42.4533 173.686 42.8733 174.099 43.18C174.512 43.4867 175.086 43.64 175.819 43.64ZM184.256 34.4H186.176V38.9H192.216V34.4H194.136V45H192.216V40.56H186.176V45H184.256V34.4ZM197.87 34.4H199.79V42.12L206.29 34.4H208.03V45H206.11V37.28L199.63 45H197.87V34.4ZM220.256 34.4V45H218.536V41.64H215.456H215.236L212.916 45H210.856L213.436 41.38C212.636 41.14 212.023 40.7467 211.596 40.2C211.17 39.64 210.956 38.9467 210.956 38.12C210.956 36.9067 211.37 35.9867 212.196 35.36C213.023 34.72 214.163 34.4 215.616 34.4H220.256ZM212.916 38.18C212.916 38.8867 213.136 39.4133 213.576 39.76C214.03 40.0933 214.703 40.26 215.596 40.26H218.536V36.08H215.676C213.836 36.08 212.916 36.78 212.916 38.18ZM236.223 34.4V45H234.483V37.26L230.523 43.8H229.683L225.763 37.24V45H224.003V34.4H225.983L230.143 41.56L234.423 34.4H236.223ZM240.4 42.38C240.773 42.38 241.08 42.5133 241.32 42.78C241.573 43.0333 241.7 43.3533 241.7 43.74C241.7 43.94 241.673 44.1333 241.62 44.32C241.58 44.5067 241.493 44.7933 241.36 45.18L240.42 47.96H239.16L239.9 44.98C239.646 44.8867 239.44 44.7333 239.28 44.52C239.133 44.2933 239.06 44.0333 239.06 43.74C239.06 43.34 239.186 43.0133 239.44 42.76C239.693 42.5067 240.013 42.38 240.4 42.38ZM60.398 69.12C59.3447 69.12 58.398 68.8867 57.558 68.42C56.718 67.9533 56.058 67.3133 55.578 66.5C55.1114 65.6733 54.878 64.74 54.878 63.7C54.878 62.66 55.1114 61.7333 55.578 60.92C56.058 60.0933 56.718 59.4533 57.558 59C58.398 58.5333 59.3447 58.3 60.398 58.3C61.4514 58.3 62.3914 58.5333 63.218 59C64.058 59.4533 64.7114 60.0933 65.178 60.92C65.658 61.7333 65.898 62.66 65.898 63.7C65.898 64.74 65.658 65.6733 65.178 66.5C64.7114 67.3133 64.058 67.9533 63.218 68.42C62.3914 68.8867 61.4514 69.12 60.398 69.12ZM60.398 67.44C61.078 67.44 61.6847 67.2867 62.218 66.98C62.7647 66.66 63.1914 66.22 63.498 65.66C63.8047 65.0867 63.958 64.4333 63.958 63.7C63.958 62.9667 63.8047 62.32 63.498 61.76C63.1914 61.1867 62.7647 60.7467 62.218 60.44C61.6847 60.1333 61.078 59.98 60.398 59.98C59.718 59.98 59.1047 60.1333 58.558 60.44C58.0247 60.7467 57.598 61.1867 57.278 61.76C56.9714 62.32 56.818 62.9667 56.818 63.7C56.818 64.4333 56.9714 65.0867 57.278 65.66C57.598 66.22 58.0247 66.66 58.558 66.98C59.1047 67.2867 59.718 67.44 60.398 67.44ZM74.2905 58.3C75.3172 58.3 76.2372 58.5267 77.0505 58.98C77.8639 59.4333 78.4972 60.0667 78.9505 60.88C79.4172 61.6933 79.6505 62.6333 79.6505 63.7C79.6505 64.7667 79.4172 65.7133 78.9505 66.54C78.4972 67.3533 77.8639 67.9867 77.0505 68.44C76.2372 68.8933 75.3172 69.12 74.2905 69.12C73.5305 69.12 72.8305 68.9733 72.1905 68.68C71.5639 68.3867 71.0305 67.96 70.5905 67.4V72.88H68.6705V58.4H70.5105V60.08C70.9372 59.4933 71.4772 59.0533 72.1305 58.76C72.7839 58.4533 73.5039 58.3 74.2905 58.3ZM74.1305 67.44C74.8105 67.44 75.4172 67.2867 75.9505 66.98C76.4972 66.66 76.9239 66.22 77.2305 65.66C77.5505 65.0867 77.7105 64.4333 77.7105 63.7C77.7105 62.9667 77.5505 62.32 77.2305 61.76C76.9239 61.1867 76.4972 60.7467 75.9505 60.44C75.4172 60.1333 74.8105 59.98 74.1305 59.98C73.4639 59.98 72.8572 60.14 72.3105 60.46C71.7772 60.7667 71.3505 61.2 71.0305 61.76C70.7239 62.32 70.5705 62.9667 70.5705 63.7C70.5705 64.4333 70.7239 65.0867 71.0305 65.66C71.3372 66.22 71.7639 66.66 72.3105 66.98C72.8572 67.2867 73.4639 67.44 74.1305 67.44ZM90.2401 60.08H84.3601V69H82.4401V58.4H90.2401V60.08ZM95.9857 58.3C97.4524 58.3 98.5724 58.66 99.3457 59.38C100.132 60.1 100.526 61.1733 100.526 62.6V69H98.7057V67.6C98.3857 68.0933 97.9257 68.4733 97.3257 68.74C96.739 68.9933 96.039 69.12 95.2257 69.12C94.039 69.12 93.0857 68.8333 92.3657 68.26C91.659 67.6867 91.3057 66.9333 91.3057 66C91.3057 65.0667 91.6457 64.32 92.3257 63.76C93.0057 63.1867 94.0857 62.9 95.5657 62.9H98.6057V62.52C98.6057 61.6933 98.3657 61.06 97.8857 60.62C97.4057 60.18 96.699 59.96 95.7657 59.96C95.139 59.96 94.5257 60.0667 93.9257 60.28C93.3257 60.48 92.819 60.7533 92.4057 61.1L91.6057 59.66C92.1524 59.22 92.8057 58.8867 93.5657 58.66C94.3257 58.42 95.1324 58.3 95.9857 58.3ZM95.5457 67.64C96.279 67.64 96.9124 67.48 97.4457 67.16C97.979 66.8267 98.3657 66.36 98.6057 65.76V64.28H95.6457C94.019 64.28 93.2057 64.8267 93.2057 65.92C93.2057 66.4533 93.4124 66.8733 93.8257 67.18C94.239 67.4867 94.8124 67.64 95.5457 67.64ZM103.983 58.4H105.903V62.9H111.943V58.4H113.863V69H111.943V64.56H105.903V69H103.983V58.4ZM117.596 58.4H119.516V66.12L126.016 58.4H127.756V69H125.836V61.28L119.356 69H117.596V58.4ZM137.047 63.48C137.754 63.6667 138.301 63.9667 138.687 64.38C139.074 64.7933 139.267 65.3067 139.267 65.92C139.267 66.5467 139.054 67.1067 138.627 67.6C138.201 68.08 137.607 68.46 136.847 68.74C136.101 69.0067 135.261 69.14 134.327 69.14C133.541 69.14 132.767 69.04 132.007 68.84C131.261 68.6267 130.594 68.3267 130.007 67.94L130.587 66.48C131.094 66.8 131.674 67.0533 132.327 67.24C132.981 67.4133 133.641 67.5 134.307 67.5C135.214 67.5 135.934 67.3467 136.467 67.04C137.014 66.72 137.287 66.2933 137.287 65.76C137.287 65.2667 137.067 64.8867 136.627 64.62C136.201 64.3533 135.594 64.22 134.807 64.22H132.867V62.84H134.667C135.387 62.84 135.954 62.7133 136.367 62.46C136.781 62.2067 136.987 61.86 136.987 61.42C136.987 60.94 136.741 60.5667 136.247 60.3C135.767 60.0333 135.114 59.9 134.287 59.9C133.234 59.9 132.121 60.1733 130.947 60.72L130.427 59.24C131.721 58.5867 133.074 58.26 134.487 58.26C135.341 58.26 136.107 58.38 136.787 58.62C137.467 58.86 138.001 59.2 138.387 59.64C138.774 60.08 138.967 60.58 138.967 61.14C138.967 61.66 138.794 62.1267 138.447 62.54C138.101 62.9533 137.634 63.2667 137.047 63.48ZM145.966 58.3C147.433 58.3 148.553 58.66 149.326 59.38C150.113 60.1 150.506 61.1733 150.506 62.6V69H148.686V67.6C148.366 68.0933 147.906 68.4733 147.306 68.74C146.72 68.9933 146.02 69.12 145.206 69.12C144.02 69.12 143.066 68.8333 142.346 68.26C141.64 67.6867 141.286 66.9333 141.286 66C141.286 65.0667 141.626 64.32 142.306 63.76C142.986 63.1867 144.066 62.9 145.546 62.9H148.586V62.52C148.586 61.6933 148.346 61.06 147.866 60.62C147.386 60.18 146.68 59.96 145.746 59.96C145.12 59.96 144.506 60.0667 143.906 60.28C143.306 60.48 142.8 60.7533 142.386 61.1L141.586 59.66C142.133 59.22 142.786 58.8867 143.546 58.66C144.306 58.42 145.113 58.3 145.966 58.3ZM145.526 67.64C146.26 67.64 146.893 67.48 147.426 67.16C147.96 66.8267 148.346 66.36 148.586 65.76V64.28H145.626C144 64.28 143.186 64.8267 143.186 65.92C143.186 66.4533 143.393 66.8733 143.806 67.18C144.22 67.4867 144.793 67.64 145.526 67.64ZM165.284 67.32V71.54H163.464V69H153.964V58.4H155.884V67.32H161.684V58.4H163.604V67.32H165.284ZM167.772 58.4H169.692V66.12L176.192 58.4H177.932V69H176.012V61.28L169.532 69H167.772V58.4ZM190.159 58.4V69H188.439V65.64H185.359H185.139L182.819 69H180.759L183.339 65.38C182.539 65.14 181.925 64.7467 181.499 64.2C181.072 63.64 180.859 62.9467 180.859 62.12C180.859 60.9067 181.272 59.9867 182.099 59.36C182.925 58.72 184.065 58.4 185.519 58.4H190.159ZM182.819 62.18C182.819 62.8867 183.039 63.4133 183.479 63.76C183.932 64.0933 184.605 64.26 185.499 64.26H188.439V60.08H185.579C183.739 60.08 182.819 60.78 182.819 62.18ZM206.125 58.4V69H204.385V61.26L200.425 67.8H199.585L195.665 61.24V69H193.905V58.4H195.885L200.045 65.56L204.325 58.4H206.125Z" fill="#E1D3C1"/>
<path d="M41.4113 169.92H36.3713V183H35.3513V169.92H30.3113V169H41.4113V169.92ZM51.5815 178.02H42.6015C42.6282 178.833 42.8348 179.56 43.2215 180.2C43.6082 180.827 44.1282 181.313 44.7815 181.66C45.4482 182.007 46.1948 182.18 47.0215 182.18C47.7015 182.18 48.3282 182.06 48.9015 181.82C49.4882 181.567 49.9748 181.2 50.3615 180.72L50.9415 181.38C50.4882 181.927 49.9148 182.347 49.2215 182.64C48.5415 182.933 47.8015 183.08 47.0015 183.08C45.9615 183.08 45.0348 182.853 44.2215 182.4C43.4082 181.947 42.7682 181.32 42.3015 180.52C41.8482 179.72 41.6215 178.807 41.6215 177.78C41.6215 176.767 41.8348 175.86 42.2615 175.06C42.7015 174.247 43.3015 173.613 44.0615 173.16C44.8215 172.707 45.6748 172.48 46.6215 172.48C47.5682 172.48 48.4148 172.707 49.1615 173.16C49.9215 173.6 50.5148 174.22 50.9415 175.02C51.3815 175.82 51.6015 176.727 51.6015 177.74L51.5815 178.02ZM46.6215 173.36C45.8882 173.36 45.2282 173.527 44.6415 173.86C44.0548 174.18 43.5815 174.64 43.2215 175.24C42.8748 175.827 42.6748 176.493 42.6215 177.24H50.6215C50.5815 176.493 50.3815 175.827 50.0215 175.24C49.6615 174.653 49.1882 174.193 48.6015 173.86C48.0148 173.527 47.3548 173.36 46.6215 173.36ZM66.229 172.56V183H65.309V174.16L60.769 181.66H60.309L55.789 174.18V183H54.869V172.56H55.849L60.569 180.46L65.309 172.56H66.229ZM70.3926 181.38C70.6326 181.38 70.8326 181.467 70.9926 181.64C71.1526 181.8 71.2326 181.993 71.2326 182.22C71.2326 182.353 71.2126 182.493 71.1726 182.64C71.1459 182.787 71.1059 182.953 71.0526 183.14L70.2726 185.86H69.5526L70.2126 183.04C70.0126 182.987 69.8526 182.893 69.7326 182.76C69.6126 182.613 69.5526 182.433 69.5526 182.22C69.5526 181.98 69.6326 181.78 69.7926 181.62C69.9526 181.46 70.1526 181.38 70.3926 181.38ZM83.2332 178.16H80.6932V183H79.6932V172.56H80.6932V177.3H83.2332L87.1732 172.56H88.2732L84.0332 177.62L88.5932 183H87.3932L83.2332 178.16ZM97.7865 173.46H93.7065V183H92.7065V173.46H88.6265V172.56H97.7865V173.46ZM103.599 183.08C102.613 183.08 101.719 182.853 100.919 182.4C100.133 181.947 99.5126 181.32 99.0593 180.52C98.606 179.707 98.3793 178.793 98.3793 177.78C98.3793 176.767 98.606 175.86 99.0593 175.06C99.5126 174.247 100.133 173.613 100.919 173.16C101.719 172.707 102.613 172.48 103.599 172.48C104.586 172.48 105.473 172.707 106.259 173.16C107.059 173.613 107.686 174.247 108.139 175.06C108.593 175.86 108.819 176.767 108.819 177.78C108.819 178.793 108.593 179.707 108.139 180.52C107.686 181.32 107.059 181.947 106.259 182.4C105.473 182.853 104.586 183.08 103.599 183.08ZM103.599 182.18C104.399 182.18 105.113 181.993 105.739 181.62C106.379 181.247 106.879 180.727 107.239 180.06C107.613 179.393 107.799 178.633 107.799 177.78C107.799 176.927 107.613 176.167 107.239 175.5C106.879 174.833 106.379 174.313 105.739 173.94C105.113 173.567 104.399 173.38 103.599 173.38C102.799 173.38 102.079 173.567 101.439 173.94C100.813 174.313 100.313 174.833 99.9393 175.5C99.5793 176.167 99.3993 176.927 99.3993 177.78C99.3993 178.633 99.5793 179.393 99.9393 180.06C100.313 180.727 100.813 181.247 101.439 181.62C102.079 181.993 102.799 182.18 103.599 182.18ZM123.753 183L120.173 178.34L116.593 183H115.453L119.593 177.62L115.673 172.56H116.813L120.173 176.9L123.533 172.56H124.653L120.733 177.62L124.933 183H123.753ZM131.256 183.08C130.269 183.08 129.376 182.853 128.576 182.4C127.789 181.947 127.169 181.32 126.716 180.52C126.262 179.707 126.036 178.793 126.036 177.78C126.036 176.767 126.262 175.86 126.716 175.06C127.169 174.247 127.789 173.613 128.576 173.16C129.376 172.707 130.269 172.48 131.256 172.48C132.242 172.48 133.129 172.707 133.916 173.16C134.716 173.613 135.342 174.247 135.796 175.06C136.249 175.86 136.476 176.767 136.476 177.78C136.476 178.793 136.249 179.707 135.796 180.52C135.342 181.32 134.716 181.947 133.916 182.4C133.129 182.853 132.242 183.08 131.256 183.08ZM131.256 182.18C132.056 182.18 132.769 181.993 133.396 181.62C134.036 181.247 134.536 180.727 134.896 180.06C135.269 179.393 135.456 178.633 135.456 177.78C135.456 176.927 135.269 176.167 134.896 175.5C134.536 174.833 134.036 174.313 133.396 173.94C132.769 173.567 132.056 173.38 131.256 173.38C130.456 173.38 129.736 173.567 129.096 173.94C128.469 174.313 127.969 174.833 127.596 175.5C127.236 176.167 127.056 176.927 127.056 177.78C127.056 178.633 127.236 179.393 127.596 180.06C127.969 180.727 128.469 181.247 129.096 181.62C129.736 181.993 130.456 182.18 131.256 182.18ZM147.232 172.56V183H146.232V178.5C144.992 179.073 143.752 179.36 142.512 179.36C141.286 179.36 140.319 179.08 139.612 178.52C138.919 177.96 138.572 177.133 138.572 176.04V172.56H139.572V175.98C139.572 176.793 139.846 177.42 140.392 177.86C140.939 178.3 141.692 178.52 142.652 178.52C143.746 178.52 144.939 178.247 146.232 177.7V172.56H147.232ZM160.449 178.02H151.469C151.495 178.833 151.702 179.56 152.089 180.2C152.475 180.827 152.995 181.313 153.649 181.66C154.315 182.007 155.062 182.18 155.889 182.18C156.569 182.18 157.195 182.06 157.769 181.82C158.355 181.567 158.842 181.2 159.229 180.72L159.809 181.38C159.355 181.927 158.782 182.347 158.089 182.64C157.409 182.933 156.669 183.08 155.869 183.08C154.829 183.08 153.902 182.853 153.089 182.4C152.275 181.947 151.635 181.32 151.169 180.52C150.715 179.72 150.489 178.807 150.489 177.78C150.489 176.767 150.702 175.86 151.129 175.06C151.569 174.247 152.169 173.613 152.929 173.16C153.689 172.707 154.542 172.48 155.489 172.48C156.435 172.48 157.282 172.707 158.029 173.16C158.789 173.6 159.382 174.22 159.809 175.02C160.249 175.82 160.469 176.727 160.469 177.74L160.449 178.02ZM155.489 173.36C154.755 173.36 154.095 173.527 153.509 173.86C152.922 174.18 152.449 174.64 152.089 175.24C151.742 175.827 151.542 176.493 151.489 177.24H159.489C159.449 176.493 159.249 175.827 158.889 175.24C158.529 174.653 158.055 174.193 157.469 173.86C156.882 173.527 156.222 173.36 155.489 173.36ZM170.228 173.46H166.148V183H165.148V173.46H161.068V172.56H170.228V173.46ZM186.006 172.56L180.646 184.42C180.246 185.34 179.779 185.993 179.246 186.38C178.726 186.767 178.106 186.96 177.386 186.96C176.906 186.96 176.452 186.88 176.026 186.72C175.612 186.56 175.259 186.327 174.966 186.02L175.466 185.26C175.999 185.807 176.646 186.08 177.406 186.08C177.912 186.08 178.346 185.94 178.706 185.66C179.066 185.38 179.399 184.9 179.706 184.22L180.266 182.96L175.566 172.56H176.626L180.806 181.9L184.986 172.56H186.006ZM195.924 172.56V183H194.924V178.5C193.684 179.073 192.444 179.36 191.204 179.36C189.977 179.36 189.01 179.08 188.304 178.52C187.61 177.96 187.264 177.133 187.264 176.04V172.56H188.264V175.98C188.264 176.793 188.537 177.42 189.084 177.86C189.63 178.3 190.384 178.52 191.344 178.52C192.437 178.52 193.63 178.247 194.924 177.7V172.56H195.924ZM200.24 172.56H201.24V181.46L208.68 172.56H209.56V183H208.56V174.1L201.12 183H200.24V172.56ZM220.853 173.46H216.773V183H215.773V173.46H211.693V172.56H220.853V173.46ZM227.174 176.36C228.467 176.373 229.454 176.66 230.134 177.22C230.814 177.767 231.154 178.573 231.154 179.64C231.154 180.747 230.794 181.593 230.074 182.18C229.354 182.767 228.307 183.053 226.934 183.04L222.994 183V172.56H223.994V176.32L227.174 176.36ZM226.914 182.24C227.967 182.253 228.767 182.04 229.314 181.6C229.861 181.16 230.134 180.507 230.134 179.64C230.134 178.8 229.867 178.18 229.334 177.78C228.801 177.367 227.994 177.147 226.914 177.12L223.994 177.1V182.2L226.914 182.24ZM39.1085 207.08C38.0952 207.08 37.1885 206.853 36.3885 206.4C35.5885 205.947 34.9618 205.32 34.5085 204.52C34.0552 203.707 33.8285 202.793 33.8285 201.78C33.8285 200.753 34.0552 199.84 34.5085 199.04C34.9618 198.227 35.5885 197.6 36.3885 197.16C37.1885 196.707 38.0952 196.48 39.1085 196.48C39.9485 196.48 40.7085 196.647 41.3885 196.98C42.0818 197.3 42.6418 197.773 43.0685 198.4L42.3285 198.94C41.9552 198.42 41.4885 198.033 40.9285 197.78C40.3818 197.513 39.7752 197.38 39.1085 197.38C38.2952 197.38 37.5618 197.567 36.9085 197.94C36.2685 198.3 35.7618 198.813 35.3885 199.48C35.0285 200.147 34.8485 200.913 34.8485 201.78C34.8485 202.647 35.0285 203.413 35.3885 204.08C35.7618 204.747 36.2685 205.267 36.9085 205.64C37.5618 206 38.2952 206.18 39.1085 206.18C39.7752 206.18 40.3818 206.053 40.9285 205.8C41.4885 205.533 41.9552 205.14 42.3285 204.62L43.0685 205.16C42.6418 205.787 42.0818 206.267 41.3885 206.6C40.7085 206.92 39.9485 207.08 39.1085 207.08ZM52.2013 201.62C53.7347 201.887 54.5013 202.747 54.5013 204.2C54.5013 205.107 54.168 205.8 53.5013 206.28C52.848 206.76 51.8613 207 50.5413 207H46.0213V196.56H50.4213C51.5813 196.56 52.488 196.793 53.1413 197.26C53.808 197.713 54.1413 198.367 54.1413 199.22C54.1413 199.833 53.968 200.347 53.6213 200.76C53.288 201.16 52.8147 201.447 52.2013 201.62ZM47.0013 201.32H50.3613C51.2547 201.32 51.9413 201.153 52.4213 200.82C52.9013 200.473 53.1413 199.98 53.1413 199.34C53.1413 198.687 52.9013 198.2 52.4213 197.88C51.9547 197.547 51.268 197.38 50.3613 197.38H47.0013V201.32ZM50.5213 206.18C52.508 206.18 53.5013 205.507 53.5013 204.16C53.5013 203.453 53.2747 202.933 52.8213 202.6C52.368 202.267 51.6547 202.1 50.6813 202.1H47.0013V206.18H50.5213ZM62.2126 207.08C61.2259 207.08 60.3326 206.853 59.5326 206.4C58.7459 205.947 58.1259 205.32 57.6726 204.52C57.2192 203.707 56.9926 202.793 56.9926 201.78C56.9926 200.767 57.2192 199.86 57.6726 199.06C58.1259 198.247 58.7459 197.613 59.5326 197.16C60.3326 196.707 61.2259 196.48 62.2126 196.48C63.1992 196.48 64.0859 196.707 64.8726 197.16C65.6726 197.613 66.2992 198.247 66.7526 199.06C67.2059 199.86 67.4326 200.767 67.4326 201.78C67.4326 202.793 67.2059 203.707 66.7526 204.52C66.2992 205.32 65.6726 205.947 64.8726 206.4C64.0859 206.853 63.1992 207.08 62.2126 207.08ZM62.2126 206.18C63.0126 206.18 63.7259 205.993 64.3526 205.62C64.9926 205.247 65.4926 204.727 65.8526 204.06C66.2259 203.393 66.4126 202.633 66.4126 201.78C66.4126 200.927 66.2259 200.167 65.8526 199.5C65.4926 198.833 64.9926 198.313 64.3526 197.94C63.7259 197.567 63.0126 197.38 62.2126 197.38C61.4126 197.38 60.6926 197.567 60.0526 197.94C59.4259 198.313 58.9259 198.833 58.5526 199.5C58.1926 200.167 58.0126 200.927 58.0126 201.78C58.0126 202.633 58.1926 203.393 58.5526 204.06C58.9259 204.727 59.4259 205.247 60.0526 205.62C60.6926 205.993 61.4126 206.18 62.2126 206.18ZM70.6893 196.56H71.6893V205.46L79.1293 196.56H80.0093V207H79.0093V198.1L71.5693 207H70.6893V196.56ZM90.8621 207L87.2821 202.34L83.7021 207H82.5621L86.7021 201.62L82.7821 196.56H83.9221L87.2821 200.9L90.6421 196.56H91.7621L87.8421 201.62L92.0421 207H90.8621ZM103.933 207.08C102.919 207.08 102.013 206.853 101.213 206.4C100.413 205.947 99.7861 205.32 99.3327 204.52C98.8794 203.707 98.6527 202.793 98.6527 201.78C98.6527 200.753 98.8794 199.84 99.3327 199.04C99.7861 198.227 100.413 197.6 101.213 197.16C102.013 196.707 102.919 196.48 103.933 196.48C104.773 196.48 105.533 196.647 106.213 196.98C106.906 197.3 107.466 197.773 107.893 198.4L107.153 198.94C106.779 198.42 106.313 198.033 105.753 197.78C105.206 197.513 104.599 197.38 103.933 197.38C103.119 197.38 102.386 197.567 101.733 197.94C101.093 198.3 100.586 198.813 100.213 199.48C99.8527 200.147 99.6727 200.913 99.6727 201.78C99.6727 202.647 99.8527 203.413 100.213 204.08C100.586 204.747 101.093 205.267 101.733 205.64C102.386 206 103.119 206.18 103.933 206.18C104.599 206.18 105.206 206.053 105.753 205.8C106.313 205.533 106.779 205.14 107.153 204.62L107.893 205.16C107.466 205.787 106.906 206.267 106.213 206.6C105.533 206.92 104.773 207.08 103.933 207.08ZM114.83 207.08C113.843 207.08 112.95 206.853 112.15 206.4C111.363 205.947 110.743 205.32 110.29 204.52C109.836 203.707 109.61 202.793 109.61 201.78C109.61 200.767 109.836 199.86 110.29 199.06C110.743 198.247 111.363 197.613 112.15 197.16C112.95 196.707 113.843 196.48 114.83 196.48C115.816 196.48 116.703 196.707 117.49 197.16C118.29 197.613 118.916 198.247 119.37 199.06C119.823 199.86 120.05 200.767 120.05 201.78C120.05 202.793 119.823 203.707 119.37 204.52C118.916 205.32 118.29 205.947 117.49 206.4C116.703 206.853 115.816 207.08 114.83 207.08ZM114.83 206.18C115.63 206.18 116.343 205.993 116.97 205.62C117.61 205.247 118.11 204.727 118.47 204.06C118.843 203.393 119.03 202.633 119.03 201.78C119.03 200.927 118.843 200.167 118.47 199.5C118.11 198.833 117.61 198.313 116.97 197.94C116.343 197.567 115.63 197.38 114.83 197.38C114.03 197.38 113.31 197.567 112.67 197.94C112.043 198.313 111.543 198.833 111.17 199.5C110.81 200.167 110.63 200.927 110.63 201.78C110.63 202.633 110.81 203.393 111.17 204.06C111.543 204.727 112.043 205.247 112.67 205.62C113.31 205.993 114.03 206.18 114.83 206.18ZM129.896 197.46H125.816V207H124.816V197.46H120.736V196.56H129.896V197.46ZM137.297 196.48C138.27 196.48 139.15 196.707 139.937 197.16C140.724 197.613 141.337 198.24 141.777 199.04C142.23 199.84 142.457 200.753 142.457 201.78C142.457 202.807 142.23 203.727 141.777 204.54C141.337 205.34 140.724 205.967 139.937 206.42C139.15 206.86 138.27 207.08 137.297 207.08C136.377 207.08 135.544 206.867 134.797 206.44C134.05 206 133.47 205.393 133.057 204.62V210.88H132.057V196.56H133.017V199.02C133.43 198.22 134.01 197.6 134.757 197.16C135.517 196.707 136.364 196.48 137.297 196.48ZM137.237 206.18C138.037 206.18 138.757 205.993 139.397 205.62C140.037 205.247 140.537 204.727 140.897 204.06C141.27 203.393 141.457 202.633 141.457 201.78C141.457 200.927 141.27 200.167 140.897 199.5C140.537 198.833 140.037 198.313 139.397 197.94C138.757 197.567 138.037 197.38 137.237 197.38C136.437 197.38 135.717 197.567 135.077 197.94C134.45 198.313 133.95 198.833 133.577 199.5C133.217 200.167 133.037 200.927 133.037 201.78C133.037 202.633 133.217 203.393 133.577 204.06C133.95 204.727 134.45 205.247 135.077 205.62C135.717 205.993 136.437 206.18 137.237 206.18ZM153.916 196.56L148.556 208.42C148.156 209.34 147.689 209.993 147.156 210.38C146.636 210.767 146.016 210.96 145.296 210.96C144.816 210.96 144.363 210.88 143.936 210.72C143.523 210.56 143.169 210.327 142.876 210.02L143.376 209.26C143.909 209.807 144.556 210.08 145.316 210.08C145.823 210.08 146.256 209.94 146.616 209.66C146.976 209.38 147.309 208.9 147.616 208.22L148.176 206.96L143.476 196.56H144.536L148.716 205.9L152.896 196.56H153.916ZM165.783 206.12V209.6H164.843V207H154.963V209.6H154.003V206.12H154.623C155.329 206.08 155.809 205.533 156.063 204.48C156.329 203.413 156.516 201.92 156.623 200L156.763 196.56H164.103V206.12H165.783ZM157.543 200.06C157.476 201.647 157.343 202.967 157.143 204.02C156.943 205.073 156.583 205.773 156.063 206.12H163.103V197.46H157.663L157.543 200.06ZM168.736 196.56H169.736V201.32H176.816V196.56H177.816V207H176.816V202.2H169.736V207H168.736V196.56ZM182.135 196.56H183.135V205.46L190.575 196.56H191.455V207H190.455V198.1L183.015 207H182.135V196.56ZM199.307 202.16H196.767V207H195.767V196.56H196.767V201.3H199.307L203.247 196.56H204.347L200.107 201.62L204.667 207H203.467L199.307 202.16ZM210.924 207.08C209.937 207.08 209.044 206.853 208.244 206.4C207.457 205.947 206.837 205.32 206.384 204.52C205.93 203.707 205.704 202.793 205.704 201.78C205.704 200.767 205.93 199.86 206.384 199.06C206.837 198.247 207.457 197.613 208.244 197.16C209.044 196.707 209.937 196.48 210.924 196.48C211.91 196.48 212.797 196.707 213.584 197.16C214.384 197.613 215.01 198.247 215.464 199.06C215.917 199.86 216.144 200.767 216.144 201.78C216.144 202.793 215.917 203.707 215.464 204.52C215.01 205.32 214.384 205.947 213.584 206.4C212.797 206.853 211.91 207.08 210.924 207.08ZM210.924 206.18C211.724 206.18 212.437 205.993 213.064 205.62C213.704 205.247 214.204 204.727 214.564 204.06C214.937 203.393 215.124 202.633 215.124 201.78C215.124 200.927 214.937 200.167 214.564 199.5C214.204 198.833 213.704 198.313 213.064 197.94C212.437 197.567 211.724 197.38 210.924 197.38C210.124 197.38 209.404 197.567 208.764 197.94C208.137 198.313 207.637 198.833 207.264 199.5C206.904 200.167 206.724 200.927 206.724 201.78C206.724 202.633 206.904 203.393 207.264 204.06C207.637 204.727 208.137 205.247 208.764 205.62C209.404 205.993 210.124 206.18 210.924 206.18ZM225.58 201.62C227.114 201.887 227.88 202.747 227.88 204.2C227.88 205.107 227.547 205.8 226.88 206.28C226.227 206.76 225.24 207 223.92 207H219.4V196.56H223.8C224.96 196.56 225.867 196.793 226.52 197.26C227.187 197.713 227.52 198.367 227.52 199.22C227.52 199.833 227.347 200.347 227 200.76C226.667 201.16 226.194 201.447 225.58 201.62ZM220.38 201.32H223.74C224.634 201.32 225.32 201.153 225.8 200.82C226.28 200.473 226.52 199.98 226.52 199.34C226.52 198.687 226.28 198.2 225.8 197.88C225.334 197.547 224.647 197.38 223.74 197.38H220.38V201.32ZM223.9 206.18C225.887 206.18 226.88 205.507 226.88 204.16C226.88 203.453 226.654 202.933 226.2 202.6C225.747 202.267 225.034 202.1 224.06 202.1H220.38V206.18H223.9ZM83.4688 220.72C84.4421 220.72 85.3021 220.94 86.0488 221.38C86.8088 221.807 87.4021 222.407 87.8288 223.18C88.2554 223.953 88.4688 224.847 88.4688 225.86C88.4688 226.873 88.2488 227.78 87.8088 228.58C87.3821 229.367 86.7754 229.987 85.9888 230.44C85.2154 230.88 84.3288 231.1 83.3288 231.1C82.1821 231.1 81.2021 230.82 80.3888 230.26C79.5888 229.7 78.9754 228.907 78.5488 227.88C78.1354 226.853 77.9288 225.653 77.9288 224.28C77.9288 222.72 78.1154 221.427 78.4888 220.4C78.8754 219.373 79.4488 218.567 80.2088 217.98C80.9821 217.38 81.9688 216.933 83.1688 216.64L87.7888 215.52L87.9488 216.46L83.5488 217.5C82.4688 217.753 81.5888 218.127 80.9088 218.62C80.2421 219.1 79.7421 219.76 79.4087 220.6C79.0754 221.44 78.9021 222.513 78.8888 223.82C79.2354 222.86 79.8154 222.107 80.6288 221.56C81.4421 221 82.3888 220.72 83.4688 220.72ZM83.3488 230.24C84.1354 230.24 84.8421 230.053 85.4688 229.68C86.0954 229.307 86.5821 228.793 86.9288 228.14C87.2754 227.473 87.4488 226.72 87.4488 225.88C87.4488 225.04 87.2754 224.3 86.9288 223.66C86.5821 223.007 86.0954 222.507 85.4688 222.16C84.8554 221.8 84.1488 221.62 83.3488 221.62C82.5488 221.62 81.8354 221.8 81.2088 222.16C80.5821 222.507 80.0954 223.007 79.7488 223.66C79.4021 224.3 79.2288 225.04 79.2288 225.88C79.2288 226.72 79.4021 227.473 79.7488 228.14C80.0954 228.793 80.5821 229.307 81.2088 229.68C81.8354 230.053 82.5488 230.24 83.3488 230.24ZM100.654 226.02H91.6738C91.7004 226.833 91.9071 227.56 92.2938 228.2C92.6804 228.827 93.2004 229.313 93.8538 229.66C94.5204 230.007 95.2671 230.18 96.0938 230.18C96.7738 230.18 97.4004 230.06 97.9738 229.82C98.5604 229.567 99.0471 229.2 99.4338 228.72L100.014 229.38C99.5604 229.927 98.9871 230.347 98.2938 230.64C97.6138 230.933 96.8738 231.08 96.0738 231.08C95.0338 231.08 94.1071 230.853 93.2938 230.4C92.4804 229.947 91.8404 229.32 91.3738 228.52C90.9204 227.72 90.6938 226.807 90.6938 225.78C90.6938 224.767 90.9071 223.86 91.3338 223.06C91.7738 222.247 92.3738 221.613 93.1338 221.16C93.8938 220.707 94.7471 220.48 95.6938 220.48C96.6404 220.48 97.4871 220.707 98.2338 221.16C98.9938 221.6 99.5871 222.22 100.014 223.02C100.454 223.82 100.674 224.727 100.674 225.74L100.654 226.02ZM95.6938 221.36C94.9604 221.36 94.3004 221.527 93.7138 221.86C93.1271 222.18 92.6538 222.64 92.2938 223.24C91.9471 223.827 91.7471 224.493 91.6938 225.24H99.6937C99.6538 224.493 99.4538 223.827 99.0938 223.24C98.7338 222.653 98.2604 222.193 97.6738 221.86C97.0871 221.527 96.4271 221.36 95.6938 221.36ZM108.161 231.08C107.148 231.08 106.241 230.853 105.441 230.4C104.641 229.947 104.015 229.32 103.561 228.52C103.108 227.707 102.881 226.793 102.881 225.78C102.881 224.753 103.108 223.84 103.561 223.04C104.015 222.227 104.641 221.6 105.441 221.16C106.241 220.707 107.148 220.48 108.161 220.48C109.001 220.48 109.761 220.647 110.441 220.98C111.135 221.3 111.695 221.773 112.121 222.4L111.381 222.94C111.008 222.42 110.541 222.033 109.981 221.78C109.435 221.513 108.828 221.38 108.161 221.38C107.348 221.38 106.615 221.567 105.961 221.94C105.321 222.3 104.815 222.813 104.441 223.48C104.081 224.147 103.901 224.913 103.901 225.78C103.901 226.647 104.081 227.413 104.441 228.08C104.815 228.747 105.321 229.267 105.961 229.64C106.615 230 107.348 230.18 108.161 230.18C108.828 230.18 109.435 230.053 109.981 229.8C110.541 229.533 111.008 229.14 111.381 228.62L112.121 229.16C111.695 229.787 111.135 230.267 110.441 230.6C109.761 230.92 109.001 231.08 108.161 231.08ZM124.194 220.56V231H123.194V221.46H116.074V231H115.074V220.56H124.194ZM136.672 220.56V231H135.672V221.46H130.232L130.092 224.24C130.012 225.68 129.892 226.887 129.732 227.86C129.572 228.833 129.298 229.62 128.912 230.22C128.525 230.82 127.992 231.12 127.312 231.12C127.112 231.12 126.825 231.073 126.452 230.98L126.552 230.12C126.765 230.173 126.925 230.2 127.032 230.2C127.592 230.2 128.018 229.927 128.312 229.38C128.605 228.833 128.805 228.153 128.912 227.34C129.018 226.527 129.105 225.467 129.172 224.16L129.352 220.56H136.672ZM144.452 220.48C145.745 220.48 146.739 220.813 147.432 221.48C148.125 222.133 148.472 223.1 148.472 224.38V231H147.512V229.14C147.179 229.753 146.692 230.233 146.052 230.58C145.412 230.913 144.645 231.08 143.752 231.08C142.592 231.08 141.672 230.807 140.992 230.26C140.325 229.713 139.992 228.993 139.992 228.1C139.992 227.233 140.299 226.533 140.912 226C141.539 225.453 142.532 225.18 143.892 225.18H147.472V224.34C147.472 223.367 147.205 222.627 146.672 222.12C146.152 221.613 145.385 221.36 144.372 221.36C143.679 221.36 143.012 221.48 142.372 221.72C141.745 221.96 141.212 222.28 140.772 222.68L140.272 221.96C140.792 221.493 141.419 221.133 142.152 220.88C142.885 220.613 143.652 220.48 144.452 220.48ZM143.892 230.26C144.759 230.26 145.492 230.06 146.092 229.66C146.705 229.26 147.165 228.68 147.472 227.92V225.96H143.912C142.885 225.96 142.139 226.147 141.672 226.52C141.219 226.893 140.992 227.407 140.992 228.06C140.992 228.74 141.245 229.28 141.752 229.68C142.259 230.067 142.972 230.26 143.892 230.26ZM159.515 221.46H155.435V231H154.435V221.46H150.355V220.56H159.515V221.46ZM161.656 220.56H162.656V225.32H169.736V220.56H170.736V231H169.736V226.2H162.656V231H161.656V220.56ZM179.215 231.08C178.228 231.08 177.335 230.853 176.535 230.4C175.748 229.947 175.128 229.32 174.675 228.52C174.221 227.707 173.995 226.793 173.995 225.78C173.995 224.767 174.221 223.86 174.675 223.06C175.128 222.247 175.748 221.613 176.535 221.16C177.335 220.707 178.228 220.48 179.215 220.48C180.201 220.48 181.088 220.707 181.875 221.16C182.675 221.613 183.301 222.247 183.755 223.06C184.208 223.86 184.435 224.767 184.435 225.78C184.435 226.793 184.208 227.707 183.755 228.52C183.301 229.32 182.675 229.947 181.875 230.4C181.088 230.853 180.201 231.08 179.215 231.08ZM179.215 230.18C180.015 230.18 180.728 229.993 181.355 229.62C181.995 229.247 182.495 228.727 182.855 228.06C183.228 227.393 183.415 226.633 183.415 225.78C183.415 224.927 183.228 224.167 182.855 223.5C182.495 222.833 181.995 222.313 181.355 221.94C180.728 221.567 180.015 221.38 179.215 221.38C178.415 221.38 177.695 221.567 177.055 221.94C176.428 222.313 175.928 222.833 175.555 223.5C175.195 224.167 175.015 224.927 175.015 225.78C175.015 226.633 175.195 227.393 175.555 228.06C175.928 228.727 176.428 229.247 177.055 229.62C177.695 229.993 178.415 230.18 179.215 230.18Z" fill="#E1D3C1"/>
<path d="M97.326 119.229L102.905 121.774C103.642 122.111 104.446 121.933 105.021 121.376L109.439 124.598L110.196 125.214C109.235 126.974 109.481 129.378 110.943 130.811C111.746 131.598 112.766 131.934 113.765 131.809C113.823 133.023 114.301 134.104 115.078 134.866C115.841 135.615 116.838 135.998 117.9 135.864C117.959 137.078 118.436 138.159 119.213 138.921C119.984 139.677 120.982 140.052 122.036 139.919C122.092 141.063 122.535 142.179 123.348 142.976C124.918 144.517 127.281 144.293 128.612 142.477L129.499 141.274L130.992 142.549C133.575 144.754 137.226 142.947 137.563 139.282C140.226 140.401 143.053 138.243 143.094 134.928C145.605 135.474 147.832 133.365 147.972 130.568C151.228 131.574 154.173 127.768 152.735 124.047L156.727 121.082C157.299 121.865 158.249 122.161 159.096 121.774L164.675 119.229C165.748 118.739 166.278 117.33 165.854 116.088L163.304 108.612C163.096 108.003 162.501 107.704 161.974 107.944C161.447 108.185 161.188 108.873 161.396 109.483L163.946 116.958C163.955 116.983 163.944 117.012 163.922 117.022L158.343 119.568C158.321 119.578 158.296 119.565 158.287 119.54C158.092 118.967 151.83 100.609 151.277 98.9852C151.275 98.9795 151.27 98.9663 151.277 98.9474C151.284 98.9286 151.296 98.9234 151.301 98.921L156.88 96.3755C156.884 96.3731 156.896 96.3679 156.912 96.3761C156.929 96.3843 156.933 96.3976 156.935 96.4033L159.638 104.328C159.846 104.937 160.442 105.236 160.968 104.996C161.495 104.755 161.754 104.067 161.546 103.457L158.843 95.533C158.419 94.291 157.201 93.6791 156.127 94.1691L150.548 96.7147C149.551 97.1694 149.025 98.4066 149.293 99.5795L146.302 100.856C145.371 101.254 144.361 101.369 143.38 101.189L140.357 100.635C139.798 100.533 139.272 100.974 139.184 101.62C139.095 102.267 139.477 102.875 140.036 102.977L143.059 103.532C144.386 103.775 145.752 103.619 147.012 103.081L150.03 101.793C150.357 102.753 155.527 117.908 155.866 118.902L151.466 122.171L151.391 122.107C151.391 122.107 151.39 122.107 151.39 122.107C150.919 121.704 143.268 115.174 142.909 114.867C142.689 114.679 142.416 114.595 142.102 114.657C137.854 115.492 134.048 113.745 131.248 110.364C130.377 109.312 128.956 109.256 128.012 110.236C125.296 113.057 121.5 115.808 118.844 112.889C118.58 112.599 118.578 112.064 118.979 111.765C122.362 109.248 125.867 105.714 128.687 102.414C129.389 101.592 130.398 101.211 131.389 101.392L135.281 102.106C135.842 102.209 136.366 101.767 136.454 101.12C136.543 100.473 136.162 99.8657 135.602 99.7632L131.71 99.0496C130.069 98.7488 128.394 99.3832 127.228 100.747C126.902 101.128 126.516 101.571 126.081 102.057C124.768 101.519 123.4 101.197 122.008 101.107C117.933 100.842 117.579 100.792 116.654 100.861C115.928 100.914 115.189 100.772 114.517 100.446L112.71 99.5719C112.971 98.4059 112.445 97.1672 111.453 96.7144L105.874 94.1691C104.8 93.6789 103.581 94.2909 103.158 95.533L96.1468 116.088C95.7223 117.332 96.2494 118.738 97.326 119.229ZM114.644 128.776C114.044 129.595 112.978 129.697 112.269 129.002C111.555 128.302 111.474 127.072 112.072 126.257L114.608 122.813C115.195 122.013 116.263 121.881 116.984 122.587C117.694 123.284 117.782 124.513 117.179 125.334C117.179 125.335 117.179 125.335 117.178 125.335L114.644 128.776ZM118.779 132.831C118.177 133.652 117.115 133.754 116.404 133.057C115.69 132.357 115.61 131.127 116.207 130.312L118.743 126.869C119.373 126.009 120.541 125.934 121.244 126.778C121.248 126.784 121.252 126.79 121.257 126.795C121.836 127.507 121.873 128.627 121.314 129.39L118.779 132.831ZM122.914 136.886C122.31 137.711 121.247 137.806 120.539 137.112C119.825 136.412 119.744 135.182 120.342 134.367L122.878 130.924C123.481 130.102 124.55 130.007 125.254 130.698C125.962 131.393 126.05 132.625 125.449 133.445C125.449 133.445 125.449 133.446 125.449 133.446L122.914 136.886ZM129.598 137.479C129.594 137.485 129.59 137.492 129.586 137.498C129.177 138.053 128.049 139.583 127.049 140.941C126.449 141.761 125.383 141.862 124.674 141.167C123.965 140.472 123.878 139.24 124.477 138.422L127.013 134.979C127.618 134.154 128.682 134.059 129.389 134.753C130.084 135.434 130.191 136.651 129.598 137.479ZM111.973 101.787L113.725 102.635C114.687 103.1 115.745 103.305 116.785 103.228C117.569 103.17 117.831 103.211 121.892 103.475C122.726 103.529 123.551 103.679 124.356 103.921C122.349 106.016 120.096 108.117 117.839 109.793C116.392 110.867 116.178 113.232 117.431 114.609C119.144 116.492 122.975 118.656 129.382 112.001C129.497 111.882 129.666 111.883 129.767 112.005C132.87 115.752 137.269 117.845 142.02 117.072C142.558 117.51 141.516 116.627 150.172 124.016H150.172C151.098 124.806 151.358 126.361 150.632 127.434C149.943 128.454 148.698 128.651 147.799 127.883C146.584 126.846 147.481 127.636 143.209 123.829C142.76 123.429 142.117 123.525 141.771 124.044C141.425 124.563 141.509 125.308 141.957 125.708L145.501 128.866C146.112 129.796 146.039 131.141 145.316 131.975C144.606 132.795 143.436 132.873 142.595 132.155C141.783 131.462 142.458 132.056 138.73 128.737C138.281 128.337 137.637 128.434 137.292 128.953C136.947 129.472 137.03 130.217 137.479 130.616L140.622 133.415C141.215 134.302 141.186 135.579 140.538 136.429C139.841 137.344 138.605 137.471 137.725 136.719C136.311 135.512 137.021 136.136 134.297 133.697C133.849 133.297 133.205 133.391 132.858 133.909C132.512 134.427 132.594 135.172 133.042 135.573L135.22 137.523C135.716 138.436 135.619 139.63 134.967 140.419C134.256 141.28 133.07 141.375 132.21 140.64L130.832 139.464L131.148 139.034C131.78 138.173 132.106 137.058 132.022 135.885C131.937 134.697 131.449 133.664 130.715 132.944C129.951 132.195 128.953 131.811 127.892 131.944C127.836 130.798 127.382 129.676 126.58 128.888C125.819 128.142 124.853 127.784 123.857 127.878C123.824 127.881 123.791 127.884 123.758 127.889C123.756 127.851 123.755 127.813 123.752 127.775C123.687 126.858 123.378 126.008 122.87 125.323C122.867 125.319 122.864 125.315 122.861 125.31C122.053 124.229 120.85 123.683 119.624 123.836C119.566 122.645 119.099 121.553 118.31 120.778C116.738 119.237 114.376 119.462 113.045 121.277L111.5 123.375L110.597 122.641C110.583 122.63 110.569 122.618 110.554 122.608L106.003 119.288C109.444 109.202 108.155 112.98 111.973 101.787ZM98.0545 116.958L105.065 96.4036C105.072 96.384 105.088 96.3722 105.105 96.3722C105.111 96.3722 105.116 96.3733 105.121 96.3756L110.7 98.9212C110.722 98.9312 110.733 98.9601 110.724 98.9854C110.387 99.9743 103.934 118.893 103.713 119.54C103.704 119.566 103.68 119.578 103.657 119.568L98.0787 117.022C98.0565 117.012 98.0456 116.984 98.0545 116.958Z" fill="#35246F"/>
<defs>
<filter id="filter0_b" x="-25.5" y="-25.5" width="313" height="313" filterUnits="userSpaceOnUse" color-interpolation-filters="sRGB">
<feFlood flood-opacity="0" result="BackgroundImageFix"/>
<feGaussianBlur in="BackgroundImage" stdDeviation="13"/>
<feComposite in2="SourceAlpha" operator="in" result="effect1_backgroundBlur"/>
<feBlend mode="normal" in="SourceGraphic" in2="effect1_backgroundBlur" result="shape"/>
</filter>
<linearGradient id="paint0_linear" x1="125" y1="36.5" x2="131" y2="248" gradientUnits="userSpaceOnUse">
<stop offset="0.1875" stop-color="#0FBDE9"/>
<stop offset="1" stop-color="#4CD2F3" stop-opacity="0"/>
</linearGradient>
<linearGradient id="paint1_linear" x1="120.5" y1="93" x2="162.216" y2="413.436" gradientUnits="userSpaceOnUse">
<stop offset="0.0729167" stop-color="#4F3F84"/>
<stop offset="1" stop-color="#745CC5" stop-opacity="0"/>
</linearGradient>
<linearGradient id="paint2_linear" x1="131" y1="1" x2="131" y2="215.5" gradientUnits="userSpaceOnUse">
<stop stop-color="#A1D3DF"/>
<stop offset="1" stop-color="#87BDCA" stop-opacity="0"/>
</linearGradient>
<linearGradient id="paint3_linear" x1="248" y1="307.5" x2="-8.5" y2="1.00001" gradientUnits="userSpaceOnUse">
<stop stop-color="#2D1C66"/>
<stop offset="1" stop-color="#2D1C66" stop-opacity="0"/>
</linearGradient>
</defs>
</svg>
