<svg width="62" height="62" viewBox="0 0 62 62" fill="none" xmlns="http://www.w3.org/2000/svg">
<path d="M60.7498 34.0867C61.439 34.0867 62 33.4244 62 32.6109V30.0686C62 29.2551 61.439 28.5929 60.7498 28.5929H44.8421V25.4426H45.5511C45.7857 25.4426 46.0066 25.3722 46.1992 25.2483C46.6235 24.9763 46.9115 24.4453 46.9115 23.8367V20.7026C46.9115 20.6579 46.9087 20.6144 46.9044 20.5708C46.903 20.5608 46.9016 20.5513 46.9002 20.5412C46.8959 20.5066 46.8902 20.472 46.8827 20.4385C46.8808 20.4295 46.8794 20.4206 46.877 20.4117C46.8567 20.3274 46.8288 20.2475 46.7928 20.1733C46.789 20.166 46.7852 20.1587 46.7814 20.1515C46.7663 20.1219 46.7502 20.0934 46.7332 20.0655C46.7275 20.0571 46.7223 20.0487 46.7166 20.0404C46.6722 19.9734 46.6216 19.9131 46.5648 19.8606C46.5577 19.8544 46.5506 19.8483 46.5435 19.8421C46.5189 19.8204 46.4934 19.8008 46.4674 19.7818C46.4631 19.779 46.4598 19.7757 46.456 19.7729L31.9082 9.90209V7.18284H37.4998C37.8777 7.18284 38.232 6.94442 38.4246 6.56138C38.6176 6.17778 38.6246 5.69646 38.4435 5.30561L37.5831 3.4468L38.3867 1.94703C38.5963 1.55617 38.609 1.06201 38.4198 0.65664C38.2306 0.251824 37.8697 0 37.478 0H31C30.4981 0 30.0918 0.480196 30.0918 1.07207V9.90209L15.544 19.7729C15.5397 19.7763 15.5359 19.7802 15.5312 19.783C15.5061 19.8008 15.4816 19.8204 15.4574 19.841C15.4499 19.8477 15.4423 19.8544 15.4347 19.8611C15.4068 19.8874 15.3794 19.9147 15.3543 19.9443C15.3534 19.9454 15.3529 19.946 15.3524 19.9471C15.3278 19.9762 15.3056 20.0074 15.2838 20.0392C15.2777 20.0482 15.272 20.0577 15.2663 20.0672C15.2498 20.0934 15.2342 20.1208 15.22 20.1492C15.2157 20.1576 15.211 20.1654 15.2067 20.1744C15.1717 20.2481 15.1438 20.3268 15.1235 20.41C15.1211 20.4201 15.1192 20.4307 15.1169 20.4407C15.1102 20.4725 15.1046 20.5055 15.1003 20.5384C15.0989 20.5496 15.097 20.5613 15.096 20.5725C15.0918 20.6155 15.0885 20.6585 15.0885 20.7026V23.8367C15.0885 24.7223 15.6991 25.4426 16.4489 25.4426H17.1579V28.5929H1.2502C0.561005 28.5929 0 29.2551 0 30.0686V32.6109C0 33.4244 0.561005 34.0867 1.2502 34.0867H1.58888V56.5068H1.2502C0.561005 56.5068 0 57.1684 0 57.982V60.5242C0 61.3378 0.561005 62 1.2502 62H60.7498C61.439 62 62 61.3378 62 60.5242V57.982C62 57.1684 61.439 56.5068 60.7498 56.5068H60.4111V34.0867H60.7498ZM31.9082 2.14413H36.1323L35.8149 2.736C35.6063 3.12574 35.593 3.61878 35.7799 4.02248L36.2501 5.03871H31.9082V2.14413ZM31 11.7592L42.6009 19.6305H19.3991L31 11.7592ZM16.9049 23.2984V21.7747H45.0951V23.2984H16.9049ZM43.0257 25.4426V56.5068H41.7286V25.4426H43.0257ZM37.8621 41.7458H24.1379C23.6365 41.7458 23.2297 42.226 23.2297 42.8178C23.2297 43.4097 23.6365 43.8899 24.1379 43.8899H25.0825V56.5068H22.0878V25.4426H39.9122V56.5068H36.918V43.8899H37.8621C38.364 43.8899 38.7703 43.4097 38.7703 42.8178C38.7703 42.226 38.3635 41.7458 37.8621 41.7458ZM35.1011 43.8899V56.5068H31.9082V43.8899H35.1011ZM30.0918 43.8899V56.5068H26.8989V43.8899H30.0918ZM20.2714 25.4426V56.5068H18.9743V25.4426H20.2714ZM1.81641 30.737H17.1579V31.9425H8.77882C8.27695 31.9425 7.87062 32.4222 7.87062 33.0146C7.87062 33.6065 8.27695 34.0867 8.77882 34.0867H17.1579V56.5068H3.40529V34.0867H4.58122C5.0831 34.0867 5.48943 33.6065 5.48943 33.0146C5.48943 32.4222 5.0831 31.9425 4.58122 31.9425H1.81641V30.737ZM60.1836 59.8559H1.81641V58.6509H60.1836V59.8559ZM60.1836 31.9425H51.0107C50.5089 31.9425 50.1025 32.4222 50.1025 33.0146C50.1025 33.6065 50.5089 34.0867 51.0107 34.0867H58.5947V56.5068H44.8421V34.0867H46.8075C47.3089 34.0867 47.7157 33.6065 47.7157 33.0146C47.7157 32.4222 47.3089 31.9425 46.8075 31.9425H44.8421V30.737H60.1836V31.9425Z" fill="#35246F"/>
</svg>
