<svg width="748" height="359" viewBox="0 0 748 359" fill="none" xmlns="http://www.w3.org/2000/svg">
<path d="M444.341 153.811C425.337 192.38 401.518 297.765 395.019 303.536C388.52 309.307 350.949 331.694 344.537 342.627C338.125 353.56 340.94 349.848 343.812 350.573C346.684 351.298 509.909 352.023 509.909 352.023C509.909 352.023 491.138 240.142 488.991 239.418C486.844 238.693 444.427 153.927 444.427 153.927L444.341 153.811Z" fill="#826DC7"/>
<path d="M417.33 351.326L496.331 351.79L472.483 209.228C459.775 184.607 444.341 153.723 444.341 153.723C441.961 158.595 439.466 164.511 436.971 171.122C434.505 278.16 449.911 308.175 438.335 327.257C429.283 342.133 420.927 348.774 417.33 351.268V351.326Z" fill="#7461BF"/>
<path d="M789.01 358.491H6.99035C5.39333 358.491 3.86169 357.884 2.73243 356.805C1.60317 355.726 0.96875 354.263 0.96875 352.736C0.96875 351.21 1.60317 349.747 2.73243 348.668C3.86169 347.589 5.39333 346.982 6.99035 346.982H789.01C790.607 346.982 792.139 347.589 793.268 348.668C794.397 349.747 795.032 351.21 795.032 352.736C795.032 354.263 794.397 355.726 793.268 356.805C792.139 357.884 790.607 358.491 789.01 358.491Z" fill="#2E5B9B"/>
<path d="M544.434 107.266C571.532 132.263 631.878 155.985 631.878 155.985C631.878 155.985 641.046 240.664 634.779 288.6C628.512 336.537 631.878 346.252 631.878 346.252H507.588C507.588 346.252 490.906 323.052 460.326 251.075C440.859 205.226 444.341 153.81 444.341 153.81L520.121 119.764L544.434 107.266Z" fill="#826DC7"/>
<path d="M507.588 346.25H632.023C632.023 346.25 628.541 336.535 634.924 288.599C640.059 249.131 634.75 184.751 632.719 163.234L621.404 158.391C593.001 166.569 576.638 208.937 571.822 250.32C568.601 278.014 522.703 305.274 492.675 320.267C497.143 329.267 502.162 337.983 507.704 346.366L507.588 346.25Z" fill="#7461BF"/>
<path d="M477.096 20.3525C462.096 53.7311 479.997 84.6738 479.562 83.3688C479.126 82.0638 502.249 26.9935 502.249 26.9935L477.096 20.3525Z" fill="#366672"/>
<path d="M533.931 45.0605L552.964 114.66C553.218 115.627 553.24 116.641 553.029 117.619C552.817 118.596 552.377 119.51 551.745 120.286C547.277 125.767 540.923 137.076 528.129 140.585C525.489 141.227 522.779 141.529 520.063 141.484C518.803 141.488 517.581 141.053 516.607 140.254C515.633 139.454 514.967 138.341 514.725 137.105L501.959 71.1892L533.873 45.0895L533.931 45.0605Z" fill="#F19A59"/>
<path d="M530.218 50.86L523.255 53.76L501.873 71.1598L513.478 129.594C532.945 117.472 535.759 109.294 530.334 50.8311L530.218 50.86Z" fill="#E38540"/>
<path d="M533.118 75.8301C528.911 98.6819 511.794 114.139 494.88 110.34C477.965 106.541 469.929 91.7509 471.902 62.0843C473.469 38.8846 484.957 13.5099 501.843 17.3089C518.728 21.1078 537.441 52.9204 533.118 75.8301Z" fill="#F19A59"/>
<path d="M631.762 155.984C656.945 161.784 661.616 212.765 669.797 266.676C670.755 272.881 675.6 325.4 675.6 325.4C675.601 328.432 674.743 331.404 673.126 333.969C671.509 336.535 669.198 338.591 666.461 339.9C658.25 343.989 654.856 347.121 607.246 347.585C561.464 348.049 502.452 346.135 502.452 346.135C502.452 346.135 501.93 329.112 506.601 320.789C513.68 308.29 586.067 290.31 592.798 289.353C593.755 275.868 586.154 227.12 596.657 194.06C603.881 171.325 611.627 159.406 621.375 156.361C624.758 155.327 628.36 155.236 631.791 156.1L631.762 155.984Z" fill="#826DC7"/>
<path d="M528.419 347.121C550.99 347.469 581.947 347.788 607.333 347.527C655.001 347.063 658.337 343.931 666.548 339.842C669.202 338.717 671.525 336.933 673.297 334.659C675.068 332.386 676.231 329.698 676.673 326.85C676.673 326.85 671.799 270.968 670.87 264.762C665.561 228.657 659.846 187.362 646.529 167.41C655.514 193.458 660.483 220.72 661.267 248.261C661.492 255.762 660.672 263.258 658.83 270.533C656.654 277.638 651.113 282.133 642.438 279.668C625.031 274.854 603.445 284.975 603.445 284.975C603.445 284.975 619.808 279.175 635.359 284.482C650.91 289.789 682.563 324.907 647.893 337.899C637.274 341.872 573.736 345.12 528.535 347.121H528.419Z" fill="#7461BF"/>
<path d="M510.547 322.326C512.664 319.038 515.557 316.321 518.973 314.415C522.388 312.508 526.219 311.471 530.13 311.394C543.302 311.394 542.345 332.911 540.401 339.958C539.737 342.023 538.46 343.837 536.739 345.158C535.018 346.479 532.936 347.245 530.769 347.353L502.54 346.048L510.547 322.326Z" fill="#97CFE0"/>
<path d="M481.911 352.284H303.919C302.619 352.284 301.372 351.768 300.452 350.849C299.533 349.929 299.016 348.683 299.016 347.383V345.991C299.024 344.696 299.544 343.457 300.462 342.544C301.381 341.631 302.624 341.119 303.919 341.119H481.969C483.265 341.119 484.507 341.631 485.426 342.544C486.345 343.457 486.865 344.696 486.873 345.991V347.383C486.873 348.027 486.746 348.664 486.499 349.259C486.253 349.853 485.892 350.393 485.436 350.849C484.981 351.304 484.441 351.665 483.846 351.911C483.251 352.157 482.613 352.284 481.969 352.284H481.911Z" fill="#769FD4"/>
<path d="M507.008 323.631C479.388 313.684 472.192 317.425 465.926 315.598C450.491 311.103 446.661 314.96 436.71 342.249C434.708 347.671 440.54 348.048 446.342 348.048C452.145 348.048 459.166 336.826 461.4 335.521C464.086 334.508 466.896 333.864 469.755 333.607C469.755 333.607 467.841 333.607 464.939 339.407C462.038 345.207 458.528 347.439 463.024 347.439C467.521 347.439 468.16 340.045 476.515 341.64C484.871 343.235 481.621 347.439 502.627 347.12C523.632 346.801 539.212 347.121 538.892 334.593C538.573 322.732 539.879 316.787 528.622 314.699C519.918 313.104 507.124 323.689 507.124 323.689L507.008 323.631Z" fill="#F19A59"/>
<path d="M507.384 323.631C525.836 321.543 520.411 344.511 518.496 346.454C516.581 348.397 528.767 347.121 528.767 347.121C530.441 344.115 531.397 340.763 531.558 337.327C531.719 333.89 531.081 330.463 529.695 327.314C528.481 324.345 526.497 321.754 523.947 319.807C521.397 317.859 518.374 316.627 515.189 316.236L507.007 320.731L507.326 323.631H507.384Z" fill="#A86B48"/>
<path d="M526.649 321.632C526.417 324.532 521.572 326.387 515.856 325.923C510.141 325.459 505.644 322.734 505.905 319.892C506.166 317.05 510.953 315.136 516.698 315.6C522.442 316.064 526.881 318.79 526.649 321.632Z" fill="#2E5B9B"/>
<path d="M525.198 320.209C524.966 322.761 520.643 324.472 515.537 324.037C510.431 323.602 506.427 321.137 506.63 318.672C506.833 316.207 511.185 314.409 516.291 314.844C521.398 315.279 525.401 317.744 525.198 320.209Z" fill="#3E6BAC"/>
<path d="M521.977 319.021C521.977 320.877 518.728 322.095 515.044 321.921C511.359 321.747 508.487 319.862 508.632 318.035C508.777 316.208 511.91 314.961 515.595 315.135C519.279 315.309 522.122 317.165 521.977 318.992V319.021Z" fill="#F1CFB4"/>
<path d="M297.794 313.609H117.741C113.124 313.576 108.664 311.896 105.137 308.861C101.61 305.825 99.238 301.626 98.4345 296.993L74.9634 164.93C74.4267 162.027 74.5216 159.038 75.2413 156.176C75.961 153.314 77.2881 150.647 79.129 148.364C80.9698 146.082 83.2797 144.238 85.8958 142.963C88.5119 141.688 91.3705 141.013 94.2703 140.986H274.322C278.94 141.019 283.4 142.699 286.927 145.734C290.454 148.77 292.826 152.969 293.629 157.602L317.1 289.665C317.637 292.568 317.542 295.556 316.822 298.419C316.103 301.281 314.776 303.947 312.935 306.23C311.094 308.513 308.784 310.357 306.168 311.632C303.552 312.907 300.693 313.582 297.794 313.609Z" fill="#2A4363"/>
<path d="M304.567 290.657L280.69 164.248C279.785 159.727 277.331 155.664 273.751 152.758C270.171 149.852 265.689 148.285 261.077 148.327H78.7619C76.7801 150.616 75.341 153.322 74.5523 156.245C73.7636 159.167 73.6455 162.23 74.2069 165.205L98.4034 296.979C99.2685 301.628 101.73 305.83 105.364 308.858C108.998 311.887 113.575 313.552 118.306 313.567H284.954C287.835 313.613 290.691 313.024 293.317 311.841C295.944 310.657 298.277 308.909 300.15 306.721C302.023 304.533 303.39 301.959 304.154 299.182C304.917 296.406 305.058 293.495 304.567 290.657Z" fill="#1A3459"/>
<path d="M355.823 326.386C369.546 318.788 386.286 321.311 392.379 328.938C398.471 336.565 399.487 341.611 385.793 341.611C372.099 341.611 344.653 342.626 340.098 342.133C335.543 341.64 355.823 326.386 355.823 326.386Z" fill="#F19A59"/>
<path d="M376.132 321.833C390.841 318.266 400.908 326.821 413.181 335.028C423.857 342.133 426.004 349.035 414.196 343.148C396.963 334.448 386.808 333.491 386.808 333.491L376.132 321.891V321.833Z" fill="#F19A59"/>
<path d="M362.727 326.357C355.3 326.357 348.801 323.979 343.55 324.414C338.299 324.849 321.675 341.814 324.315 343.206L324.924 343.467C326.855 344.156 328.964 344.16 330.897 343.479C332.83 342.798 334.471 341.473 335.543 339.726C337.893 335.956 341.722 331.548 346.161 333.114C351.082 334.742 356.239 335.545 361.422 335.492L362.727 326.328V326.357Z" fill="#F19A59"/>
<path d="M358.376 344.656C350.745 341.611 362.931 316.236 367.08 316.236C371.228 316.236 386.373 328.416 386.373 328.416C386.373 328.416 382.804 330.446 370.648 326.386C367.602 325.371 365.049 342.626 361.509 344.656C360.396 345.098 358.956 344.84 358.376 344.656Z" fill="#F6A96F"/>
<path d="M472.018 75.4226C471.322 103.378 480.722 108.105 487.482 111.875C494.242 115.645 522.848 109.41 527.055 102.508C537.848 84.8185 528.767 68.3467 531.175 68.5787C533.583 68.8107 535.788 75.7126 542.084 84.6445C542.664 85.4855 546.755 90.9954 546.958 89.1685C549.859 64.1418 562.915 56.3699 559.81 31.1692C557.518 12.5225 545.681 14.0014 545.681 14.0014C545.681 14.0014 538.022 -1.62941 514.231 0.139571C498.303 1.32856 484.087 7.53448 467.811 11.7394C451.535 15.9444 487.25 53.2089 508.429 39.6081C529.608 26.0072 519.222 55.9639 522.587 58.2838C525.953 60.6038 524.212 58.5738 525.75 73.9146C527.287 89.2554 507.82 99.2603 502.249 100.565C484.377 104.77 481.389 101.812 477.501 95.1134C474.107 89.3134 472.047 75.4806 472.047 75.4806L472.018 75.4226Z" fill="#366672"/>
<path d="M545.885 66.782C543.854 73.8289 538.834 78.3818 534.715 76.9319C530.595 75.4819 530.479 69.7979 530.943 61.591C531.378 54.2251 537.993 49.9912 542.142 51.4412C546.291 52.8911 547.945 59.7351 545.885 66.782Z" fill="#F19A59"/>
<path d="M262.46 334.304H228.486C225.433 334.139 222.569 332.776 220.515 330.512C218.462 328.247 217.385 325.264 217.52 322.211V259.978C217.733 255.131 216.025 250.396 212.765 246.801C209.506 243.207 204.959 241.043 200.112 240.78H182.066C172.405 240.78 164.659 249.48 164.659 259.978V329.577C164.659 341.496 173.362 351.124 184.358 351.066L277.198 350.428C277.388 346.314 275.936 342.293 273.161 339.248C270.387 336.203 266.518 334.384 262.402 334.188L262.46 334.304Z" fill="#2A4363"/>
<path d="M165.964 261.427V330.04C165.965 335.385 167.992 340.532 171.636 344.443C175.281 348.355 180.272 350.742 185.606 351.123L276.299 350.572C276.299 349.093 269.133 346.367 260.313 346.367H223.467C221.905 346.367 220.358 346.059 218.915 345.462C217.472 344.864 216.161 343.989 215.056 342.885C213.952 341.78 213.075 340.47 212.478 339.027C211.88 337.585 211.572 336.039 211.572 334.477V261.427C211.576 258.942 211.089 256.48 210.141 254.182C209.192 251.885 207.799 249.797 206.042 248.038C204.285 246.28 202.198 244.884 199.901 243.932C197.605 242.98 195.142 242.49 192.656 242.49H184.968C179.943 242.49 175.124 244.485 171.571 248.037C168.018 251.588 166.022 256.405 166.022 261.427H165.964Z" fill="#1A3459"/>
<path d="M158.366 197.698C158.385 197.958 158.344 198.208 158.255 198.435C157.941 199.23 157.28 199.998 157.343 200.854L157.547 203.632C157.586 204.157 158.01 204.564 158.406 204.91C158.803 205.257 159.263 205.621 159.785 205.587L162.551 205.403C163.403 205.347 164.069 204.582 164.809 204.159C165.02 204.039 165.261 203.963 165.52 203.946C166.44 203.885 167.24 204.584 167.308 205.508C167.376 206.432 166.685 207.23 165.766 207.291C165.506 207.308 165.257 207.265 165.03 207.173C164.236 206.852 163.465 206.183 162.613 206.239L160.407 206.386C159.555 206.442 158.889 207.207 158.149 207.63C157.938 207.751 157.698 207.826 157.438 207.843C156.519 207.905 155.718 207.205 155.65 206.281C155.631 206.021 155.672 205.771 155.761 205.544C156.075 204.749 156.736 203.981 156.673 203.125L156.51 200.909C156.448 200.054 155.681 199.38 155.254 198.634C155.132 198.421 155.055 198.179 155.036 197.919C154.968 196.995 155.658 196.197 156.578 196.136C157.498 196.075 158.298 196.774 158.366 197.698Z" fill="#57B535"/>
<path d="M158.366 197.698C158.385 197.958 158.344 198.208 158.255 198.435C157.941 199.23 157.28 199.998 157.343 200.854L157.547 203.632C157.586 204.157 158.01 204.564 158.406 204.91C158.803 205.257 159.263 205.621 159.785 205.587L162.551 205.403C163.403 205.347 164.069 204.582 164.809 204.159C165.02 204.039 165.261 203.963 165.52 203.946C166.44 203.885 167.24 204.584 167.308 205.508C167.376 206.432 166.685 207.23 165.766 207.291C165.506 207.308 165.257 207.265 165.03 207.173C164.236 206.852 163.465 206.183 162.613 206.239L160.407 206.386C159.555 206.442 158.889 207.207 158.149 207.63C157.938 207.751 157.698 207.826 157.438 207.843C156.519 207.905 155.718 207.205 155.65 206.281C155.631 206.021 155.672 205.771 155.761 205.544C156.075 204.749 156.736 203.981 156.673 203.125L156.51 200.909C156.448 200.054 155.681 199.38 155.254 198.634C155.132 198.421 155.055 198.179 155.036 197.919C154.968 196.995 155.658 196.197 156.578 196.136C157.498 196.075 158.298 196.774 158.366 197.698Z" fill="#57B535"/>
<path d="M175.082 190.519C175.063 190.259 175.104 190.008 175.193 189.782C175.507 188.987 176.168 188.218 176.105 187.362L175.901 184.584C175.862 184.06 175.438 183.653 175.042 183.306C174.645 182.96 174.185 182.595 173.663 182.63L170.897 182.813C170.045 182.87 169.379 183.634 168.639 184.057C168.428 184.178 168.187 184.254 167.928 184.271C167.009 184.332 166.208 183.632 166.14 182.709C166.072 181.785 166.763 180.987 167.683 180.926C167.942 180.908 168.191 180.952 168.418 181.043C169.212 181.364 169.983 182.034 170.835 181.977L173.041 181.831C173.893 181.774 174.559 181.009 175.299 180.587C175.51 180.466 175.751 180.39 176.01 180.373C176.929 180.312 177.73 181.011 177.798 181.935C177.817 182.195 177.776 182.446 177.687 182.672C177.373 183.467 176.712 184.236 176.775 185.092L176.938 187.307C177.001 188.163 177.767 188.837 178.194 189.583C178.316 189.795 178.393 190.038 178.413 190.298C178.48 191.222 177.79 192.02 176.87 192.081C175.95 192.142 175.15 191.443 175.082 190.519Z" fill="#57B535"/>
<path d="M170.419 201.879C170.438 202.14 170.397 202.39 170.308 202.616C169.994 203.412 169.333 204.18 169.396 205.036L169.6 207.814C169.639 208.339 170.062 208.746 170.459 209.092C170.856 209.438 171.316 209.803 171.838 209.769L174.604 209.585C175.456 209.529 176.122 208.764 176.862 208.341C177.072 208.22 177.313 208.145 177.573 208.127C178.492 208.066 179.293 208.766 179.361 209.689C179.429 210.613 178.738 211.412 177.818 211.473C177.559 211.49 177.31 211.447 177.083 211.355C176.288 211.034 175.518 210.365 174.666 210.421L172.46 210.568C171.608 210.624 170.942 211.389 170.202 211.812C169.991 211.932 169.75 212.008 169.491 212.025C168.571 212.086 167.771 211.387 167.703 210.463C167.684 210.203 167.725 209.953 167.814 209.726C168.128 208.931 168.789 208.162 168.726 207.307L168.563 205.091C168.5 204.236 167.733 203.562 167.306 202.816C167.185 202.603 167.107 202.361 167.088 202.1C167.02 201.177 167.711 200.378 168.631 200.317C169.551 200.256 170.351 200.956 170.419 201.879Z" fill="#57B535"/>
<path d="M184.028 204.279C184.047 204.539 184.006 204.789 183.917 205.016C183.603 205.811 182.942 206.579 183.005 207.435L183.209 210.213C183.248 210.738 183.671 211.145 184.068 211.491C184.465 211.838 184.925 212.202 185.447 212.168L188.213 211.984C189.065 211.928 189.73 211.163 190.471 210.74C190.682 210.62 190.922 210.544 191.181 210.527C192.101 210.466 192.902 211.165 192.97 212.089C193.038 213.013 192.347 213.811 191.427 213.872C191.168 213.889 190.919 213.846 190.692 213.754C189.897 213.433 189.127 212.764 188.275 212.821L186.069 212.967C185.217 213.024 184.551 213.788 183.811 214.211C183.6 214.332 183.359 214.407 183.1 214.425C182.18 214.486 181.38 213.786 181.312 212.862C181.293 212.602 181.334 212.352 181.423 212.125C181.737 211.33 182.398 210.562 182.335 209.706L182.172 207.49C182.109 206.635 181.342 205.961 180.915 205.215C180.794 205.002 180.716 204.76 180.697 204.5C180.629 203.576 181.32 202.778 182.24 202.717C183.16 202.656 183.96 203.355 184.028 204.279Z" fill="#5C34FA"/>
<path d="M197.798 208.987C197.817 209.248 197.776 209.498 197.686 209.725C197.373 210.52 196.712 211.288 196.775 212.144L196.979 214.922C197.017 215.447 197.441 215.854 197.838 216.2C198.234 216.547 198.694 216.911 199.217 216.877L201.983 216.693C202.835 216.637 203.5 215.872 204.24 215.449C204.451 215.329 204.692 215.253 204.951 215.236C205.871 215.175 206.672 215.874 206.739 216.798C206.807 217.722 206.117 218.52 205.197 218.581C204.938 218.598 204.688 218.555 204.462 218.463C203.667 218.142 202.896 217.473 202.044 217.53L199.838 217.676C198.986 217.733 198.321 218.497 197.581 218.92C197.37 219.041 197.129 219.116 196.87 219.134C195.95 219.195 195.149 218.495 195.081 217.571C195.062 217.311 195.103 217.061 195.193 216.834C195.507 216.039 196.167 215.27 196.105 214.415L195.942 212.199C195.879 211.344 195.112 210.67 194.685 209.924C194.563 209.711 194.486 209.469 194.467 209.208C194.399 208.285 195.09 207.487 196.009 207.426C196.929 207.365 197.73 208.064 197.798 208.987Z" fill="#4F3F84"/>
<path d="M168.146 193.696C167.887 193.713 167.637 193.67 167.41 193.578C166.616 193.257 165.845 192.588 164.993 192.644L162.227 192.828C161.704 192.863 161.302 193.285 160.96 193.68C160.618 194.076 160.258 194.535 160.296 195.059L160.501 197.837C160.564 198.693 161.33 199.367 161.757 200.113C161.879 200.325 161.956 200.568 161.976 200.828C162.043 201.752 161.353 202.55 160.433 202.611C159.513 202.672 158.713 201.973 158.645 201.049C158.626 200.789 158.667 200.539 158.756 200.312C159.07 199.517 159.731 198.748 159.668 197.892L159.505 195.677C159.442 194.821 158.675 194.148 158.248 193.401C158.127 193.189 158.049 192.946 158.03 192.686C157.962 191.762 158.653 190.964 159.573 190.903C159.832 190.886 160.081 190.929 160.308 191.021C161.103 191.342 161.873 192.011 162.725 191.955L164.931 191.808C165.784 191.752 166.449 190.987 167.189 190.564C167.4 190.444 167.641 190.368 167.9 190.351C168.82 190.29 169.62 190.989 169.688 191.913C169.756 192.836 169.066 193.635 168.146 193.696Z" fill="#57B535"/>
<path d="M168.146 193.696C167.887 193.713 167.637 193.67 167.41 193.578C166.616 193.257 165.845 192.588 164.993 192.644L162.227 192.828C161.704 192.863 161.302 193.285 160.96 193.68C160.618 194.076 160.258 194.535 160.296 195.059L160.501 197.837C160.564 198.693 161.33 199.367 161.757 200.113C161.879 200.325 161.956 200.568 161.976 200.828C162.043 201.752 161.353 202.55 160.433 202.611C159.513 202.672 158.713 201.973 158.645 201.049C158.626 200.789 158.667 200.539 158.756 200.312C159.07 199.517 159.731 198.748 159.668 197.892L159.505 195.677C159.442 194.821 158.675 194.148 158.248 193.401C158.127 193.189 158.049 192.946 158.03 192.686C157.962 191.762 158.653 190.964 159.573 190.903C159.832 190.886 160.081 190.929 160.308 191.021C161.103 191.342 161.873 192.011 162.725 191.955L164.931 191.808C165.784 191.752 166.449 190.987 167.189 190.564C167.4 190.444 167.641 190.368 167.9 190.351C168.82 190.29 169.62 190.989 169.688 191.913C169.756 192.836 169.066 193.635 168.146 193.696Z" fill="#E1D3C1"/>
<path d="M184.327 183.154C184.068 183.171 183.818 183.128 183.592 183.036C182.797 182.715 182.026 182.046 181.174 182.102L178.408 182.286C177.886 182.321 177.483 182.743 177.141 183.138C176.799 183.534 176.439 183.993 176.478 184.517L176.682 187.295C176.745 188.151 177.512 188.825 177.939 189.571C178.06 189.783 178.138 190.026 178.157 190.286C178.225 191.21 177.534 192.008 176.614 192.069C175.694 192.13 174.894 191.431 174.826 190.507C174.807 190.247 174.848 189.997 174.937 189.77C175.251 188.975 175.912 188.206 175.849 187.35L175.686 185.135C175.623 184.279 174.856 183.606 174.429 182.859C174.308 182.647 174.23 182.404 174.211 182.144C174.143 181.221 174.834 180.422 175.754 180.361C176.013 180.344 176.263 180.387 176.489 180.479C177.284 180.8 178.055 181.469 178.907 181.412L181.113 181.266C181.965 181.21 182.63 180.445 183.37 180.022C183.581 179.902 183.822 179.826 184.081 179.809C185.001 179.748 185.801 180.447 185.869 181.371C185.937 182.294 185.247 183.093 184.327 183.154Z" fill="#57B535"/>
<path d="M206.721 206.711C206.981 206.694 207.23 206.737 207.457 206.829C208.251 207.15 209.022 207.819 209.874 207.763L212.64 207.579C213.163 207.545 213.565 207.122 213.907 206.727C214.249 206.331 214.609 205.873 214.571 205.348L214.367 202.57C214.304 201.714 213.537 201.04 213.11 200.294C212.988 200.082 212.911 199.839 212.892 199.579C212.824 198.655 213.514 197.857 214.434 197.796C215.354 197.735 216.155 198.434 216.223 199.358C216.242 199.618 216.201 199.869 216.111 200.095C215.797 200.89 215.136 201.659 215.199 202.515L215.362 204.73C215.425 205.586 216.192 206.26 216.619 207.006C216.741 207.218 216.818 207.461 216.837 207.721C216.905 208.644 216.214 209.443 215.295 209.504C215.035 209.521 214.786 209.478 214.559 209.386C213.765 209.065 212.994 208.396 212.142 208.453L209.936 208.599C209.084 208.655 208.418 209.42 207.678 209.843C207.467 209.964 207.227 210.039 206.967 210.056C206.048 210.117 205.247 209.418 205.179 208.495C205.111 207.571 205.802 206.772 206.721 206.711Z" fill="#4F3F84"/>
<path d="M173.817 188.383C173.84 188.708 173.778 189.019 173.648 189.293C173.281 190.065 172.636 190.826 172.699 191.682L172.929 194.813C172.971 195.381 173.43 195.822 173.86 196.197C174.289 196.573 174.788 196.968 175.354 196.93L178.471 196.724C179.323 196.667 179.983 195.919 180.693 195.447C180.945 195.28 181.242 195.174 181.566 195.153C182.563 195.086 183.43 195.844 183.503 196.845C183.577 197.846 182.829 198.71 181.832 198.777C181.509 198.798 181.199 198.733 180.925 198.6C180.153 198.226 179.39 197.573 178.537 197.63L175.906 197.804C175.054 197.861 174.394 198.609 173.684 199.081C173.432 199.248 173.135 199.354 172.811 199.375C171.815 199.441 170.947 198.684 170.874 197.683C170.85 197.358 170.913 197.047 171.043 196.773C171.409 196.001 172.054 195.24 171.991 194.384L171.797 191.742C171.734 190.886 170.984 190.217 170.508 189.501C170.34 189.247 170.232 188.948 170.208 188.623C170.135 187.622 170.883 186.757 171.879 186.691C172.876 186.625 173.743 187.382 173.817 188.383Z" fill="#57B535"/>
<path d="M171.469 206.743C171.445 206.417 171.508 206.106 171.638 205.833C172.004 205.061 172.649 204.3 172.586 203.444L172.356 200.313C172.315 199.745 171.855 199.304 171.426 198.928C170.996 198.553 170.498 198.158 169.932 198.195L166.815 198.402C165.963 198.459 165.302 199.207 164.592 199.679C164.341 199.846 164.043 199.952 163.719 199.973C162.723 200.039 161.856 199.282 161.782 198.281C161.709 197.28 162.457 196.415 163.453 196.349C163.777 196.328 164.087 196.393 164.361 196.525C165.133 196.899 165.896 197.553 166.748 197.496L169.379 197.321C170.231 197.265 170.892 196.517 171.601 196.045C171.853 195.878 172.151 195.772 172.474 195.75C173.471 195.684 174.338 196.442 174.412 197.443C174.436 197.768 174.373 198.079 174.243 198.352C173.876 199.124 173.231 199.886 173.294 200.741L173.488 203.384C173.551 204.24 174.302 204.908 174.777 205.625C174.946 205.878 175.054 206.178 175.077 206.503C175.151 207.504 174.403 208.369 173.406 208.435C172.41 208.501 171.543 207.743 171.469 206.743Z" fill="#57B535"/>
<path d="M181.797 198.743C181.473 198.765 181.163 198.699 180.889 198.567C180.118 198.193 179.354 197.54 178.502 197.596L175.385 197.803C174.819 197.841 174.383 198.298 174.013 198.727C173.642 199.155 173.252 199.652 173.294 200.22L173.524 203.351C173.587 204.207 174.337 204.876 174.812 205.592C174.981 205.845 175.089 206.145 175.113 206.47C175.186 207.471 174.438 208.336 173.442 208.402C172.445 208.468 171.578 207.71 171.504 206.709C171.48 206.384 171.543 206.073 171.673 205.8C172.039 205.028 172.685 204.267 172.622 203.411L172.427 200.769C172.365 199.913 171.614 199.244 171.139 198.528C170.97 198.274 170.862 197.975 170.839 197.65C170.765 196.649 171.513 195.784 172.51 195.718C172.833 195.697 173.143 195.762 173.417 195.895C174.189 196.268 174.952 196.922 175.804 196.865L178.435 196.691C179.288 196.634 179.948 195.886 180.658 195.414C180.909 195.247 181.207 195.141 181.531 195.12C182.527 195.053 183.395 195.811 183.468 196.812C183.542 197.813 182.793 198.677 181.797 198.743Z" fill="#57B535"/>
<path d="M187.425 190.782C187.449 191.107 187.387 191.417 187.257 191.691C186.89 192.463 186.245 193.224 186.308 194.08L186.538 197.211C186.58 197.779 187.039 198.22 187.469 198.596C187.898 198.971 188.397 199.366 188.962 199.329L192.08 199.122C192.932 199.065 193.592 198.318 194.302 197.846C194.554 197.678 194.851 197.572 195.175 197.551C196.171 197.485 197.039 198.242 197.112 199.243C197.186 200.244 196.438 201.109 195.441 201.175C195.117 201.197 194.807 201.131 194.534 200.999C193.762 200.625 192.998 199.971 192.146 200.028L189.515 200.203C188.663 200.259 188.003 201.007 187.293 201.479C187.041 201.646 186.744 201.752 186.42 201.774C185.424 201.84 184.556 201.082 184.483 200.081C184.459 199.756 184.522 199.445 184.652 199.172C185.018 198.4 185.663 197.638 185.6 196.783L185.406 194.14C185.343 193.284 184.593 192.616 184.117 191.9C183.949 191.646 183.841 191.346 183.817 191.021C183.743 190.02 184.492 189.155 185.488 189.089C186.484 189.023 187.352 189.781 187.425 190.782Z" fill="#5C34FA"/>
<path d="M185.078 209.142C185.054 208.817 185.116 208.506 185.246 208.232C185.613 207.461 186.258 206.699 186.195 205.843L185.965 202.712C185.923 202.144 185.464 201.703 185.034 201.328C184.605 200.953 184.106 200.557 183.54 200.595L180.423 200.802C179.571 200.858 178.911 201.606 178.201 202.078C177.949 202.245 177.652 202.351 177.328 202.373C176.332 202.439 175.464 201.681 175.391 200.68C175.317 199.679 176.065 198.815 177.062 198.748C177.385 198.727 177.696 198.792 177.969 198.925C178.741 199.299 179.505 199.952 180.357 199.895L182.988 199.721C183.84 199.664 184.5 198.916 185.21 198.444C185.462 198.277 185.759 198.171 186.083 198.15C187.079 198.084 187.947 198.841 188.02 199.842C188.044 200.167 187.981 200.478 187.851 200.752C187.485 201.524 186.84 202.285 186.903 203.141L187.097 205.783C187.16 206.639 187.91 207.308 188.386 208.024C188.555 208.278 188.662 208.577 188.686 208.902C188.759 209.903 188.011 210.768 187.015 210.834C186.019 210.9 185.151 210.143 185.078 209.142Z" fill="#5C34FA"/>
<path d="M195.406 201.142C195.082 201.163 194.772 201.098 194.498 200.965C193.726 200.592 192.963 199.938 192.111 199.995L188.994 200.202C188.428 200.239 187.992 200.697 187.621 201.125C187.251 201.553 186.861 202.051 186.903 202.619L187.133 205.75C187.196 206.605 187.946 207.274 188.421 207.99C188.59 208.244 188.698 208.544 188.722 208.868C188.795 209.869 188.047 210.734 187.05 210.8C186.054 210.866 185.187 210.109 185.113 209.108C185.089 208.783 185.152 208.472 185.282 208.198C185.648 207.426 186.293 206.665 186.23 205.81L186.036 203.167C185.973 202.311 185.223 201.643 184.748 200.927C184.579 200.673 184.471 200.373 184.447 200.048C184.374 199.048 185.122 198.183 186.118 198.117C186.442 198.095 186.752 198.161 187.026 198.293C187.798 198.667 188.561 199.32 189.413 199.264L192.044 199.089C192.896 199.032 193.557 198.285 194.267 197.813C194.518 197.645 194.816 197.54 195.14 197.518C196.136 197.452 197.003 198.21 197.077 199.21C197.15 200.211 196.402 201.076 195.406 201.142Z" fill="#5C34FA"/>
<path d="M201.195 195.493C201.219 195.818 201.156 196.128 201.026 196.402C200.66 197.174 200.015 197.935 200.078 198.791L200.308 201.922C200.35 202.491 200.809 202.931 201.238 203.307C201.668 203.682 202.166 204.077 202.732 204.04L205.849 203.833C206.702 203.776 207.362 203.028 208.072 202.556C208.324 202.389 208.621 202.283 208.945 202.262C209.941 202.196 210.809 202.953 210.882 203.954C210.956 204.955 210.207 205.82 209.211 205.886C208.887 205.907 208.577 205.842 208.304 205.71C207.532 205.336 206.768 204.682 205.916 204.739L203.285 204.914C202.433 204.97 201.773 205.718 201.063 206.19C200.811 206.357 200.514 206.463 200.19 206.485C199.193 206.551 198.326 205.793 198.253 204.792C198.229 204.467 198.292 204.156 198.421 203.883C198.788 203.111 199.433 202.349 199.37 201.494L199.176 198.851C199.113 197.995 198.363 197.327 197.887 196.61C197.718 196.357 197.611 196.057 197.587 195.732C197.513 194.731 198.261 193.866 199.258 193.8C200.254 193.734 201.122 194.492 201.195 195.493Z" fill="#4F3F84"/>
<path d="M198.847 213.852C198.824 213.527 198.887 213.216 199.016 212.943C199.383 212.171 200.028 211.409 199.965 210.554L199.735 207.423C199.693 206.855 199.234 206.414 198.804 206.039C198.375 205.663 197.876 205.268 197.31 205.305L194.193 205.512C193.341 205.569 192.681 206.317 191.971 206.789C191.719 206.956 191.422 207.062 191.098 207.083C190.101 207.149 189.234 206.392 189.16 205.391C189.087 204.39 189.835 203.526 190.832 203.459C191.155 203.438 191.466 203.503 191.739 203.636C192.511 204.009 193.274 204.663 194.127 204.606L196.758 204.432C197.61 204.375 198.27 203.627 198.98 203.155C199.232 202.988 199.529 202.882 199.853 202.861C200.849 202.795 201.717 203.552 201.79 204.553C201.814 204.878 201.751 205.189 201.621 205.463C201.255 206.234 200.61 206.996 200.673 207.852L200.867 210.494C200.93 211.349 201.68 212.018 202.156 212.734C202.324 212.988 202.432 213.287 202.456 213.613C202.529 214.613 201.781 215.478 200.785 215.544C199.788 215.61 198.921 214.853 198.847 213.852Z" fill="#4F3F84"/>
<path d="M209.176 205.852C208.852 205.873 208.542 205.808 208.268 205.675C207.496 205.302 206.733 204.648 205.881 204.705L202.763 204.912C202.198 204.949 201.762 205.407 201.391 205.835C201.021 206.263 200.631 206.761 200.672 207.329L200.902 210.459C200.965 211.315 201.715 211.984 202.191 212.7C202.36 212.954 202.467 213.253 202.491 213.578C202.565 214.579 201.817 215.444 200.82 215.51C199.824 215.576 198.956 214.819 198.883 213.818C198.859 213.493 198.922 213.182 199.052 212.908C199.418 212.136 200.063 211.375 200 210.519L199.806 207.877C199.743 207.021 198.993 206.353 198.517 205.637C198.349 205.383 198.241 205.083 198.217 204.758C198.144 203.758 198.892 202.893 199.888 202.827C200.212 202.805 200.522 202.871 200.796 203.003C201.568 203.377 202.331 204.03 203.183 203.973L205.814 203.799C206.666 203.742 207.327 202.994 208.036 202.523C208.288 202.355 208.586 202.249 208.909 202.228C209.906 202.162 210.773 202.92 210.847 203.92C210.92 204.921 210.172 205.786 209.176 205.852Z" fill="#4F3F84"/>
<path d="M205.048 180.14C205.072 180.465 205.009 180.776 204.879 181.049C204.513 181.821 203.868 182.583 203.93 183.438L204.16 186.569C204.202 187.137 204.661 187.578 205.091 187.953C205.521 188.329 206.019 188.724 206.585 188.687L209.702 188.48C210.554 188.423 211.215 187.675 211.924 187.203C212.176 187.036 212.473 186.93 212.797 186.909C213.794 186.843 214.661 187.6 214.735 188.601C214.808 189.602 214.06 190.466 213.064 190.533C212.74 190.554 212.43 190.489 212.156 190.356C211.384 189.982 210.621 189.329 209.769 189.386L207.138 189.56C206.286 189.617 205.625 190.365 204.915 190.837C204.664 191.004 204.366 191.11 204.042 191.131C203.046 191.197 202.179 190.44 202.105 189.439C202.081 189.114 202.144 188.803 202.274 188.529C202.64 187.758 203.285 186.996 203.222 186.14L203.028 183.498C202.965 182.642 202.215 181.974 201.739 181.258C201.571 181.004 201.463 180.704 201.439 180.379C201.366 179.379 202.114 178.514 203.11 178.448C204.107 178.382 204.974 179.139 205.048 180.14Z" fill="#5C34FA"/>
<path d="M202.7 198.499C202.676 198.174 202.739 197.863 202.869 197.59C203.235 196.818 203.88 196.056 203.817 195.201L203.587 192.07C203.545 191.501 203.087 191.061 202.657 190.685C202.227 190.31 201.729 189.914 201.163 189.952L198.046 190.159C197.194 190.215 196.533 190.963 195.823 191.435C195.572 191.603 195.274 191.708 194.951 191.73C193.954 191.796 193.087 191.038 193.013 190.038C192.939 189.037 193.688 188.172 194.684 188.106C195.008 188.084 195.318 188.15 195.592 188.282C196.363 188.656 197.127 189.309 197.979 189.253L200.61 189.078C201.462 189.022 202.123 188.274 202.832 187.802C203.084 187.634 203.382 187.529 203.705 187.507C204.702 187.441 205.569 188.199 205.643 189.2C205.667 189.525 205.604 189.835 205.474 190.109C205.108 190.881 204.462 191.642 204.525 192.498L204.72 195.141C204.782 195.997 205.533 196.665 206.008 197.381C206.177 197.635 206.284 197.935 206.308 198.26C206.382 199.261 205.634 200.126 204.637 200.192C203.641 200.258 202.774 199.5 202.7 198.499Z" fill="#5C34FA"/>
<path d="M213.028 190.5C212.705 190.521 212.395 190.456 212.121 190.323C211.349 189.949 210.586 189.296 209.733 189.353L206.616 189.559C206.05 189.597 205.615 190.054 205.244 190.483C204.874 190.911 204.483 191.408 204.525 191.977L204.755 195.108C204.818 195.963 205.568 196.632 206.044 197.348C206.213 197.602 206.32 197.902 206.344 198.227C206.418 199.227 205.669 200.092 204.673 200.158C203.677 200.225 202.809 199.467 202.736 198.466C202.712 198.141 202.775 197.83 202.904 197.556C203.271 196.785 203.916 196.023 203.853 195.167L203.659 192.525C203.596 191.669 202.846 191 202.37 190.284C202.202 190.03 202.094 189.731 202.07 189.406C201.996 188.405 202.745 187.54 203.741 187.474C204.065 187.453 204.375 187.518 204.648 187.65C205.42 188.024 206.184 188.678 207.036 188.621L209.667 188.446C210.519 188.39 211.179 187.642 211.889 187.17C212.141 187.003 212.438 186.897 212.762 186.875C213.759 186.809 214.626 187.567 214.699 188.568C214.773 189.569 214.025 190.433 213.028 190.5Z" fill="#5C34FA"/>
<path d="M190.642 177.105C190.666 177.43 190.603 177.741 190.473 178.014C190.107 178.786 189.461 179.547 189.524 180.403L189.754 183.534C189.796 184.102 190.255 184.543 190.685 184.918C191.115 185.293 191.613 185.689 192.179 185.651L195.296 185.445C196.148 185.388 196.809 184.64 197.518 184.168C197.77 184.001 198.067 183.895 198.391 183.874C199.387 183.807 200.255 184.565 200.328 185.566C200.402 186.567 199.654 187.431 198.657 187.497C198.334 187.519 198.024 187.453 197.75 187.321C196.978 186.947 196.215 186.294 195.363 186.35L192.731 186.525C191.879 186.582 191.219 187.329 190.509 187.801C190.258 187.969 189.96 188.075 189.636 188.096C188.64 188.162 187.773 187.404 187.699 186.404C187.675 186.079 187.738 185.768 187.868 185.494C188.234 184.722 188.879 183.961 188.816 183.105L188.622 180.463C188.559 179.607 187.809 178.939 187.333 178.223C187.165 177.969 187.057 177.669 187.033 177.344C186.96 176.343 187.708 175.479 188.704 175.413C189.701 175.346 190.568 176.104 190.642 177.105Z" fill="#0FBDE9"/>
<path d="M188.294 195.463C188.27 195.138 188.333 194.828 188.463 194.554C188.829 193.782 189.474 193.021 189.411 192.165L189.181 189.034C189.139 188.466 188.68 188.025 188.25 187.65C187.821 187.275 187.323 186.879 186.757 186.917L183.639 187.124C182.787 187.18 182.127 187.928 181.417 188.4C181.165 188.567 180.868 188.673 180.544 188.695C179.548 188.761 178.68 188.003 178.607 187.002C178.533 186.002 179.281 185.137 180.278 185.071C180.602 185.049 180.912 185.115 181.185 185.247C181.957 185.621 182.721 186.274 183.573 186.218L186.204 186.043C187.056 185.987 187.716 185.239 188.426 184.767C188.678 184.599 188.975 184.494 189.299 184.472C190.295 184.406 191.163 185.164 191.236 186.164C191.26 186.489 191.197 186.8 191.068 187.074C190.701 187.846 190.056 188.607 190.119 189.463L190.313 192.105C190.376 192.961 191.126 193.63 191.602 194.346C191.771 194.599 191.878 194.899 191.902 195.224C191.976 196.225 191.228 197.09 190.231 197.156C189.234 197.222 188.367 196.464 188.294 195.463Z" fill="#0FBDE9"/>
<path d="M198.622 187.463C198.298 187.485 197.988 187.419 197.714 187.287C196.943 186.913 196.179 186.26 195.327 186.316L192.21 186.523C191.644 186.561 191.208 187.018 190.838 187.446C190.467 187.875 190.077 188.372 190.119 188.94L190.349 192.071C190.412 192.927 191.162 193.595 191.638 194.311C191.806 194.565 191.914 194.865 191.938 195.19C192.011 196.19 191.263 197.055 190.267 197.121C189.27 197.188 188.403 196.43 188.329 195.429C188.306 195.104 188.368 194.793 188.498 194.52C188.865 193.748 189.51 192.986 189.447 192.131L189.253 189.488C189.19 188.633 188.44 187.964 187.964 187.248C187.795 186.994 187.688 186.695 187.664 186.37C187.59 185.369 188.338 184.504 189.335 184.438C189.658 184.416 189.968 184.482 190.242 184.614C191.014 184.988 191.777 185.641 192.629 185.585L195.261 185.41C196.113 185.354 196.773 184.606 197.483 184.134C197.735 183.967 198.032 183.861 198.356 183.839C199.352 183.773 200.22 184.531 200.293 185.532C200.367 186.532 199.618 187.397 198.622 187.463Z" fill="#0FBDE9"/>
<path d="M212.434 217.267C214.029 217.161 215.226 215.777 215.109 214.175C214.991 212.573 213.603 211.361 212.008 211.467C210.413 211.572 209.216 212.957 209.334 214.558C209.451 216.16 210.84 217.373 212.434 217.267Z" fill="#E1D3C1"/>
<path d="M208.568 185.505C209.487 185.444 210.178 184.646 210.11 183.722C210.042 182.798 209.242 182.099 208.322 182.16C207.402 182.221 206.711 183.019 206.779 183.943C206.847 184.867 207.648 185.566 208.568 185.505Z" fill="#0FBDE9"/>
<path d="M194.161 182.469C195.081 182.408 195.772 181.61 195.704 180.687C195.636 179.763 194.835 179.064 193.915 179.125C192.996 179.186 192.305 179.984 192.373 180.908C192.441 181.831 193.241 182.53 194.161 182.469Z" fill="#57B535"/>
<path d="M194.161 182.469C195.081 182.408 195.772 181.61 195.704 180.687C195.636 179.763 194.835 179.064 193.915 179.125C192.996 179.186 192.305 179.984 192.373 180.908C192.441 181.831 193.241 182.53 194.161 182.469Z" fill="#0FBDE9"/>
<path d="M217.324 194.222C217.256 193.29 216.451 192.584 215.527 192.646C215.08 192.675 214.686 192.88 214.407 193.189C214.387 193.207 214.367 193.226 214.348 193.244C213.924 193.639 213.475 194.058 212.912 194.096L209.984 194.291C209.421 194.329 208.915 193.973 208.439 193.638C208.37 193.59 208.302 193.543 208.235 193.497C207.935 193.292 207.568 193.182 207.18 193.208C206.258 193.269 205.566 194.074 205.634 195.005C205.702 195.936 206.505 196.64 207.427 196.579C207.815 196.553 208.162 196.396 208.429 196.153C208.489 196.098 208.549 196.042 208.61 195.986C209.033 195.591 209.483 195.172 210.046 195.134L212.974 194.939C213.536 194.901 214.043 195.257 214.519 195.592C214.559 195.62 214.598 195.647 214.638 195.675C214.952 195.917 215.351 196.05 215.774 196.022C216.698 195.961 217.391 195.154 217.324 194.222Z" fill="#5C34FA"/>
<path d="M164.177 188.611C165.098 188.55 165.79 187.75 165.722 186.825C165.654 185.899 164.852 185.198 163.93 185.259C163.009 185.321 162.317 186.12 162.385 187.046C162.453 187.972 163.255 188.672 164.177 188.611Z" fill="#E1D3C1"/>
<path d="M180.28 178.996C181.201 178.935 181.893 178.135 181.825 177.21C181.757 176.285 180.955 175.584 180.034 175.645C179.112 175.706 178.42 176.506 178.488 177.431C178.556 178.357 179.358 179.057 180.28 178.996Z" fill="#57B535"/>
</svg>
