<svg width="40" height="46" viewBox="0 0 40 46" fill="none" xmlns="http://www.w3.org/2000/svg">
<path d="M22.3424 26.833C21.6944 26.833 21.0454 26.587 20.5524 26.095L19.6974 25.241C19.5394 25.085 19.2904 25.043 19.0644 25.137C18.8114 25.241 18.6624 25.448 18.6624 25.674C18.6624 26.217 18.2224 26.657 17.6784 26.657C17.1343 26.657 16.6943 26.218 16.6943 25.674C16.6943 24.647 17.3233 23.726 18.2964 23.327C19.2804 22.921 20.3674 23.131 21.0884 23.85L21.9424 24.703C22.1624 24.921 22.5204 24.922 22.7404 24.703L24.7345 22.711C24.9545 22.491 24.9545 22.133 24.7345 21.914L23.8795 21.061C23.1575 20.34 22.9495 19.252 23.3495 18.289C23.7555 17.3 24.6785 16.672 25.7065 16.672H26.9085C27.2195 16.672 27.4735 16.419 27.4735 16.108C27.4735 15.565 27.9135 15.125 28.4576 15.125C29.0016 15.125 29.4416 15.565 29.4416 16.108C29.4416 17.502 28.3046 18.637 26.9095 18.637H25.7075C25.4805 18.637 25.2725 18.787 25.1775 19.018C25.0745 19.266 25.1165 19.514 25.2725 19.671L26.1275 20.524C27.1145 21.511 27.1145 23.115 26.1275 24.101L24.1335 26.092C23.6395 26.588 22.9915 26.833 22.3424 26.833Z" fill="#35246F"/>
<path d="M6.00411 26.382C5.75211 26.382 5.5011 26.286 5.3081 26.094L3.31406 24.102C2.83605 23.625 2.57205 22.99 2.57205 22.314C2.57205 21.638 2.83505 21.004 3.31406 20.526L4.16808 19.673C4.32508 19.516 4.36508 19.269 4.27208 19.042C4.16808 18.789 3.96007 18.639 3.73407 18.639H2.53205C1.13602 18.64 0 17.505 0 16.111V13.295C0 11.901 1.13602 10.766 2.53205 10.766H3.73407C3.96107 10.766 4.16908 10.617 4.26308 10.386C4.36608 10.137 4.32508 9.889 4.16808 9.733L3.31406 8.88C2.83605 8.403 2.57205 7.768 2.57205 7.092C2.57205 6.416 2.83505 5.782 3.31406 5.304L5.3081 3.312C6.29612 2.327 7.90215 2.327 8.88917 3.312L9.74418 4.166C9.90218 4.322 10.1502 4.364 10.3762 4.27C10.6292 4.166 10.7792 3.959 10.7792 3.732V2.529C10.7782 1.135 11.9142 0 13.3102 0H16.1303C17.5263 0 18.6623 1.135 18.6623 2.529V3.73C18.6623 3.956 18.8114 4.164 19.0434 4.259C19.2944 4.363 19.5404 4.321 19.6974 4.164L20.5514 3.31C21.5394 2.324 23.1444 2.323 24.1325 3.31C24.5165 3.694 24.5165 4.316 24.1325 4.699C23.7484 5.083 23.1254 5.083 22.7414 4.699C22.5194 4.479 22.1634 4.48 21.9434 4.699L21.0894 5.553C20.3694 6.274 19.2804 6.482 18.3143 6.084C17.3233 5.678 16.6953 4.757 16.6953 3.73V2.529C16.6953 2.218 16.4423 1.965 16.1313 1.965H13.3112C13.0002 1.965 12.7472 2.218 12.7472 2.529V3.73C12.7472 4.757 12.1192 5.678 11.1462 6.077C10.1632 6.482 9.07517 6.274 8.35416 5.554L7.49814 4.7C7.27814 4.48 6.92013 4.48 6.70013 4.7L4.70609 6.691C4.59909 6.798 4.54109 6.939 4.54109 7.09C4.54109 7.241 4.60009 7.382 4.70609 7.488L5.5601 8.342C6.28112 9.062 6.49012 10.15 6.09111 11.113C5.68411 12.103 4.76209 12.73 3.73407 12.73H2.53205C2.22104 12.73 1.96804 12.983 1.96804 13.294V16.11C1.96804 16.421 2.22204 16.674 2.53305 16.674H3.73507C4.76309 16.674 5.68611 17.302 6.08511 18.274C6.49012 19.255 6.28212 20.342 5.5611 21.063L4.70709 21.916C4.60009 22.023 4.54208 22.164 4.54208 22.315C4.54208 22.466 4.60109 22.607 4.70709 22.713L6.70113 24.705C7.08513 25.089 7.08513 25.711 6.70113 26.094C6.50812 26.287 6.25612 26.382 6.00411 26.382Z" fill="#35246F"/>
<path d="M8.9812 16.579C8.50419 16.579 8.08618 16.232 8.01018 15.747C7.95718 15.403 7.93018 15.052 7.93018 14.703C7.93018 10.964 10.9762 7.92102 14.7203 7.92102C15.2633 7.92102 15.7043 8.36102 15.7043 8.90402C15.7043 9.44702 15.2643 9.88702 14.7203 9.88702C12.0613 9.88702 9.89821 12.047 9.89821 14.704C9.89821 14.953 9.91721 15.203 9.95521 15.448C10.0382 15.984 9.67021 16.486 9.1332 16.569C9.0822 16.575 9.0322 16.579 8.9812 16.579Z" fill="#35246F"/>
<path d="M16.8163 21.096C16.4223 21.096 16.0493 20.857 15.8993 20.467C15.7033 19.961 15.9553 19.392 16.4623 19.196C18.0283 18.591 19.1813 17.19 19.4713 15.542C19.5653 15.008 20.0723 14.65 20.6103 14.744C21.1454 14.838 21.5034 15.347 21.4094 15.882C21.0014 18.204 19.3773 20.176 17.1723 21.029C17.0543 21.074 16.9343 21.096 16.8163 21.096Z" fill="#35246F"/>
<path d="M24.7833 37.8629C20.7173 37.8629 16.8942 36.2809 14.0191 33.4089C11.1441 30.5369 9.56006 26.7189 9.56006 22.6569C9.56006 18.5949 11.1441 14.7769 14.0191 11.9049C16.8942 9.03293 20.7183 7.45093 24.7833 7.45093C28.8504 7.45093 32.6735 9.03293 35.5485 11.9049C41.4837 17.8329 41.4837 27.4799 35.5485 33.4079C32.6735 36.2799 28.8504 37.8629 24.7833 37.8629ZM24.7833 9.41693C21.2433 9.41693 17.9132 10.7939 15.4102 13.2949C12.9071 15.7959 11.5271 19.1209 11.5271 22.6569C11.5271 26.1929 12.9061 29.5179 15.4102 32.0189C17.9142 34.5199 21.2433 35.8979 24.7833 35.8979C28.3244 35.8979 31.6535 34.5199 34.1575 32.0189C36.6616 29.5179 38.0396 26.1929 38.0396 22.6569C38.0396 19.1209 36.6606 15.7959 34.1575 13.2949C31.6545 10.7939 28.3254 9.41693 24.7833 9.41693Z" fill="#35246F"/>
<path d="M24.7835 34.907C21.5075 34.907 18.4274 33.632 16.1114 31.318C13.7953 29.004 12.5193 25.929 12.5193 22.656C12.5193 19.384 13.7953 16.308 16.1114 13.994C18.4274 11.68 21.5075 10.406 24.7835 10.406C28.0596 10.406 31.1396 11.68 33.4567 13.994C35.7727 16.308 37.0497 19.384 37.0497 22.656C37.0497 25.929 35.7727 29.004 33.4567 31.318C31.1406 33.632 28.0606 34.907 24.7835 34.907ZM24.7835 12.373C22.0325 12.373 19.4474 13.442 17.5024 15.385C15.5573 17.328 14.4863 19.91 14.4863 22.657C14.4863 25.404 15.5573 27.987 17.5024 29.929C19.4474 31.872 22.0325 32.942 24.7835 32.942C27.5346 32.942 30.1206 31.872 32.0647 29.929C34.0097 27.987 35.0817 25.404 35.0817 22.657C35.0817 19.91 34.0107 17.328 32.0647 15.385C30.1206 13.442 27.5346 12.373 24.7835 12.373Z" fill="#35246F"/>
<path d="M12.5713 30.9702L13.9633 32.3602L12.0748 34.2512L10.6828 32.8613L12.5713 30.9702Z" fill="#35246F"/>
<path d="M15.0869 33.4852L16.4789 34.8752L14.5911 36.7655L13.1992 35.3756L15.0869 33.4852Z" fill="#35246F"/>
<path d="M5.18816 46C4.18014 46 3.23112 45.608 2.51911 44.896C1.80609 44.184 1.41309 43.238 1.41309 42.23C1.41309 41.222 1.80609 40.276 2.51911 39.564L10.6663 31.427L16.0044 36.758L7.85721 44.895C7.14419 45.608 6.19618 46 5.18816 46ZM10.6653 34.206L3.91013 40.954C3.56813 41.295 3.38112 41.749 3.38112 42.23C3.38112 42.711 3.56913 43.166 3.91013 43.506C4.59315 44.19 5.78317 44.19 6.46618 43.506L13.2213 36.758L10.6653 34.206Z" fill="#35246F"/>
</svg>
