<svg width="64" height="60" viewBox="0 0 64 60" fill="none" xmlns="http://www.w3.org/2000/svg">
<path d="M32.009 13.3326C33.3181 13.3326 34.5979 12.9416 35.6864 12.2091C36.7749 11.4766 37.6233 10.4355 38.1243 9.21738C38.6252 7.99927 38.7563 6.6589 38.5009 5.36577C38.2455 4.07263 37.6151 2.88481 36.6894 1.95252C35.7637 1.02022 34.5843 0.385314 33.3003 0.128094C32.0163 -0.129126 30.6855 0.00288841 29.476 0.507445C28.2665 1.012 27.2327 1.86644 26.5054 2.9627C25.7781 4.05897 25.3899 5.34783 25.3899 6.6663C25.3916 8.43377 26.0896 10.1283 27.3305 11.3781C28.5715 12.6279 30.254 13.3308 32.009 13.3326ZM32.009 2.2221C32.8818 2.2221 33.7349 2.48275 34.4606 2.97108C35.1863 3.45942 35.7518 4.15351 36.0858 4.96558C36.4198 5.77765 36.5072 6.67123 36.3369 7.53332C36.1667 8.39541 35.7464 9.18729 35.1293 9.80882C34.5121 10.4304 33.7259 10.8536 32.8699 11.0251C32.0139 11.1966 31.1266 11.1086 30.3203 10.7722C29.514 10.4358 28.8248 9.86621 28.3399 9.13536C27.8551 8.40452 27.5963 7.54528 27.5963 6.6663C27.5963 5.48762 28.0612 4.35722 28.8887 3.52378C29.7163 2.69033 30.8387 2.2221 32.009 2.2221Z" fill="#35246F"/>
<path d="M39.2655 16.0981C38.3604 15.7368 37.3952 15.5521 36.4215 15.5537H27.5961C25.5488 15.5564 23.5861 16.3766 22.1385 17.8346C20.6908 19.2925 19.8764 21.2692 19.8738 23.3311V33.3305C19.8738 34.5092 20.3387 35.6396 21.1662 36.473C21.9938 37.3065 23.1162 37.7747 24.2865 37.7747L24.2931 39.5524C24.2931 41.5923 24.3064 44.1699 24.3064 55.5759C24.3088 56.4762 24.5833 57.3544 25.0932 58.0939C25.6032 58.8333 26.3245 59.3989 27.1613 59.7156C27.9981 60.0322 28.9108 60.0849 29.778 59.8666C30.6453 59.6484 31.426 59.1694 32.0165 58.4935C32.429 58.9662 32.937 59.3447 33.5064 59.6037C34.0758 59.8628 34.6935 59.9964 35.3184 59.9957C35.8853 60.0182 36.451 59.9259 36.9819 59.7245C37.5129 59.5231 37.9984 59.2165 38.4098 58.823C38.8211 58.4294 39.15 57.9568 39.3769 57.4331C39.6039 56.9093 39.7243 56.3451 39.7311 55.7737C39.7311 43.0933 39.7311 39.108 39.7311 37.7658C40.9172 37.7154 42.0383 37.2058 42.8604 36.3432C43.6826 35.4807 44.1423 34.3317 44.1438 33.1361V23.3311C44.1496 21.7707 43.6868 20.245 42.8162 18.9542C41.9456 17.6634 40.7079 16.6678 39.2655 16.0981ZM33.7265 17.7758L32.0088 22.3889L30.2911 17.7758H33.7265ZM41.9375 33.1416C41.9354 33.7466 41.7072 34.3286 41.2984 34.7719C40.8895 35.2151 40.33 35.4871 39.7311 35.5337V23.3311C39.7311 23.0364 39.6149 22.7538 39.408 22.5454C39.2011 22.3371 38.9205 22.22 38.6279 22.22C38.3353 22.22 38.0547 22.3371 37.8478 22.5454C37.6409 22.7538 37.5247 23.0364 37.5247 23.3311V37.0347C37.5247 37.3147 37.5247 38.0247 37.5247 55.7793C37.5247 57.7192 35.3426 57.7791 35.3184 57.7791C34.7347 57.7768 34.1758 57.5416 33.7639 57.1252C33.3521 56.7087 33.1208 56.1449 33.1208 55.557L33.112 43.33C33.112 43.0353 32.9958 42.7527 32.7889 42.5443C32.582 42.336 32.3014 42.2189 32.0088 42.2189C31.7162 42.2189 31.4356 42.336 31.2287 42.5443C31.0218 42.7527 30.9056 43.0353 30.9056 43.33L30.9144 55.5515C30.8777 56.1125 30.6312 56.6386 30.2247 57.0239C29.8181 57.4091 29.2816 57.6248 28.7234 57.6274C28.1651 57.6301 27.6266 57.4196 27.2164 57.0383C26.8062 56.657 26.5548 56.1332 26.5127 55.5726C26.5127 44.1621 26.505 41.5823 26.4995 39.5424L26.4929 36.6637V23.3311C26.4929 23.0364 26.3767 22.7538 26.1698 22.5454C25.9629 22.3371 25.6823 22.22 25.3897 22.22C25.0971 22.22 24.8165 22.3371 24.6096 22.5454C24.4027 22.7538 24.2865 23.0364 24.2865 23.3311V35.5526C23.7013 35.5526 23.1402 35.3185 22.7264 34.9018C22.3126 34.485 22.0801 33.9198 22.0801 33.3305V23.3311C22.0819 21.8583 22.6636 20.4463 23.6977 19.4049C24.7317 18.3634 26.1337 17.7776 27.5961 17.7758H27.9347L30.9751 25.9443C31.0537 26.1565 31.1948 26.3395 31.3796 26.4687C31.5643 26.5979 31.7839 26.6672 32.0088 26.6672C32.2337 26.6672 32.4533 26.5979 32.638 26.4687C32.8228 26.3395 32.9639 26.1565 33.0425 25.9443L36.0829 17.7758H36.4215C37.1461 17.7751 37.8637 17.9183 38.5332 18.1972C39.2028 18.4761 39.8112 18.8853 40.3235 19.4013C40.8358 19.9173 41.2421 20.53 41.5191 21.2043C41.796 21.8786 41.9382 22.6013 41.9375 23.3311V33.1416Z" fill="#35246F"/>
<path d="M59.5886 23.332C58.6131 23.3357 57.6663 23.6648 56.8963 24.2679C56.1263 24.8709 55.5763 25.714 55.3325 26.6652H47.4535C47.1609 26.6652 46.8803 26.7822 46.6735 26.9906C46.4666 27.199 46.3503 27.4816 46.3503 27.7762C46.3503 28.0709 46.4666 28.3535 46.6735 28.5619C46.8803 28.7702 47.1609 28.8873 47.4535 28.8873H55.3325C55.5402 29.6901 55.9673 30.4181 56.5652 30.9888C57.1632 31.5594 57.908 31.9497 58.7151 32.1154C59.5223 32.2812 60.3594 32.2157 61.1314 31.9263C61.9034 31.637 62.5794 31.1354 63.0826 30.4786C63.5858 29.8218 63.8961 29.036 63.9782 28.2105C64.0603 27.3851 63.9109 26.5529 63.547 25.8087C63.1831 25.0644 62.6193 24.4378 61.9196 24C61.2199 23.5622 60.4123 23.3308 59.5886 23.332ZM59.5886 29.9983C59.1522 29.9983 58.7256 29.868 58.3628 29.6238C57.9999 29.3797 57.7171 29.0326 57.5501 28.6266C57.3831 28.2206 57.3394 27.7738 57.4246 27.3427C57.5097 26.9117 57.7198 26.5157 58.0284 26.205C58.337 25.8942 58.7301 25.6826 59.1581 25.5968C59.5861 25.5111 60.0297 25.5551 60.4329 25.7233C60.8361 25.8915 61.1806 26.1763 61.4231 26.5417C61.6655 26.9071 61.7949 27.3367 61.7949 27.7762C61.7949 28.3656 61.5625 28.9308 61.1487 29.3475C60.7349 29.7642 60.1737 29.9983 59.5886 29.9983Z" fill="#35246F"/>
<path d="M57.9623 42.8148C57.1157 42.3268 56.1325 42.135 55.1662 42.2695C54.2 42.404 53.3052 42.8571 52.6218 43.5581L45.7986 39.5905C45.5453 39.4455 45.2454 39.4073 44.9643 39.4841C44.6832 39.561 44.4436 39.7467 44.298 40.0008C44.1523 40.2549 44.1123 40.5567 44.1868 40.8404C44.2613 41.124 44.4441 41.3665 44.6954 41.5149L51.5186 45.4824C51.3355 46.1405 51.3061 46.8323 51.4325 47.5037C51.559 48.1752 51.838 48.8081 52.2477 49.3529C52.6573 49.8977 53.1866 50.3397 53.7941 50.6443C54.4015 50.9489 55.0707 51.1079 55.7493 51.1088C56.1375 51.1082 56.5239 51.0567 56.8988 50.9554C57.7419 50.7279 58.4989 50.2536 59.0744 49.5927C59.6498 48.9318 60.0176 48.1139 60.1315 47.2424C60.2453 46.3709 60.1 45.485 59.7139 44.6967C59.3278 43.9084 58.7182 43.2531 57.9623 42.8137V42.8148ZM57.6666 47.7756C57.4113 48.2208 57.0107 48.563 56.5329 48.744C56.0552 48.925 55.5299 48.9336 55.0466 48.7682C54.5632 48.6029 54.1518 48.2739 53.8823 47.8374C53.6128 47.4008 53.502 46.8836 53.5686 46.3739C53.6353 45.8642 53.8754 45.3936 54.248 45.0422C54.6205 44.6908 55.1025 44.4804 55.6119 44.4468C56.1212 44.4132 56.6264 44.5585 57.0413 44.858C57.4562 45.1574 57.7552 45.5925 57.8873 46.089C57.963 46.3709 57.9824 46.6651 57.9446 46.9546C57.9067 47.2441 57.8122 47.5231 57.6666 47.7756Z" fill="#35246F"/>
<path d="M45.2472 16.1105C45.4409 16.1109 45.6313 16.0595 45.7988 15.9616L52.6121 11.9996C53.1572 12.5576 53.839 12.9607 54.5885 13.1681C55.3379 13.3755 56.1285 13.3799 56.8802 13.1808C57.6319 12.9817 58.318 12.5861 58.8692 12.0341C59.4203 11.4822 59.8169 10.7934 60.0189 10.0375C60.2014 9.37602 60.2293 8.68097 60.1003 8.00684C59.9714 7.33271 59.6891 6.69783 59.2757 6.152C58.8622 5.60616 58.3288 5.16422 57.7173 4.86083C57.1058 4.55744 56.4329 4.40085 55.7512 4.40335C55.0695 4.40585 54.3977 4.56736 53.7884 4.87522C53.1792 5.18308 52.649 5.62892 52.2395 6.17776C51.83 6.72661 51.5523 7.36354 51.4282 8.0386C51.3042 8.71366 51.3371 9.40849 51.5243 10.0686L44.6956 14.0384C44.4859 14.1609 44.3221 14.3496 44.2295 14.5754C44.137 14.8011 44.1208 15.0513 44.1836 15.2871C44.2464 15.523 44.3846 15.7315 44.5769 15.8803C44.7692 16.0292 45.0047 16.11 45.2472 16.1105ZM54.6519 6.96432C54.9869 6.76834 55.3676 6.66522 55.7551 6.66545C55.9495 6.66533 56.143 6.69073 56.3309 6.741C56.824 6.87406 57.2559 7.17516 57.5533 7.59302C57.8506 8.01088 57.9949 8.51963 57.9615 9.03261C57.9281 9.54558 57.7192 10.031 57.3703 10.4063C57.0214 10.7815 56.5541 11.0233 56.0481 11.0904C55.542 11.1576 55.0285 11.0459 54.595 10.7745C54.1615 10.5031 53.8348 10.0887 53.6707 9.60196C53.5065 9.1152 53.515 8.58617 53.6948 8.10501C53.8745 7.62385 54.2143 7.22034 54.6563 6.96321L54.6519 6.96432Z" fill="#35246F"/>
<path d="M8.68535 28.8873H16.5643C16.8569 28.8873 17.1375 28.7702 17.3444 28.5619C17.5513 28.3535 17.6675 28.0709 17.6675 27.7762C17.6675 27.4816 17.5513 27.199 17.3444 26.9906C17.1375 26.7822 16.8569 26.6652 16.5643 26.6652H8.68535C8.41684 25.6178 7.77828 24.7051 6.88936 24.098C6.00044 23.4909 4.92218 23.2312 3.85671 23.3675C2.79124 23.5038 1.8117 24.0267 1.10171 24.8384C0.39171 25.65 0 26.6946 0 27.7762C0 28.8579 0.39171 29.9025 1.10171 30.7141C1.8117 31.5257 2.79124 32.0487 3.85671 32.185C4.92218 32.3213 6.00044 32.0616 6.88936 31.4545C7.77828 30.8474 8.41684 29.9346 8.68535 28.8873ZM2.2229 27.7762C2.2229 27.3367 2.3523 26.9071 2.59474 26.5417C2.83718 26.1763 3.18176 25.8915 3.58493 25.7233C3.98809 25.5551 4.43171 25.5111 4.85971 25.5968C5.2877 25.6826 5.68084 25.8942 5.9894 26.205C6.29797 26.5157 6.50811 26.9117 6.59324 27.3427C6.67837 27.7738 6.63468 28.2206 6.46768 28.6266C6.30069 29.0326 6.01789 29.3797 5.65506 29.6238C5.29222 29.868 4.86564 29.9983 4.42927 29.9983C3.8441 29.9983 3.2829 29.7642 2.86913 29.3475C2.45535 28.9308 2.2229 28.3656 2.2229 27.7762Z" fill="#35246F"/>
<path d="M18.2192 39.591L11.396 43.5542C10.9209 43.0682 10.3409 42.6991 9.70115 42.4756C9.06137 42.252 8.37903 42.18 7.70714 42.2652C7.03526 42.3504 6.39192 42.5904 5.82711 42.9667C5.2623 43.343 4.79124 43.8453 4.45051 44.4347C4.10978 45.0241 3.90856 45.6847 3.8625 46.3651C3.81643 47.0455 3.92676 47.7275 4.1849 48.358C4.44304 48.9886 4.84204 49.5506 5.35091 50.0006C5.85979 50.4506 6.46482 50.7764 7.119 50.9526C7.49377 51.055 7.88021 51.1077 8.26852 51.1093C8.94723 51.1085 9.61655 50.9495 10.2241 50.6448C10.8317 50.3402 11.361 49.8981 11.7707 49.3531C12.1804 48.8081 12.4594 48.1751 12.5858 47.5035C12.7121 46.8319 12.6825 46.14 12.4992 45.4818L19.3224 41.5154C19.4489 41.443 19.5599 41.3461 19.649 41.2303C19.7382 41.1145 19.8037 40.982 19.8418 40.8406C19.8799 40.6992 19.8899 40.5516 19.8712 40.4063C19.8524 40.261 19.8053 40.1209 19.7325 39.994C19.6598 39.8671 19.5629 39.7559 19.4473 39.6669C19.3317 39.5779 19.1998 39.5128 19.0591 39.4754C18.9185 39.4379 18.7719 39.4289 18.6277 39.4487C18.4836 39.4686 18.3448 39.5169 18.2192 39.591ZM9.36509 48.5905C8.98714 48.8104 8.55295 48.9124 8.11743 48.8837C7.68191 48.8549 7.26463 48.6968 6.91838 48.4292C6.57212 48.1616 6.31246 47.7965 6.17222 47.3803C6.03199 46.964 6.01749 46.5152 6.13055 46.0907C6.24339 45.6661 6.47871 45.2847 6.80677 44.9949C7.13482 44.705 7.54087 44.5196 7.97355 44.4622C8.40623 44.4047 8.8461 44.4778 9.23754 44.6721C9.62898 44.8665 9.95439 45.1734 10.1726 45.554C10.4648 46.0643 10.5439 46.6706 10.3925 47.2395C10.2411 47.8085 9.87153 48.2936 9.36509 48.5883V48.5905Z" fill="#35246F"/>
<path d="M19.3222 14.0373L12.499 10.0697C12.7756 9.0346 12.6682 7.93344 12.1969 6.97233C11.7256 6.01123 10.9226 5.25605 9.93834 4.84816C8.95405 4.44027 7.85591 4.40762 6.84945 4.75633C5.84298 5.10503 4.9972 5.81118 4.47039 6.74261C3.94359 7.67404 3.77188 8.7669 3.9874 9.81663C4.20292 10.8664 4.79091 11.801 5.6413 12.4456C6.49169 13.0903 7.54619 13.4007 8.60743 13.3188C9.66867 13.2369 10.6639 12.7683 11.4068 12.0007L18.219 15.9616C18.3445 16.0357 18.4833 16.0841 18.6275 16.1039C18.7716 16.1238 18.9183 16.1147 19.0589 16.0772C19.1996 16.0398 19.3315 15.9747 19.4471 15.8857C19.5626 15.7967 19.6596 15.6855 19.7323 15.5586C19.8051 15.4317 19.8522 15.2916 19.8709 15.1463C19.8897 15.001 19.8797 14.8534 19.8416 14.712C19.8035 14.5706 19.7379 14.4382 19.6488 14.3224C19.5597 14.2066 19.4487 14.1097 19.3222 14.0373ZM7.15848 10.8152C6.78053 10.5955 6.47575 10.2679 6.2827 9.87371C6.08964 9.47955 6.01698 9.0366 6.07389 8.60085C6.13081 8.1651 6.31475 7.75614 6.60246 7.42568C6.89016 7.09522 7.26871 6.85811 7.69022 6.74433C7.87795 6.69293 8.07154 6.66641 8.26608 6.66544C8.60452 6.66543 8.93843 6.74382 9.24197 6.89457C9.54551 7.04531 9.81055 7.26436 10.0166 7.53478C10.2226 7.80519 10.3641 8.11971 10.4301 8.45401C10.4962 8.78831 10.485 9.13343 10.3974 9.46267C10.3098 9.7919 10.1481 10.0964 9.92499 10.3527C9.70184 10.609 9.42314 10.8101 9.11046 10.9405C8.79778 11.0709 8.4595 11.1272 8.12179 11.1049C7.78408 11.0826 7.45598 10.9823 7.1629 10.8119L7.15848 10.8152Z" fill="#35246F"/>
</svg>
