<svg width="56" height="44" viewBox="0 0 56 44" fill="none" xmlns="http://www.w3.org/2000/svg">
<path d="M54.7173 10.1897L38.5525 3.74567C38.1231 3.57406 37.6578 3.84651 37.5129 4.35332C37.368 4.86014 37.5983 5.40956 38.0276 5.58065L53.625 11.7986L29.4724 21.4273C28.6706 21.747 27.2926 21.7321 26.5277 21.4274L9.57198 14.6678L24.8434 8.76266C25.459 9.70268 26.6424 10.2983 28.0002 10.2983C30.4175 10.2983 31.6995 8.48853 31.507 7.53262C30.7086 3.56876 26.1001 3.0994 24.7108 6.77582L6.97695 13.6332L2.37489 11.7986L26.5278 2.16996C27.3123 1.85723 28.6882 1.85723 29.4724 2.16996L35.2087 4.45688C35.6379 4.62771 36.1034 4.35604 36.2483 3.84922C36.3932 3.34254 36.1629 2.79299 35.7336 2.6219L29.9973 0.33498C28.8775 -0.11166 27.1229 -0.11166 26.0028 0.33498L1.28256 10.1897C-0.426644 10.8711 -0.428394 12.7255 1.28256 13.4075L6.15237 15.3489V35.093C5.13212 35.4986 4.39504 36.638 4.39504 37.9775V40.9568C4.39504 42.6349 5.55135 44 6.97268 44C8.39401 44 9.55032 42.6349 9.55032 40.9568V37.9775C9.55032 36.638 8.81314 35.4986 7.79299 35.093V16.003L9.66735 16.7503V31.3483C9.66735 31.9212 10.013 32.1477 10.4286 32.4989C20.1903 40.7477 36.6071 40.5 46.0068 32.1211C46.212 31.9381 46.3327 31.652 46.3327 31.3483V23.9576C46.3327 23.4226 45.9655 22.9892 45.5124 22.9892C45.0592 22.9892 44.6921 23.4226 44.6921 23.9576V30.8597C40.5902 34.3617 34.8689 36.4258 28.8201 36.5976V23.5474C29.7431 23.4334 28.6776 23.7885 44.6921 17.4042V20.7725C44.6921 21.3075 45.0592 21.7409 45.5124 21.7409C45.9655 21.7409 46.3327 21.3075 46.3327 20.7725V16.75L54.717 13.4075C56.4266 12.726 56.4287 10.8716 54.7173 10.1897ZM29.8184 7.63941C29.0863 8.59634 26.9139 8.59557 26.1819 7.63941C26.8425 5.72372 29.1586 5.72514 29.8184 7.63941ZM7.90992 37.9775V40.9568C7.90992 41.5669 7.48948 42.0631 6.9729 42.0631C6.45632 42.0631 6.03589 41.5668 6.03589 40.9568V37.9775C6.03589 37.3673 6.45632 36.8711 6.9729 36.8711C7.48948 36.8711 7.90992 37.3674 7.90992 37.9775ZM27.1797 36.5976C21.697 36.4418 15.7838 34.681 11.3082 30.8597V17.4043C26.1907 23.3374 26.2113 23.4286 27.1797 23.5497V36.5976Z" fill="#35246F"/>
</svg>
