<svg width="38" height="46" viewBox="0 0 38 46" fill="none" xmlns="http://www.w3.org/2000/svg">
<path d="M1.0411 46C0.466411 46 0 45.5838 0 45.0688V39.4363C0 36.3929 2.17589 33.7201 5.4137 32.7851L10.1871 31.715C10.7452 31.5893 11.3105 31.8929 11.45 32.3921C11.5895 32.8913 11.2501 33.3969 10.6921 33.5217L5.9863 34.575C3.67819 35.2446 2.08219 37.204 2.08219 39.4373V45.0697C2.08219 45.5838 1.61578 46 1.0411 46Z" fill="#35246F"/>
<path d="M36.9589 46C36.3832 46 35.9178 45.5837 35.9178 45.0687V39.4362C35.9178 37.2049 34.3218 35.2436 31.946 34.5572L27.2538 33.4984C26.6968 33.3717 26.3595 32.8651 26.499 32.3668C26.6406 31.8677 27.2069 31.565 27.7639 31.6917L32.5207 32.7673C35.8241 33.7191 38 36.3928 38 39.4353V45.0677C38 45.5837 37.5346 46 36.9589 46Z" fill="#35246F"/>
<path d="M14.1141 40.3006C14.0266 40.3006 13.9381 40.2903 13.8517 40.2708C13.5498 40.2 13.3 40.0138 13.1698 39.7604L10.059 33.7443C9.5416 32.7432 9.84456 31.553 10.7961 30.8508L11.9486 30.0006C12.3557 29.7016 12.9491 29.7193 13.3312 30.0462L19.7318 35.525C19.9546 35.7159 20.0712 35.9859 20.0515 36.2616C20.0296 36.5373 19.8734 36.7896 19.6225 36.9517L14.7263 40.1236C14.5451 40.2401 14.3306 40.3006 14.1141 40.3006ZM12.5587 31.9637L12.1204 32.2878C11.8986 32.4517 11.8278 32.7302 11.9486 32.9639L14.5284 37.9519L17.3894 36.0986L12.5587 31.9637Z" fill="#35246F"/>
<path d="M23.9056 40.3004C23.688 40.3004 23.4746 40.2399 23.2945 40.1235L18.3992 36.9515C18.1494 36.7895 17.9922 36.5371 17.9713 36.2614C17.9495 35.9858 18.0671 35.7157 18.2899 35.5248L24.6895 30.046C25.0706 29.7182 25.6661 29.6996 26.0711 30.0004L27.2246 30.8507C28.1772 31.5547 28.4791 32.744 27.9607 33.7442L24.8499 39.7603C24.7197 40.0127 24.4699 40.1999 24.169 40.2706C24.0815 40.2902 23.993 40.3004 23.9056 40.3004ZM20.6313 36.0975L23.4912 37.9508L26.0721 32.9619C26.1929 32.7281 26.1221 32.4506 25.9003 32.2858L25.462 31.9626L20.6313 36.0975Z" fill="#35246F"/>
<path d="M19.9546 41.9936H18.0494C17.1395 41.9936 16.3274 41.4767 16.0286 40.7075L15.126 38.3821L17.0936 37.7711L17.9963 40.0966L19.9546 40.131L20.928 37.7665L22.8926 38.3867L21.9722 40.7177C21.6703 41.4805 20.8593 41.9936 19.9546 41.9936Z" fill="#35246F"/>
<path d="M16.1057 46C16.0172 46 15.9277 45.9897 15.8381 45.9693C15.2822 45.837 14.9511 45.3276 15.0989 44.8294L16.2879 40.822C16.4357 40.3257 17.0073 40.0304 17.5611 40.1608C18.1171 40.2931 18.4481 40.8025 18.3003 41.3007L17.1114 45.308C16.9875 45.7243 16.5669 46 16.1057 46Z" fill="#35246F"/>
<path d="M21.8931 45.9999C21.433 45.9999 21.0113 45.7243 20.8874 45.308L19.6985 41.3007C19.5507 40.8034 19.8828 40.293 20.4377 40.1608C20.9926 40.0295 21.5631 40.3256 21.712 40.822L22.9009 44.8293C23.0487 45.3266 22.7166 45.837 22.1617 45.9692C22.0722 45.9906 21.9816 45.9999 21.8931 45.9999Z" fill="#35246F"/>
<path d="M7.74666 46C7.17198 46 6.70557 45.5837 6.70557 45.0687V43.0115C6.70557 42.4965 7.17198 42.0802 7.74666 42.0802C8.32135 42.0802 8.78776 42.4965 8.78776 43.0115V45.0687C8.78776 45.5837 8.32135 46 7.74666 46Z" fill="#35246F"/>
<path d="M30.2533 46C29.6775 46 29.2122 45.5837 29.2122 45.0687V43.0115C29.2122 42.4965 29.6775 42.0802 30.2533 42.0802C30.829 42.0802 31.2943 42.4965 31.2943 43.0115V45.0687C31.2943 45.5837 30.8279 46 30.2533 46Z" fill="#35246F"/>
<path d="M19.7694 45.064C19.5029 45.064 19.2363 44.9728 19.0333 44.7912C18.6263 44.427 18.6263 43.8385 19.0333 43.4743L20.1015 42.5188C20.5086 42.1547 21.1665 42.1547 21.5736 42.5188C21.9807 42.883 21.9807 43.4715 21.5736 43.8357L20.5054 44.7912C20.3024 44.9737 20.0359 45.064 19.7694 45.064Z" fill="#35246F"/>
<path d="M22.4272 29.1772H15.5934C14.4451 29.1772 13.5112 28.3418 13.5112 27.3146V24.8728H15.5934V27.3146H22.4272V24.8728H24.5094V27.3146C24.5094 28.3409 23.5755 29.1772 22.4272 29.1772Z" fill="#35246F"/>
<path d="M24.1493 25.8042H21.7548C21.1791 25.8042 20.7137 25.3879 20.7137 24.8729C20.7137 24.3579 21.1791 23.9416 21.7548 23.9416H23.4518C23.5903 22.0949 24.3201 20.3496 25.5413 18.9713C26.7167 17.6442 27.3382 16.0471 27.3382 14.3521C27.3382 12.2726 26.4043 10.342 24.7074 8.91901C23.0114 7.496 20.7939 6.78171 18.4618 6.91861C14.3859 7.15143 11.0544 10.0692 10.7129 13.7058C10.538 15.5665 11.1335 17.4012 12.3901 18.8698C13.6998 20.4018 14.4484 22.1451 14.5733 23.9425H17.9694C18.5441 23.9425 19.0105 24.3588 19.0105 24.8738C19.0105 25.3888 18.5441 25.8051 17.9694 25.8051H13.8706C13.12 25.8051 12.5099 25.2594 12.5099 24.5879V24.4808C12.5099 22.9069 11.8967 21.3573 10.7358 20.0004C9.16379 18.163 8.41837 15.8711 8.637 13.5475C9.06489 8.9991 13.2314 5.34939 18.3286 5.0579C21.2415 4.89306 24.0119 5.78057 26.1316 7.55933C28.2221 9.31294 29.4204 11.7892 29.4204 14.3512C29.4204 16.4708 28.6437 18.4675 27.1748 20.128C26.1014 21.3387 25.51 22.9228 25.51 24.5879C25.51 25.2584 24.9 25.8042 24.1493 25.8042Z" fill="#35246F"/>
<path d="M13.4416 14.9909C13.4125 14.9909 13.3833 14.99 13.3531 14.9881C12.7805 14.9453 12.3547 14.4945 12.4026 13.9814C12.6754 11.0832 15.3302 8.75874 18.5773 8.57248C19.1354 8.53058 19.6455 8.92917 19.683 9.44324C19.7194 9.95638 19.2842 10.3987 18.7096 10.4323C16.4837 10.5589 14.6649 12.1524 14.4785 14.1379C14.4317 14.6231 13.9767 14.9909 13.4416 14.9909Z" fill="#35246F"/>
<path d="M20.316 31.8015H17.7049C17.1302 31.8015 16.6638 31.3853 16.6638 30.8703C16.6638 30.3553 17.1302 29.939 17.7049 29.939H20.316C20.8917 29.939 21.3571 30.3553 21.3571 30.8703C21.3571 31.3853 20.8907 31.8015 20.316 31.8015Z" fill="#35246F"/>
<path d="M18.9791 3.41875C18.4044 3.41875 17.938 3.00154 17.938 2.48747V0.931287C17.938 0.417217 18.4044 0 18.9791 0C19.5538 0 20.0202 0.417217 20.0202 0.931287V2.48747C20.0202 3.00154 19.5538 3.41875 18.9791 3.41875Z" fill="#35246F"/>
<path d="M5.65943 16.1439H3.91976C3.34507 16.1439 2.87866 15.7267 2.87866 15.2127C2.87866 14.6986 3.34507 14.2814 3.91976 14.2814H5.65943C6.23411 14.2814 6.70053 14.6986 6.70053 15.2127C6.70053 15.7267 6.23411 16.1439 5.65943 16.1439Z" fill="#35246F"/>
<path d="M33.97 16.1439H32.2303C31.6546 16.1439 31.1892 15.7267 31.1892 15.2127C31.1892 14.6986 31.6546 14.2814 32.2303 14.2814H33.97C34.5457 14.2814 35.0111 14.6986 35.0111 15.2127C35.0111 15.7267 34.5457 16.1439 33.97 16.1439Z" fill="#35246F"/>
<path d="M8.03316 8.30807C7.76664 8.30807 7.50012 8.2168 7.29711 8.0352L6.06653 6.93442C5.65946 6.57029 5.65946 5.98172 6.06653 5.61758C6.4736 5.25345 7.13157 5.25345 7.53864 5.61758L8.76922 6.71836C9.17629 7.0825 9.17629 7.67107 8.76922 8.0352C8.5662 8.2168 8.29968 8.30807 8.03316 8.30807Z" fill="#35246F"/>
<path d="M29.9876 8.30807C29.7211 8.30807 29.4546 8.2168 29.2516 8.0352C28.8445 7.67107 28.8445 7.0825 29.2516 6.71836L30.4822 5.61758C30.8892 5.25345 31.5472 5.25345 31.9543 5.61758C32.3613 5.98172 32.3613 6.57029 31.9543 6.93442L30.7237 8.0352C30.5196 8.2168 30.2542 8.30807 29.9876 8.30807Z" fill="#35246F"/>
<path d="M6.80259 24.0282C6.53607 24.0282 6.26955 23.9369 6.06653 23.7553C5.65946 23.3921 5.65946 22.8026 6.06653 22.4385L7.29711 21.3377C7.70314 20.9735 8.36215 20.9735 8.76922 21.3377C9.17629 21.7009 9.17629 22.2904 8.76922 22.6545L7.53864 23.7553C7.33563 23.9378 7.06911 24.0282 6.80259 24.0282Z" fill="#35246F"/>
<path d="M31.2172 24.0282C30.9507 24.0282 30.6842 23.9369 30.4812 23.7553L29.2506 22.6545C28.8435 22.2904 28.8435 21.7009 29.2506 21.3377C29.6577 20.9735 30.3157 20.9735 30.7227 21.3377L31.9533 22.4385C32.3604 22.8026 32.3604 23.3921 31.9533 23.7553C31.7503 23.9378 31.4838 24.0282 31.2172 24.0282Z" fill="#35246F"/>
</svg>
