<svg width="46" height="40" viewBox="0 0 46 40" fill="none" xmlns="http://www.w3.org/2000/svg">
<path d="M26.945 27.8783C26.4374 27.8783 26.0099 27.4433 25.9728 26.8716C25.9338 26.274 26.3379 25.7555 26.8757 25.7121C32.8096 25.2326 38.5844 23.6685 44.0477 21.0619V8.48462C44.0477 7.88694 43.6104 7.3999 43.0716 7.3999H2.92838C2.39054 7.3999 1.95225 7.88694 1.95225 8.48462V21.0619C6.49906 23.2303 11.287 24.6827 16.194 25.3834C16.7289 25.4593 17.1066 26.0039 17.0373 26.5972C16.969 27.1927 16.4839 27.5995 15.945 27.5355C10.6408 26.7784 5.47217 25.1719 0.580796 22.7638C0.228414 22.5903 0 22.2009 0 21.7724V8.48462C0 6.6905 1.31387 5.23047 2.92838 5.23047H43.0716C44.6861 5.23047 46 6.6905 46 8.48462V21.7724C46 22.2019 45.7726 22.5903 45.4192 22.7638C39.579 25.6405 33.3875 27.3609 27.0163 27.875C26.9929 27.8772 26.9684 27.8783 26.945 27.8783Z" fill="#35246F"/>
<path d="M40.0963 40H5.90256C3.74922 40 1.99805 38.054 1.99805 35.6611V23.3398C1.99805 22.74 2.43535 22.2551 2.97417 22.2551C3.513 22.2551 3.9503 22.74 3.9503 23.3398V35.6611C3.9503 36.8576 4.82589 37.8306 5.90256 37.8306H40.0953C41.172 37.8306 42.0476 36.8576 42.0476 35.6611V27.1157C42.0476 26.5159 42.4839 26.031 43.0237 26.031C43.5635 26.031 43.9998 26.5159 43.9998 27.1157V35.6611C44.0008 38.0551 42.2496 40 40.0963 40Z" fill="#35246F"/>
<path d="M16.3736 6.71223C15.8348 6.71223 15.3975 6.22627 15.3975 5.62751V2.16943C15.3975 0.972991 16.273 0 17.3497 0H28.6494C29.726 0 30.6016 0.972991 30.6016 2.16943V2.94284C30.6016 3.5416 30.1653 4.02755 29.6255 4.02755C29.0857 4.02755 28.6494 3.5416 28.6494 2.94284V2.16943H17.3497V5.62751C17.3497 6.22627 16.9134 6.71223 16.3736 6.71223Z" fill="#35246F"/>
<path d="M25.4945 30.9784H20.5055C19.4288 30.9784 18.5532 30.0054 18.5532 28.8089V25.0959C18.5532 23.8995 19.4288 22.9265 20.5055 22.9265H25.4945C26.5711 22.9265 27.4467 23.8995 27.4467 25.0959V28.8089C27.4467 30.0054 26.5702 30.9784 25.4945 30.9784ZM20.5045 25.0959V28.8089H25.4954L25.4935 25.0959H20.5045Z" fill="#35246F"/>
</svg>
